%TF.GenerationSoftware,KiCad,Pcbnew,(5.1.9)-1*%
%TF.CreationDate,2021-03-27T15:00:32-04:00*%
%TF.ProjectId,Power,506f7765-722e-46b6-9963-61645f706362,rev?*%
%TF.SameCoordinates,Original*%
%TF.FileFunction,Soldermask,Bot*%
%TF.FilePolarity,Negative*%
%FSLAX46Y46*%
G04 Gerber Fmt 4.6, Leading zero omitted, Abs format (unit mm)*
G04 Created by KiCad (PCBNEW (5.1.9)-1) date 2021-03-27 15:00:32*
%MOMM*%
%LPD*%
G01*
G04 APERTURE LIST*
%ADD10C,6.400000*%
%ADD11C,3.200000*%
%ADD12C,2.500000*%
%ADD13C,3.000000*%
%ADD14R,3.000000X3.000000*%
%ADD15R,2.500000X2.500000*%
%ADD16R,2.300000X2.300000*%
%ADD17C,2.300000*%
%ADD18C,1.100000*%
%ADD19C,2.200000*%
%ADD20R,2.200000X2.200000*%
%ADD21R,1.700000X1.700000*%
%ADD22O,1.700000X1.700000*%
%ADD23R,2.000000X3.000000*%
%ADD24O,2.000000X3.000000*%
%ADD25O,3.000000X2.000000*%
%ADD26R,2.000000X2.000000*%
%ADD27C,2.000000*%
G04 APERTURE END LIST*
D10*
%TO.C,H4*%
X165100000Y-177800000D03*
%TD*%
D11*
%TO.C,REF\u002A\u002A*%
X154940000Y-175260000D03*
%TD*%
%TO.C,REF\u002A\u002A*%
X84940000Y-175260000D03*
%TD*%
%TO.C,REF\u002A\u002A*%
X84940000Y-90260000D03*
%TD*%
%TO.C,REF\u002A\u002A*%
X154940000Y-90260000D03*
%TD*%
D12*
%TO.C,FL1*%
X107950000Y-104140000D03*
X107950000Y-111760000D03*
X107950000Y-121920000D03*
X107950000Y-129540000D03*
G36*
G01*
X109200000Y-136535000D02*
X109200000Y-137785000D01*
G75*
G02*
X108575000Y-138410000I-625000J0D01*
G01*
X107325000Y-138410000D01*
G75*
G02*
X106700000Y-137785000I0J625000D01*
G01*
X106700000Y-136535000D01*
G75*
G02*
X107325000Y-135910000I625000J0D01*
G01*
X108575000Y-135910000D01*
G75*
G02*
X109200000Y-136535000I0J-625000D01*
G01*
G37*
%TD*%
%TO.C,FL2*%
G36*
G01*
X146030000Y-161700000D02*
X146030000Y-162950000D01*
G75*
G02*
X145405000Y-163575000I-625000J0D01*
G01*
X144155000Y-163575000D01*
G75*
G02*
X143530000Y-162950000I0J625000D01*
G01*
X143530000Y-161700000D01*
G75*
G02*
X144155000Y-161075000I625000J0D01*
G01*
X145405000Y-161075000D01*
G75*
G02*
X146030000Y-161700000I0J-625000D01*
G01*
G37*
X144780000Y-154705000D03*
X144780000Y-147085000D03*
X144780000Y-136925000D03*
X144780000Y-129305000D03*
%TD*%
D13*
%TO.C,J1*%
X81280000Y-111760000D03*
X81280000Y-106680000D03*
D14*
X81280000Y-101600000D03*
%TD*%
%TO.C,J2*%
X81280000Y-124460000D03*
D13*
X81280000Y-129540000D03*
X81280000Y-134620000D03*
%TD*%
D15*
%TO.C,J3*%
X81880000Y-156210000D03*
D12*
X81880000Y-151210000D03*
%TD*%
D16*
%TO.C,J4*%
X81480000Y-162560000D03*
D17*
X81480000Y-166060000D03*
%TD*%
%TO.C,J5*%
X79050000Y-25400000D03*
D16*
X82550000Y-25400000D03*
%TD*%
D17*
%TO.C,J6*%
X80010000Y-44760000D03*
D16*
X80010000Y-48260000D03*
%TD*%
D18*
%TO.C,J7*%
X77470000Y-62230000D03*
D19*
X80010000Y-62230000D03*
D18*
X77470000Y-59690000D03*
D20*
X80010000Y-59690000D03*
%TD*%
%TO.C,J8*%
X80010000Y-67310000D03*
D18*
X77470000Y-67310000D03*
D19*
X80010000Y-69850000D03*
D18*
X77470000Y-69850000D03*
%TD*%
D16*
%TO.C,J9*%
X92665714Y-25400000D03*
D17*
X89165714Y-25400000D03*
%TD*%
D16*
%TO.C,J10*%
X102781428Y-25400000D03*
D17*
X99281428Y-25400000D03*
%TD*%
%TO.C,J11*%
X109397142Y-25400000D03*
D16*
X112897142Y-25400000D03*
%TD*%
D17*
%TO.C,J12*%
X123322856Y-25400000D03*
D16*
X126822856Y-25400000D03*
%TD*%
%TO.C,J13*%
X136938570Y-25400000D03*
D17*
X133438570Y-25400000D03*
%TD*%
%TO.C,J14*%
X143554284Y-25400000D03*
D16*
X147054284Y-25400000D03*
%TD*%
%TO.C,J15*%
X157170000Y-25400000D03*
D17*
X153670000Y-25400000D03*
%TD*%
D21*
%TO.C,JP1*%
X95250000Y-66040000D03*
D22*
X95250000Y-63500000D03*
X95250000Y-60960000D03*
%TD*%
%TO.C,JP2*%
X99060000Y-60960000D03*
X99060000Y-63500000D03*
D21*
X99060000Y-66040000D03*
%TD*%
%TO.C,JP3*%
X102870000Y-66040000D03*
D22*
X102870000Y-63500000D03*
X102870000Y-60960000D03*
%TD*%
%TO.C,JP4*%
X106680000Y-60960000D03*
X106680000Y-63500000D03*
D21*
X106680000Y-66040000D03*
%TD*%
D22*
%TO.C,JP5*%
X110490000Y-60960000D03*
X110490000Y-63500000D03*
D21*
X110490000Y-66040000D03*
%TD*%
%TO.C,JP6*%
X114300000Y-66040000D03*
D22*
X114300000Y-63500000D03*
X114300000Y-60960000D03*
%TD*%
D23*
%TO.C,K1*%
X139820000Y-88900000D03*
D24*
X147320000Y-88900000D03*
D25*
X139820000Y-109200000D03*
X147320000Y-114240000D03*
X147320000Y-109200000D03*
X139820000Y-114240000D03*
%TD*%
D26*
%TO.C,RLY1*%
X137160000Y-63500000D03*
D27*
X137160000Y-55880000D03*
X144780000Y-63500000D03*
X149860000Y-63500000D03*
X154940000Y-63500000D03*
X144780000Y-55880000D03*
X149860000Y-55880000D03*
X154940000Y-55880000D03*
%TD*%
D12*
%TO.C,F1*%
X105410000Y-43180000D03*
X120410000Y-43180000D03*
%TD*%
%TO.C,F2*%
X104380000Y-151130000D03*
X119380000Y-151130000D03*
%TD*%
%TO.C,F3*%
X119140000Y-163830000D03*
X104140000Y-163830000D03*
%TD*%
D10*
%TO.C,H1*%
X69850000Y-17780000D03*
%TD*%
%TO.C,H2*%
X165100000Y-17780000D03*
%TD*%
%TO.C,H3*%
X69850000Y-177800000D03*
%TD*%
M02*
