%TF.GenerationSoftware,KiCad,Pcbnew,(5.1.9)-1*%
%TF.CreationDate,2021-03-27T15:00:31-04:00*%
%TF.ProjectId,Power,506f7765-722e-46b6-9963-61645f706362,rev?*%
%TF.SameCoordinates,Original*%
%TF.FileFunction,Copper,L1,Top*%
%TF.FilePolarity,Positive*%
%FSLAX46Y46*%
G04 Gerber Fmt 4.6, Leading zero omitted, Abs format (unit mm)*
G04 Created by KiCad (PCBNEW (5.1.9)-1) date 2021-03-27 15:00:31*
%MOMM*%
%LPD*%
G01*
G04 APERTURE LIST*
%TA.AperFunction,ComponentPad*%
%ADD10C,6.400000*%
%TD*%
%TA.AperFunction,SMDPad,CuDef*%
%ADD11R,2.500000X1.800000*%
%TD*%
%TA.AperFunction,SMDPad,CuDef*%
%ADD12R,1.800000X2.500000*%
%TD*%
%TA.AperFunction,ComponentPad*%
%ADD13C,2.500000*%
%TD*%
%TA.AperFunction,ComponentPad*%
%ADD14C,3.000000*%
%TD*%
%TA.AperFunction,ComponentPad*%
%ADD15R,3.000000X3.000000*%
%TD*%
%TA.AperFunction,ComponentPad*%
%ADD16R,2.500000X2.500000*%
%TD*%
%TA.AperFunction,ComponentPad*%
%ADD17R,2.300000X2.300000*%
%TD*%
%TA.AperFunction,ComponentPad*%
%ADD18C,2.300000*%
%TD*%
%TA.AperFunction,ComponentPad*%
%ADD19C,2.200000*%
%TD*%
%TA.AperFunction,ComponentPad*%
%ADD20R,2.200000X2.200000*%
%TD*%
%TA.AperFunction,ComponentPad*%
%ADD21R,1.700000X1.700000*%
%TD*%
%TA.AperFunction,ComponentPad*%
%ADD22O,1.700000X1.700000*%
%TD*%
%TA.AperFunction,ComponentPad*%
%ADD23R,2.000000X3.000000*%
%TD*%
%TA.AperFunction,ComponentPad*%
%ADD24O,2.000000X3.000000*%
%TD*%
%TA.AperFunction,ComponentPad*%
%ADD25O,3.000000X2.000000*%
%TD*%
%TA.AperFunction,SMDPad,CuDef*%
%ADD26R,3.800000X2.000000*%
%TD*%
%TA.AperFunction,SMDPad,CuDef*%
%ADD27R,1.500000X2.000000*%
%TD*%
%TA.AperFunction,ComponentPad*%
%ADD28R,2.000000X2.000000*%
%TD*%
%TA.AperFunction,ComponentPad*%
%ADD29C,2.000000*%
%TD*%
%TA.AperFunction,SMDPad,CuDef*%
%ADD30R,0.950000X0.900000*%
%TD*%
%TA.AperFunction,SMDPad,CuDef*%
%ADD31R,0.900000X0.950000*%
%TD*%
%TA.AperFunction,ViaPad*%
%ADD32C,0.800000*%
%TD*%
%TA.AperFunction,ViaPad*%
%ADD33C,4.000000*%
%TD*%
%TA.AperFunction,Conductor*%
%ADD34C,0.250000*%
%TD*%
%TA.AperFunction,Conductor*%
%ADD35C,1.000000*%
%TD*%
%TA.AperFunction,Conductor*%
%ADD36C,3.000000*%
%TD*%
%TA.AperFunction,Conductor*%
%ADD37C,4.000000*%
%TD*%
%TA.AperFunction,Conductor*%
%ADD38C,0.500000*%
%TD*%
G04 APERTURE END LIST*
D10*
%TO.P,H4,1*%
%TO.N,Earth_Protective*%
X165100000Y-177800000D03*
%TD*%
%TO.P,C1,2*%
%TO.N,GND*%
%TA.AperFunction,SMDPad,CuDef*%
G36*
G01*
X95080000Y-85340000D02*
X95080000Y-84840000D01*
G75*
G02*
X95305000Y-84615000I225000J0D01*
G01*
X95755000Y-84615000D01*
G75*
G02*
X95980000Y-84840000I0J-225000D01*
G01*
X95980000Y-85340000D01*
G75*
G02*
X95755000Y-85565000I-225000J0D01*
G01*
X95305000Y-85565000D01*
G75*
G02*
X95080000Y-85340000I0J225000D01*
G01*
G37*
%TD.AperFunction*%
%TO.P,C1,1*%
%TO.N,LDO_ON_IN*%
%TA.AperFunction,SMDPad,CuDef*%
G36*
G01*
X93530000Y-85340000D02*
X93530000Y-84840000D01*
G75*
G02*
X93755000Y-84615000I225000J0D01*
G01*
X94205000Y-84615000D01*
G75*
G02*
X94430000Y-84840000I0J-225000D01*
G01*
X94430000Y-85340000D01*
G75*
G02*
X94205000Y-85565000I-225000J0D01*
G01*
X93755000Y-85565000D01*
G75*
G02*
X93530000Y-85340000I0J225000D01*
G01*
G37*
%TD.AperFunction*%
%TD*%
%TO.P,C2,2*%
%TO.N,GND*%
%TA.AperFunction,SMDPad,CuDef*%
G36*
G01*
X103970000Y-85340000D02*
X103970000Y-84840000D01*
G75*
G02*
X104195000Y-84615000I225000J0D01*
G01*
X104645000Y-84615000D01*
G75*
G02*
X104870000Y-84840000I0J-225000D01*
G01*
X104870000Y-85340000D01*
G75*
G02*
X104645000Y-85565000I-225000J0D01*
G01*
X104195000Y-85565000D01*
G75*
G02*
X103970000Y-85340000I0J225000D01*
G01*
G37*
%TD.AperFunction*%
%TO.P,C2,1*%
%TO.N,LDO_OFF_IN*%
%TA.AperFunction,SMDPad,CuDef*%
G36*
G01*
X102420000Y-85340000D02*
X102420000Y-84840000D01*
G75*
G02*
X102645000Y-84615000I225000J0D01*
G01*
X103095000Y-84615000D01*
G75*
G02*
X103320000Y-84840000I0J-225000D01*
G01*
X103320000Y-85340000D01*
G75*
G02*
X103095000Y-85565000I-225000J0D01*
G01*
X102645000Y-85565000D01*
G75*
G02*
X102420000Y-85340000I0J225000D01*
G01*
G37*
%TD.AperFunction*%
%TD*%
%TO.P,C3,1*%
%TO.N,LDO_AC_IN*%
%TA.AperFunction,SMDPad,CuDef*%
G36*
G01*
X111030000Y-85340000D02*
X111030000Y-84840000D01*
G75*
G02*
X111255000Y-84615000I225000J0D01*
G01*
X111705000Y-84615000D01*
G75*
G02*
X111930000Y-84840000I0J-225000D01*
G01*
X111930000Y-85340000D01*
G75*
G02*
X111705000Y-85565000I-225000J0D01*
G01*
X111255000Y-85565000D01*
G75*
G02*
X111030000Y-85340000I0J225000D01*
G01*
G37*
%TD.AperFunction*%
%TO.P,C3,2*%
%TO.N,GND*%
%TA.AperFunction,SMDPad,CuDef*%
G36*
G01*
X112580000Y-85340000D02*
X112580000Y-84840000D01*
G75*
G02*
X112805000Y-84615000I225000J0D01*
G01*
X113255000Y-84615000D01*
G75*
G02*
X113480000Y-84840000I0J-225000D01*
G01*
X113480000Y-85340000D01*
G75*
G02*
X113255000Y-85565000I-225000J0D01*
G01*
X112805000Y-85565000D01*
G75*
G02*
X112580000Y-85340000I0J225000D01*
G01*
G37*
%TD.AperFunction*%
%TD*%
%TO.P,D1,1*%
%TO.N,Net-(D1-Pad1)*%
%TA.AperFunction,SMDPad,CuDef*%
G36*
G01*
X90426250Y-36785000D02*
X89913750Y-36785000D01*
G75*
G02*
X89695000Y-36566250I0J218750D01*
G01*
X89695000Y-36128750D01*
G75*
G02*
X89913750Y-35910000I218750J0D01*
G01*
X90426250Y-35910000D01*
G75*
G02*
X90645000Y-36128750I0J-218750D01*
G01*
X90645000Y-36566250D01*
G75*
G02*
X90426250Y-36785000I-218750J0D01*
G01*
G37*
%TD.AperFunction*%
%TO.P,D1,2*%
%TO.N,DC_IN_+*%
%TA.AperFunction,SMDPad,CuDef*%
G36*
G01*
X90426250Y-35210000D02*
X89913750Y-35210000D01*
G75*
G02*
X89695000Y-34991250I0J218750D01*
G01*
X89695000Y-34553750D01*
G75*
G02*
X89913750Y-34335000I218750J0D01*
G01*
X90426250Y-34335000D01*
G75*
G02*
X90645000Y-34553750I0J-218750D01*
G01*
X90645000Y-34991250D01*
G75*
G02*
X90426250Y-35210000I-218750J0D01*
G01*
G37*
%TD.AperFunction*%
%TD*%
%TO.P,D2,2*%
%TO.N,DC_SW_+*%
%TA.AperFunction,SMDPad,CuDef*%
G36*
G01*
X143766250Y-34727500D02*
X143253750Y-34727500D01*
G75*
G02*
X143035000Y-34508750I0J218750D01*
G01*
X143035000Y-34071250D01*
G75*
G02*
X143253750Y-33852500I218750J0D01*
G01*
X143766250Y-33852500D01*
G75*
G02*
X143985000Y-34071250I0J-218750D01*
G01*
X143985000Y-34508750D01*
G75*
G02*
X143766250Y-34727500I-218750J0D01*
G01*
G37*
%TD.AperFunction*%
%TO.P,D2,1*%
%TO.N,Net-(D2-Pad1)*%
%TA.AperFunction,SMDPad,CuDef*%
G36*
G01*
X143766250Y-36302500D02*
X143253750Y-36302500D01*
G75*
G02*
X143035000Y-36083750I0J218750D01*
G01*
X143035000Y-35646250D01*
G75*
G02*
X143253750Y-35427500I218750J0D01*
G01*
X143766250Y-35427500D01*
G75*
G02*
X143985000Y-35646250I0J-218750D01*
G01*
X143985000Y-36083750D01*
G75*
G02*
X143766250Y-36302500I-218750J0D01*
G01*
G37*
%TD.AperFunction*%
%TD*%
D11*
%TO.P,D3,2*%
%TO.N,Latch_DC*%
X139700000Y-71120000D03*
%TO.P,D3,1*%
%TO.N,Net-(D3-Pad1)*%
X143700000Y-71120000D03*
%TD*%
D12*
%TO.P,D4,2*%
%TO.N,Net-(D4-Pad2)*%
X132842000Y-56642000D03*
%TO.P,D4,1*%
%TO.N,Net-(D4-Pad1)*%
X132842000Y-52642000D03*
%TD*%
D11*
%TO.P,D5,1*%
%TO.N,Coil_AC*%
X138176000Y-83566000D03*
%TO.P,D5,2*%
%TO.N,Net-(D5-Pad2)*%
X142176000Y-83566000D03*
%TD*%
D12*
%TO.P,D6,1*%
%TO.N,Net-(D4-Pad1)*%
X137160000Y-50990000D03*
%TO.P,D6,2*%
%TO.N,Coil_DC*%
X137160000Y-46990000D03*
%TD*%
%TO.P,D7,2*%
%TO.N,Net-(D4-Pad1)*%
%TA.AperFunction,SMDPad,CuDef*%
G36*
G01*
X130553750Y-47822500D02*
X131066250Y-47822500D01*
G75*
G02*
X131285000Y-48041250I0J-218750D01*
G01*
X131285000Y-48478750D01*
G75*
G02*
X131066250Y-48697500I-218750J0D01*
G01*
X130553750Y-48697500D01*
G75*
G02*
X130335000Y-48478750I0J218750D01*
G01*
X130335000Y-48041250D01*
G75*
G02*
X130553750Y-47822500I218750J0D01*
G01*
G37*
%TD.AperFunction*%
%TO.P,D7,1*%
%TO.N,Net-(D7-Pad1)*%
%TA.AperFunction,SMDPad,CuDef*%
G36*
G01*
X130553750Y-46247500D02*
X131066250Y-46247500D01*
G75*
G02*
X131285000Y-46466250I0J-218750D01*
G01*
X131285000Y-46903750D01*
G75*
G02*
X131066250Y-47122500I-218750J0D01*
G01*
X130553750Y-47122500D01*
G75*
G02*
X130335000Y-46903750I0J218750D01*
G01*
X130335000Y-46466250D01*
G75*
G02*
X130553750Y-46247500I218750J0D01*
G01*
G37*
%TD.AperFunction*%
%TD*%
%TO.P,D8,1*%
%TO.N,Net-(D8-Pad1)*%
%TA.AperFunction,SMDPad,CuDef*%
G36*
G01*
X135362500Y-82293750D02*
X135362500Y-82806250D01*
G75*
G02*
X135143750Y-83025000I-218750J0D01*
G01*
X134706250Y-83025000D01*
G75*
G02*
X134487500Y-82806250I0J218750D01*
G01*
X134487500Y-82293750D01*
G75*
G02*
X134706250Y-82075000I218750J0D01*
G01*
X135143750Y-82075000D01*
G75*
G02*
X135362500Y-82293750I0J-218750D01*
G01*
G37*
%TD.AperFunction*%
%TO.P,D8,2*%
%TO.N,Coil_AC*%
%TA.AperFunction,SMDPad,CuDef*%
G36*
G01*
X133787500Y-82293750D02*
X133787500Y-82806250D01*
G75*
G02*
X133568750Y-83025000I-218750J0D01*
G01*
X133131250Y-83025000D01*
G75*
G02*
X132912500Y-82806250I0J218750D01*
G01*
X132912500Y-82293750D01*
G75*
G02*
X133131250Y-82075000I218750J0D01*
G01*
X133568750Y-82075000D01*
G75*
G02*
X133787500Y-82293750I0J-218750D01*
G01*
G37*
%TD.AperFunction*%
%TD*%
D13*
%TO.P,FL1,5*%
%TO.N,Line_DC_PWR*%
X107950000Y-104140000D03*
%TO.P,FL1,4*%
%TO.N,Neut_DC_PWR*%
X107950000Y-111760000D03*
%TO.P,FL1,3*%
%TO.N,Earth_Protective*%
X107950000Y-121920000D03*
%TO.P,FL1,2*%
%TO.N,Neut_IN*%
X107950000Y-129540000D03*
%TO.P,FL1,1*%
%TO.N,Line_IN*%
%TA.AperFunction,ComponentPad*%
G36*
G01*
X109200000Y-136535000D02*
X109200000Y-137785000D01*
G75*
G02*
X108575000Y-138410000I-625000J0D01*
G01*
X107325000Y-138410000D01*
G75*
G02*
X106700000Y-137785000I0J625000D01*
G01*
X106700000Y-136535000D01*
G75*
G02*
X107325000Y-135910000I625000J0D01*
G01*
X108575000Y-135910000D01*
G75*
G02*
X109200000Y-136535000I0J-625000D01*
G01*
G37*
%TD.AperFunction*%
%TD*%
%TO.P,FL2,1*%
%TO.N,Line_Servo*%
%TA.AperFunction,ComponentPad*%
G36*
G01*
X146030000Y-161700000D02*
X146030000Y-162950000D01*
G75*
G02*
X145405000Y-163575000I-625000J0D01*
G01*
X144155000Y-163575000D01*
G75*
G02*
X143530000Y-162950000I0J625000D01*
G01*
X143530000Y-161700000D01*
G75*
G02*
X144155000Y-161075000I625000J0D01*
G01*
X145405000Y-161075000D01*
G75*
G02*
X146030000Y-161700000I0J-625000D01*
G01*
G37*
%TD.AperFunction*%
%TO.P,FL2,2*%
%TO.N,Neut_Servo*%
X144780000Y-154705000D03*
%TO.P,FL2,3*%
%TO.N,Earth_Protective*%
X144780000Y-147085000D03*
%TO.P,FL2,4*%
%TO.N,Neut_Fuse*%
X144780000Y-136925000D03*
%TO.P,FL2,5*%
%TO.N,LIne_Fuse*%
X144780000Y-129305000D03*
%TD*%
D14*
%TO.P,J1,3*%
%TO.N,Earth_Protective*%
X81280000Y-111760000D03*
%TO.P,J1,2*%
%TO.N,Neut_DC_PWR*%
X81280000Y-106680000D03*
D15*
%TO.P,J1,1*%
%TO.N,Line_DC_PWR*%
X81280000Y-101600000D03*
%TD*%
%TO.P,J2,1*%
%TO.N,Line_IN*%
X81280000Y-124460000D03*
D14*
%TO.P,J2,2*%
%TO.N,Neut_IN*%
X81280000Y-129540000D03*
%TO.P,J2,3*%
%TO.N,Earth_Protective*%
X81280000Y-134620000D03*
%TD*%
D16*
%TO.P,J3,1*%
%TO.N,Line_Servo*%
X81880000Y-156210000D03*
D13*
%TO.P,J3,2*%
%TO.N,Neut_Servo*%
X81880000Y-151210000D03*
%TD*%
D17*
%TO.P,J4,1*%
%TO.N,LIne_Logic*%
X81480000Y-162560000D03*
D18*
%TO.P,J4,2*%
%TO.N,Neut_Logic*%
X81480000Y-166060000D03*
%TD*%
%TO.P,J5,2*%
%TO.N,GND*%
X79050000Y-25400000D03*
D17*
%TO.P,J5,1*%
%TO.N,DC_IN_+*%
X82550000Y-25400000D03*
%TD*%
D18*
%TO.P,J6,2*%
%TO.N,GND*%
X80010000Y-44760000D03*
D17*
%TO.P,J6,1*%
%TO.N,Net-(J6-Pad1)*%
X80010000Y-48260000D03*
%TD*%
D19*
%TO.P,J7,2*%
%TO.N,SW_OFF*%
X80010000Y-62230000D03*
D20*
%TO.P,J7,1*%
%TO.N,SW_ON*%
X80010000Y-59690000D03*
%TD*%
%TO.P,J8,1*%
%TO.N,ESD_+*%
X80010000Y-67310000D03*
D19*
%TO.P,J8,2*%
%TO.N,ESD_-*%
X80010000Y-69850000D03*
%TD*%
D17*
%TO.P,J9,1*%
%TO.N,DC_IN_+*%
X92665714Y-25400000D03*
D18*
%TO.P,J9,2*%
%TO.N,GND*%
X89165714Y-25400000D03*
%TD*%
D17*
%TO.P,J10,1*%
%TO.N,DC_IN_+*%
X102781428Y-25400000D03*
D18*
%TO.P,J10,2*%
%TO.N,GND*%
X99281428Y-25400000D03*
%TD*%
%TO.P,J11,2*%
%TO.N,GND*%
X109397142Y-25400000D03*
D17*
%TO.P,J11,1*%
%TO.N,DC_IN_+*%
X112897142Y-25400000D03*
%TD*%
D18*
%TO.P,J12,2*%
%TO.N,GND*%
X123322856Y-25400000D03*
D17*
%TO.P,J12,1*%
%TO.N,DC_SW_+*%
X126822856Y-25400000D03*
%TD*%
%TO.P,J13,1*%
%TO.N,DC_SW_+*%
X136938570Y-25400000D03*
D18*
%TO.P,J13,2*%
%TO.N,GND*%
X133438570Y-25400000D03*
%TD*%
%TO.P,J14,2*%
%TO.N,GND*%
X143554284Y-25400000D03*
D17*
%TO.P,J14,1*%
%TO.N,DC_SW_+*%
X147054284Y-25400000D03*
%TD*%
%TO.P,J15,1*%
%TO.N,DC_SW_+*%
X157170000Y-25400000D03*
D18*
%TO.P,J15,2*%
%TO.N,GND*%
X153670000Y-25400000D03*
%TD*%
D21*
%TO.P,JP1,1*%
%TO.N,LDO_ON_IN*%
X95250000Y-66040000D03*
D22*
%TO.P,JP1,2*%
%TO.N,SW_ON*%
X95250000Y-63500000D03*
%TO.P,JP1,3*%
%TO.N,Coil_DC*%
X95250000Y-60960000D03*
%TD*%
%TO.P,JP2,3*%
%TO.N,Net-(JP2-Pad3)*%
X99060000Y-60960000D03*
%TO.P,JP2,2*%
%TO.N,LDO_ON_OUT*%
X99060000Y-63500000D03*
D21*
%TO.P,JP2,1*%
%TO.N,Coil_DC*%
X99060000Y-66040000D03*
%TD*%
%TO.P,JP3,1*%
%TO.N,LDO_OFF_IN*%
X102870000Y-66040000D03*
D22*
%TO.P,JP3,2*%
%TO.N,SW_OFF*%
X102870000Y-63500000D03*
%TO.P,JP3,3*%
%TO.N,Latch_DC*%
X102870000Y-60960000D03*
%TD*%
%TO.P,JP4,3*%
%TO.N,Net-(JP4-Pad3)*%
X106680000Y-60960000D03*
%TO.P,JP4,2*%
%TO.N,LDO_OFF_OUT*%
X106680000Y-63500000D03*
D21*
%TO.P,JP4,1*%
%TO.N,Latch_DC*%
X106680000Y-66040000D03*
%TD*%
D22*
%TO.P,JP5,3*%
%TO.N,Coil_AC*%
X110490000Y-60960000D03*
%TO.P,JP5,2*%
%TO.N,ESD_+*%
X110490000Y-63500000D03*
D21*
%TO.P,JP5,1*%
%TO.N,LDO_AC_IN*%
X110490000Y-66040000D03*
%TD*%
%TO.P,JP6,1*%
%TO.N,Coil_AC*%
X114300000Y-66040000D03*
D22*
%TO.P,JP6,2*%
%TO.N,LDO_AC_OUT*%
X114300000Y-63500000D03*
%TO.P,JP6,3*%
%TO.N,Net-(JP6-Pad3)*%
X114300000Y-60960000D03*
%TD*%
D23*
%TO.P,K1,A1*%
%TO.N,Coil_AC*%
X139820000Y-88900000D03*
D24*
%TO.P,K1,A2*%
%TO.N,ESD_-*%
X147320000Y-88900000D03*
D25*
%TO.P,K1,11*%
%TO.N,Line_IN*%
X139820000Y-109200000D03*
%TO.P,K1,24*%
%TO.N,Neut_Servo*%
X147320000Y-114240000D03*
%TO.P,K1,21*%
%TO.N,Neut_IN*%
X147320000Y-109200000D03*
%TO.P,K1,14*%
%TO.N,Line_Servo*%
X139820000Y-114240000D03*
%TD*%
%TO.P,R1,2*%
%TO.N,GND*%
%TA.AperFunction,SMDPad,CuDef*%
G36*
G01*
X89895000Y-40240000D02*
X90445000Y-40240000D01*
G75*
G02*
X90645000Y-40440000I0J-200000D01*
G01*
X90645000Y-40840000D01*
G75*
G02*
X90445000Y-41040000I-200000J0D01*
G01*
X89895000Y-41040000D01*
G75*
G02*
X89695000Y-40840000I0J200000D01*
G01*
X89695000Y-40440000D01*
G75*
G02*
X89895000Y-40240000I200000J0D01*
G01*
G37*
%TD.AperFunction*%
%TO.P,R1,1*%
%TO.N,Net-(D1-Pad1)*%
%TA.AperFunction,SMDPad,CuDef*%
G36*
G01*
X89895000Y-38590000D02*
X90445000Y-38590000D01*
G75*
G02*
X90645000Y-38790000I0J-200000D01*
G01*
X90645000Y-39190000D01*
G75*
G02*
X90445000Y-39390000I-200000J0D01*
G01*
X89895000Y-39390000D01*
G75*
G02*
X89695000Y-39190000I0J200000D01*
G01*
X89695000Y-38790000D01*
G75*
G02*
X89895000Y-38590000I200000J0D01*
G01*
G37*
%TD.AperFunction*%
%TD*%
%TO.P,R2,1*%
%TO.N,Net-(D2-Pad1)*%
%TA.AperFunction,SMDPad,CuDef*%
G36*
G01*
X143235000Y-37320000D02*
X143785000Y-37320000D01*
G75*
G02*
X143985000Y-37520000I0J-200000D01*
G01*
X143985000Y-37920000D01*
G75*
G02*
X143785000Y-38120000I-200000J0D01*
G01*
X143235000Y-38120000D01*
G75*
G02*
X143035000Y-37920000I0J200000D01*
G01*
X143035000Y-37520000D01*
G75*
G02*
X143235000Y-37320000I200000J0D01*
G01*
G37*
%TD.AperFunction*%
%TO.P,R2,2*%
%TO.N,GND*%
%TA.AperFunction,SMDPad,CuDef*%
G36*
G01*
X143235000Y-38970000D02*
X143785000Y-38970000D01*
G75*
G02*
X143985000Y-39170000I0J-200000D01*
G01*
X143985000Y-39570000D01*
G75*
G02*
X143785000Y-39770000I-200000J0D01*
G01*
X143235000Y-39770000D01*
G75*
G02*
X143035000Y-39570000I0J200000D01*
G01*
X143035000Y-39170000D01*
G75*
G02*
X143235000Y-38970000I200000J0D01*
G01*
G37*
%TD.AperFunction*%
%TD*%
%TO.P,R3,2*%
%TO.N,GND*%
%TA.AperFunction,SMDPad,CuDef*%
G36*
G01*
X131085000Y-43580000D02*
X130535000Y-43580000D01*
G75*
G02*
X130335000Y-43380000I0J200000D01*
G01*
X130335000Y-42980000D01*
G75*
G02*
X130535000Y-42780000I200000J0D01*
G01*
X131085000Y-42780000D01*
G75*
G02*
X131285000Y-42980000I0J-200000D01*
G01*
X131285000Y-43380000D01*
G75*
G02*
X131085000Y-43580000I-200000J0D01*
G01*
G37*
%TD.AperFunction*%
%TO.P,R3,1*%
%TO.N,Net-(D7-Pad1)*%
%TA.AperFunction,SMDPad,CuDef*%
G36*
G01*
X131085000Y-45230000D02*
X130535000Y-45230000D01*
G75*
G02*
X130335000Y-45030000I0J200000D01*
G01*
X130335000Y-44630000D01*
G75*
G02*
X130535000Y-44430000I200000J0D01*
G01*
X131085000Y-44430000D01*
G75*
G02*
X131285000Y-44630000I0J-200000D01*
G01*
X131285000Y-45030000D01*
G75*
G02*
X131085000Y-45230000I-200000J0D01*
G01*
G37*
%TD.AperFunction*%
%TD*%
%TO.P,R4,1*%
%TO.N,Net-(D8-Pad1)*%
%TA.AperFunction,SMDPad,CuDef*%
G36*
G01*
X131210000Y-82275000D02*
X131210000Y-82825000D01*
G75*
G02*
X131010000Y-83025000I-200000J0D01*
G01*
X130610000Y-83025000D01*
G75*
G02*
X130410000Y-82825000I0J200000D01*
G01*
X130410000Y-82275000D01*
G75*
G02*
X130610000Y-82075000I200000J0D01*
G01*
X131010000Y-82075000D01*
G75*
G02*
X131210000Y-82275000I0J-200000D01*
G01*
G37*
%TD.AperFunction*%
%TO.P,R4,2*%
%TO.N,GND*%
%TA.AperFunction,SMDPad,CuDef*%
G36*
G01*
X129560000Y-82275000D02*
X129560000Y-82825000D01*
G75*
G02*
X129360000Y-83025000I-200000J0D01*
G01*
X128960000Y-83025000D01*
G75*
G02*
X128760000Y-82825000I0J200000D01*
G01*
X128760000Y-82275000D01*
G75*
G02*
X128960000Y-82075000I200000J0D01*
G01*
X129360000Y-82075000D01*
G75*
G02*
X129560000Y-82275000I0J-200000D01*
G01*
G37*
%TD.AperFunction*%
%TD*%
%TO.P,U2,1*%
%TO.N,Net-(F1-Pad1)*%
%TA.AperFunction,SMDPad,CuDef*%
G36*
G01*
X96075000Y-49380000D02*
X96075000Y-49680000D01*
G75*
G02*
X95925000Y-49830000I-150000J0D01*
G01*
X94575000Y-49830000D01*
G75*
G02*
X94425000Y-49680000I0J150000D01*
G01*
X94425000Y-49380000D01*
G75*
G02*
X94575000Y-49230000I150000J0D01*
G01*
X95925000Y-49230000D01*
G75*
G02*
X96075000Y-49380000I0J-150000D01*
G01*
G37*
%TD.AperFunction*%
%TO.P,U2,2*%
%TO.N,GND*%
%TA.AperFunction,SMDPad,CuDef*%
G36*
G01*
X96075000Y-48110000D02*
X96075000Y-48410000D01*
G75*
G02*
X95925000Y-48560000I-150000J0D01*
G01*
X94575000Y-48560000D01*
G75*
G02*
X94425000Y-48410000I0J150000D01*
G01*
X94425000Y-48110000D01*
G75*
G02*
X94575000Y-47960000I150000J0D01*
G01*
X95925000Y-47960000D01*
G75*
G02*
X96075000Y-48110000I0J-150000D01*
G01*
G37*
%TD.AperFunction*%
%TO.P,U2,3*%
%TO.N,N/C*%
%TA.AperFunction,SMDPad,CuDef*%
G36*
G01*
X96075000Y-46840000D02*
X96075000Y-47140000D01*
G75*
G02*
X95925000Y-47290000I-150000J0D01*
G01*
X94575000Y-47290000D01*
G75*
G02*
X94425000Y-47140000I0J150000D01*
G01*
X94425000Y-46840000D01*
G75*
G02*
X94575000Y-46690000I150000J0D01*
G01*
X95925000Y-46690000D01*
G75*
G02*
X96075000Y-46840000I0J-150000D01*
G01*
G37*
%TD.AperFunction*%
%TO.P,U2,4*%
%TA.AperFunction,SMDPad,CuDef*%
G36*
G01*
X96075000Y-45570000D02*
X96075000Y-45870000D01*
G75*
G02*
X95925000Y-46020000I-150000J0D01*
G01*
X94575000Y-46020000D01*
G75*
G02*
X94425000Y-45870000I0J150000D01*
G01*
X94425000Y-45570000D01*
G75*
G02*
X94575000Y-45420000I150000J0D01*
G01*
X95925000Y-45420000D01*
G75*
G02*
X96075000Y-45570000I0J-150000D01*
G01*
G37*
%TD.AperFunction*%
%TO.P,U2,5*%
%TA.AperFunction,SMDPad,CuDef*%
G36*
G01*
X90825000Y-45570000D02*
X90825000Y-45870000D01*
G75*
G02*
X90675000Y-46020000I-150000J0D01*
G01*
X89325000Y-46020000D01*
G75*
G02*
X89175000Y-45870000I0J150000D01*
G01*
X89175000Y-45570000D01*
G75*
G02*
X89325000Y-45420000I150000J0D01*
G01*
X90675000Y-45420000D01*
G75*
G02*
X90825000Y-45570000I0J-150000D01*
G01*
G37*
%TD.AperFunction*%
%TO.P,U2,6*%
%TA.AperFunction,SMDPad,CuDef*%
G36*
G01*
X90825000Y-46840000D02*
X90825000Y-47140000D01*
G75*
G02*
X90675000Y-47290000I-150000J0D01*
G01*
X89325000Y-47290000D01*
G75*
G02*
X89175000Y-47140000I0J150000D01*
G01*
X89175000Y-46840000D01*
G75*
G02*
X89325000Y-46690000I150000J0D01*
G01*
X90675000Y-46690000D01*
G75*
G02*
X90825000Y-46840000I0J-150000D01*
G01*
G37*
%TD.AperFunction*%
%TO.P,U2,7*%
%TO.N,Net-(J6-Pad1)*%
%TA.AperFunction,SMDPad,CuDef*%
G36*
G01*
X90825000Y-48110000D02*
X90825000Y-48410000D01*
G75*
G02*
X90675000Y-48560000I-150000J0D01*
G01*
X89325000Y-48560000D01*
G75*
G02*
X89175000Y-48410000I0J150000D01*
G01*
X89175000Y-48110000D01*
G75*
G02*
X89325000Y-47960000I150000J0D01*
G01*
X90675000Y-47960000D01*
G75*
G02*
X90825000Y-48110000I0J-150000D01*
G01*
G37*
%TD.AperFunction*%
%TO.P,U2,8*%
%TA.AperFunction,SMDPad,CuDef*%
G36*
G01*
X90825000Y-49380000D02*
X90825000Y-49680000D01*
G75*
G02*
X90675000Y-49830000I-150000J0D01*
G01*
X89325000Y-49830000D01*
G75*
G02*
X89175000Y-49680000I0J150000D01*
G01*
X89175000Y-49380000D01*
G75*
G02*
X89325000Y-49230000I150000J0D01*
G01*
X90675000Y-49230000D01*
G75*
G02*
X90825000Y-49380000I0J-150000D01*
G01*
G37*
%TD.AperFunction*%
%TD*%
D26*
%TO.P,U3,2*%
%TO.N,GND*%
X96520000Y-74930000D03*
D27*
X96520000Y-81230000D03*
%TO.P,U3,3*%
%TO.N,LDO_ON_OUT*%
X98820000Y-81230000D03*
%TO.P,U3,1*%
%TO.N,LDO_ON_IN*%
X94220000Y-81230000D03*
%TD*%
D26*
%TO.P,U4,2*%
%TO.N,GND*%
X105410000Y-74930000D03*
D27*
X105410000Y-81230000D03*
%TO.P,U4,3*%
%TO.N,LDO_OFF_OUT*%
X107710000Y-81230000D03*
%TO.P,U4,1*%
%TO.N,LDO_OFF_IN*%
X103110000Y-81230000D03*
%TD*%
%TO.P,U5,1*%
%TO.N,LDO_AC_IN*%
X112000000Y-81280000D03*
%TO.P,U5,3*%
%TO.N,LDO_AC_OUT*%
X116600000Y-81280000D03*
%TO.P,U5,2*%
%TO.N,GND*%
X114300000Y-81280000D03*
D26*
X114300000Y-74980000D03*
%TD*%
D28*
%TO.P,RLY1,1*%
%TO.N,GND*%
X137160000Y-63500000D03*
D29*
%TO.P,RLY1,16*%
%TO.N,Net-(D4-Pad1)*%
X137160000Y-55880000D03*
%TO.P,RLY1,4*%
%TO.N,Net-(D3-Pad1)*%
X144780000Y-63500000D03*
%TO.P,RLY1,6*%
%TO.N,Net-(RLY1-Pad6)*%
X149860000Y-63500000D03*
%TO.P,RLY1,8*%
%TO.N,Net-(D4-Pad1)*%
X154940000Y-63500000D03*
%TO.P,RLY1,13*%
%TO.N,SW_OFF*%
X144780000Y-55880000D03*
%TO.P,RLY1,11*%
%TO.N,Net-(RLY1-Pad11)*%
X149860000Y-55880000D03*
%TO.P,RLY1,9*%
%TO.N,DC_SW_+*%
X154940000Y-55880000D03*
%TD*%
D30*
%TO.P,Z1,K*%
%TO.N,GND*%
X132842000Y-63602000D03*
%TO.P,Z1,A*%
%TO.N,Net-(D4-Pad2)*%
X132842000Y-60452000D03*
%TD*%
D31*
%TO.P,Z2,A*%
%TO.N,Net-(D5-Pad2)*%
X146050000Y-83566000D03*
%TO.P,Z2,K*%
%TO.N,ESD_-*%
X149200000Y-83566000D03*
%TD*%
D13*
%TO.P,F1,1*%
%TO.N,Net-(F1-Pad1)*%
X105410000Y-43180000D03*
%TO.P,F1,2*%
%TO.N,DC_IN_+*%
X120410000Y-43180000D03*
%TD*%
%TO.P,F2,1*%
%TO.N,LIne_Logic*%
X104380000Y-151130000D03*
%TO.P,F2,2*%
%TO.N,LIne_Fuse*%
X119380000Y-151130000D03*
%TD*%
%TO.P,F3,2*%
%TO.N,Neut_Fuse*%
X119140000Y-163830000D03*
%TO.P,F3,1*%
%TO.N,Neut_Logic*%
X104140000Y-163830000D03*
%TD*%
D10*
%TO.P,H1,1*%
%TO.N,GND*%
X69850000Y-17780000D03*
%TD*%
%TO.P,H2,1*%
%TO.N,GND*%
X165100000Y-17780000D03*
%TD*%
%TO.P,H3,1*%
%TO.N,Earth_Protective*%
X69850000Y-177800000D03*
%TD*%
%TO.P,C4,1*%
%TO.N,LDO_ON_OUT*%
%TA.AperFunction,SMDPad,CuDef*%
G36*
G01*
X99735000Y-84615000D02*
X99735000Y-85565000D01*
G75*
G02*
X99485000Y-85815000I-250000J0D01*
G01*
X98985000Y-85815000D01*
G75*
G02*
X98735000Y-85565000I0J250000D01*
G01*
X98735000Y-84615000D01*
G75*
G02*
X98985000Y-84365000I250000J0D01*
G01*
X99485000Y-84365000D01*
G75*
G02*
X99735000Y-84615000I0J-250000D01*
G01*
G37*
%TD.AperFunction*%
%TO.P,C4,2*%
%TO.N,GND*%
%TA.AperFunction,SMDPad,CuDef*%
G36*
G01*
X97835000Y-84615000D02*
X97835000Y-85565000D01*
G75*
G02*
X97585000Y-85815000I-250000J0D01*
G01*
X97085000Y-85815000D01*
G75*
G02*
X96835000Y-85565000I0J250000D01*
G01*
X96835000Y-84615000D01*
G75*
G02*
X97085000Y-84365000I250000J0D01*
G01*
X97585000Y-84365000D01*
G75*
G02*
X97835000Y-84615000I0J-250000D01*
G01*
G37*
%TD.AperFunction*%
%TD*%
%TO.P,C5,2*%
%TO.N,GND*%
%TA.AperFunction,SMDPad,CuDef*%
G36*
G01*
X106725000Y-84615000D02*
X106725000Y-85565000D01*
G75*
G02*
X106475000Y-85815000I-250000J0D01*
G01*
X105975000Y-85815000D01*
G75*
G02*
X105725000Y-85565000I0J250000D01*
G01*
X105725000Y-84615000D01*
G75*
G02*
X105975000Y-84365000I250000J0D01*
G01*
X106475000Y-84365000D01*
G75*
G02*
X106725000Y-84615000I0J-250000D01*
G01*
G37*
%TD.AperFunction*%
%TO.P,C5,1*%
%TO.N,LDO_OFF_OUT*%
%TA.AperFunction,SMDPad,CuDef*%
G36*
G01*
X108625000Y-84615000D02*
X108625000Y-85565000D01*
G75*
G02*
X108375000Y-85815000I-250000J0D01*
G01*
X107875000Y-85815000D01*
G75*
G02*
X107625000Y-85565000I0J250000D01*
G01*
X107625000Y-84615000D01*
G75*
G02*
X107875000Y-84365000I250000J0D01*
G01*
X108375000Y-84365000D01*
G75*
G02*
X108625000Y-84615000I0J-250000D01*
G01*
G37*
%TD.AperFunction*%
%TD*%
%TO.P,C6,1*%
%TO.N,LDO_AC_OUT*%
%TA.AperFunction,SMDPad,CuDef*%
G36*
G01*
X117795000Y-84615000D02*
X117795000Y-85565000D01*
G75*
G02*
X117545000Y-85815000I-250000J0D01*
G01*
X117045000Y-85815000D01*
G75*
G02*
X116795000Y-85565000I0J250000D01*
G01*
X116795000Y-84615000D01*
G75*
G02*
X117045000Y-84365000I250000J0D01*
G01*
X117545000Y-84365000D01*
G75*
G02*
X117795000Y-84615000I0J-250000D01*
G01*
G37*
%TD.AperFunction*%
%TO.P,C6,2*%
%TO.N,GND*%
%TA.AperFunction,SMDPad,CuDef*%
G36*
G01*
X115895000Y-84615000D02*
X115895000Y-85565000D01*
G75*
G02*
X115645000Y-85815000I-250000J0D01*
G01*
X115145000Y-85815000D01*
G75*
G02*
X114895000Y-85565000I0J250000D01*
G01*
X114895000Y-84615000D01*
G75*
G02*
X115145000Y-84365000I250000J0D01*
G01*
X115645000Y-84365000D01*
G75*
G02*
X115895000Y-84615000I0J-250000D01*
G01*
G37*
%TD.AperFunction*%
%TD*%
D32*
%TO.N,GND*%
X96012000Y-86106000D03*
X97282000Y-86360000D03*
X104648000Y-86360000D03*
X106172000Y-86360000D03*
X113284000Y-86360000D03*
X115062000Y-86360000D03*
X113538000Y-73152000D03*
X143256000Y-40386000D03*
X132080000Y-42926000D03*
X104648000Y-73152000D03*
X95758000Y-73152000D03*
X128016000Y-82804000D03*
X90678000Y-41656000D03*
D33*
%TO.N,Line_Servo*%
X125730000Y-143510000D03*
D32*
%TO.N,ESD_+*%
X109220000Y-69850000D03*
X92710000Y-69850000D03*
%TD*%
D34*
%TO.N,GND*%
X96520000Y-84100000D02*
X95530000Y-85090000D01*
X96520000Y-84100000D02*
X97510000Y-85090000D01*
X96520000Y-81230000D02*
X96520000Y-84100000D01*
X105410000Y-84100000D02*
X104420000Y-85090000D01*
X105410000Y-84100000D02*
X106400000Y-85090000D01*
X105410000Y-81230000D02*
X105410000Y-84100000D01*
X114300000Y-83820000D02*
X113030000Y-85090000D01*
X114300000Y-83820000D02*
X115570000Y-85090000D01*
X114300000Y-81280000D02*
X114300000Y-83820000D01*
X96520000Y-81230000D02*
X96520000Y-74930000D01*
X105410000Y-74930000D02*
X105410000Y-81230000D01*
X143510000Y-40132000D02*
X143256000Y-40386000D01*
X143510000Y-39370000D02*
X143510000Y-40132000D01*
X131826000Y-43180000D02*
X132080000Y-42926000D01*
X130810000Y-43180000D02*
X131826000Y-43180000D01*
D35*
X113538000Y-74218000D02*
X114300000Y-74980000D01*
X113538000Y-73152000D02*
X113538000Y-74218000D01*
X104648000Y-74168000D02*
X105410000Y-74930000D01*
X104648000Y-73152000D02*
X104648000Y-74168000D01*
X95758000Y-74168000D02*
X96520000Y-74930000D01*
X95758000Y-73152000D02*
X95758000Y-74168000D01*
D34*
X95530000Y-85624000D02*
X96012000Y-86106000D01*
X95530000Y-85090000D02*
X95530000Y-85624000D01*
X97510000Y-86132000D02*
X97282000Y-86360000D01*
X97510000Y-85090000D02*
X97510000Y-86132000D01*
X104420000Y-86132000D02*
X104648000Y-86360000D01*
X104420000Y-85090000D02*
X104420000Y-86132000D01*
X106172000Y-85318000D02*
X106400000Y-85090000D01*
X106172000Y-86360000D02*
X106172000Y-85318000D01*
X113030000Y-86106000D02*
X113284000Y-86360000D01*
X113030000Y-85090000D02*
X113030000Y-86106000D01*
X115570000Y-85852000D02*
X115062000Y-86360000D01*
X115570000Y-85090000D02*
X115570000Y-85852000D01*
X128270000Y-82550000D02*
X128016000Y-82804000D01*
X129160000Y-82550000D02*
X128270000Y-82550000D01*
D35*
X94492902Y-48260000D02*
X95250000Y-48260000D01*
X93724990Y-47492088D02*
X94492902Y-48260000D01*
X93724990Y-47417892D02*
X93724990Y-47492088D01*
X89917099Y-43610001D02*
X93724990Y-47417892D01*
X81159999Y-43610001D02*
X89917099Y-43610001D01*
X80010000Y-44760000D02*
X81159999Y-43610001D01*
D34*
X90170000Y-41148000D02*
X90678000Y-41656000D01*
X90170000Y-40640000D02*
X90170000Y-41148000D01*
X132944000Y-63500000D02*
X132842000Y-63602000D01*
X137160000Y-63500000D02*
X132944000Y-63500000D01*
%TO.N,LDO_ON_IN*%
X94294999Y-81155001D02*
X94220000Y-81230000D01*
X94294999Y-66995001D02*
X94294999Y-81155001D01*
X95250000Y-66040000D02*
X94294999Y-66995001D01*
X94220000Y-84850000D02*
X93980000Y-85090000D01*
X94220000Y-81230000D02*
X94220000Y-84850000D01*
%TO.N,LDO_OFF_IN*%
X102870000Y-80990000D02*
X103110000Y-81230000D01*
X102870000Y-66040000D02*
X102870000Y-80990000D01*
X103110000Y-84850000D02*
X102870000Y-85090000D01*
X103110000Y-81230000D02*
X103110000Y-84850000D01*
%TO.N,LDO_AC_IN*%
X112000000Y-76165002D02*
X112000000Y-81280000D01*
X110490000Y-74655002D02*
X112000000Y-76165002D01*
X110490000Y-66040000D02*
X110490000Y-74655002D01*
X112000000Y-84570000D02*
X111480000Y-85090000D01*
X112000000Y-81280000D02*
X112000000Y-84570000D01*
%TO.N,LDO_ON_OUT*%
X98820000Y-73744998D02*
X98820000Y-81230000D01*
X97884999Y-72809997D02*
X98820000Y-73744998D01*
X97884999Y-64675001D02*
X97884999Y-72809997D01*
X99060000Y-63500000D02*
X97884999Y-64675001D01*
X98820000Y-84850000D02*
X99060000Y-85090000D01*
X98820000Y-81230000D02*
X98820000Y-84850000D01*
%TO.N,LDO_OFF_OUT*%
X107950000Y-81470000D02*
X107710000Y-81230000D01*
X107950000Y-85090000D02*
X107950000Y-81470000D01*
X107855001Y-81084999D02*
X107710000Y-81230000D01*
X107855001Y-64675001D02*
X107855001Y-81084999D01*
X106680000Y-63500000D02*
X107855001Y-64675001D01*
%TO.N,LDO_AC_OUT*%
X117120000Y-81800000D02*
X116600000Y-81280000D01*
X117120000Y-85090000D02*
X117120000Y-81800000D01*
X116600000Y-73794998D02*
X116600000Y-81280000D01*
X113124999Y-70319997D02*
X116600000Y-73794998D01*
X113124999Y-64675001D02*
X113124999Y-70319997D01*
X114300000Y-63500000D02*
X113124999Y-64675001D01*
%TO.N,Net-(D1-Pad1)*%
X90170000Y-38990000D02*
X90170000Y-36347500D01*
D36*
%TO.N,DC_IN_+*%
X105981438Y-28600010D02*
X102781428Y-25400000D01*
X110722629Y-28600010D02*
X105981438Y-28600010D01*
X112897142Y-26425497D02*
X110722629Y-28600010D01*
X112897142Y-25400000D02*
X112897142Y-26425497D01*
X95865724Y-28600010D02*
X92665714Y-25400000D01*
X100606915Y-28600010D02*
X95865724Y-28600010D01*
X102781428Y-26425497D02*
X100606915Y-28600010D01*
X102781428Y-25400000D02*
X102781428Y-26425497D01*
X90491201Y-28600010D02*
X85750010Y-28600010D01*
X92665714Y-26425497D02*
X90491201Y-28600010D01*
X85750010Y-28600010D02*
X82550000Y-25400000D01*
X92665714Y-25400000D02*
X92665714Y-26425497D01*
X110722629Y-33492629D02*
X120410000Y-43180000D01*
X110722629Y-28600010D02*
X110722629Y-33492629D01*
D35*
X90170000Y-28921211D02*
X90491201Y-28600010D01*
X90170000Y-34772500D02*
X90170000Y-28921211D01*
D36*
%TO.N,DC_SW_+*%
X150254294Y-28600010D02*
X147054284Y-25400000D01*
X154995487Y-28600010D02*
X150254294Y-28600010D01*
X157170000Y-26425497D02*
X154995487Y-28600010D01*
X157170000Y-25400000D02*
X157170000Y-26425497D01*
X140138580Y-28600010D02*
X136938570Y-25400000D01*
X144879771Y-28600010D02*
X140138580Y-28600010D01*
X147054284Y-26425497D02*
X144879771Y-28600010D01*
X147054284Y-25400000D02*
X147054284Y-26425497D01*
X130022866Y-28600010D02*
X126822856Y-25400000D01*
X134764057Y-28600010D02*
X130022866Y-28600010D01*
X136938570Y-26425497D02*
X134764057Y-28600010D01*
X136938570Y-25400000D02*
X136938570Y-26425497D01*
D35*
X143510000Y-29969781D02*
X144879771Y-28600010D01*
X143510000Y-34290000D02*
X143510000Y-29969781D01*
D36*
X157170000Y-53650000D02*
X157170000Y-25400000D01*
X154940000Y-55880000D02*
X157170000Y-53650000D01*
D35*
%TO.N,Net-(D2-Pad1)*%
X143510000Y-35865000D02*
X143510000Y-37720000D01*
D34*
%TO.N,Latch_DC*%
X106680000Y-65239002D02*
X106680000Y-66040000D01*
X102870000Y-61429002D02*
X106680000Y-65239002D01*
X102870000Y-60960000D02*
X102870000Y-61429002D01*
X130810000Y-71120000D02*
X139700000Y-71120000D01*
X118110000Y-58420000D02*
X130810000Y-71120000D01*
X105410000Y-58420000D02*
X118110000Y-58420000D01*
X102870000Y-60960000D02*
X105410000Y-58420000D01*
%TO.N,Net-(D3-Pad1)*%
X143700000Y-64580000D02*
X144780000Y-63500000D01*
X143700000Y-71120000D02*
X143700000Y-64580000D01*
%TO.N,Net-(D4-Pad2)*%
X132842000Y-60452000D02*
X132842000Y-56642000D01*
D35*
%TO.N,Net-(D4-Pad1)*%
X138860001Y-57580001D02*
X149020001Y-57580001D01*
X149020001Y-57580001D02*
X154940000Y-63500000D01*
X137160000Y-55880000D02*
X138860001Y-57580001D01*
D34*
X137160000Y-55880000D02*
X137160000Y-50990000D01*
X135508000Y-52642000D02*
X137160000Y-50990000D01*
X132842000Y-52642000D02*
X135508000Y-52642000D01*
X132842000Y-50292000D02*
X130810000Y-48260000D01*
X132842000Y-52642000D02*
X132842000Y-50292000D01*
%TO.N,Coil_AC*%
X133350000Y-79731006D02*
X133350000Y-82550000D01*
X119658994Y-66040000D02*
X133350000Y-79731006D01*
X114300000Y-66040000D02*
X119658994Y-66040000D01*
X138176000Y-87256000D02*
X139820000Y-88900000D01*
X138176000Y-83566000D02*
X138176000Y-87256000D01*
X134150010Y-81749990D02*
X133350000Y-82550000D01*
X136359990Y-81749990D02*
X134150010Y-81749990D01*
X138176000Y-83566000D02*
X136359990Y-81749990D01*
%TO.N,Net-(D5-Pad2)*%
X146050000Y-83566000D02*
X142176000Y-83566000D01*
%TO.N,Coil_DC*%
X95250000Y-60960000D02*
X95250000Y-59436000D01*
X95250000Y-59436000D02*
X105156000Y-49530000D01*
X105156000Y-49530000D02*
X124968000Y-49530000D01*
X124968000Y-49530000D02*
X127000000Y-47498000D01*
X127000000Y-47498000D02*
X127000000Y-43434000D01*
X127000000Y-43434000D02*
X129540000Y-40894000D01*
X137160000Y-45490000D02*
X137160000Y-46990000D01*
X132564000Y-40894000D02*
X137160000Y-45490000D01*
X129540000Y-40894000D02*
X132564000Y-40894000D01*
%TO.N,Net-(D7-Pad1)*%
X130810000Y-44830000D02*
X130810000Y-46685000D01*
%TO.N,Net-(D8-Pad1)*%
X131610010Y-83350010D02*
X130810000Y-82550000D01*
X134124990Y-83350010D02*
X131610010Y-83350010D01*
X134925000Y-82550000D02*
X134124990Y-83350010D01*
D37*
%TO.N,Earth_Protective*%
X76479990Y-131941310D02*
X76479990Y-116560010D01*
X76479990Y-116560010D02*
X81280000Y-111760000D01*
X79158680Y-134620000D02*
X76479990Y-131941310D01*
X81280000Y-134620000D02*
X79158680Y-134620000D01*
X97790000Y-111760000D02*
X107950000Y-121920000D01*
X81280000Y-111760000D02*
X97790000Y-111760000D01*
%TO.N,Neut_IN*%
X142519990Y-104399990D02*
X147320000Y-109200000D01*
X133090010Y-104399990D02*
X142519990Y-104399990D01*
X107950000Y-129540000D02*
X133090010Y-104399990D01*
%TO.N,Line_IN*%
X95250000Y-124460000D02*
X107950000Y-137160000D01*
X81280000Y-124460000D02*
X95250000Y-124460000D01*
X107950000Y-137160000D02*
X116840000Y-137160000D01*
X116840000Y-137160000D02*
X130810000Y-123190000D01*
X130810000Y-123190000D02*
X130810000Y-114300000D01*
X135910000Y-109200000D02*
X139820000Y-109200000D01*
X130810000Y-114300000D02*
X135910000Y-109200000D01*
%TO.N,Line_Servo*%
X106324001Y-147079999D02*
X109220000Y-149975998D01*
X102435999Y-147079999D02*
X106324001Y-147079999D01*
X93305998Y-156210000D02*
X102435999Y-147079999D01*
X81880000Y-156210000D02*
X93305998Y-156210000D01*
X109220000Y-149975998D02*
X109220000Y-167640000D01*
X109220000Y-167640000D02*
X114300000Y-172720000D01*
X134385000Y-172720000D02*
X144780000Y-162325000D01*
X114300000Y-172720000D02*
X134385000Y-172720000D01*
X139820000Y-129420000D02*
X139820000Y-114240000D01*
X125730000Y-143510000D02*
X139820000Y-129420000D01*
%TO.N,Neut_Servo*%
X81880000Y-151210000D02*
X89970010Y-151210000D01*
X131604999Y-167880001D02*
X144780000Y-154705000D01*
X117195999Y-167880001D02*
X131604999Y-167880001D01*
X114300000Y-148267759D02*
X114300000Y-164984002D01*
X114300000Y-164984002D02*
X117195999Y-167880001D01*
X108312230Y-142279989D02*
X114300000Y-148267759D01*
X98900021Y-142279989D02*
X108312230Y-142279989D01*
X89970010Y-151210000D02*
X98900021Y-142279989D01*
X144780000Y-154705000D02*
X154940000Y-144545000D01*
X154940000Y-144545000D02*
X154940000Y-121920000D01*
X147320000Y-114300000D02*
X147320000Y-114240000D01*
X154940000Y-121920000D02*
X147320000Y-114300000D01*
D38*
%TO.N,Neut_Fuse*%
X144780000Y-138190000D02*
X144780000Y-136925000D01*
X119140000Y-163830000D02*
X144780000Y-138190000D01*
%TO.N,LIne_Fuse*%
X122955000Y-151130000D02*
X144780000Y-129305000D01*
X119380000Y-151130000D02*
X122955000Y-151130000D01*
D37*
%TO.N,Neut_DC_PWR*%
X102870000Y-106680000D02*
X107950000Y-111760000D01*
X81280000Y-106680000D02*
X102870000Y-106680000D01*
D38*
%TO.N,LIne_Logic*%
X92950000Y-162560000D02*
X104380000Y-151130000D01*
X81480000Y-162560000D02*
X92950000Y-162560000D01*
%TO.N,Neut_Logic*%
X101910000Y-166060000D02*
X104140000Y-163830000D01*
X81480000Y-166060000D02*
X101910000Y-166060000D01*
D35*
%TO.N,Net-(J6-Pad1)*%
X80010000Y-48260000D02*
X90170000Y-48260000D01*
X90170000Y-48260000D02*
X90000000Y-48260000D01*
X90000000Y-49530000D02*
X90000000Y-48260000D01*
D34*
%TO.N,SW_OFF*%
X101600000Y-62230000D02*
X102870000Y-63500000D01*
X98259002Y-62230000D02*
X101600000Y-62230000D01*
X95719002Y-64770000D02*
X98259002Y-62230000D01*
X82550000Y-64770000D02*
X95719002Y-64770000D01*
X80010000Y-62230000D02*
X82550000Y-64770000D01*
%TO.N,SW_ON*%
X91440000Y-59690000D02*
X95250000Y-63500000D01*
X80010000Y-59690000D02*
X91440000Y-59690000D01*
%TO.N,ESD_+*%
X110490000Y-63500000D02*
X109220000Y-64770000D01*
X109220000Y-64770000D02*
X109220000Y-69850000D01*
X82550000Y-69850000D02*
X80010000Y-67310000D01*
X92710000Y-69850000D02*
X82550000Y-69850000D01*
%TO.N,ESD_-*%
X149200000Y-87020000D02*
X147320000Y-88900000D01*
X149200000Y-83566000D02*
X149200000Y-87020000D01*
X80010000Y-72372834D02*
X80010000Y-69850000D01*
X145494999Y-90725001D02*
X98362167Y-90725001D01*
X98362167Y-90725001D02*
X80010000Y-72372834D01*
X147320000Y-88900000D02*
X145494999Y-90725001D01*
D35*
%TO.N,Net-(F1-Pad1)*%
X99060000Y-49530000D02*
X105410000Y-43180000D01*
X95250000Y-49530000D02*
X99060000Y-49530000D01*
D37*
%TO.N,Line_DC_PWR*%
X105410000Y-101600000D02*
X107950000Y-104140000D01*
X81280000Y-101600000D02*
X105410000Y-101600000D01*
%TD*%
M02*
