%TF.GenerationSoftware,KiCad,Pcbnew,(5.1.9)-1*%
%TF.CreationDate,2021-07-02T17:33:52-07:00*%
%TF.ProjectId,MAD_P2,4d41445f-5032-42e6-9b69-6361645f7063,rev?*%
%TF.SameCoordinates,Original*%
%TF.FileFunction,Paste,Bot*%
%TF.FilePolarity,Positive*%
%FSLAX46Y46*%
G04 Gerber Fmt 4.6, Leading zero omitted, Abs format (unit mm)*
G04 Created by KiCad (PCBNEW (5.1.9)-1) date 2021-07-02 17:33:52*
%MOMM*%
%LPD*%
G01*
G04 APERTURE LIST*
%ADD10R,2.540000X3.510000*%
%ADD11O,8.000000X1.000000*%
%ADD12R,0.700000X1.750000*%
%ADD13R,1.300000X1.500000*%
%ADD14R,0.800000X1.500000*%
%ADD15R,1.450000X1.000000*%
%ADD16R,0.800000X1.400000*%
%ADD17R,1.500000X1.500000*%
%ADD18R,1.000000X1.550000*%
G04 APERTURE END LIST*
D10*
%TO.C,BT1*%
X479627000Y-148717000D03*
X450267000Y-148717000D03*
%TD*%
D11*
%TO.C,J6*%
X396900000Y-28295600D03*
X396900000Y-29565600D03*
X396900000Y-30835600D03*
X396900000Y-32105600D03*
X396900000Y-33375600D03*
X396900000Y-34645600D03*
X396900000Y-35915600D03*
X396900000Y-37185600D03*
X396900000Y-38455600D03*
X396900000Y-39725600D03*
X396900000Y-40995600D03*
X396900000Y-42265600D03*
X396900000Y-43535600D03*
X396900000Y-44805600D03*
X396900000Y-46075600D03*
X396900000Y-47345600D03*
X396900000Y-48615600D03*
X396900000Y-49885600D03*
X396900000Y-51155600D03*
X396900000Y-52425600D03*
X396900000Y-53695600D03*
X396900000Y-54965600D03*
X396900000Y-56235600D03*
X396900000Y-57505600D03*
X396900000Y-58775600D03*
X396900000Y-60045600D03*
X396900000Y-61315600D03*
X396900000Y-62585600D03*
X396900000Y-63855600D03*
X396900000Y-65125600D03*
X396900000Y-66395600D03*
X396900000Y-67665600D03*
X396900000Y-68935600D03*
X396900000Y-70205600D03*
X396900000Y-71475600D03*
X396900000Y-72745600D03*
X396900000Y-74015600D03*
X396900000Y-75285600D03*
X396900000Y-76555600D03*
X396900000Y-77825600D03*
%TD*%
D12*
%TO.C,J32*%
X444722000Y-159909000D03*
D13*
X445922000Y-159784000D03*
D14*
X446172000Y-152184000D03*
D15*
X445847000Y-150684000D03*
D16*
X434222000Y-151534000D03*
D12*
X443622000Y-159909000D03*
X442522000Y-159909000D03*
X441422000Y-159909000D03*
X440322000Y-159909000D03*
X439222000Y-159909000D03*
X438122000Y-159909000D03*
X437022000Y-159909000D03*
D17*
X434572000Y-159784000D03*
D18*
X434622000Y-149109000D03*
%TD*%
M02*
