M48
; DRILL file {KiCad (5.1.9)-1} date 07/02/21 17:33:46
; FORMAT={3:3/ absolute / metric / suppress leading zeros}
; #@! TF.CreationDate,2021-07-02T17:33:46-07:00
; #@! TF.GenerationSoftware,Kicad,Pcbnew,(5.1.9)-1
; #@! TF.FileFunction,Plated,1,4,PTH
FMAT,2
METRIC,TZ
T1C0.200
T2C0.400
T3C0.600
T4C0.800
T5C1.000
T6C1.100
T7C3.048
T8C3.220
%
G90
G05
T1
X434295Y-87579
X435091Y-86784
X435091Y-88375
X435886Y-85988
X435886Y-87579
X435886Y-89170
X436682Y-85193
X436682Y-86784
X436682Y-88375
X436682Y-89966
X437477Y-84397
X437477Y-85988
X437477Y-87579
X437477Y-89170
X437477Y-90761
X438272Y-85193
X438272Y-86784
X438272Y-88375
X438272Y-89966
X439068Y-85988
X439068Y-87579
X439068Y-89170
X439863Y-86784
X439863Y-88375
X440659Y-87579
T2
X394875Y-104059
X394970Y-101156
X399796Y-94615
X399860Y-86614
X400428Y-104505
X401193Y-84773
X401302Y-32690
X401457Y-37027
X401469Y-49067
X401483Y-29873
X401540Y-54333
X401594Y-50615
X401661Y-112747
X401734Y-38015
X401870Y-75407
X401932Y-57410
X402101Y-119499
X402159Y-59741
X402162Y-31448
X402196Y-100948
X402247Y-33527
X402272Y-125794
X402295Y-77361
X402333Y-58761
X402419Y-47416
X402470Y-65599
X402478Y-69390
X402479Y-52201
X402503Y-62915
X402647Y-61234
X402735Y-56868
X402891Y-54717
X402981Y-32755
X402995Y-50621
X403162Y-23940
X403251Y-48272
X403384Y-38321
X403410Y-66862
X403542Y-136014
X403544Y-130554
X403544Y-140463
X403572Y-72454
X403733Y-37020
X403784Y-96224
X403858Y-52260
X403867Y-107303
X403877Y-106109
X403891Y-70240
X404121Y-89772
X404150Y-82138
X404264Y-51316
X404486Y-60576
X404847Y-76737
X404940Y-73880
X404977Y-78590
X405183Y-22490
X405398Y-51827
X405460Y-99431
X405687Y-58657
X405850Y-32147
X406062Y-88105
X406096Y-104451
X406237Y-60490
X406464Y-16891
X406664Y-97582
X406985Y-59893
X407128Y-78684
X407322Y-83089
X407459Y-47844
X407895Y-39838
X407904Y-87016
X407968Y-57725
X408000Y-76054
X408288Y-88568
X408395Y-20611
X408686Y-146240
X408686Y-151828
X408750Y-144145
X408750Y-148082
X408750Y-149860
X408832Y-81197
X408883Y-107659
X408963Y-89803
X409073Y-76454
X409137Y-156003
X409448Y-130492
X409526Y-98474
X409565Y-66406
X409638Y-29718
X409728Y-97351
X410058Y-39963
X410274Y-142304
X410326Y-61313
X410336Y-30680
X410640Y-41203
X410715Y-89152
X410835Y-50215
X410982Y-45999
X410998Y-112877
X411162Y-142176
X411266Y-90549
X411290Y-51435
X411499Y-101376
X411554Y-86244
X411677Y-73870
X411861Y-54928
X412052Y-109093
X412412Y-36440
X412432Y-51435
X412599Y-58520
X413133Y-156134
X413179Y-28273
X413290Y-109212
X413913Y-152188
X413918Y-43151
X414020Y-58738
X414147Y-51372
X414167Y-89124
X414210Y-130175
X414772Y-69114
X414844Y-81728
X414972Y-149479
X415036Y-148018
X415077Y-86310
X415197Y-111839
X415279Y-110360
X415290Y-113284
X415354Y-114173
X415709Y-87978
X415988Y-58738
X415988Y-130937
X416047Y-101150
X416052Y-51435
X416392Y-90601
X416624Y-142558
X416814Y-22543
X416906Y-150876
X417304Y-93831
X417314Y-153726
X417336Y-56031
X417449Y-158115
X417512Y-142494
X417540Y-99417
X417566Y-97884
X417720Y-66587
X417830Y-16891
X418283Y-94946
X418470Y-97348
X418592Y-149924
X419164Y-30988
X419354Y-22670
X419440Y-94422
X419516Y-91654
X419962Y-66169
X420370Y-30925
X420546Y-84876
X420751Y-47498
X420814Y-131508
X420927Y-66231
X421015Y-86306
X421068Y-130683
X421168Y-90697
X421219Y-77796
X421704Y-30988
X421968Y-86240
X422084Y-158750
X422212Y-142367
X422275Y-51244
X422338Y-48768
X422578Y-89962
X422735Y-99446
X422783Y-62641
X422910Y-159830
X422974Y-30988
X422974Y-36259
X423164Y-142367
X423170Y-70090
X423545Y-51308
X423608Y-48832
X424053Y-159830
X424164Y-98575
X424861Y-70775
X425190Y-73950
X425294Y-80915
X425450Y-51372
X425450Y-58674
X425514Y-149225
X425577Y-154368
X426204Y-105267
X426401Y-93882
X426424Y-67372
X426441Y-70776
X426466Y-39433
X426466Y-41275
X426530Y-131445
X426592Y-90870
X426593Y-155321
X426847Y-31750
X426847Y-35369
X426913Y-103599
X427025Y-99490
X427038Y-130556
X427190Y-81967
X427298Y-101657
X427303Y-71452
X427309Y-102634
X427388Y-94230
X427454Y-67959
X427514Y-108191
X427546Y-155321
X427800Y-142176
X427878Y-62839
X428058Y-70844
X428282Y-78561
X428410Y-104573
X428498Y-31877
X428498Y-156146
X428562Y-35433
X428643Y-76956
X428696Y-87398
X428929Y-95576
X429006Y-142176
X429068Y-61521
X429139Y-94442
X429232Y-78794
X429324Y-28575
X429330Y-103096
X429578Y-147828
X429662Y-96438
X429912Y-74615
X429964Y-94961
X430212Y-157353
X430305Y-81944
X430367Y-97233
X430577Y-80594
X430674Y-89647
X430938Y-28548
X431155Y-84919
X431195Y-76214
X431222Y-96179
X431258Y-86974
X431552Y-80489
X431575Y-90408
X431610Y-67056
X431611Y-77564
X431864Y-131191
X431990Y-109156
X432009Y-72651
X432047Y-79138
X432138Y-104454
X432181Y-51308
X432524Y-75066
X432639Y-83542
X432878Y-62147
X433180Y-49846
X433197Y-59436
X433432Y-90297
X433578Y-51308
X433903Y-82163
X433946Y-99985
X434043Y-96803
X434369Y-90870
X434594Y-30861
X434639Y-77158
X434662Y-74068
X434866Y-69644
X435053Y-104749
X435166Y-51181
X435420Y-23368
X435502Y-100944
X435546Y-17780
X435737Y-20384
X435812Y-80256
X436607Y-100993
X436632Y-92717
X436985Y-109672
X436991Y-144950
X437163Y-80331
X437300Y-81844
X437580Y-62010
X437932Y-71044
X438022Y-97654
X438225Y-66217
X438255Y-153248
X438340Y-51372
X438468Y-58738
X438468Y-156400
X438522Y-104518
X438648Y-75390
X438835Y-93518
X438930Y-61954
X438958Y-91339
X439092Y-80474
X439222Y-152750
X439967Y-77293
X439991Y-93640
X440177Y-99109
X440246Y-147828
X440246Y-158242
X440356Y-153541
X440372Y-23368
X440436Y-17272
X440690Y-66358
X440741Y-81830
X440754Y-20384
X441388Y-30734
X442024Y-67628
X442042Y-91626
X442093Y-95696
X442123Y-96646
X442150Y-32957
X442286Y-73855
X442332Y-89545
X442494Y-75618
X442532Y-158369
X442572Y-62171
X442658Y-30734
X442789Y-87697
X442803Y-98466
X442976Y-51435
X443130Y-90804
X443200Y-76280
X443745Y-95891
X443802Y-86234
X443869Y-79958
X443928Y-30670
X444222Y-78096
X444632Y-76288
X444944Y-51499
X444945Y-87591
X444951Y-97069
X445072Y-30798
X445072Y-39688
X445072Y-46482
X445135Y-41529
X445135Y-49467
X445198Y-36068
X445452Y-17272
X445580Y-20384
X445680Y-23786
X445716Y-88267
X445960Y-51435
X446186Y-80172
X446278Y-49467
X446342Y-131128
X446342Y-133096
X446405Y-46546
X446696Y-77199
X447134Y-94819
X447341Y-79201
X447612Y-58738
X447738Y-51372
X447970Y-80005
X448183Y-147892
X448183Y-149860
X448653Y-80666
X448998Y-75115
X449153Y-92992
X449199Y-41465
X449262Y-39370
X449273Y-83436
X449390Y-31814
X449495Y-85514
X449516Y-35560
X449770Y-51372
X449898Y-58801
X450004Y-80884
X450278Y-132270
X450673Y-100871
X450723Y-20320
X450850Y-23368
X451548Y-35687
X451612Y-31940
X451624Y-85035
X452247Y-147892
X452374Y-149796
X452379Y-134683
X452945Y-83657
X452946Y-132969
X453006Y-95164
X454868Y-99060
X455486Y-20320
X455676Y-61532
X455676Y-132588
X455740Y-23368
X455803Y-129667
X455866Y-27686
X455866Y-34798
X455866Y-131000
X455970Y-76403
X456151Y-136236
X456287Y-99461
X456311Y-49911
X456440Y-69285
X456502Y-51181
X456565Y-65722
X456565Y-124079
X456850Y-95646
X456946Y-54547
X457668Y-66167
X457772Y-51118
X457819Y-80491
X458707Y-96086
X458875Y-108652
X458937Y-78378
X459613Y-51118
X459676Y-58674
X460049Y-84024
X460734Y-109229
X460756Y-20320
X460775Y-86181
X460820Y-23368
X461143Y-80738
X461341Y-101283
X461397Y-87629
X461610Y-110829
X462026Y-51244
X462026Y-58610
X462184Y-76874
X462216Y-129159
X462216Y-131254
X462216Y-133096
X462305Y-107377
X462470Y-114131
X462978Y-66611
X463614Y-109474
X463751Y-89357
X463931Y-30734
X464058Y-59563
X464239Y-108104
X465156Y-107182
X465582Y-27178
X465836Y-23368
X465858Y-94715
X465900Y-20320
X466033Y-96406
X466302Y-68364
X466321Y-72933
X466353Y-77463
X466408Y-30670
X466715Y-106940
X467277Y-93587
X467360Y-45974
X467487Y-40894
X467550Y-39370
X467614Y-35624
X467614Y-49022
X468566Y-51308
X468603Y-103740
X468630Y-48959
X468701Y-99071
X468884Y-45974
X469074Y-54610
X469202Y-28575
X469473Y-127097
X469604Y-91536
X469640Y-102089
X469710Y-51244
X469832Y-103988
X469912Y-105378
X470070Y-94637
X470154Y-34735
X470789Y-20320
X470806Y-95245
X470852Y-23368
X471551Y-39116
X471551Y-40894
X471551Y-51244
X471551Y-58928
X471922Y-95972
X472059Y-31940
X472126Y-102649
X472313Y-35497
X472440Y-125540
X472440Y-126746
X472504Y-121666
X472504Y-124206
X472567Y-122936
X472787Y-90446
X473130Y-99300
X473138Y-152146
X473202Y-135954
X473202Y-137795
X473202Y-139636
X473202Y-141351
X473202Y-143192
X473202Y-144970
X473202Y-146748
X473202Y-150432
X473202Y-157670
X473266Y-148590
X473266Y-153988
X473266Y-155829
X473710Y-32067
X474028Y-35433
X474489Y-90045
X475882Y-90164
X476043Y-97128
X476186Y-23368
X476250Y-20320
X476314Y-128080
X476557Y-90858
X476573Y-110846
X476960Y-116026
X476983Y-147477
X477096Y-28732
X478552Y-90675
X478737Y-132058
X478940Y-133544
X479171Y-99285
X480321Y-153164
X480378Y-57150
X480568Y-54102
X480817Y-146089
X481330Y-129350
X481454Y-153990
X481947Y-146269
X481965Y-57404
X482028Y-54039
X482853Y-96718
X483108Y-145542
X483276Y-114499
X485330Y-121730
X485330Y-123000
X485330Y-124206
X485458Y-125476
X485902Y-31178
X486029Y-140208
X486283Y-48387
X486346Y-44450
X487299Y-31051
X487998Y-44323
X488188Y-48323
X488632Y-31115
X489068Y-121443
X489166Y-77996
X489839Y-31051
X489839Y-36386
X490090Y-152068
X490093Y-138049
X490284Y-76264
X490312Y-139003
X490918Y-80709
X491236Y-62230
X491490Y-58547
X491617Y-104902
X491744Y-28512
X492252Y-21463
X492316Y-95123
X492379Y-25083
X492506Y-91376
X492824Y-62167
X493141Y-58610
X493204Y-51753
X494030Y-21463
X494030Y-91313
X494030Y-95060
X494220Y-24955
X495364Y-41719
X497332Y-84392
X497904Y-47180
X498030Y-117348
X498284Y-86043
X498729Y-41847
X498856Y-47117
X499491Y-86043
X499682Y-45530
X499682Y-118872
X500316Y-56388
X502285Y-118554
X503555Y-86106
X504380Y-41847
X504444Y-118554
X504762Y-81471
X504825Y-84963
X505333Y-91250
X505460Y-59436
X505524Y-57214
X505524Y-113856
X505587Y-117475
X506603Y-89599
X506794Y-57150
X506984Y-47180
X507492Y-19177
X507492Y-24701
X507556Y-41847
X507873Y-89662
X508000Y-47180
X508064Y-57214
X508762Y-19177
X508762Y-45466
X509143Y-89599
X509397Y-57150
X509397Y-62484
X509397Y-65405
X509397Y-66675
X509714Y-75375
X509778Y-72327
X509842Y-29210
X509968Y-27813
X510032Y-104902
X510159Y-19177
X510286Y-108014
X510350Y-37846
X510350Y-97854
X510350Y-99504
X510413Y-34671
X510413Y-94869
X510476Y-89599
X510858Y-157353
X511112Y-75438
X511238Y-72200
X511302Y-108077
X511366Y-63690
X511429Y-24511
X511429Y-68517
X511429Y-104902
X511492Y-19114
X511810Y-37783
X511874Y-34671
X511874Y-157353
X512064Y-26226
X512128Y-101156
X512191Y-96457
X512382Y-30861
T4
X400558Y-17209
X400558Y-19709
X410972Y-22138
X410972Y-24638
X412242Y-16891
X412242Y-19391
X423776Y-17082
X426276Y-17082
T5
X396494Y-127889
X396494Y-130429
X396494Y-132969
X396494Y-135509
X396494Y-138049
X396494Y-140589
X405638Y-26289
X408114Y-70168
X408114Y-72707
X408178Y-26289
X409512Y-103264
X409512Y-105804
X409512Y-119335
X409512Y-121875
X410654Y-70168
X410654Y-72707
X411226Y-64008
X412052Y-103264
X412052Y-105804
X412052Y-119335
X412052Y-121875
X413194Y-70168
X413194Y-72707
X413766Y-64008
X414579Y-26289
X414592Y-103264
X414592Y-105804
X414592Y-119335
X414592Y-121875
X415734Y-70168
X415734Y-72707
X416306Y-64008
X417119Y-26289
X417132Y-103264
X417132Y-105804
X417132Y-119335
X417132Y-121875
X418274Y-70168
X418274Y-72707
X418846Y-64008
X419672Y-103264
X419672Y-105804
X419672Y-119335
X419672Y-121875
X420370Y-112268
X421386Y-64008
X422910Y-112268
X423520Y-26289
X423926Y-64008
X425450Y-112268
X426060Y-26289
X426466Y-64008
X427990Y-112268
X429006Y-64008
X430530Y-112268
X431546Y-64008
X432461Y-26289
X433070Y-112268
X434086Y-64008
X435001Y-26289
X435610Y-112268
X436626Y-73787
X438150Y-64008
X438150Y-112268
X439166Y-73787
X440690Y-64008
X441401Y-26289
X443230Y-64008
X443230Y-112268
X443941Y-26289
X445770Y-64008
X445770Y-112268
X448310Y-64008
X448310Y-112268
X450152Y-70739
X450152Y-73279
X450152Y-103124
X450152Y-105664
X450152Y-119335
X450152Y-121875
X450342Y-26289
X450850Y-64008
X450850Y-112268
X452692Y-70739
X452692Y-73279
X452692Y-103124
X452692Y-105664
X452692Y-119335
X452692Y-121875
X452882Y-26289
X453390Y-64008
X453390Y-112268
X455232Y-70739
X455232Y-73279
X455232Y-103124
X455232Y-105664
X455232Y-119335
X455232Y-121875
X455930Y-64008
X455930Y-112268
X456057Y-84328
X456057Y-86868
X456057Y-89408
X457772Y-70739
X457772Y-73279
X457772Y-103124
X457772Y-105664
X457772Y-119335
X457772Y-121875
X458470Y-112268
X458597Y-84328
X458597Y-86868
X458597Y-89408
X459283Y-26289
X460312Y-70739
X460312Y-73279
X460312Y-103124
X460312Y-105664
X460312Y-119335
X460312Y-121875
X461010Y-64008
X461010Y-112268
X461823Y-26289
X463550Y-64008
X466090Y-64008
X466090Y-112268
X468224Y-26289
X468630Y-64008
X468630Y-112268
X470764Y-26289
X471170Y-64008
X471170Y-112268
X473710Y-64008
X473710Y-112268
X474091Y-70739
X474091Y-73279
X474091Y-81534
X474091Y-84074
X474091Y-92329
X474091Y-94869
X474091Y-103124
X474091Y-105664
X476250Y-64008
X476250Y-112268
X476631Y-70739
X476631Y-73279
X476631Y-81534
X476631Y-84074
X476631Y-92329
X476631Y-94869
X476631Y-103124
X476631Y-105664
X477165Y-26289
X478790Y-64008
X478790Y-112268
X479171Y-70739
X479171Y-73279
X479171Y-81534
X479171Y-84074
X479171Y-92329
X479171Y-94869
X479171Y-103124
X479171Y-105664
X479705Y-26289
X481330Y-112268
X481711Y-70739
X481711Y-73279
X481711Y-81534
X481711Y-84074
X481711Y-92329
X481711Y-94869
X481711Y-103124
X481711Y-105664
X483870Y-112268
X484251Y-70739
X484251Y-73279
X484251Y-81534
X484251Y-84074
X484251Y-92329
X484251Y-94869
X484251Y-103124
X484251Y-105664
X486105Y-26289
X488645Y-26289
X509588Y-114744
X509588Y-117284
X509588Y-119824
X509588Y-122364
X509588Y-124904
X509588Y-127444
T6
X396312Y-115166
X396312Y-121666
X400812Y-115166
X400812Y-121666
T7
X406400Y-112268
X407670Y-64008
X482600Y-64008
X488950Y-112268
T8
X395605Y-18415
X395605Y-157915
T3
G00X393549Y-85515
M15
G01X394349Y-85515
M16
G05
G00X393549Y-94155
M15
G01X394349Y-94155
M16
G05
G00X397569Y-85515
M15
G01X398669Y-85515
M16
G05
G00X397569Y-94155
M15
G01X398669Y-94155
M16
G05
T0
M30
