%TF.GenerationSoftware,KiCad,Pcbnew,(5.1.9)-1*%
%TF.CreationDate,2021-07-02T17:33:52-07:00*%
%TF.ProjectId,MAD_P2,4d41445f-5032-42e6-9b69-6361645f7063,rev?*%
%TF.SameCoordinates,Original*%
%TF.FileFunction,Soldermask,Bot*%
%TF.FilePolarity,Negative*%
%FSLAX46Y46*%
G04 Gerber Fmt 4.6, Leading zero omitted, Abs format (unit mm)*
G04 Created by KiCad (PCBNEW (5.1.9)-1) date 2021-07-02 17:33:52*
%MOMM*%
%LPD*%
G01*
G04 APERTURE LIST*
%ADD10C,5.080000*%
%ADD11C,1.600000*%
%ADD12C,1.700000*%
%ADD13R,2.540000X3.510000*%
%ADD14O,8.000000X1.000000*%
%ADD15R,1.700000X1.700000*%
%ADD16O,1.700000X1.700000*%
%ADD17C,4.064000*%
%ADD18O,2.000000X0.900000*%
%ADD19O,1.700000X0.900000*%
%ADD20C,0.600000*%
%ADD21C,2.000000*%
%ADD22R,0.700000X1.750000*%
%ADD23R,1.300000X1.500000*%
%ADD24R,0.800000X1.500000*%
%ADD25R,1.450000X1.000000*%
%ADD26R,0.800000X1.400000*%
%ADD27R,1.500000X1.500000*%
%ADD28R,1.000000X1.550000*%
G04 APERTURE END LIST*
D10*
%TO.C,DISP_HOLE_3*%
X395605000Y-157915000D03*
%TD*%
%TO.C,DISP_HOLE_1*%
X395605000Y-18415000D03*
%TD*%
D11*
%TO.C,F5*%
X423776000Y-17081500D03*
X426276000Y-17081500D03*
%TD*%
D12*
%TO.C,J11*%
X460312000Y-73279000D03*
X457772000Y-73279000D03*
X455232000Y-73279000D03*
X452692000Y-73279000D03*
X450152000Y-73279000D03*
X460312000Y-70739000D03*
X457772000Y-70739000D03*
X455232000Y-70739000D03*
X452692000Y-70739000D03*
G36*
G01*
X449552000Y-69889000D02*
X450752000Y-69889000D01*
G75*
G02*
X451002000Y-70139000I0J-250000D01*
G01*
X451002000Y-71339000D01*
G75*
G02*
X450752000Y-71589000I-250000J0D01*
G01*
X449552000Y-71589000D01*
G75*
G02*
X449302000Y-71339000I0J250000D01*
G01*
X449302000Y-70139000D01*
G75*
G02*
X449552000Y-69889000I250000J0D01*
G01*
G37*
%TD*%
D13*
%TO.C,BT1*%
X479627000Y-148717000D03*
X450267000Y-148717000D03*
%TD*%
D14*
%TO.C,J6*%
X396900000Y-28295600D03*
X396900000Y-29565600D03*
X396900000Y-30835600D03*
X396900000Y-32105600D03*
X396900000Y-33375600D03*
X396900000Y-34645600D03*
X396900000Y-35915600D03*
X396900000Y-37185600D03*
X396900000Y-38455600D03*
X396900000Y-39725600D03*
X396900000Y-40995600D03*
X396900000Y-42265600D03*
X396900000Y-43535600D03*
X396900000Y-44805600D03*
X396900000Y-46075600D03*
X396900000Y-47345600D03*
X396900000Y-48615600D03*
X396900000Y-49885600D03*
X396900000Y-51155600D03*
X396900000Y-52425600D03*
X396900000Y-53695600D03*
X396900000Y-54965600D03*
X396900000Y-56235600D03*
X396900000Y-57505600D03*
X396900000Y-58775600D03*
X396900000Y-60045600D03*
X396900000Y-61315600D03*
X396900000Y-62585600D03*
X396900000Y-63855600D03*
X396900000Y-65125600D03*
X396900000Y-66395600D03*
X396900000Y-67665600D03*
X396900000Y-68935600D03*
X396900000Y-70205600D03*
X396900000Y-71475600D03*
X396900000Y-72745600D03*
X396900000Y-74015600D03*
X396900000Y-75285600D03*
X396900000Y-76555600D03*
X396900000Y-77825600D03*
%TD*%
D15*
%TO.C,J4*%
X408177800Y-26289000D03*
D16*
X405637800Y-26289000D03*
%TD*%
D15*
%TO.C,J27*%
X417118800Y-26289000D03*
D16*
X414578800Y-26289000D03*
%TD*%
D15*
%TO.C,J17*%
X426059800Y-26289000D03*
D16*
X423519800Y-26289000D03*
%TD*%
D15*
%TO.C,J1*%
X435000800Y-26289000D03*
D16*
X432460800Y-26289000D03*
%TD*%
D15*
%TO.C,J28*%
X443940800Y-26289000D03*
D16*
X441400800Y-26289000D03*
%TD*%
D15*
%TO.C,J2*%
X452881800Y-26289000D03*
D16*
X450341800Y-26289000D03*
%TD*%
D15*
%TO.C,J29*%
X461822800Y-26289000D03*
D16*
X459282800Y-26289000D03*
%TD*%
D15*
%TO.C,J3*%
X470763800Y-26289000D03*
D16*
X468223800Y-26289000D03*
%TD*%
D15*
%TO.C,J30*%
X479704800Y-26289000D03*
D16*
X477164800Y-26289000D03*
%TD*%
D15*
%TO.C,J12*%
X488644800Y-26289000D03*
D16*
X486104800Y-26289000D03*
%TD*%
D17*
%TO.C,P10*%
X488950000Y-112268000D03*
%TD*%
%TO.C,P8*%
X406400000Y-112268000D03*
%TD*%
%TO.C,P13*%
X482600000Y-64008000D03*
%TD*%
%TO.C,P11*%
X407670000Y-64008000D03*
%TD*%
%TO.C,J7*%
G36*
G01*
X408912000Y-102414000D02*
X410112000Y-102414000D01*
G75*
G02*
X410362000Y-102664000I0J-250000D01*
G01*
X410362000Y-103864000D01*
G75*
G02*
X410112000Y-104114000I-250000J0D01*
G01*
X408912000Y-104114000D01*
G75*
G02*
X408662000Y-103864000I0J250000D01*
G01*
X408662000Y-102664000D01*
G75*
G02*
X408912000Y-102414000I250000J0D01*
G01*
G37*
D12*
X412052000Y-103264000D03*
X414592000Y-103264000D03*
X417132000Y-103264000D03*
X419672000Y-103264000D03*
X409512000Y-105804000D03*
X412052000Y-105804000D03*
X414592000Y-105804000D03*
X417132000Y-105804000D03*
X419672000Y-105804000D03*
%TD*%
D18*
%TO.C,J8*%
X398119000Y-85514700D03*
X398119000Y-94154700D03*
D19*
X393949000Y-85514700D03*
X393949000Y-94154700D03*
D20*
X397639000Y-92724700D03*
X397639000Y-86944700D03*
%TD*%
%TO.C,J9*%
G36*
G01*
X460912000Y-106514000D02*
X459712000Y-106514000D01*
G75*
G02*
X459462000Y-106264000I0J250000D01*
G01*
X459462000Y-105064000D01*
G75*
G02*
X459712000Y-104814000I250000J0D01*
G01*
X460912000Y-104814000D01*
G75*
G02*
X461162000Y-105064000I0J-250000D01*
G01*
X461162000Y-106264000D01*
G75*
G02*
X460912000Y-106514000I-250000J0D01*
G01*
G37*
D12*
X457772000Y-105664000D03*
X455232000Y-105664000D03*
X452692000Y-105664000D03*
X450152000Y-105664000D03*
X460312000Y-103124000D03*
X457772000Y-103124000D03*
X455232000Y-103124000D03*
X452692000Y-103124000D03*
X450152000Y-103124000D03*
%TD*%
%TO.C,J10*%
X418274000Y-72707500D03*
X415734000Y-72707500D03*
X413194000Y-72707500D03*
X410654000Y-72707500D03*
X408114000Y-72707500D03*
X418274000Y-70167500D03*
X415734000Y-70167500D03*
X413194000Y-70167500D03*
X410654000Y-70167500D03*
G36*
G01*
X407514000Y-69317500D02*
X408714000Y-69317500D01*
G75*
G02*
X408964000Y-69567500I0J-250000D01*
G01*
X408964000Y-70767500D01*
G75*
G02*
X408714000Y-71017500I-250000J0D01*
G01*
X407514000Y-71017500D01*
G75*
G02*
X407264000Y-70767500I0J250000D01*
G01*
X407264000Y-69567500D01*
G75*
G02*
X407514000Y-69317500I250000J0D01*
G01*
G37*
%TD*%
%TO.C,J13*%
G36*
G01*
X473491000Y-80684000D02*
X474691000Y-80684000D01*
G75*
G02*
X474941000Y-80934000I0J-250000D01*
G01*
X474941000Y-82134000D01*
G75*
G02*
X474691000Y-82384000I-250000J0D01*
G01*
X473491000Y-82384000D01*
G75*
G02*
X473241000Y-82134000I0J250000D01*
G01*
X473241000Y-80934000D01*
G75*
G02*
X473491000Y-80684000I250000J0D01*
G01*
G37*
X476631000Y-81534000D03*
X479171000Y-81534000D03*
X481711000Y-81534000D03*
X484251000Y-81534000D03*
X474091000Y-84074000D03*
X476631000Y-84074000D03*
X479171000Y-84074000D03*
X481711000Y-84074000D03*
X484251000Y-84074000D03*
%TD*%
%TO.C,J14*%
G36*
G01*
X473491000Y-69889000D02*
X474691000Y-69889000D01*
G75*
G02*
X474941000Y-70139000I0J-250000D01*
G01*
X474941000Y-71339000D01*
G75*
G02*
X474691000Y-71589000I-250000J0D01*
G01*
X473491000Y-71589000D01*
G75*
G02*
X473241000Y-71339000I0J250000D01*
G01*
X473241000Y-70139000D01*
G75*
G02*
X473491000Y-69889000I250000J0D01*
G01*
G37*
X476631000Y-70739000D03*
X479171000Y-70739000D03*
X481711000Y-70739000D03*
X484251000Y-70739000D03*
X474091000Y-73279000D03*
X476631000Y-73279000D03*
X479171000Y-73279000D03*
X481711000Y-73279000D03*
X484251000Y-73279000D03*
%TD*%
%TO.C,J15*%
G36*
G01*
X420272000Y-122725000D02*
X419072000Y-122725000D01*
G75*
G02*
X418822000Y-122475000I0J250000D01*
G01*
X418822000Y-121275000D01*
G75*
G02*
X419072000Y-121025000I250000J0D01*
G01*
X420272000Y-121025000D01*
G75*
G02*
X420522000Y-121275000I0J-250000D01*
G01*
X420522000Y-122475000D01*
G75*
G02*
X420272000Y-122725000I-250000J0D01*
G01*
G37*
X417132000Y-121875000D03*
X414592000Y-121875000D03*
X412052000Y-121875000D03*
X409512000Y-121875000D03*
X419672000Y-119335000D03*
X417132000Y-119335000D03*
X414592000Y-119335000D03*
X412052000Y-119335000D03*
X409512000Y-119335000D03*
%TD*%
%TO.C,J16*%
G36*
G01*
X460912000Y-122725000D02*
X459712000Y-122725000D01*
G75*
G02*
X459462000Y-122475000I0J250000D01*
G01*
X459462000Y-121275000D01*
G75*
G02*
X459712000Y-121025000I250000J0D01*
G01*
X460912000Y-121025000D01*
G75*
G02*
X461162000Y-121275000I0J-250000D01*
G01*
X461162000Y-122475000D01*
G75*
G02*
X460912000Y-122725000I-250000J0D01*
G01*
G37*
X457772000Y-121875000D03*
X455232000Y-121875000D03*
X452692000Y-121875000D03*
X450152000Y-121875000D03*
X460312000Y-119335000D03*
X457772000Y-119335000D03*
X455232000Y-119335000D03*
X452692000Y-119335000D03*
X450152000Y-119335000D03*
%TD*%
%TO.C,J21*%
X484251000Y-105664000D03*
X481711000Y-105664000D03*
X479171000Y-105664000D03*
X476631000Y-105664000D03*
X474091000Y-105664000D03*
X484251000Y-103124000D03*
X481711000Y-103124000D03*
X479171000Y-103124000D03*
X476631000Y-103124000D03*
G36*
G01*
X473491000Y-102274000D02*
X474691000Y-102274000D01*
G75*
G02*
X474941000Y-102524000I0J-250000D01*
G01*
X474941000Y-103724000D01*
G75*
G02*
X474691000Y-103974000I-250000J0D01*
G01*
X473491000Y-103974000D01*
G75*
G02*
X473241000Y-103724000I0J250000D01*
G01*
X473241000Y-102524000D01*
G75*
G02*
X473491000Y-102274000I250000J0D01*
G01*
G37*
%TD*%
%TO.C,J22*%
X484251000Y-94869000D03*
X481711000Y-94869000D03*
X479171000Y-94869000D03*
X476631000Y-94869000D03*
X474091000Y-94869000D03*
X484251000Y-92329000D03*
X481711000Y-92329000D03*
X479171000Y-92329000D03*
X476631000Y-92329000D03*
G36*
G01*
X473491000Y-91479000D02*
X474691000Y-91479000D01*
G75*
G02*
X474941000Y-91729000I0J-250000D01*
G01*
X474941000Y-92929000D01*
G75*
G02*
X474691000Y-93179000I-250000J0D01*
G01*
X473491000Y-93179000D01*
G75*
G02*
X473241000Y-92929000I0J250000D01*
G01*
X473241000Y-91729000D01*
G75*
G02*
X473491000Y-91479000I250000J0D01*
G01*
G37*
%TD*%
D16*
%TO.C,JP10*%
X436626000Y-73787000D03*
D15*
X439166000Y-73787000D03*
%TD*%
D16*
%TO.C,J18*%
X461010000Y-112268000D03*
X458470000Y-112268000D03*
X455930000Y-112268000D03*
X453390000Y-112268000D03*
X450850000Y-112268000D03*
X448310000Y-112268000D03*
X445770000Y-112268000D03*
D15*
X443230000Y-112268000D03*
%TD*%
%TO.C,J19*%
X466090000Y-112268000D03*
D16*
X468630000Y-112268000D03*
X471170000Y-112268000D03*
X473710000Y-112268000D03*
X476250000Y-112268000D03*
X478790000Y-112268000D03*
X481330000Y-112268000D03*
X483870000Y-112268000D03*
%TD*%
D15*
%TO.C,J20*%
X420370000Y-112268000D03*
D16*
X422910000Y-112268000D03*
X425450000Y-112268000D03*
X427990000Y-112268000D03*
X430530000Y-112268000D03*
X433070000Y-112268000D03*
X435610000Y-112268000D03*
X438150000Y-112268000D03*
%TD*%
D15*
%TO.C,J23*%
X458597000Y-84328000D03*
D16*
X456057000Y-84328000D03*
X458597000Y-86868000D03*
X456057000Y-86868000D03*
X458597000Y-89408000D03*
X456057000Y-89408000D03*
%TD*%
D15*
%TO.C,J24*%
X411226000Y-64008000D03*
D16*
X413766000Y-64008000D03*
X416306000Y-64008000D03*
X418846000Y-64008000D03*
X421386000Y-64008000D03*
X423926000Y-64008000D03*
X426466000Y-64008000D03*
X429006000Y-64008000D03*
X431546000Y-64008000D03*
X434086000Y-64008000D03*
%TD*%
%TO.C,J25*%
X455930000Y-64008000D03*
X453390000Y-64008000D03*
X450850000Y-64008000D03*
X448310000Y-64008000D03*
X445770000Y-64008000D03*
X443230000Y-64008000D03*
X440690000Y-64008000D03*
D15*
X438150000Y-64008000D03*
%TD*%
%TO.C,J26*%
X461010000Y-64008000D03*
D16*
X463550000Y-64008000D03*
X466090000Y-64008000D03*
X468630000Y-64008000D03*
X471170000Y-64008000D03*
X473710000Y-64008000D03*
X476250000Y-64008000D03*
X478790000Y-64008000D03*
%TD*%
D15*
%TO.C,J33*%
X396494000Y-127889000D03*
D16*
X396494000Y-130429000D03*
X396494000Y-132969000D03*
X396494000Y-135509000D03*
X396494000Y-138049000D03*
X396494000Y-140589000D03*
%TD*%
D21*
%TO.C,SW1*%
X396312000Y-121666000D03*
X400812000Y-121666000D03*
X396312000Y-115166000D03*
X400812000Y-115166000D03*
%TD*%
D22*
%TO.C,J32*%
X444722000Y-159909000D03*
D23*
X445922000Y-159784000D03*
D24*
X446172000Y-152184000D03*
D25*
X445847000Y-150684000D03*
D26*
X434222000Y-151534000D03*
D22*
X443622000Y-159909000D03*
X442522000Y-159909000D03*
X441422000Y-159909000D03*
X440322000Y-159909000D03*
X439222000Y-159909000D03*
X438122000Y-159909000D03*
X437022000Y-159909000D03*
D27*
X434572000Y-159784000D03*
D28*
X434622000Y-149109000D03*
%TD*%
D15*
%TO.C,J34*%
X509588000Y-114744000D03*
D16*
X509588000Y-117284000D03*
X509588000Y-119824000D03*
X509588000Y-122364000D03*
X509588000Y-124904000D03*
X509588000Y-127444000D03*
%TD*%
D11*
%TO.C,F1*%
X400558000Y-17208500D03*
X400558000Y-19708500D03*
%TD*%
%TO.C,F2*%
X410972000Y-24638000D03*
X410972000Y-22138000D03*
%TD*%
%TO.C,F3*%
X412242000Y-19391000D03*
X412242000Y-16891000D03*
%TD*%
M02*
