%TF.GenerationSoftware,KiCad,Pcbnew,(5.1.9)-1*%
%TF.CreationDate,2021-07-02T17:33:52-07:00*%
%TF.ProjectId,MAD_P2,4d41445f-5032-42e6-9b69-6361645f7063,rev?*%
%TF.SameCoordinates,Original*%
%TF.FileFunction,Copper,L4,Bot*%
%TF.FilePolarity,Positive*%
%FSLAX46Y46*%
G04 Gerber Fmt 4.6, Leading zero omitted, Abs format (unit mm)*
G04 Created by KiCad (PCBNEW (5.1.9)-1) date 2021-07-02 17:33:52*
%MOMM*%
%LPD*%
G01*
G04 APERTURE LIST*
%TA.AperFunction,ComponentPad*%
%ADD10C,5.080000*%
%TD*%
%TA.AperFunction,ComponentPad*%
%ADD11C,1.600000*%
%TD*%
%TA.AperFunction,ComponentPad*%
%ADD12C,1.700000*%
%TD*%
%TA.AperFunction,SMDPad,CuDef*%
%ADD13R,2.540000X3.510000*%
%TD*%
%TA.AperFunction,SMDPad,CuDef*%
%ADD14O,8.000000X1.000000*%
%TD*%
%TA.AperFunction,ComponentPad*%
%ADD15R,1.700000X1.700000*%
%TD*%
%TA.AperFunction,ComponentPad*%
%ADD16O,1.700000X1.700000*%
%TD*%
%TA.AperFunction,ComponentPad*%
%ADD17C,4.064000*%
%TD*%
%TA.AperFunction,ComponentPad*%
%ADD18O,2.000000X0.900000*%
%TD*%
%TA.AperFunction,ComponentPad*%
%ADD19O,1.700000X0.900000*%
%TD*%
%TA.AperFunction,SMDPad,CuDef*%
%ADD20C,0.100000*%
%TD*%
%TA.AperFunction,ComponentPad*%
%ADD21C,0.500000*%
%TD*%
%TA.AperFunction,ComponentPad*%
%ADD22C,2.000000*%
%TD*%
%TA.AperFunction,SMDPad,CuDef*%
%ADD23R,0.700000X1.750000*%
%TD*%
%TA.AperFunction,SMDPad,CuDef*%
%ADD24R,1.300000X1.500000*%
%TD*%
%TA.AperFunction,SMDPad,CuDef*%
%ADD25R,0.800000X1.500000*%
%TD*%
%TA.AperFunction,SMDPad,CuDef*%
%ADD26R,1.450000X1.000000*%
%TD*%
%TA.AperFunction,SMDPad,CuDef*%
%ADD27R,0.800000X1.400000*%
%TD*%
%TA.AperFunction,SMDPad,CuDef*%
%ADD28R,1.500000X1.500000*%
%TD*%
%TA.AperFunction,SMDPad,CuDef*%
%ADD29R,1.000000X1.550000*%
%TD*%
%TA.AperFunction,ViaPad*%
%ADD30C,0.800000*%
%TD*%
%TA.AperFunction,Conductor*%
%ADD31C,0.250000*%
%TD*%
%TA.AperFunction,Conductor*%
%ADD32C,0.800000*%
%TD*%
G04 APERTURE END LIST*
D10*
%TO.P,DISP_HOLE_3,1*%
%TO.N,N/C*%
X395605000Y-157915000D03*
%TD*%
%TO.P,DISP_HOLE_1,1*%
%TO.N,N/C*%
X395605000Y-18415000D03*
%TD*%
D11*
%TO.P,F5,2*%
%TO.N,Net-(C74-Pad1)*%
X423776000Y-17081500D03*
%TO.P,F5,1*%
%TO.N,VIN_RAW*%
X426276000Y-17081500D03*
%TD*%
D12*
%TO.P,J11,10*%
%TO.N,GND*%
X460312000Y-73279000D03*
%TO.P,J11,8*%
%TO.N,5V_MAIN1*%
X457772000Y-73279000D03*
%TO.P,J11,6*%
%TO.N,VIN_L1*%
X455232000Y-73279000D03*
%TO.P,J11,4*%
%TO.N,V_32_35*%
X452692000Y-73279000D03*
%TO.P,J11,2*%
%TO.N,V_0_3*%
X450152000Y-73279000D03*
%TO.P,J11,9*%
%TO.N,GND*%
X460312000Y-70739000D03*
%TO.P,J11,7*%
%TO.N,3.3V_MAIN1*%
X457772000Y-70739000D03*
%TO.P,J11,5*%
%TO.N,V_32_35*%
X455232000Y-70739000D03*
%TO.P,J11,3*%
%TO.N,V_0_3*%
X452692000Y-70739000D03*
%TO.P,J11,1*%
%TO.N,GND*%
%TA.AperFunction,ComponentPad*%
G36*
G01*
X449552000Y-69889000D02*
X450752000Y-69889000D01*
G75*
G02*
X451002000Y-70139000I0J-250000D01*
G01*
X451002000Y-71339000D01*
G75*
G02*
X450752000Y-71589000I-250000J0D01*
G01*
X449552000Y-71589000D01*
G75*
G02*
X449302000Y-71339000I0J250000D01*
G01*
X449302000Y-70139000D01*
G75*
G02*
X449552000Y-69889000I250000J0D01*
G01*
G37*
%TD.AperFunction*%
%TD*%
D13*
%TO.P,BT1,1*%
%TO.N,Net-(BT1-Pad1)*%
X479627000Y-148717000D03*
%TO.P,BT1,2*%
%TO.N,GND*%
X450267000Y-148717000D03*
%TD*%
D14*
%TO.P,J6,41*%
%TO.N,VIN_L1*%
X396900000Y-28295600D03*
%TO.P,J6,42*%
X396900000Y-29565600D03*
%TO.P,J6,43*%
%TO.N,GND*%
X396900000Y-30835600D03*
%TO.P,J6,44*%
X396900000Y-32105600D03*
%TO.P,J6,45*%
X396900000Y-33375600D03*
%TO.P,J6,46*%
%TO.N,RESET*%
X396900000Y-34645600D03*
%TO.P,J6,47*%
%TO.N,V_0_3*%
X396900000Y-35915600D03*
%TO.P,J6,48*%
X396900000Y-37185600D03*
%TO.P,J6,49*%
%TO.N,P63*%
X396900000Y-38455600D03*
%TO.P,J6,50*%
%TO.N,P62*%
X396900000Y-39725600D03*
%TO.P,J6,51*%
%TO.N,P61*%
X396900000Y-40995600D03*
%TO.P,J6,52*%
%TO.N,P60*%
X396900000Y-42265600D03*
%TO.P,J6,53*%
%TO.N,P59*%
X396900000Y-43535600D03*
%TO.P,J6,54*%
%TO.N,P58*%
X396900000Y-44805600D03*
%TO.P,J6,55*%
%TO.N,P57*%
X396900000Y-46075600D03*
%TO.P,J6,56*%
%TO.N,P56*%
X396900000Y-47345600D03*
%TO.P,J6,57*%
%TO.N,V_32_35*%
X396900000Y-48615600D03*
%TO.P,J6,58*%
%TO.N,V_0_3*%
X396900000Y-49885600D03*
%TO.P,J6,59*%
%TO.N,P55*%
X396900000Y-51155600D03*
%TO.P,J6,60*%
%TO.N,P54*%
X396900000Y-52425600D03*
%TO.P,J6,61*%
%TO.N,P53*%
X396900000Y-53695600D03*
%TO.P,J6,62*%
%TO.N,P52*%
X396900000Y-54965600D03*
%TO.P,J6,63*%
%TO.N,P51*%
X396900000Y-56235600D03*
%TO.P,J6,64*%
%TO.N,P50*%
X396900000Y-57505600D03*
%TO.P,J6,65*%
%TO.N,P49*%
X396900000Y-58775600D03*
%TO.P,J6,66*%
%TO.N,P48*%
X396900000Y-60045600D03*
%TO.P,J6,67*%
%TO.N,V_32_35*%
X396900000Y-61315600D03*
%TO.P,J6,68*%
%TO.N,V_0_3*%
X396900000Y-62585600D03*
%TO.P,J6,69*%
%TO.N,P47*%
X396900000Y-63855600D03*
%TO.P,J6,70*%
%TO.N,P46*%
X396900000Y-65125600D03*
%TO.P,J6,71*%
%TO.N,P45*%
X396900000Y-66395600D03*
%TO.P,J6,72*%
%TO.N,P44*%
X396900000Y-67665600D03*
%TO.P,J6,73*%
%TO.N,P43*%
X396900000Y-68935600D03*
%TO.P,J6,74*%
%TO.N,P42*%
X396900000Y-70205600D03*
%TO.P,J6,75*%
%TO.N,P41*%
X396900000Y-71475600D03*
%TO.P,J6,76*%
%TO.N,P40*%
X396900000Y-72745600D03*
%TO.P,J6,77*%
%TO.N,V_32_35*%
X396900000Y-74015600D03*
%TO.P,J6,78*%
X396900000Y-75285600D03*
%TO.P,J6,79*%
%TO.N,P39*%
X396900000Y-76555600D03*
%TO.P,J6,80*%
%TO.N,P38*%
X396900000Y-77825600D03*
%TD*%
D15*
%TO.P,J4,1*%
%TO.N,VIN_RAW*%
X408177800Y-26289000D03*
D16*
%TO.P,J4,2*%
%TO.N,GND*%
X405637800Y-26289000D03*
%TD*%
D15*
%TO.P,J27,1*%
%TO.N,Net-(J27-Pad1)*%
X417118800Y-26289000D03*
D16*
%TO.P,J27,2*%
%TO.N,GND*%
X414578800Y-26289000D03*
%TD*%
D15*
%TO.P,J17,1*%
%TO.N,Net-(J17-Pad1)*%
X426059800Y-26289000D03*
D16*
%TO.P,J17,2*%
%TO.N,GND*%
X423519800Y-26289000D03*
%TD*%
D15*
%TO.P,J1,1*%
%TO.N,Net-(J1-Pad1)*%
X435000800Y-26289000D03*
D16*
%TO.P,J1,2*%
%TO.N,GND*%
X432460800Y-26289000D03*
%TD*%
D15*
%TO.P,J28,1*%
%TO.N,Net-(J28-Pad1)*%
X443940800Y-26289000D03*
D16*
%TO.P,J28,2*%
%TO.N,GND*%
X441400800Y-26289000D03*
%TD*%
D15*
%TO.P,J2,1*%
%TO.N,Net-(J2-Pad1)*%
X452881800Y-26289000D03*
D16*
%TO.P,J2,2*%
%TO.N,GND*%
X450341800Y-26289000D03*
%TD*%
D15*
%TO.P,J29,1*%
%TO.N,Net-(J29-Pad1)*%
X461822800Y-26289000D03*
D16*
%TO.P,J29,2*%
%TO.N,GND*%
X459282800Y-26289000D03*
%TD*%
D15*
%TO.P,J3,1*%
%TO.N,Net-(J3-Pad1)*%
X470763800Y-26289000D03*
D16*
%TO.P,J3,2*%
%TO.N,GND*%
X468223800Y-26289000D03*
%TD*%
D15*
%TO.P,J30,1*%
%TO.N,Net-(J30-Pad1)*%
X479704800Y-26289000D03*
D16*
%TO.P,J30,2*%
%TO.N,GND*%
X477164800Y-26289000D03*
%TD*%
D15*
%TO.P,J12,1*%
%TO.N,Net-(J12-Pad1)*%
X488644800Y-26289000D03*
D16*
%TO.P,J12,2*%
%TO.N,GND*%
X486104800Y-26289000D03*
%TD*%
D17*
%TO.P,P10,1*%
%TO.N,N/C*%
X488950000Y-112268000D03*
%TD*%
%TO.P,P8,1*%
%TO.N,N/C*%
X406400000Y-112268000D03*
%TD*%
%TO.P,P13,1*%
%TO.N,N/C*%
X482600000Y-64008000D03*
%TD*%
%TO.P,P11,1*%
%TO.N,N/C*%
X407670000Y-64008000D03*
%TD*%
%TO.P,J7,1*%
%TO.N,P34*%
%TA.AperFunction,ComponentPad*%
G36*
G01*
X408912000Y-102414000D02*
X410112000Y-102414000D01*
G75*
G02*
X410362000Y-102664000I0J-250000D01*
G01*
X410362000Y-103864000D01*
G75*
G02*
X410112000Y-104114000I-250000J0D01*
G01*
X408912000Y-104114000D01*
G75*
G02*
X408662000Y-103864000I0J250000D01*
G01*
X408662000Y-102664000D01*
G75*
G02*
X408912000Y-102414000I250000J0D01*
G01*
G37*
%TD.AperFunction*%
D12*
%TO.P,J7,3*%
%TO.N,P36*%
X412052000Y-103264000D03*
%TO.P,J7,5*%
%TO.N,P38*%
X414592000Y-103264000D03*
%TO.P,J7,7*%
%TO.N,P40*%
X417132000Y-103264000D03*
%TO.P,J7,9*%
%TO.N,P42*%
X419672000Y-103264000D03*
%TO.P,J7,2*%
%TO.N,P35*%
X409512000Y-105804000D03*
%TO.P,J7,4*%
%TO.N,P37*%
X412052000Y-105804000D03*
%TO.P,J7,6*%
%TO.N,P39*%
X414592000Y-105804000D03*
%TO.P,J7,8*%
%TO.N,P41*%
X417132000Y-105804000D03*
%TO.P,J7,10*%
%TO.N,P43*%
X419672000Y-105804000D03*
%TD*%
D18*
%TO.P,J8,S1*%
%TO.N,Net-(J8-PadS1)*%
X398119000Y-85514700D03*
X398119000Y-94154700D03*
D19*
X393949000Y-85514700D03*
X393949000Y-94154700D03*
%TD*%
%TO.P,J9,1*%
%TO.N,P44*%
%TA.AperFunction,ComponentPad*%
G36*
G01*
X460912000Y-106514000D02*
X459712000Y-106514000D01*
G75*
G02*
X459462000Y-106264000I0J250000D01*
G01*
X459462000Y-105064000D01*
G75*
G02*
X459712000Y-104814000I250000J0D01*
G01*
X460912000Y-104814000D01*
G75*
G02*
X461162000Y-105064000I0J-250000D01*
G01*
X461162000Y-106264000D01*
G75*
G02*
X460912000Y-106514000I-250000J0D01*
G01*
G37*
%TD.AperFunction*%
D12*
%TO.P,J9,3*%
%TO.N,P46*%
X457772000Y-105664000D03*
%TO.P,J9,5*%
%TO.N,P48*%
X455232000Y-105664000D03*
%TO.P,J9,7*%
%TO.N,P50*%
X452692000Y-105664000D03*
%TO.P,J9,9*%
%TO.N,P52*%
X450152000Y-105664000D03*
%TO.P,J9,2*%
%TO.N,P45*%
X460312000Y-103124000D03*
%TO.P,J9,4*%
%TO.N,P47*%
X457772000Y-103124000D03*
%TO.P,J9,6*%
%TO.N,P49*%
X455232000Y-103124000D03*
%TO.P,J9,8*%
%TO.N,P51*%
X452692000Y-103124000D03*
%TO.P,J9,10*%
%TO.N,P53*%
X450152000Y-103124000D03*
%TD*%
%TO.P,J10,10*%
%TO.N,P63*%
X418274000Y-72707500D03*
%TO.P,J10,8*%
%TO.N,P61*%
X415734000Y-72707500D03*
%TO.P,J10,6*%
%TO.N,P59*%
X413194000Y-72707500D03*
%TO.P,J10,4*%
%TO.N,P57*%
X410654000Y-72707500D03*
%TO.P,J10,2*%
%TO.N,P55*%
X408114000Y-72707500D03*
%TO.P,J10,9*%
%TO.N,P62*%
X418274000Y-70167500D03*
%TO.P,J10,7*%
%TO.N,P60*%
X415734000Y-70167500D03*
%TO.P,J10,5*%
%TO.N,P58*%
X413194000Y-70167500D03*
%TO.P,J10,3*%
%TO.N,P56*%
X410654000Y-70167500D03*
%TO.P,J10,1*%
%TO.N,P54*%
%TA.AperFunction,ComponentPad*%
G36*
G01*
X407514000Y-69317500D02*
X408714000Y-69317500D01*
G75*
G02*
X408964000Y-69567500I0J-250000D01*
G01*
X408964000Y-70767500D01*
G75*
G02*
X408714000Y-71017500I-250000J0D01*
G01*
X407514000Y-71017500D01*
G75*
G02*
X407264000Y-70767500I0J250000D01*
G01*
X407264000Y-69567500D01*
G75*
G02*
X407514000Y-69317500I250000J0D01*
G01*
G37*
%TD.AperFunction*%
%TD*%
%TO.P,J13,1*%
%TO.N,P20*%
%TA.AperFunction,ComponentPad*%
G36*
G01*
X473491000Y-80684000D02*
X474691000Y-80684000D01*
G75*
G02*
X474941000Y-80934000I0J-250000D01*
G01*
X474941000Y-82134000D01*
G75*
G02*
X474691000Y-82384000I-250000J0D01*
G01*
X473491000Y-82384000D01*
G75*
G02*
X473241000Y-82134000I0J250000D01*
G01*
X473241000Y-80934000D01*
G75*
G02*
X473491000Y-80684000I250000J0D01*
G01*
G37*
%TD.AperFunction*%
%TO.P,J13,3*%
%TO.N,P22*%
X476631000Y-81534000D03*
%TO.P,J13,5*%
%TO.N,P24*%
X479171000Y-81534000D03*
%TO.P,J13,7*%
%TO.N,P26*%
X481711000Y-81534000D03*
%TO.P,J13,9*%
%TO.N,P28*%
X484251000Y-81534000D03*
%TO.P,J13,2*%
%TO.N,P21*%
X474091000Y-84074000D03*
%TO.P,J13,4*%
%TO.N,P23*%
X476631000Y-84074000D03*
%TO.P,J13,6*%
%TO.N,P25*%
X479171000Y-84074000D03*
%TO.P,J13,8*%
%TO.N,P27*%
X481711000Y-84074000D03*
%TO.P,J13,10*%
%TO.N,P29*%
X484251000Y-84074000D03*
%TD*%
%TO.P,J14,1*%
%TO.N,Net-(J14-Pad1)*%
%TA.AperFunction,ComponentPad*%
G36*
G01*
X473491000Y-69889000D02*
X474691000Y-69889000D01*
G75*
G02*
X474941000Y-70139000I0J-250000D01*
G01*
X474941000Y-71339000D01*
G75*
G02*
X474691000Y-71589000I-250000J0D01*
G01*
X473491000Y-71589000D01*
G75*
G02*
X473241000Y-71339000I0J250000D01*
G01*
X473241000Y-70139000D01*
G75*
G02*
X473491000Y-69889000I250000J0D01*
G01*
G37*
%TD.AperFunction*%
%TO.P,J14,3*%
%TO.N,Net-(J14-Pad3)*%
X476631000Y-70739000D03*
%TO.P,J14,5*%
%TO.N,Net-(J14-Pad5)*%
X479171000Y-70739000D03*
%TO.P,J14,7*%
%TO.N,GND*%
X481711000Y-70739000D03*
%TO.P,J14,9*%
X484251000Y-70739000D03*
%TO.P,J14,2*%
%TO.N,Net-(J14-Pad2)*%
X474091000Y-73279000D03*
%TO.P,J14,4*%
%TO.N,GND*%
X476631000Y-73279000D03*
%TO.P,J14,6*%
X479171000Y-73279000D03*
%TO.P,J14,8*%
X481711000Y-73279000D03*
%TO.P,J14,10*%
%TO.N,Net-(J14-Pad10)*%
X484251000Y-73279000D03*
%TD*%
%TO.P,J15,1*%
%TO.N,A1+*%
%TA.AperFunction,ComponentPad*%
G36*
G01*
X420272000Y-122725000D02*
X419072000Y-122725000D01*
G75*
G02*
X418822000Y-122475000I0J250000D01*
G01*
X418822000Y-121275000D01*
G75*
G02*
X419072000Y-121025000I250000J0D01*
G01*
X420272000Y-121025000D01*
G75*
G02*
X420522000Y-121275000I0J-250000D01*
G01*
X420522000Y-122475000D01*
G75*
G02*
X420272000Y-122725000I-250000J0D01*
G01*
G37*
%TD.AperFunction*%
%TO.P,J15,3*%
%TO.N,A2+*%
X417132000Y-121875000D03*
%TO.P,J15,5*%
%TO.N,A3+*%
X414592000Y-121875000D03*
%TO.P,J15,7*%
%TO.N,A4+*%
X412052000Y-121875000D03*
%TO.P,J15,9*%
%TO.N,GND*%
X409512000Y-121875000D03*
%TO.P,J15,2*%
%TO.N,A1-*%
X419672000Y-119335000D03*
%TO.P,J15,4*%
%TO.N,A2-*%
X417132000Y-119335000D03*
%TO.P,J15,6*%
%TO.N,A3-*%
X414592000Y-119335000D03*
%TO.P,J15,8*%
%TO.N,A4-*%
X412052000Y-119335000D03*
%TO.P,J15,10*%
%TO.N,3.3V_ADC*%
X409512000Y-119335000D03*
%TD*%
%TO.P,J16,1*%
%TO.N,3.3V_ADC*%
%TA.AperFunction,ComponentPad*%
G36*
G01*
X460912000Y-122725000D02*
X459712000Y-122725000D01*
G75*
G02*
X459462000Y-122475000I0J250000D01*
G01*
X459462000Y-121275000D01*
G75*
G02*
X459712000Y-121025000I250000J0D01*
G01*
X460912000Y-121025000D01*
G75*
G02*
X461162000Y-121275000I0J-250000D01*
G01*
X461162000Y-122475000D01*
G75*
G02*
X460912000Y-122725000I-250000J0D01*
G01*
G37*
%TD.AperFunction*%
%TO.P,J16,3*%
%TO.N,5V_ADC*%
X457772000Y-121875000D03*
%TO.P,J16,5*%
%TO.N,AO1*%
X455232000Y-121875000D03*
%TO.P,J16,7*%
%TO.N,AO2*%
X452692000Y-121875000D03*
%TO.P,J16,9*%
%TO.N,GND*%
X450152000Y-121875000D03*
%TO.P,J16,2*%
%TO.N,AO0*%
X460312000Y-119335000D03*
%TO.P,J16,4*%
%TO.N,GND*%
X457772000Y-119335000D03*
%TO.P,J16,6*%
X455232000Y-119335000D03*
%TO.P,J16,8*%
X452692000Y-119335000D03*
%TO.P,J16,10*%
%TO.N,AO3*%
X450152000Y-119335000D03*
%TD*%
%TO.P,J21,10*%
%TO.N,P9*%
X484251000Y-105664000D03*
%TO.P,J21,8*%
%TO.N,P7*%
X481711000Y-105664000D03*
%TO.P,J21,6*%
%TO.N,P5*%
X479171000Y-105664000D03*
%TO.P,J21,4*%
%TO.N,P3*%
X476631000Y-105664000D03*
%TO.P,J21,2*%
%TO.N,P1*%
X474091000Y-105664000D03*
%TO.P,J21,9*%
%TO.N,P8*%
X484251000Y-103124000D03*
%TO.P,J21,7*%
%TO.N,P6*%
X481711000Y-103124000D03*
%TO.P,J21,5*%
%TO.N,P4*%
X479171000Y-103124000D03*
%TO.P,J21,3*%
%TO.N,P2*%
X476631000Y-103124000D03*
%TO.P,J21,1*%
%TO.N,P0*%
%TA.AperFunction,ComponentPad*%
G36*
G01*
X473491000Y-102274000D02*
X474691000Y-102274000D01*
G75*
G02*
X474941000Y-102524000I0J-250000D01*
G01*
X474941000Y-103724000D01*
G75*
G02*
X474691000Y-103974000I-250000J0D01*
G01*
X473491000Y-103974000D01*
G75*
G02*
X473241000Y-103724000I0J250000D01*
G01*
X473241000Y-102524000D01*
G75*
G02*
X473491000Y-102274000I250000J0D01*
G01*
G37*
%TD.AperFunction*%
%TD*%
%TO.P,J22,10*%
%TO.N,P19*%
X484251000Y-94869000D03*
%TO.P,J22,8*%
%TO.N,P17*%
X481711000Y-94869000D03*
%TO.P,J22,6*%
%TO.N,P15*%
X479171000Y-94869000D03*
%TO.P,J22,4*%
%TO.N,P13*%
X476631000Y-94869000D03*
%TO.P,J22,2*%
%TO.N,P11*%
X474091000Y-94869000D03*
%TO.P,J22,9*%
%TO.N,P18*%
X484251000Y-92329000D03*
%TO.P,J22,7*%
%TO.N,P16*%
X481711000Y-92329000D03*
%TO.P,J22,5*%
%TO.N,P14*%
X479171000Y-92329000D03*
%TO.P,J22,3*%
%TO.N,P12*%
X476631000Y-92329000D03*
%TO.P,J22,1*%
%TO.N,P10*%
%TA.AperFunction,ComponentPad*%
G36*
G01*
X473491000Y-91479000D02*
X474691000Y-91479000D01*
G75*
G02*
X474941000Y-91729000I0J-250000D01*
G01*
X474941000Y-92929000D01*
G75*
G02*
X474691000Y-93179000I-250000J0D01*
G01*
X473491000Y-93179000D01*
G75*
G02*
X473241000Y-92929000I0J250000D01*
G01*
X473241000Y-91729000D01*
G75*
G02*
X473491000Y-91479000I250000J0D01*
G01*
G37*
%TD.AperFunction*%
%TD*%
D16*
%TO.P,JP10,2*%
%TO.N,P61*%
X436626000Y-73787000D03*
D15*
%TO.P,JP10,1*%
%TO.N,FLASH_CS*%
X439166000Y-73787000D03*
%TD*%
%TA.AperFunction,SMDPad,CuDef*%
D20*
%TO.P,U1,101*%
%TO.N,GND*%
G36*
X437477000Y-84043666D02*
G01*
X441012534Y-87579200D01*
X437477000Y-91114734D01*
X433941466Y-87579200D01*
X437477000Y-84043666D01*
G37*
%TD.AperFunction*%
D21*
X434295019Y-87579200D03*
X435090515Y-86783705D03*
X435886010Y-85988210D03*
X436681505Y-85192715D03*
X437477000Y-84397219D03*
X435090515Y-88374695D03*
X435886010Y-87579200D03*
X436681505Y-86783705D03*
X437477000Y-85988210D03*
X438272495Y-85192715D03*
X435886010Y-89170190D03*
X436681505Y-88374695D03*
X437477000Y-87579200D03*
X438272495Y-86783705D03*
X439067990Y-85988210D03*
X436681505Y-89965685D03*
X437477000Y-89170190D03*
X438272495Y-88374695D03*
X439067990Y-87579200D03*
X439863485Y-86783705D03*
X437477000Y-90761181D03*
X438272495Y-89965685D03*
X439067990Y-89170190D03*
X439863485Y-88374695D03*
X440658981Y-87579200D03*
%TD*%
D16*
%TO.P,J18,8*%
%TO.N,Net-(J18-Pad8)*%
X461010000Y-112268000D03*
%TO.P,J18,7*%
%TO.N,Net-(J18-Pad7)*%
X458470000Y-112268000D03*
%TO.P,J18,6*%
%TO.N,Net-(J18-Pad6)*%
X455930000Y-112268000D03*
%TO.P,J18,5*%
%TO.N,Net-(J18-Pad5)*%
X453390000Y-112268000D03*
%TO.P,J18,4*%
%TO.N,Net-(J18-Pad4)*%
X450850000Y-112268000D03*
%TO.P,J18,3*%
%TO.N,Net-(J18-Pad3)*%
X448310000Y-112268000D03*
%TO.P,J18,2*%
%TO.N,Net-(J18-Pad2)*%
X445770000Y-112268000D03*
D15*
%TO.P,J18,1*%
%TO.N,Net-(J18-Pad1)*%
X443230000Y-112268000D03*
%TD*%
%TO.P,J19,1*%
%TO.N,Net-(J19-Pad1)*%
X466090000Y-112268000D03*
D16*
%TO.P,J19,2*%
%TO.N,Net-(J19-Pad2)*%
X468630000Y-112268000D03*
%TO.P,J19,3*%
%TO.N,Net-(J19-Pad3)*%
X471170000Y-112268000D03*
%TO.P,J19,4*%
%TO.N,Net-(J19-Pad4)*%
X473710000Y-112268000D03*
%TO.P,J19,5*%
%TO.N,Net-(J19-Pad5)*%
X476250000Y-112268000D03*
%TO.P,J19,6*%
%TO.N,Net-(J19-Pad6)*%
X478790000Y-112268000D03*
%TO.P,J19,7*%
%TO.N,Net-(J19-Pad7)*%
X481330000Y-112268000D03*
%TO.P,J19,8*%
%TO.N,Net-(J19-Pad8)*%
X483870000Y-112268000D03*
%TD*%
D15*
%TO.P,J20,1*%
%TO.N,Net-(J20-Pad1)*%
X420370000Y-112268000D03*
D16*
%TO.P,J20,2*%
%TO.N,3.3V_MAIN1*%
X422910000Y-112268000D03*
%TO.P,J20,3*%
%TO.N,RESET*%
X425450000Y-112268000D03*
%TO.P,J20,4*%
%TO.N,3.3V_MAIN1*%
X427990000Y-112268000D03*
%TO.P,J20,5*%
%TO.N,5V_MAIN1*%
X430530000Y-112268000D03*
%TO.P,J20,6*%
%TO.N,GND*%
X433070000Y-112268000D03*
%TO.P,J20,7*%
X435610000Y-112268000D03*
%TO.P,J20,8*%
%TO.N,VIN_L1*%
X438150000Y-112268000D03*
%TD*%
D15*
%TO.P,J23,1*%
%TO.N,5V_MAIN1*%
X458597000Y-84328000D03*
D16*
%TO.P,J23,2*%
%TO.N,P53*%
X456057000Y-84328000D03*
%TO.P,J23,3*%
%TO.N,P52*%
X458597000Y-86868000D03*
%TO.P,J23,4*%
%TO.N,P51*%
X456057000Y-86868000D03*
%TO.P,J23,5*%
%TO.N,GND*%
X458597000Y-89408000D03*
%TO.P,J23,6*%
%TO.N,RESET*%
X456057000Y-89408000D03*
%TD*%
D15*
%TO.P,J24,1*%
%TO.N,Net-(J24-Pad1)*%
X411226000Y-64008000D03*
D16*
%TO.P,J24,2*%
%TO.N,Net-(J24-Pad2)*%
X413766000Y-64008000D03*
%TO.P,J24,3*%
%TO.N,Net-(J24-Pad3)*%
X416306000Y-64008000D03*
%TO.P,J24,4*%
%TO.N,GND*%
X418846000Y-64008000D03*
%TO.P,J24,5*%
%TO.N,Net-(J24-Pad5)*%
X421386000Y-64008000D03*
%TO.P,J24,6*%
%TO.N,Net-(J24-Pad6)*%
X423926000Y-64008000D03*
%TO.P,J24,7*%
%TO.N,Net-(J24-Pad7)*%
X426466000Y-64008000D03*
%TO.P,J24,8*%
%TO.N,P55*%
X429006000Y-64008000D03*
%TO.P,J24,9*%
%TO.N,P54*%
X431546000Y-64008000D03*
%TO.P,J24,10*%
%TO.N,Net-(J24-Pad10)*%
X434086000Y-64008000D03*
%TD*%
%TO.P,J25,8*%
%TO.N,Net-(J25-Pad8)*%
X455930000Y-64008000D03*
%TO.P,J25,7*%
%TO.N,Net-(J25-Pad7)*%
X453390000Y-64008000D03*
%TO.P,J25,6*%
%TO.N,Net-(J25-Pad6)*%
X450850000Y-64008000D03*
%TO.P,J25,5*%
%TO.N,Net-(J25-Pad5)*%
X448310000Y-64008000D03*
%TO.P,J25,4*%
%TO.N,Net-(J25-Pad4)*%
X445770000Y-64008000D03*
%TO.P,J25,3*%
%TO.N,Net-(J25-Pad3)*%
X443230000Y-64008000D03*
%TO.P,J25,2*%
%TO.N,Net-(J25-Pad2)*%
X440690000Y-64008000D03*
D15*
%TO.P,J25,1*%
%TO.N,Net-(J25-Pad1)*%
X438150000Y-64008000D03*
%TD*%
%TO.P,J26,1*%
%TO.N,Net-(J26-Pad1)*%
X461010000Y-64008000D03*
D16*
%TO.P,J26,2*%
%TO.N,Net-(J26-Pad2)*%
X463550000Y-64008000D03*
%TO.P,J26,3*%
%TO.N,Net-(J26-Pad3)*%
X466090000Y-64008000D03*
%TO.P,J26,4*%
%TO.N,Net-(J26-Pad4)*%
X468630000Y-64008000D03*
%TO.P,J26,5*%
%TO.N,Net-(J26-Pad5)*%
X471170000Y-64008000D03*
%TO.P,J26,6*%
%TO.N,Net-(J26-Pad6)*%
X473710000Y-64008000D03*
%TO.P,J26,7*%
%TO.N,P57*%
X476250000Y-64008000D03*
%TO.P,J26,8*%
%TO.N,P56*%
X478790000Y-64008000D03*
%TD*%
D15*
%TO.P,J33,1*%
%TO.N,HS_VIN*%
X396494000Y-127889000D03*
D16*
%TO.P,J33,2*%
%TO.N,HS_1*%
X396494000Y-130429000D03*
%TO.P,J33,3*%
%TO.N,HS_2*%
X396494000Y-132969000D03*
%TO.P,J33,4*%
%TO.N,HS_3*%
X396494000Y-135509000D03*
%TO.P,J33,5*%
%TO.N,HS_4*%
X396494000Y-138049000D03*
%TO.P,J33,6*%
%TO.N,GND*%
X396494000Y-140589000D03*
%TD*%
D22*
%TO.P,SW1,2*%
%TO.N,GND*%
X396312000Y-121666000D03*
%TO.P,SW1,1*%
%TO.N,RESET*%
X400812000Y-121666000D03*
%TO.P,SW1,2*%
%TO.N,GND*%
X396312000Y-115166000D03*
%TO.P,SW1,1*%
%TO.N,RESET*%
X400812000Y-115166000D03*
%TD*%
D23*
%TO.P,J32,8*%
%TO.N,Net-(J32-Pad8)*%
X444722000Y-159909000D03*
D24*
%TO.P,J32,11*%
%TO.N,N/C*%
X445922000Y-159784000D03*
D25*
X446172000Y-152184000D03*
D26*
%TO.P,J32,9*%
%TO.N,Net-(J32-Pad9)*%
X445847000Y-150684000D03*
D27*
%TO.P,J32,11*%
%TO.N,N/C*%
X434222000Y-151534000D03*
D23*
%TO.P,J32,7*%
%TO.N,Net-(J32-Pad7)*%
X443622000Y-159909000D03*
%TO.P,J32,6*%
%TO.N,GND*%
X442522000Y-159909000D03*
%TO.P,J32,5*%
%TO.N,P40*%
X441422000Y-159909000D03*
%TO.P,J32,4*%
%TO.N,+3V3*%
X440322000Y-159909000D03*
%TO.P,J32,3*%
%TO.N,P41*%
X439222000Y-159909000D03*
%TO.P,J32,2*%
%TO.N,P42*%
X438122000Y-159909000D03*
%TO.P,J32,1*%
%TO.N,Net-(J32-Pad1)*%
X437022000Y-159909000D03*
D28*
%TO.P,J32,11*%
%TO.N,N/C*%
X434572000Y-159784000D03*
D29*
%TO.P,J32,10*%
X434622000Y-149109000D03*
%TD*%
D15*
%TO.P,J34,1*%
%TO.N,RESET*%
X509588000Y-114744000D03*
D16*
%TO.P,J34,2*%
%TO.N,P62*%
X509588000Y-117284000D03*
%TO.P,J34,3*%
%TO.N,P63*%
X509588000Y-119824000D03*
%TO.P,J34,4*%
%TO.N,VBUS*%
X509588000Y-122364000D03*
%TO.P,J34,5*%
%TO.N,Net-(J34-Pad5)*%
X509588000Y-124904000D03*
%TO.P,J34,6*%
%TO.N,GND*%
X509588000Y-127444000D03*
%TD*%
D11*
%TO.P,F1,2*%
%TO.N,Net-(C73-Pad1)*%
X400558000Y-17208500D03*
%TO.P,F1,1*%
%TO.N,VIN_RAW*%
X400558000Y-19708500D03*
%TD*%
%TO.P,F2,1*%
%TO.N,VIN_RAW*%
X410972000Y-24638000D03*
%TO.P,F2,2*%
%TO.N,Net-(C91-Pad1)*%
X410972000Y-22138000D03*
%TD*%
%TO.P,F3,1*%
%TO.N,VIN_RAW*%
X412242000Y-19391000D03*
%TO.P,F3,2*%
%TO.N,Net-(C75-Pad1)*%
X412242000Y-16891000D03*
%TD*%
D30*
%TO.N,Net-(BT1-Pad1)*%
X476314000Y-128080000D03*
%TO.N,GND*%
X414844300Y-81728200D03*
X409727600Y-97350900D03*
X449494500Y-85514400D03*
X411265900Y-90549000D03*
X405686700Y-58657300D03*
X421168000Y-90696700D03*
X407127800Y-78684400D03*
X421219000Y-77795500D03*
X405850000Y-32146900D03*
X428057900Y-70843500D03*
X401302200Y-32689800D03*
X435053300Y-104749400D03*
X427024600Y-99489500D03*
X411554100Y-86244200D03*
X465857700Y-94714900D03*
X448998000Y-75115400D03*
X399796000Y-94615000D03*
X465582000Y-27178000D03*
X409448000Y-130492000D03*
X414210000Y-130175000D03*
X415988000Y-130937000D03*
X420814000Y-131508000D03*
X421068000Y-130683000D03*
X431864000Y-131191000D03*
X426530000Y-131445000D03*
X427038000Y-130556000D03*
X429006000Y-142176000D03*
X427800000Y-142176000D03*
X423164000Y-142367000D03*
X422212000Y-142367000D03*
X417512000Y-142494000D03*
X416624000Y-142558000D03*
X411162000Y-142176000D03*
X410274000Y-142304000D03*
X415036000Y-148018000D03*
X408686000Y-151828000D03*
X408750000Y-149860000D03*
X408686000Y-146240000D03*
X408750000Y-148082000D03*
X408750000Y-144145000D03*
X414972000Y-149479000D03*
X418592000Y-149924000D03*
X429578000Y-147828000D03*
X425514000Y-149225000D03*
X425577000Y-154368000D03*
X417449000Y-158115000D03*
X422084000Y-158750000D03*
X422910000Y-159830000D03*
X430212000Y-157353000D03*
X428498000Y-156146000D03*
X427546000Y-155321000D03*
X426593000Y-155321000D03*
X424053000Y-159830000D03*
X510350000Y-37846000D03*
X511810000Y-37782500D03*
X511874000Y-34671000D03*
X510413000Y-34671000D03*
X512382000Y-30861000D03*
X509842000Y-29210000D03*
X509968000Y-27813000D03*
X512064000Y-26225500D03*
X511429000Y-24511000D03*
X511492000Y-19113500D03*
X510159000Y-19177000D03*
X508762000Y-19177000D03*
X507492000Y-19177000D03*
X494220000Y-24955500D03*
X492379000Y-25082500D03*
X494030000Y-21463000D03*
X492252000Y-21463000D03*
X453006500Y-95164500D03*
X442024000Y-67627500D03*
X440690000Y-66357500D03*
X431610000Y-67056000D03*
X404120600Y-89772200D03*
X399860000Y-86614000D03*
X401193000Y-84772500D03*
X394970000Y-101156000D03*
X412052000Y-109093000D03*
X415290000Y-113284000D03*
X415354000Y-114173000D03*
X473202000Y-135954000D03*
X473202000Y-137795000D03*
X473202000Y-139636000D03*
X473202000Y-141351000D03*
X473202000Y-143192000D03*
X473202000Y-144970000D03*
X473202000Y-146748000D03*
X473266000Y-148590000D03*
X473202000Y-150432000D03*
X473138000Y-152146000D03*
X473266000Y-153988000D03*
X473266000Y-155829000D03*
X473202000Y-157670000D03*
X438468000Y-156400000D03*
X442532000Y-158369000D03*
X455803000Y-129667000D03*
X455866000Y-131000000D03*
X462216000Y-129159000D03*
X462216000Y-131254000D03*
X462216000Y-133096000D03*
X452946000Y-132969000D03*
X446342000Y-133096000D03*
X446342000Y-131128000D03*
X485458000Y-125476000D03*
X472440000Y-126746000D03*
X472440000Y-125540000D03*
X472504000Y-124206000D03*
X472567000Y-122936000D03*
X472504000Y-121666000D03*
X485330000Y-121730000D03*
X485330000Y-123000000D03*
X485330000Y-124206000D03*
X452374000Y-149796000D03*
X452247000Y-147892000D03*
X448183000Y-147892000D03*
X448183000Y-149860000D03*
X511874000Y-157353000D03*
X510858000Y-157353000D03*
X483108000Y-145542000D03*
X486029000Y-140208000D03*
X490093000Y-138049000D03*
X498030000Y-117348000D03*
X499682000Y-118872000D03*
X504444000Y-118554000D03*
X502285000Y-118554000D03*
X505587000Y-117475000D03*
X505524000Y-113856000D03*
X510032000Y-104902000D03*
X511429000Y-104902000D03*
X511302000Y-108077000D03*
X510286000Y-108014000D03*
X512191000Y-96456500D03*
X512128000Y-101156000D03*
X510350000Y-99504500D03*
X510350000Y-97853500D03*
X510413000Y-94869000D03*
X510476000Y-89598500D03*
X509143000Y-89598500D03*
X507873000Y-89662000D03*
X506603000Y-89598500D03*
X494030000Y-95059500D03*
X492316000Y-95123000D03*
X494030000Y-91313000D03*
X492506000Y-91376500D03*
X499491000Y-86042500D03*
X498284000Y-86042500D03*
X497332000Y-84391500D03*
X504825000Y-84963000D03*
X503555000Y-86106000D03*
X504762000Y-81470500D03*
X509714000Y-75374500D03*
X511112000Y-75438000D03*
X511238000Y-72199500D03*
X509778000Y-72326500D03*
X511366000Y-63690500D03*
X511429000Y-68516500D03*
X509397000Y-66675000D03*
X509397000Y-65405000D03*
X509397000Y-62484000D03*
X509397000Y-57150000D03*
X508064000Y-57213500D03*
X506794000Y-57150000D03*
X505524000Y-57213500D03*
X492824000Y-62166500D03*
X491236000Y-62230000D03*
X493141000Y-58610500D03*
X491490000Y-58547000D03*
X504380000Y-41846500D03*
X507556000Y-41846500D03*
X508762000Y-45466000D03*
X508000000Y-47180500D03*
X506984000Y-47180500D03*
X499682000Y-45529500D03*
X498856000Y-47117000D03*
X497904000Y-47180500D03*
X498729000Y-41846500D03*
X495364000Y-41719500D03*
X486283000Y-48387000D03*
X488188000Y-48323500D03*
X487998000Y-44323000D03*
X486346000Y-44450000D03*
X489839000Y-36385500D03*
X489839000Y-31051500D03*
X488632000Y-31115000D03*
X487299000Y-31051500D03*
X485902000Y-31178500D03*
X467614000Y-35623500D03*
X466408000Y-30670500D03*
X463931000Y-30734000D03*
X472059000Y-31940500D03*
X473710000Y-32067500D03*
X474028000Y-35433000D03*
X472313000Y-35496500D03*
X471551000Y-39116000D03*
X471551000Y-40894000D03*
X467487000Y-40894000D03*
X467550000Y-39370000D03*
X480378000Y-57150000D03*
X481965000Y-57404000D03*
X482028000Y-54038500D03*
X480568000Y-54102000D03*
X449898000Y-58801000D03*
X447612000Y-58737500D03*
X445072000Y-46482000D03*
X446405000Y-46545500D03*
X446278000Y-49466500D03*
X445135000Y-49466500D03*
X449390000Y-31813500D03*
X451612000Y-31940500D03*
X451548000Y-35687000D03*
X449516000Y-35560000D03*
X449262000Y-39370000D03*
X449199000Y-41465500D03*
X445135000Y-41529000D03*
X445072000Y-39687500D03*
X445198000Y-36068000D03*
X445072000Y-30797500D03*
X443928000Y-30670500D03*
X442658000Y-30734000D03*
X441388000Y-30734000D03*
X426466000Y-39433500D03*
X426466000Y-41275000D03*
X467360000Y-45974000D03*
X468884000Y-45974000D03*
X468630000Y-48958500D03*
X467614000Y-49022000D03*
X471551000Y-58928000D03*
X469074000Y-54610000D03*
X471551000Y-51244500D03*
X469710000Y-51244500D03*
X468566000Y-51308000D03*
X462026000Y-58610500D03*
X459676000Y-58674000D03*
X462026000Y-51244500D03*
X459613000Y-51117500D03*
X456946000Y-54546500D03*
X457772000Y-51117500D03*
X456502000Y-51181000D03*
X449770000Y-51371500D03*
X447738000Y-51371500D03*
X445960000Y-51435000D03*
X444944000Y-51498500D03*
X438468000Y-58737500D03*
X438340000Y-51371500D03*
X435166000Y-51181000D03*
X433578000Y-51308000D03*
X432181000Y-51308000D03*
X415988000Y-58737500D03*
X414020000Y-58737500D03*
X411861000Y-54927500D03*
X411290000Y-51435000D03*
X412432000Y-51435000D03*
X414147000Y-51371500D03*
X416052000Y-51435000D03*
X425450000Y-58674000D03*
X425450000Y-51371500D03*
X423545000Y-51308000D03*
X422275000Y-51244500D03*
X420751000Y-47498000D03*
X423608000Y-48831500D03*
X422338000Y-48768000D03*
X426847000Y-31750000D03*
X428498000Y-31877000D03*
X428562000Y-35433000D03*
X426847000Y-35369500D03*
X422974000Y-36258500D03*
X419164000Y-30988000D03*
X420370000Y-30924500D03*
X421704000Y-30988000D03*
X422974000Y-30988000D03*
X405183000Y-22489600D03*
X408395000Y-20610800D03*
X419354000Y-22669500D03*
X416814000Y-22542500D03*
X417830000Y-16891000D03*
X406464000Y-16891000D03*
%TO.N,+1V8*%
X447341100Y-79200800D03*
X434865600Y-69644500D03*
X449272900Y-83436000D03*
X443744600Y-95890700D03*
X442123200Y-96646400D03*
X427387700Y-94230300D03*
X428928800Y-95576000D03*
X438022300Y-97653600D03*
X433197000Y-59436000D03*
%TO.N,VIN_L1*%
X450672600Y-100870700D03*
X468701500Y-99070600D03*
X410998100Y-112876900D03*
X456565000Y-65722500D03*
X455676000Y-61531500D03*
X505460000Y-59436000D03*
X442150000Y-32956500D03*
X429324000Y-28575000D03*
X445452000Y-17272000D03*
X440436000Y-17272000D03*
X435546000Y-17780000D03*
X413179000Y-28273200D03*
%TO.N,+5V*%
X478736600Y-132058300D03*
X469473400Y-127097300D03*
%TO.N,+5V_3*%
X481453600Y-153990100D03*
X491744000Y-28511500D03*
X476250000Y-20320000D03*
X470789000Y-20320000D03*
X465900000Y-20320000D03*
%TO.N,+5V_1*%
X480817000Y-146088700D03*
X430938000Y-28548300D03*
X445580000Y-20383500D03*
X440754000Y-20383500D03*
X435737000Y-20383500D03*
%TO.N,+5V_2*%
X481946700Y-146268600D03*
X469202000Y-28575000D03*
X460756000Y-20320000D03*
X455486000Y-20320000D03*
X450723000Y-20320000D03*
%TO.N,+3.3V_3*%
X480321500Y-153163500D03*
X464058000Y-59563000D03*
X470154000Y-34734500D03*
X476186000Y-23368000D03*
X470852000Y-23368000D03*
X465836000Y-23368000D03*
%TO.N,+3.3V_1*%
X489166300Y-77996300D03*
X457668200Y-66166700D03*
X442976000Y-51435000D03*
X434594000Y-30861000D03*
X445680000Y-23785800D03*
X440372000Y-23368000D03*
X435420000Y-23368000D03*
%TO.N,+3.3V_2*%
X476983000Y-147476600D03*
X455866000Y-27686000D03*
X455866000Y-34798000D03*
X456311000Y-49911000D03*
X460820000Y-23368000D03*
X455740000Y-23368000D03*
X450850000Y-23368000D03*
%TO.N,+3V3*%
X461610300Y-110828600D03*
X413290000Y-109212100D03*
X417303800Y-93831100D03*
X403866500Y-107302600D03*
X440246000Y-158242000D03*
X481330000Y-129350000D03*
X402272000Y-125794000D03*
%TO.N,VIN_IO*%
X507492000Y-24701500D03*
X409638000Y-29718000D03*
%TO.N,VIN_ADC*%
X410335900Y-30679600D03*
X505333000Y-91249500D03*
X403162000Y-23939500D03*
%TO.N,5V_ADC*%
X483275800Y-114498800D03*
X462305000Y-107377300D03*
X422735300Y-99446000D03*
X476960000Y-116026300D03*
X491617000Y-104902000D03*
%TO.N,3.3V_ADC*%
X489068300Y-121443000D03*
X478939800Y-133543900D03*
%TO.N,VBUS*%
X416046500Y-101149700D03*
%TO.N,Net-(C104-Pad1)*%
X410714500Y-89152100D03*
X408963500Y-89802900D03*
%TO.N,RESET*%
X469912400Y-105378300D03*
X461341200Y-101282700D03*
X416391500Y-90600900D03*
X417336000Y-56030700D03*
X420927200Y-66230500D03*
%TO.N,FLASH_CS*%
X452944800Y-83657100D03*
%TO.N,5V_MAIN1*%
X437579700Y-62009600D03*
X456287300Y-99460900D03*
X431990000Y-109156000D03*
X490284000Y-76263500D03*
%TO.N,3.3V_MAIN1*%
X462184100Y-76873800D03*
X476573000Y-110845600D03*
X462470000Y-114131000D03*
X463614000Y-109474000D03*
X490918000Y-80708500D03*
%TO.N,Net-(J32-Pad7)*%
X440246000Y-147828000D03*
%TO.N,V_0_3*%
X429232100Y-78793900D03*
X405397700Y-51827200D03*
X410835300Y-50214600D03*
X406984900Y-59893500D03*
X402646700Y-61233600D03*
X466302100Y-68364100D03*
X432008600Y-72651100D03*
X427302700Y-71452000D03*
X446696100Y-77199300D03*
X500316000Y-56388000D03*
%TO.N,V_32_35*%
X401869500Y-75406700D03*
X444945200Y-87591100D03*
X401469000Y-49066700D03*
X429068500Y-61521000D03*
X402734800Y-56868400D03*
X462978000Y-66611500D03*
X493204000Y-51752500D03*
%TO.N,P0*%
X412411900Y-36439800D03*
X456440300Y-69284700D03*
%TO.N,P1*%
X472125500Y-102649400D03*
X401482700Y-29873000D03*
X450003700Y-80884400D03*
%TO.N,P2*%
X402161900Y-31447600D03*
X438225200Y-66217200D03*
X448652900Y-80665900D03*
X455969700Y-76402800D03*
%TO.N,P3*%
X442494300Y-75618000D03*
X447970200Y-80004700D03*
X402980800Y-32754700D03*
%TO.N,P4*%
X402247100Y-33527000D03*
X443802000Y-86233900D03*
X479171000Y-99284900D03*
%TO.N,P5*%
X458937100Y-78377600D03*
X446186400Y-80172300D03*
X403732600Y-37020300D03*
%TO.N,P6*%
X469832300Y-103987600D03*
X403384200Y-38321400D03*
X442789000Y-87697300D03*
%TO.N,P7*%
X401457400Y-37026500D03*
X442572100Y-62170900D03*
X444222300Y-78095900D03*
X477095800Y-28732100D03*
%TO.N,P8*%
X438930400Y-61954100D03*
X437932200Y-71044200D03*
X440741400Y-81829600D03*
X401733800Y-38015300D03*
%TO.N,P9*%
X468603200Y-103740000D03*
X443869200Y-79958200D03*
X407894700Y-39838400D03*
%TO.N,P10*%
X410057700Y-39963200D03*
X444632100Y-76287900D03*
%TO.N,P11*%
X410639600Y-41202700D03*
X443200100Y-76280300D03*
%TO.N,P12*%
X413918300Y-43151200D03*
X442286200Y-73854600D03*
X463750700Y-89356700D03*
X457819400Y-80490800D03*
%TO.N,P13*%
X439091900Y-80473900D03*
X410981700Y-45999300D03*
%TO.N,P14*%
X438648200Y-75389700D03*
X407458900Y-47843800D03*
X439966600Y-77293300D03*
%TO.N,P15*%
X402418800Y-47415800D03*
X432877500Y-62147000D03*
X461143300Y-80737800D03*
%TO.N,P16*%
X403251200Y-48271900D03*
X434662300Y-74068200D03*
X461396500Y-87628800D03*
%TO.N,P17*%
X426424100Y-67371900D03*
X402994800Y-50621200D03*
X434639100Y-77157700D03*
%TO.N,P18*%
X478551800Y-90675300D03*
X435812400Y-80255900D03*
X401594200Y-50614600D03*
X427877800Y-62839200D03*
%TO.N,P19*%
X451624300Y-85034900D03*
X432524000Y-75066000D03*
X404263900Y-51315700D03*
%TO.N,P20*%
X433179600Y-49846200D03*
X402478500Y-52200800D03*
X422783200Y-62640700D03*
%TO.N,P21*%
X401540400Y-54333000D03*
X426440800Y-70775500D03*
X432047300Y-79137900D03*
%TO.N,P22*%
X474488800Y-90045300D03*
X433903200Y-82163100D03*
X431195100Y-76213700D03*
X403857900Y-52259800D03*
%TO.N,P23*%
X475881700Y-90164300D03*
X424861000Y-70774800D03*
X401932400Y-57410100D03*
X431552000Y-80488600D03*
%TO.N,P24*%
X469604300Y-91536300D03*
X432639400Y-83541500D03*
X430576700Y-80593500D03*
X407967700Y-57725300D03*
X423169700Y-70090400D03*
%TO.N,P25*%
X406236800Y-60489500D03*
X425189700Y-73950400D03*
X430305300Y-81944200D03*
X472787100Y-90445600D03*
%TO.N,P26*%
X460048700Y-84024100D03*
X402503000Y-62914800D03*
X428281700Y-78561000D03*
X431155400Y-84919500D03*
%TO.N,P27*%
X460775300Y-86180900D03*
X429912100Y-74615300D03*
X409565400Y-66406000D03*
%TO.N,P28*%
X427189800Y-81967000D03*
X476556800Y-90857900D03*
X411676800Y-73870200D03*
%TO.N,P29*%
X433946000Y-99985000D03*
X428695800Y-87398100D03*
X408000200Y-76054000D03*
%TO.N,P30*%
X404939900Y-73879600D03*
X420545800Y-84875600D03*
X427453700Y-67958900D03*
X428643500Y-76955700D03*
%TO.N,P31*%
X422578400Y-89961600D03*
X470069500Y-94637400D03*
X466321300Y-72933000D03*
X402477500Y-69390300D03*
X421014600Y-86306000D03*
%TO.N,P32*%
X409072800Y-76454300D03*
X466352500Y-77463400D03*
X467276800Y-93587500D03*
X434369100Y-90870000D03*
%TO.N,P33*%
X403572000Y-72454100D03*
X421967700Y-86240100D03*
X426592500Y-90870100D03*
X470806200Y-95244800D03*
%TO.N,P34*%
X426401300Y-93882300D03*
X471921900Y-95972100D03*
X405460500Y-99431100D03*
%TO.N,P35*%
X404846600Y-76736800D03*
X430673700Y-89646500D03*
X490311900Y-139002700D03*
X427513600Y-108190700D03*
%TO.N,P36*%
X424164300Y-98575000D03*
X490090400Y-152068000D03*
X404149900Y-82138000D03*
%TO.N,P37*%
X436984900Y-109671600D03*
X431574800Y-90407700D03*
X432137800Y-104453900D03*
X402295000Y-77360800D03*
%TO.N,P38*%
X464238800Y-108103900D03*
X406095900Y-104450900D03*
X429138700Y-94441800D03*
X427298300Y-101657400D03*
%TO.N,P39*%
X408883000Y-107659200D03*
X436991000Y-144950400D03*
X429963800Y-94960800D03*
X429330400Y-103096200D03*
%TO.N,P40*%
X403784400Y-96223800D03*
X440356000Y-153541400D03*
X429662100Y-96437600D03*
X427309300Y-102634300D03*
%TO.N,P41*%
X409526400Y-98474500D03*
X439222000Y-152750300D03*
X431222200Y-96178800D03*
X428410300Y-104573000D03*
%TO.N,P42*%
X430366500Y-97233500D03*
X426912500Y-103598700D03*
X415197300Y-111839200D03*
X438255300Y-153247500D03*
%TO.N,P43*%
X404976500Y-78590100D03*
X415708700Y-87977600D03*
X426204200Y-105267200D03*
X415278800Y-110359500D03*
X413912800Y-152188400D03*
%TO.N,P44*%
X417539700Y-99417000D03*
X438522100Y-104518500D03*
X417313900Y-153725900D03*
%TO.N,P45*%
X403890900Y-70240300D03*
X433431800Y-90296800D03*
X416906200Y-150876200D03*
X434042700Y-96803300D03*
X403877300Y-106109400D03*
%TO.N,P46*%
X417565700Y-97883500D03*
X409137100Y-156002500D03*
X406062400Y-88105200D03*
X435502000Y-100944000D03*
%TO.N,P47*%
X436607000Y-100992800D03*
X402469700Y-65599300D03*
X431258200Y-86974000D03*
X413132800Y-156133500D03*
%TO.N,P48*%
X458874900Y-108652100D03*
X456150600Y-136236300D03*
X402159300Y-59741300D03*
X436632100Y-92717000D03*
%TO.N,P49*%
X465156400Y-107182000D03*
X402332700Y-58760800D03*
X417720300Y-66587000D03*
X418282900Y-94946200D03*
X440176800Y-99109400D03*
%TO.N,P50*%
X403410100Y-66862300D03*
X438957500Y-91338900D03*
X460733700Y-109228700D03*
X452378700Y-134682700D03*
X438835500Y-93517600D03*
%TO.N,P51*%
X411498900Y-101376200D03*
X418469600Y-97347700D03*
X442802700Y-98465600D03*
%TO.N,P52*%
X439990700Y-93640100D03*
X402100800Y-119498600D03*
X403544200Y-130553900D03*
X404485800Y-60575600D03*
X415076600Y-86309800D03*
X414167000Y-89124400D03*
%TO.N,P53*%
X402891100Y-54717100D03*
X419962200Y-66169300D03*
X419515700Y-91654400D03*
X442093300Y-95696000D03*
X403542300Y-136013600D03*
%TO.N,P54*%
X407321800Y-83088900D03*
X401661100Y-112747400D03*
X403544200Y-140463100D03*
X437300200Y-81844100D03*
%TO.N,P55*%
X442041500Y-91625600D03*
X473129700Y-99300100D03*
X431611500Y-77564400D03*
%TO.N,P56*%
X425293800Y-80915100D03*
X444950500Y-97069400D03*
X482852700Y-96718100D03*
%TO.N,P57*%
X476043200Y-97128000D03*
X442331500Y-89545100D03*
%TO.N,P58*%
X466032800Y-96405800D03*
X406664100Y-97582300D03*
X447133900Y-94818600D03*
%TO.N,P59*%
X456849900Y-95646300D03*
X394875000Y-104059200D03*
X443130200Y-90803900D03*
X410325900Y-61313300D03*
%TO.N,P60*%
X407904000Y-87016000D03*
X458707400Y-96085700D03*
X449152700Y-92992200D03*
X400428400Y-104504700D03*
%TO.N,P61*%
X402195900Y-100947800D03*
X408287600Y-88568500D03*
X412599300Y-58520200D03*
X414771600Y-69113500D03*
X437163100Y-80331100D03*
%TO.N,P62*%
X445716100Y-88266900D03*
X469640300Y-102089200D03*
X408831800Y-81197500D03*
%TO.N,P63*%
X419439500Y-94422000D03*
X454868100Y-99060200D03*
X466715000Y-106939600D03*
%TO.N,AO2*%
X455676000Y-132588000D03*
%TO.N,AO1*%
X456565000Y-124079000D03*
%TO.N,AO3*%
X450278000Y-132270000D03*
%TD*%
D31*
%TO.N,Net-(BT1-Pad1)*%
X479627000Y-148717000D02*
X479627000Y-131393000D01*
X479627000Y-131393000D02*
X476314000Y-128080000D01*
%TO.N,GND*%
X401302200Y-32689800D02*
X401175300Y-32689800D01*
X401175300Y-32689800D02*
X401175300Y-33375600D01*
X401175300Y-32105600D02*
X401175300Y-32689800D01*
X396900000Y-30835600D02*
X401175300Y-30835600D01*
X401175300Y-30835600D02*
X401175300Y-32105600D01*
X396900000Y-33375600D02*
X401175300Y-33375600D01*
X396900000Y-32105600D02*
X401175300Y-32105600D01*
X450267000Y-148717000D02*
X451294000Y-148717000D01*
X450267000Y-148717000D02*
X449326000Y-148717000D01*
X450267000Y-148717000D02*
X449326000Y-148717000D01*
X449326000Y-148717000D02*
X448183000Y-149860000D01*
X449326000Y-148717000D02*
X449008000Y-148717000D01*
X449008000Y-148717000D02*
X448183000Y-147892000D01*
X450267000Y-148717000D02*
X451294000Y-148717000D01*
X451294000Y-148717000D02*
X452374000Y-149796000D01*
X451294000Y-148717000D02*
X451422000Y-148717000D01*
X451422000Y-148717000D02*
X452247000Y-147892000D01*
X442522000Y-159909000D02*
X442522000Y-158378000D01*
X442522000Y-158378000D02*
X442532000Y-158369000D01*
%TO.N,+1V8*%
X449272900Y-83436000D02*
X447245900Y-81409000D01*
X447245900Y-81409000D02*
X447245900Y-79296000D01*
X447245900Y-79296000D02*
X447341100Y-79200800D01*
%TO.N,VIN_L1*%
X455232000Y-73279000D02*
X465928800Y-83975800D01*
X465928800Y-83975800D02*
X465928800Y-93830700D01*
X465928800Y-93830700D02*
X468701500Y-96603400D01*
X468701500Y-96603400D02*
X468701500Y-99070600D01*
X396900000Y-28295600D02*
X401175300Y-28295600D01*
X413179000Y-28273200D02*
X401197700Y-28273200D01*
X401197700Y-28273200D02*
X401175300Y-28295600D01*
D32*
X396900000Y-29565600D02*
X396900000Y-28295600D01*
D31*
%TO.N,+5V_1*%
X445580000Y-20383500D02*
X446922400Y-21725900D01*
X446922400Y-21725900D02*
X446922400Y-28344400D01*
X446922400Y-28344400D02*
X452665300Y-34087300D01*
X452665300Y-34087300D02*
X452665300Y-36824600D01*
X452665300Y-36824600D02*
X477375400Y-61534700D01*
X477375400Y-61534700D02*
X477375400Y-65618100D01*
X477375400Y-65618100D02*
X480327700Y-68570400D01*
X480327700Y-68570400D02*
X480327700Y-106098900D01*
X480327700Y-106098900D02*
X480199400Y-106227200D01*
X480199400Y-106227200D02*
X480199400Y-145471100D01*
X480199400Y-145471100D02*
X480817000Y-146088700D01*
%TO.N,+5V_2*%
X469202000Y-28575000D02*
X469735900Y-28041100D01*
X469735900Y-28041100D02*
X477384100Y-28041100D01*
X477384100Y-28041100D02*
X485600500Y-36257500D01*
X485600500Y-36257500D02*
X485600500Y-56949000D01*
X485600500Y-56949000D02*
X485800800Y-57149300D01*
X485800800Y-57149300D02*
X485800800Y-106950100D01*
X485800800Y-106950100D02*
X482600500Y-110150400D01*
X482600500Y-110150400D02*
X482600500Y-135368600D01*
X482600500Y-135368600D02*
X481946700Y-136022400D01*
X481946700Y-136022400D02*
X481946700Y-146268600D01*
%TO.N,+3.3V_2*%
X456311000Y-49911000D02*
X457534500Y-49911000D01*
X457534500Y-49911000D02*
X458692600Y-51069100D01*
X458692600Y-51069100D02*
X458692600Y-51792900D01*
X458692600Y-51792900D02*
X464820000Y-57920300D01*
X464820000Y-57920300D02*
X464820000Y-65133400D01*
X464820000Y-65133400D02*
X471998600Y-72312000D01*
X471998600Y-72312000D02*
X471998600Y-88510100D01*
X471998600Y-88510100D02*
X474209100Y-90720600D01*
X474209100Y-90720600D02*
X474427600Y-90720600D01*
X474427600Y-90720600D02*
X475232200Y-91525200D01*
X475232200Y-91525200D02*
X475232200Y-98405800D01*
X475232200Y-98405800D02*
X477787700Y-100961300D01*
X477787700Y-100961300D02*
X477787700Y-106098900D01*
X477787700Y-106098900D02*
X477653900Y-106232700D01*
X477653900Y-106232700D02*
X477653900Y-125574800D01*
X477653900Y-125574800D02*
X475631100Y-127597600D01*
X475631100Y-127597600D02*
X475631100Y-146124700D01*
X475631100Y-146124700D02*
X476983000Y-147476600D01*
%TO.N,+3V3*%
X440246000Y-158242000D02*
X440246000Y-159832000D01*
X440246000Y-159832000D02*
X440322000Y-159909000D01*
%TO.N,5V_ADC*%
X491617000Y-104902000D02*
X491617000Y-106157600D01*
X491617000Y-106157600D02*
X483275800Y-114498800D01*
X476960000Y-116026300D02*
X473328700Y-116026300D01*
X473328700Y-116026300D02*
X469755400Y-112453000D01*
X469755400Y-112453000D02*
X469755400Y-111777800D01*
X469755400Y-111777800D02*
X466756800Y-108779200D01*
X466756800Y-108779200D02*
X463706900Y-108779200D01*
X463706900Y-108779200D02*
X462305000Y-107377300D01*
%TO.N,Net-(C104-Pad1)*%
X410714500Y-89152100D02*
X409614300Y-89152100D01*
X409614300Y-89152100D02*
X408963500Y-89802900D01*
%TO.N,RESET*%
X461341200Y-101282700D02*
X463089600Y-101282700D01*
X463089600Y-101282700D02*
X467185200Y-105378300D01*
X467185200Y-105378300D02*
X469912400Y-105378300D01*
X420681400Y-108391600D02*
X405149500Y-108391600D01*
X405149500Y-108391600D02*
X401469000Y-112072100D01*
X401469000Y-112072100D02*
X401381400Y-112072100D01*
X401381400Y-112072100D02*
X400985800Y-112467700D01*
X400985800Y-112467700D02*
X400985800Y-112555300D01*
X400985800Y-112555300D02*
X400812000Y-112729100D01*
X400812000Y-112729100D02*
X400812000Y-115166000D01*
X419164100Y-95665200D02*
X418011800Y-95665200D01*
X418011800Y-95665200D02*
X416391500Y-94044900D01*
X416391500Y-94044900D02*
X416391500Y-90600900D01*
X420927200Y-66230500D02*
X420927200Y-76736600D01*
X420927200Y-76736600D02*
X419827500Y-77836300D01*
X419827500Y-77836300D02*
X419827500Y-86713100D01*
X419827500Y-86713100D02*
X420196700Y-87082300D01*
X420196700Y-87082300D02*
X420196700Y-94632600D01*
X420196700Y-94632600D02*
X419164100Y-95665200D01*
X419164100Y-95665200D02*
X421244300Y-97745400D01*
X421244300Y-97745400D02*
X421244300Y-107828700D01*
X421244300Y-107828700D02*
X420681400Y-108391600D01*
X420681400Y-108391600D02*
X424324700Y-112034900D01*
X424324700Y-112034900D02*
X424324700Y-112268000D01*
X425450000Y-112268000D02*
X424324700Y-112268000D01*
X417336000Y-56030700D02*
X417336000Y-51721100D01*
X417336000Y-51721100D02*
X414983800Y-49368900D01*
X414983800Y-49368900D02*
X413391700Y-49368900D01*
X413391700Y-49368900D02*
X404455900Y-40433100D01*
X404455900Y-40433100D02*
X404455900Y-36690900D01*
X404455900Y-36690900D02*
X402410600Y-34645600D01*
X402410600Y-34645600D02*
X396900000Y-34645600D01*
%TO.N,5V_MAIN1*%
X458597000Y-85453300D02*
X458878300Y-85453300D01*
X458878300Y-85453300D02*
X459731400Y-86306400D01*
X459731400Y-86306400D02*
X459731400Y-96016800D01*
X459731400Y-96016800D02*
X456287300Y-99460900D01*
X458597000Y-84328000D02*
X458597000Y-85453300D01*
%TO.N,Net-(J32-Pad7)*%
X440246000Y-147828000D02*
X443622000Y-151204000D01*
X443622000Y-151204000D02*
X443622000Y-159909000D01*
%TO.N,V_0_3*%
X401175300Y-49885600D02*
X402557200Y-49885600D01*
X402557200Y-49885600D02*
X402617500Y-49945900D01*
X402617500Y-49945900D02*
X403850800Y-49945900D01*
X403850800Y-49945900D02*
X405397700Y-51492800D01*
X405397700Y-51492800D02*
X405397700Y-51827200D01*
X406984900Y-59893500D02*
X406790400Y-59699000D01*
X406790400Y-59699000D02*
X406790400Y-53219900D01*
X406790400Y-53219900D02*
X405397700Y-51827200D01*
X401175300Y-62585600D02*
X402527300Y-61233600D01*
X402527300Y-61233600D02*
X402646700Y-61233600D01*
X466302100Y-68364100D02*
X466093900Y-68155900D01*
X466093900Y-68155900D02*
X455275100Y-68155900D01*
X455275100Y-68155900D02*
X452692000Y-70739000D01*
X450152000Y-73279000D02*
X452692000Y-70739000D01*
X446696100Y-77199300D02*
X446696100Y-76398400D01*
X446696100Y-76398400D02*
X449815500Y-73279000D01*
X449815500Y-73279000D02*
X450152000Y-73279000D01*
X396900000Y-36344900D02*
X401766900Y-36344900D01*
X401766900Y-36344900D02*
X402419900Y-36997900D01*
X402419900Y-36997900D02*
X402419900Y-39529700D01*
X402419900Y-39529700D02*
X410835300Y-47945100D01*
X410835300Y-47945100D02*
X410835300Y-50214600D01*
D32*
X396900000Y-36344900D02*
X396900000Y-35915600D01*
X396900000Y-37185600D02*
X396900000Y-36344900D01*
D31*
X396900000Y-62585600D02*
X401175300Y-62585600D01*
X396900000Y-49885600D02*
X401175300Y-49885600D01*
%TO.N,V_32_35*%
X452692000Y-73279000D02*
X447445500Y-78525500D01*
X447445500Y-78525500D02*
X446818000Y-78525500D01*
X446818000Y-78525500D02*
X444945200Y-80398300D01*
X444945200Y-80398300D02*
X444945200Y-87591100D01*
X396900000Y-74650600D02*
X401113400Y-74650600D01*
X401113400Y-74650600D02*
X401869500Y-75406700D01*
D32*
X396900000Y-74650600D02*
X396900000Y-74015600D01*
X396900000Y-75285600D02*
X396900000Y-74650600D01*
D31*
X402734800Y-56868400D02*
X403008000Y-57141600D01*
X403008000Y-57141600D02*
X403008000Y-59886500D01*
X403008000Y-59886500D02*
X401578900Y-61315600D01*
X401578900Y-61315600D02*
X401175300Y-61315600D01*
X396900000Y-48615600D02*
X401175300Y-48615600D01*
X401469000Y-49066700D02*
X401175300Y-48773000D01*
X401175300Y-48773000D02*
X401175300Y-48615600D01*
X396900000Y-61315600D02*
X401175300Y-61315600D01*
%TO.N,P0*%
X474091000Y-103124000D02*
X474091000Y-101426600D01*
X474091000Y-101426600D02*
X466495100Y-93830700D01*
X466495100Y-93830700D02*
X466495100Y-82737100D01*
X466495100Y-82737100D02*
X458897400Y-75139400D01*
X458897400Y-75139400D02*
X458897400Y-72779700D01*
X458897400Y-72779700D02*
X458271300Y-72153600D01*
X458271300Y-72153600D02*
X457570100Y-72153600D01*
X457570100Y-72153600D02*
X456440300Y-71023800D01*
X456440300Y-71023800D02*
X456440300Y-69284700D01*
%TO.N,P2*%
X455969700Y-76402800D02*
X452916000Y-76402800D01*
X452916000Y-76402800D02*
X448652900Y-80665900D01*
X438225200Y-66217200D02*
X436889200Y-64881200D01*
X436889200Y-64881200D02*
X436889200Y-59972500D01*
X436889200Y-59972500D02*
X419392600Y-42475900D01*
X419392600Y-42475900D02*
X410929200Y-42475900D01*
X410929200Y-42475900D02*
X408991200Y-40537900D01*
X408991200Y-40537900D02*
X408991200Y-37730700D01*
X408991200Y-37730700D02*
X402708100Y-31447600D01*
X402708100Y-31447600D02*
X402161900Y-31447600D01*
%TO.N,P3*%
X476631000Y-105664000D02*
X475387800Y-104420800D01*
X475387800Y-104420800D02*
X472941900Y-104420800D01*
X472941900Y-104420800D02*
X465182400Y-96661300D01*
X465182400Y-96661300D02*
X465182400Y-83821800D01*
X465182400Y-83821800D02*
X461176100Y-79815500D01*
X461176100Y-79815500D02*
X452027700Y-79815500D01*
X452027700Y-79815500D02*
X450283500Y-81559700D01*
X450283500Y-81559700D02*
X448569100Y-81559700D01*
X448569100Y-81559700D02*
X447970200Y-80960800D01*
X447970200Y-80960800D02*
X447970200Y-80004700D01*
X442494300Y-75618000D02*
X441587000Y-74710700D01*
X441587000Y-74710700D02*
X441587000Y-71100000D01*
X441587000Y-71100000D02*
X436038500Y-65551500D01*
X436038500Y-65551500D02*
X436038500Y-60254200D01*
X436038500Y-60254200D02*
X420165000Y-44380700D01*
X420165000Y-44380700D02*
X412244300Y-44380700D01*
X412244300Y-44380700D02*
X408570000Y-40706400D01*
X408570000Y-40706400D02*
X408570000Y-38343900D01*
X408570000Y-38343900D02*
X402980800Y-32754700D01*
%TO.N,P4*%
X443802000Y-86233900D02*
X441441600Y-83873500D01*
X441441600Y-83873500D02*
X441441600Y-76087500D01*
X441441600Y-76087500D02*
X440786400Y-75432300D01*
X440786400Y-75432300D02*
X440786400Y-71817700D01*
X440786400Y-71817700D02*
X435237900Y-66269200D01*
X435237900Y-66269200D02*
X435237900Y-63509000D01*
X435237900Y-63509000D02*
X426672900Y-54944000D01*
X426672900Y-54944000D02*
X421726500Y-54944000D01*
X421726500Y-54944000D02*
X415209200Y-48426700D01*
X415209200Y-48426700D02*
X415078800Y-48426700D01*
X415078800Y-48426700D02*
X406200500Y-39548400D01*
X406200500Y-39548400D02*
X406200500Y-37480400D01*
X406200500Y-37480400D02*
X402247100Y-33527000D01*
%TO.N,P6*%
X469832300Y-103987600D02*
X469402500Y-104417400D01*
X469402500Y-104417400D02*
X468267400Y-104417400D01*
X468267400Y-104417400D02*
X460671700Y-96821700D01*
X460671700Y-96821700D02*
X460671700Y-87334800D01*
X460671700Y-87334800D02*
X461450700Y-86555800D01*
X461450700Y-86555800D02*
X461450700Y-83898300D01*
X461450700Y-83898300D02*
X459919500Y-82367100D01*
X459919500Y-82367100D02*
X455270600Y-82367100D01*
X455270600Y-82367100D02*
X447494600Y-90143100D01*
X447494600Y-90143100D02*
X444748300Y-90143100D01*
X444748300Y-90143100D02*
X442789000Y-88183800D01*
X442789000Y-88183800D02*
X442789000Y-87697300D01*
X442789000Y-87697300D02*
X438011400Y-82919700D01*
X438011400Y-82919700D02*
X436794800Y-82919700D01*
X436794800Y-82919700D02*
X434736800Y-80861700D01*
X434736800Y-80861700D02*
X434736800Y-79068300D01*
X434736800Y-79068300D02*
X433087400Y-77418900D01*
X433087400Y-77418900D02*
X433087400Y-76584800D01*
X433087400Y-76584800D02*
X429087900Y-72585300D01*
X429087900Y-72585300D02*
X429087900Y-70875500D01*
X429087900Y-70875500D02*
X427246900Y-69034500D01*
X427246900Y-69034500D02*
X427008100Y-69034500D01*
X427008100Y-69034500D02*
X422656000Y-64682400D01*
X422656000Y-64682400D02*
X422656000Y-63480400D01*
X422656000Y-63480400D02*
X420373000Y-61197400D01*
X420373000Y-61197400D02*
X420373000Y-60989100D01*
X420373000Y-60989100D02*
X413299700Y-53915800D01*
X413299700Y-53915800D02*
X413299700Y-49843200D01*
X413299700Y-49843200D02*
X403384200Y-39927700D01*
X403384200Y-39927700D02*
X403384200Y-38321400D01*
%TO.N,P7*%
X477095800Y-28732100D02*
X484594100Y-36230400D01*
X484594100Y-36230400D02*
X484594100Y-58243700D01*
X484594100Y-58243700D02*
X485400400Y-59050000D01*
X485400400Y-59050000D02*
X485400400Y-96441800D01*
X485400400Y-96441800D02*
X482981000Y-98861200D01*
X482981000Y-98861200D02*
X482981000Y-104394000D01*
X482981000Y-104394000D02*
X481711000Y-105664000D01*
X444222300Y-78095900D02*
X443916100Y-77789700D01*
X443916100Y-77789700D02*
X443916100Y-64919400D01*
X443916100Y-64919400D02*
X444355400Y-64480100D01*
X444355400Y-64480100D02*
X444355400Y-63531900D01*
X444355400Y-63531900D02*
X442994400Y-62170900D01*
X442994400Y-62170900D02*
X442572100Y-62170900D01*
%TO.N,P8*%
X437932200Y-71044200D02*
X437932200Y-76213800D01*
X437932200Y-76213800D02*
X440741400Y-79023000D01*
X440741400Y-79023000D02*
X440741400Y-81829600D01*
%TO.N,P9*%
X468603200Y-103740000D02*
X462251300Y-97388100D01*
X462251300Y-97388100D02*
X462251300Y-83566500D01*
X462251300Y-83566500D02*
X460251300Y-81566500D01*
X460251300Y-81566500D02*
X453181200Y-81566500D01*
X453181200Y-81566500D02*
X449908600Y-84839100D01*
X449908600Y-84839100D02*
X449214800Y-84839100D01*
X449214800Y-84839100D02*
X446391400Y-87662500D01*
X446391400Y-87662500D02*
X446391400Y-88546700D01*
X446391400Y-88546700D02*
X445995900Y-88942200D01*
X445995900Y-88942200D02*
X445327800Y-88942200D01*
X445327800Y-88942200D02*
X444269900Y-87884300D01*
X444269900Y-87884300D02*
X444269900Y-87311400D01*
X444269900Y-87311400D02*
X444505900Y-87075400D01*
X444505900Y-87075400D02*
X444505900Y-80594900D01*
X444505900Y-80594900D02*
X443869200Y-79958200D01*
X443869200Y-79958200D02*
X441841900Y-77930900D01*
X441841900Y-77930900D02*
X441841900Y-75921600D01*
X441841900Y-75921600D02*
X441186700Y-75266400D01*
X441186700Y-75266400D02*
X441186700Y-71266000D01*
X441186700Y-71266000D02*
X435638200Y-65717500D01*
X435638200Y-65717500D02*
X435638200Y-63294900D01*
X435638200Y-63294900D02*
X426486700Y-54143400D01*
X426486700Y-54143400D02*
X421810700Y-54143400D01*
X421810700Y-54143400D02*
X415693700Y-48026400D01*
X415693700Y-48026400D02*
X415277700Y-48026400D01*
X415277700Y-48026400D02*
X407894700Y-40643400D01*
X407894700Y-40643400D02*
X407894700Y-39838400D01*
%TO.N,P10*%
X474091000Y-92329000D02*
X473715500Y-92329000D01*
X473715500Y-92329000D02*
X471314800Y-89928300D01*
X471314800Y-89928300D02*
X471314800Y-72390400D01*
X471314800Y-72390400D02*
X466553400Y-67629000D01*
X466553400Y-67629000D02*
X449479700Y-67629000D01*
X449479700Y-67629000D02*
X449479700Y-63553300D01*
X449479700Y-63553300D02*
X441535500Y-55609100D01*
X441535500Y-55609100D02*
X434645300Y-55609100D01*
X434645300Y-55609100D02*
X418999400Y-39963200D01*
X418999400Y-39963200D02*
X410057700Y-39963200D01*
X444632100Y-76287900D02*
X444632100Y-72476600D01*
X444632100Y-72476600D02*
X449479700Y-67629000D01*
%TO.N,P11*%
X474091000Y-94869000D02*
X470714400Y-91492400D01*
X470714400Y-91492400D02*
X470714400Y-76359900D01*
X470714400Y-76359900D02*
X462929400Y-68574900D01*
X462929400Y-68574900D02*
X455804600Y-68574900D01*
X455804600Y-68574900D02*
X453820400Y-70559100D01*
X453820400Y-70559100D02*
X453820400Y-71206100D01*
X453820400Y-71206100D02*
X453162100Y-71864400D01*
X453162100Y-71864400D02*
X452508100Y-71864400D01*
X452508100Y-71864400D02*
X451277400Y-73095100D01*
X451277400Y-73095100D02*
X451277400Y-73832000D01*
X451277400Y-73832000D02*
X446984200Y-78125200D01*
X446984200Y-78125200D02*
X445585600Y-78125200D01*
X445585600Y-78125200D02*
X444903900Y-78806900D01*
X444903900Y-78806900D02*
X443935100Y-78806900D01*
X443935100Y-78806900D02*
X443200100Y-78071900D01*
X443200100Y-78071900D02*
X443200100Y-76280300D01*
X410639600Y-41202700D02*
X419531300Y-41202700D01*
X419531300Y-41202700D02*
X442104600Y-63776000D01*
X442104600Y-63776000D02*
X442104600Y-65782400D01*
X442104600Y-65782400D02*
X443200100Y-66877900D01*
X443200100Y-66877900D02*
X443200100Y-76280300D01*
%TO.N,P12*%
X413918300Y-43151200D02*
X419501700Y-43151200D01*
X419501700Y-43151200D02*
X436438800Y-60088300D01*
X436438800Y-60088300D02*
X436438800Y-65385700D01*
X436438800Y-65385700D02*
X442286100Y-71233000D01*
X442286100Y-71233000D02*
X442286200Y-71233000D01*
X442286200Y-71233000D02*
X442286200Y-73854600D01*
%TO.N,P13*%
X410981700Y-45999300D02*
X413809400Y-48827000D01*
X413809400Y-48827000D02*
X415025100Y-48827000D01*
X415025100Y-48827000D02*
X422625700Y-56427600D01*
X422625700Y-56427600D02*
X425636900Y-56427600D01*
X425636900Y-56427600D02*
X432800800Y-63591500D01*
X432800800Y-63591500D02*
X432800800Y-69601400D01*
X432800800Y-69601400D02*
X435500600Y-72301200D01*
X435500600Y-72301200D02*
X435500600Y-74511800D01*
X435500600Y-74511800D02*
X439091900Y-78103100D01*
X439091900Y-78103100D02*
X439091900Y-80473900D01*
%TO.N,P14*%
X438648200Y-75389700D02*
X439966600Y-76708100D01*
X439966600Y-76708100D02*
X439966600Y-77293300D01*
%TO.N,P16*%
X461396500Y-87628800D02*
X461851000Y-87174300D01*
X461851000Y-87174300D02*
X461851000Y-83732400D01*
X461851000Y-83732400D02*
X460085400Y-81966800D01*
X460085400Y-81966800D02*
X453604700Y-81966800D01*
X453604700Y-81966800D02*
X450334800Y-85236700D01*
X450334800Y-85236700D02*
X450334800Y-85634200D01*
X450334800Y-85634200D02*
X446626500Y-89342500D01*
X446626500Y-89342500D02*
X445080100Y-89342500D01*
X445080100Y-89342500D02*
X443869600Y-88132000D01*
X443869600Y-88132000D02*
X443869600Y-87256400D01*
X443869600Y-87256400D02*
X438238800Y-81625600D01*
X438238800Y-81625600D02*
X438238800Y-78145300D01*
X438238800Y-78145300D02*
X434662300Y-74568800D01*
X434662300Y-74568800D02*
X434662300Y-74068200D01*
%TO.N,P17*%
X434639100Y-77157700D02*
X434639100Y-76488600D01*
X434639100Y-76488600D02*
X433199300Y-75048800D01*
X433199300Y-75048800D02*
X433199300Y-74786200D01*
X433199300Y-74786200D02*
X432803800Y-74390700D01*
X432803800Y-74390700D02*
X432227000Y-74390700D01*
X432227000Y-74390700D02*
X430933000Y-73096700D01*
X430933000Y-73096700D02*
X430933000Y-72137000D01*
X430933000Y-72137000D02*
X427430200Y-68634200D01*
X427430200Y-68634200D02*
X427174000Y-68634200D01*
X427174000Y-68634200D02*
X426424100Y-67884300D01*
X426424100Y-67884300D02*
X426424100Y-67371900D01*
%TO.N,P18*%
X435812400Y-80255900D02*
X435812400Y-77095700D01*
X435812400Y-77095700D02*
X433599600Y-74882900D01*
X433599600Y-74882900D02*
X433599600Y-74620300D01*
X433599600Y-74620300D02*
X432557900Y-73578600D01*
X432557900Y-73578600D02*
X431981100Y-73578600D01*
X431981100Y-73578600D02*
X431333300Y-72930800D01*
X431333300Y-72930800D02*
X431333300Y-71705500D01*
X431333300Y-71705500D02*
X428129000Y-68501200D01*
X428129000Y-68501200D02*
X428129000Y-67679100D01*
X428129000Y-67679100D02*
X427877800Y-67427900D01*
X427877800Y-67427900D02*
X427877800Y-62839200D01*
%TO.N,P19*%
X451624300Y-85034900D02*
X446916400Y-89742800D01*
X446916400Y-89742800D02*
X444914200Y-89742800D01*
X444914200Y-89742800D02*
X443469300Y-88297900D01*
X443469300Y-88297900D02*
X443469300Y-87422300D01*
X443469300Y-87422300D02*
X438566400Y-82519400D01*
X438566400Y-82519400D02*
X437020300Y-82519400D01*
X437020300Y-82519400D02*
X435137100Y-80636200D01*
X435137100Y-80636200D02*
X435137100Y-78902300D01*
X435137100Y-78902300D02*
X433487700Y-77252900D01*
X433487700Y-77252900D02*
X433487700Y-76029700D01*
X433487700Y-76029700D02*
X432524000Y-75066000D01*
%TO.N,P20*%
X433179600Y-49846200D02*
X434262900Y-48762900D01*
X434262900Y-48762900D02*
X458220000Y-48762900D01*
X458220000Y-48762900D02*
X472399000Y-62941900D01*
X472399000Y-62941900D02*
X472399000Y-79842000D01*
X472399000Y-79842000D02*
X474091000Y-81534000D01*
%TO.N,P21*%
X432047300Y-79137900D02*
X432047300Y-78955200D01*
X432047300Y-78955200D02*
X430519700Y-77427600D01*
X430519700Y-77427600D02*
X430519700Y-76178300D01*
X430519700Y-76178300D02*
X426440800Y-72099400D01*
X426440800Y-72099400D02*
X426440800Y-70775500D01*
%TO.N,P22*%
X433903200Y-82163100D02*
X433666600Y-81926500D01*
X433666600Y-81926500D02*
X433666600Y-79130500D01*
X433666600Y-79130500D02*
X432286800Y-77750700D01*
X432286800Y-77750700D02*
X432286800Y-77196600D01*
X432286800Y-77196600D02*
X431303900Y-76213700D01*
X431303900Y-76213700D02*
X431195100Y-76213700D01*
X476631000Y-81534000D02*
X475282300Y-82882700D01*
X475282300Y-82882700D02*
X473688400Y-82882700D01*
X473688400Y-82882700D02*
X472964600Y-83606500D01*
X472964600Y-83606500D02*
X472964600Y-88521100D01*
X472964600Y-88521100D02*
X474488800Y-90045300D01*
%TO.N,P23*%
X431552000Y-80488600D02*
X430749800Y-79686400D01*
X430749800Y-79686400D02*
X430749800Y-78223900D01*
X430749800Y-78223900D02*
X430119400Y-77593500D01*
X430119400Y-77593500D02*
X430119400Y-76344200D01*
X430119400Y-76344200D02*
X424861000Y-71085800D01*
X424861000Y-71085800D02*
X424861000Y-70774800D01*
%TO.N,P24*%
X423169700Y-70090400D02*
X428959400Y-75880100D01*
X428959400Y-75880100D02*
X429089200Y-75880100D01*
X429089200Y-75880100D02*
X429719100Y-76510000D01*
X429719100Y-76510000D02*
X429719100Y-77759400D01*
X429719100Y-77759400D02*
X430349500Y-78389800D01*
X430349500Y-78389800D02*
X430349500Y-80366300D01*
X430349500Y-80366300D02*
X430576700Y-80593500D01*
%TO.N,P25*%
X425189700Y-73950400D02*
X427519700Y-76280400D01*
X427519700Y-76280400D02*
X428923300Y-76280400D01*
X428923300Y-76280400D02*
X429318800Y-76675900D01*
X429318800Y-76675900D02*
X429318800Y-77925300D01*
X429318800Y-77925300D02*
X429949200Y-78555700D01*
X429949200Y-78555700D02*
X429949200Y-79556200D01*
X429949200Y-79556200D02*
X429899200Y-79606200D01*
X429899200Y-79606200D02*
X429899200Y-81538100D01*
X429899200Y-81538100D02*
X430305300Y-81944200D01*
%TO.N,P26*%
X460048700Y-84024100D02*
X460048700Y-83628700D01*
X460048700Y-83628700D02*
X459587700Y-83167700D01*
X459587700Y-83167700D02*
X455625800Y-83167700D01*
X455625800Y-83167700D02*
X446492500Y-92301000D01*
X446492500Y-92301000D02*
X438214200Y-92301000D01*
X438214200Y-92301000D02*
X431155400Y-85242200D01*
X431155400Y-85242200D02*
X431155400Y-84919500D01*
X431155400Y-84919500D02*
X428281700Y-82045800D01*
X428281700Y-82045800D02*
X428281700Y-78561000D01*
%TO.N,P27*%
X460775300Y-86180900D02*
X460775300Y-83789100D01*
X460775300Y-83789100D02*
X459753600Y-82767400D01*
X459753600Y-82767400D02*
X455436500Y-82767400D01*
X455436500Y-82767400D02*
X446680300Y-91523600D01*
X446680300Y-91523600D02*
X442894500Y-91523600D01*
X442894500Y-91523600D02*
X442413400Y-91042500D01*
X442413400Y-91042500D02*
X442413400Y-90418300D01*
X442413400Y-90418300D02*
X443006800Y-89824900D01*
X443006800Y-89824900D02*
X443006800Y-88967800D01*
X443006800Y-88967800D02*
X442113700Y-88074700D01*
X442113700Y-88074700D02*
X442113700Y-87655300D01*
X442113700Y-87655300D02*
X437778400Y-83320000D01*
X437778400Y-83320000D02*
X436616200Y-83320000D01*
X436616200Y-83320000D02*
X434188500Y-80892300D01*
X434188500Y-80892300D02*
X434188500Y-79086200D01*
X434188500Y-79086200D02*
X432687100Y-77584800D01*
X432687100Y-77584800D02*
X432687100Y-76750600D01*
X432687100Y-76750600D02*
X430551800Y-74615300D01*
X430551800Y-74615300D02*
X429912100Y-74615300D01*
%TO.N,P29*%
X433946000Y-99985000D02*
X432676600Y-98715600D01*
X432676600Y-98715600D02*
X432676600Y-92808600D01*
X432676600Y-92808600D02*
X432300200Y-92432200D01*
X432300200Y-92432200D02*
X432300200Y-90106400D01*
X432300200Y-90106400D02*
X429591900Y-87398100D01*
X429591900Y-87398100D02*
X428695800Y-87398100D01*
%TO.N,P30*%
X420545800Y-84875600D02*
X420545800Y-84658400D01*
X420545800Y-84658400D02*
X428248500Y-76955700D01*
X428248500Y-76955700D02*
X428643500Y-76955700D01*
%TO.N,P31*%
X466321300Y-72933000D02*
X470279600Y-76891300D01*
X470279600Y-76891300D02*
X470279600Y-94427300D01*
X470279600Y-94427300D02*
X470069500Y-94637400D01*
X422578400Y-89961600D02*
X421014600Y-88397800D01*
X421014600Y-88397800D02*
X421014600Y-86306000D01*
%TO.N,P32*%
X466352500Y-77463400D02*
X467276800Y-78387700D01*
X467276800Y-78387700D02*
X467276800Y-93587500D01*
%TO.N,P33*%
X421967700Y-86240100D02*
X426592500Y-90864900D01*
X426592500Y-90864900D02*
X426592500Y-90870100D01*
%TO.N,P34*%
X409512000Y-103264000D02*
X405679200Y-99431200D01*
X405679200Y-99431200D02*
X405460500Y-99431200D01*
X405460500Y-99431200D02*
X405460500Y-99431100D01*
%TO.N,P35*%
X427513600Y-108190700D02*
X427513600Y-105544300D01*
X427513600Y-105544300D02*
X426187100Y-104217800D01*
X426187100Y-104217800D02*
X426187100Y-96438400D01*
X426187100Y-96438400D02*
X430673700Y-91951800D01*
X430673700Y-91951800D02*
X430673700Y-89646500D01*
%TO.N,P36*%
X404149900Y-82138000D02*
X404149900Y-88846100D01*
X404149900Y-88846100D02*
X407649900Y-92346100D01*
X407649900Y-92346100D02*
X407649900Y-98861900D01*
X407649900Y-98861900D02*
X412052000Y-103264000D01*
%TO.N,P37*%
X431574800Y-90407700D02*
X431574800Y-94707300D01*
X431574800Y-94707300D02*
X432137800Y-95270300D01*
X432137800Y-95270300D02*
X432137800Y-104453900D01*
X402295000Y-77360800D02*
X402295000Y-77595200D01*
X402295000Y-77595200D02*
X403067700Y-78367900D01*
X403067700Y-78367900D02*
X403067700Y-86694800D01*
X403067700Y-86694800D02*
X403014900Y-86747600D01*
X403014900Y-86747600D02*
X403014900Y-98717900D01*
X403014900Y-98717900D02*
X408873900Y-104576900D01*
X408873900Y-104576900D02*
X410824900Y-104576900D01*
X410824900Y-104576900D02*
X412052000Y-105804000D01*
%TO.N,P38*%
X401175300Y-77825600D02*
X401786100Y-78436400D01*
X401786100Y-78436400D02*
X401867600Y-78436400D01*
X401867600Y-78436400D02*
X402267000Y-78835800D01*
X402267000Y-78835800D02*
X402267000Y-86363100D01*
X402267000Y-86363100D02*
X402214200Y-86415900D01*
X402214200Y-86415900D02*
X402214200Y-99743000D01*
X402214200Y-99743000D02*
X406095900Y-103624700D01*
X406095900Y-103624700D02*
X406095900Y-104450900D01*
X396900000Y-77825600D02*
X401175300Y-77825600D01*
X429138700Y-94441800D02*
X429045300Y-94441800D01*
X429045300Y-94441800D02*
X427791700Y-95695400D01*
X427791700Y-95695400D02*
X427791700Y-101164000D01*
X427791700Y-101164000D02*
X427298300Y-101657400D01*
%TO.N,P39*%
X401175300Y-76555600D02*
X401175300Y-77196100D01*
X401175300Y-77196100D02*
X402015300Y-78036100D01*
X402015300Y-78036100D02*
X402033600Y-78036100D01*
X402033600Y-78036100D02*
X402667400Y-78669900D01*
X402667400Y-78669900D02*
X402667400Y-86528900D01*
X402667400Y-86528900D02*
X402614600Y-86581700D01*
X402614600Y-86581700D02*
X402614600Y-99577200D01*
X402614600Y-99577200D02*
X407213300Y-104175900D01*
X407213300Y-104175900D02*
X407213300Y-105164200D01*
X407213300Y-105164200D02*
X408978500Y-106929400D01*
X429330400Y-103096200D02*
X431085600Y-101341000D01*
X431085600Y-101341000D02*
X431085600Y-96997600D01*
X431085600Y-96997600D02*
X430535500Y-96447500D01*
X430535500Y-96447500D02*
X430535500Y-95532500D01*
X430535500Y-95532500D02*
X429963800Y-94960800D01*
X408978500Y-106929400D02*
X413466600Y-106929400D01*
X413466600Y-106929400D02*
X414592000Y-105804000D01*
X408883000Y-107659200D02*
X408978500Y-107563700D01*
X408978500Y-107563700D02*
X408978500Y-106929400D01*
X396900000Y-76555600D02*
X401175300Y-76555600D01*
%TO.N,P40*%
X401175300Y-72745600D02*
X401175300Y-73279200D01*
X401175300Y-73279200D02*
X402570100Y-74674000D01*
X402570100Y-74674000D02*
X402570100Y-75427600D01*
X402570100Y-75427600D02*
X402970400Y-75827900D01*
X402970400Y-75827900D02*
X402970400Y-77514200D01*
X402970400Y-77514200D02*
X403468000Y-78011800D01*
X403468000Y-78011800D02*
X403468000Y-88730500D01*
X403468000Y-88730500D02*
X403445300Y-88753200D01*
X403445300Y-88753200D02*
X403445300Y-95884700D01*
X403445300Y-95884700D02*
X403784400Y-96223800D01*
X417132000Y-103264000D02*
X415962100Y-104433900D01*
X415962100Y-104433900D02*
X411622800Y-104433900D01*
X411622800Y-104433900D02*
X410923900Y-103735000D01*
X410923900Y-103735000D02*
X410923900Y-102724000D01*
X410923900Y-102724000D02*
X408937600Y-100737700D01*
X408937600Y-100737700D02*
X408298300Y-100737700D01*
X408298300Y-100737700D02*
X403784400Y-96223800D01*
X427309300Y-102634300D02*
X429662100Y-100281500D01*
X429662100Y-100281500D02*
X429662100Y-96437600D01*
X440356000Y-153541400D02*
X441422000Y-154607400D01*
X441422000Y-154607400D02*
X441422000Y-159909000D01*
X396900000Y-72745600D02*
X401175300Y-72745600D01*
%TO.N,P41*%
X410402900Y-98376200D02*
X414228200Y-98376200D01*
X414228200Y-98376200D02*
X418274800Y-102422800D01*
X418274800Y-102422800D02*
X418274800Y-104661200D01*
X418274800Y-104661200D02*
X417132000Y-105804000D01*
X409526400Y-98474500D02*
X409624700Y-98376200D01*
X409624700Y-98376200D02*
X410402900Y-98376200D01*
X410402900Y-98376200D02*
X410402900Y-94532900D01*
X410402900Y-94532900D02*
X404563300Y-88693300D01*
X404563300Y-88693300D02*
X404563300Y-84408900D01*
X404563300Y-84408900D02*
X404825300Y-84146900D01*
X404825300Y-84146900D02*
X404825300Y-81473000D01*
X404825300Y-81473000D02*
X403874900Y-80522600D01*
X403874900Y-80522600D02*
X403874900Y-77852500D01*
X403874900Y-77852500D02*
X403370700Y-77348300D01*
X403370700Y-77348300D02*
X403370700Y-75662000D01*
X403370700Y-75662000D02*
X402970400Y-75261700D01*
X402970400Y-75261700D02*
X402970400Y-74508100D01*
X402970400Y-74508100D02*
X401695800Y-73233500D01*
X401695800Y-73233500D02*
X401695800Y-71996100D01*
X401695800Y-71996100D02*
X401175300Y-71475600D01*
X439222000Y-152750300D02*
X439222000Y-158758700D01*
X428410300Y-104573000D02*
X428820600Y-104573000D01*
X428820600Y-104573000D02*
X431486100Y-101907500D01*
X431486100Y-101907500D02*
X431486100Y-96442700D01*
X431486100Y-96442700D02*
X431222200Y-96178800D01*
X439222000Y-159909000D02*
X439222000Y-158758700D01*
X396900000Y-71475600D02*
X401175300Y-71475600D01*
%TO.N,P42*%
X401175300Y-70205600D02*
X402096100Y-71126400D01*
X402096100Y-71126400D02*
X402096100Y-73067600D01*
X402096100Y-73067600D02*
X403370700Y-74342200D01*
X403370700Y-74342200D02*
X403370700Y-75095800D01*
X403370700Y-75095800D02*
X403771000Y-75496100D01*
X403771000Y-75496100D02*
X403771000Y-77182400D01*
X403771000Y-77182400D02*
X404301100Y-77712500D01*
X404301100Y-77712500D02*
X404301100Y-78869900D01*
X404301100Y-78869900D02*
X405225600Y-79794400D01*
X405225600Y-79794400D02*
X405225600Y-84312800D01*
X405225600Y-84312800D02*
X404963600Y-84574800D01*
X404963600Y-84574800D02*
X404963600Y-88527400D01*
X404963600Y-88527400D02*
X419672000Y-103235800D01*
X419672000Y-103235800D02*
X419672000Y-103264000D01*
X426912500Y-103598700D02*
X427299900Y-103598700D01*
X427299900Y-103598700D02*
X430366500Y-100532100D01*
X430366500Y-100532100D02*
X430366500Y-97233500D01*
X415197300Y-111839200D02*
X409576600Y-111839200D01*
X409576600Y-111839200D02*
X407670400Y-109933000D01*
X407670400Y-109933000D02*
X405457000Y-109933000D01*
X405457000Y-109933000D02*
X404056000Y-111334000D01*
X404056000Y-111334000D02*
X404056000Y-113557900D01*
X404056000Y-113557900D02*
X405500700Y-115002600D01*
X405500700Y-115002600D02*
X405500700Y-153502200D01*
X405500700Y-153502200D02*
X406055500Y-154057000D01*
X406055500Y-154057000D02*
X407779300Y-154057000D01*
X407779300Y-154057000D02*
X411099300Y-150737000D01*
X411099300Y-150737000D02*
X414692300Y-150737000D01*
X414692300Y-150737000D02*
X416182600Y-149246700D01*
X416182600Y-149246700D02*
X418891700Y-149246700D01*
X418891700Y-149246700D02*
X419267400Y-149622400D01*
X419267400Y-149622400D02*
X419267400Y-150817400D01*
X419267400Y-150817400D02*
X416571900Y-153512900D01*
X416571900Y-153512900D02*
X416571900Y-153966800D01*
X416571900Y-153966800D02*
X419430100Y-156825000D01*
X419430100Y-156825000D02*
X429023200Y-156825000D01*
X429023200Y-156825000D02*
X429173400Y-156674800D01*
X429173400Y-156674800D02*
X437766000Y-156674800D01*
X396900000Y-70205600D02*
X401175300Y-70205600D01*
X437766000Y-156674800D02*
X437766000Y-158402700D01*
X437766000Y-158402700D02*
X438122000Y-158758700D01*
X438255300Y-153247500D02*
X437766000Y-153736800D01*
X437766000Y-153736800D02*
X437766000Y-156674800D01*
X438122000Y-159909000D02*
X438122000Y-158758700D01*
%TO.N,P43*%
X401175300Y-68935600D02*
X401175300Y-69639300D01*
X401175300Y-69639300D02*
X402496400Y-70960400D01*
X402496400Y-70960400D02*
X402496400Y-72901700D01*
X402496400Y-72901700D02*
X403771000Y-74176300D01*
X403771000Y-74176300D02*
X403771000Y-74929800D01*
X403771000Y-74929800D02*
X404171300Y-75330100D01*
X404171300Y-75330100D02*
X404171300Y-77016400D01*
X404171300Y-77016400D02*
X404976500Y-77821600D01*
X404976500Y-77821600D02*
X404976500Y-78590100D01*
X419672000Y-105804000D02*
X420843900Y-104632100D01*
X420843900Y-104632100D02*
X420843900Y-98766900D01*
X420843900Y-98766900D02*
X418749400Y-96672400D01*
X418749400Y-96672400D02*
X418418500Y-96672400D01*
X418418500Y-96672400D02*
X415708700Y-93962600D01*
X415708700Y-93962600D02*
X415708700Y-87977600D01*
X396900000Y-68935600D02*
X401175300Y-68935600D01*
X413912800Y-152188400D02*
X411243600Y-154857600D01*
X411243600Y-154857600D02*
X405723700Y-154857600D01*
X405723700Y-154857600D02*
X404700100Y-153834000D01*
X404700100Y-153834000D02*
X404700100Y-115334400D01*
X404700100Y-115334400D02*
X403255400Y-113889700D01*
X403255400Y-113889700D02*
X403255400Y-111002200D01*
X403255400Y-111002200D02*
X405125200Y-109132400D01*
X405125200Y-109132400D02*
X408002200Y-109132400D01*
X408002200Y-109132400D02*
X409229300Y-110359500D01*
X409229300Y-110359500D02*
X415278800Y-110359500D01*
%TO.N,P44*%
X396900000Y-67665600D02*
X401175300Y-67665600D01*
X417539700Y-99417000D02*
X416419300Y-99417000D01*
X416419300Y-99417000D02*
X405364000Y-88361700D01*
X405364000Y-88361700D02*
X405364000Y-85000900D01*
X405364000Y-85000900D02*
X405651800Y-84713100D01*
X405651800Y-84713100D02*
X405651800Y-76044500D01*
X405651800Y-76044500D02*
X404171300Y-74564000D01*
X404171300Y-74564000D02*
X404171300Y-74010400D01*
X404171300Y-74010400D02*
X402896700Y-72735800D01*
X402896700Y-72735800D02*
X402896700Y-70794400D01*
X402896700Y-70794400D02*
X401747700Y-69645400D01*
X401747700Y-69645400D02*
X401747700Y-68238000D01*
X401747700Y-68238000D02*
X401175300Y-67665600D01*
X417313900Y-153725900D02*
X424353200Y-146686600D01*
X424353200Y-146686600D02*
X459704300Y-146686600D01*
X459704300Y-146686600D02*
X468798000Y-137592900D01*
X468798000Y-137592900D02*
X468798000Y-114283200D01*
X468798000Y-114283200D02*
X467218400Y-112703600D01*
X467218400Y-112703600D02*
X467218400Y-111300600D01*
X467218400Y-111300600D02*
X466882300Y-110964500D01*
X466882300Y-110964500D02*
X464093400Y-110964500D01*
X464093400Y-110964500D02*
X460312000Y-107183100D01*
X460312000Y-107183100D02*
X460312000Y-105664000D01*
%TO.N,P45*%
X416906200Y-150876200D02*
X412524400Y-155258000D01*
X412524400Y-155258000D02*
X405557400Y-155258000D01*
X405557400Y-155258000D02*
X399536600Y-149237200D01*
X399536600Y-149237200D02*
X399536600Y-110450100D01*
X399536600Y-110450100D02*
X403877300Y-106109400D01*
X396900000Y-66395600D02*
X401175300Y-66395600D01*
X433431800Y-90296800D02*
X433431800Y-91947900D01*
X433431800Y-91947900D02*
X434042700Y-92558800D01*
X434042700Y-92558800D02*
X434042700Y-96803300D01*
X460312000Y-103124000D02*
X458963300Y-104472700D01*
X458963300Y-104472700D02*
X458963300Y-106078300D01*
X458963300Y-106078300D02*
X456929300Y-108112300D01*
X456929300Y-108112300D02*
X445351700Y-108112300D01*
X445351700Y-108112300D02*
X434042700Y-96803300D01*
X403890900Y-70240300D02*
X403890900Y-69111200D01*
X403890900Y-69111200D02*
X401175300Y-66395600D01*
%TO.N,P46*%
X406062400Y-88105200D02*
X406052200Y-88095000D01*
X406052200Y-88095000D02*
X406052200Y-70462900D01*
X406052200Y-70462900D02*
X401175300Y-65586000D01*
X401175300Y-65586000D02*
X401175300Y-65125600D01*
X417565700Y-97883500D02*
X415522700Y-97883500D01*
X415522700Y-97883500D02*
X406062400Y-88423200D01*
X406062400Y-88423200D02*
X406062400Y-88105200D01*
X396900000Y-65125600D02*
X401175300Y-65125600D01*
%TO.N,P47*%
X436607000Y-100992800D02*
X433077000Y-97462800D01*
X433077000Y-97462800D02*
X433077000Y-92359600D01*
X433077000Y-92359600D02*
X432756500Y-92039100D01*
X432756500Y-92039100D02*
X432756500Y-88472300D01*
X432756500Y-88472300D02*
X431258200Y-86974000D01*
X413132800Y-156133500D02*
X417614000Y-151652300D01*
X417614000Y-151652300D02*
X417614000Y-150576700D01*
X417614000Y-150576700D02*
X417238100Y-150200800D01*
X417238100Y-150200800D02*
X415794700Y-150200800D01*
X415794700Y-150200800D02*
X414858200Y-151137300D01*
X414858200Y-151137300D02*
X411548100Y-151137300D01*
X411548100Y-151137300D02*
X408228100Y-154457300D01*
X408228100Y-154457300D02*
X405889600Y-154457300D01*
X405889600Y-154457300D02*
X405100400Y-153668100D01*
X405100400Y-153668100D02*
X405100400Y-115168500D01*
X405100400Y-115168500D02*
X403655700Y-113723800D01*
X403655700Y-113723800D02*
X403655700Y-111168100D01*
X403655700Y-111168100D02*
X405291100Y-109532700D01*
X405291100Y-109532700D02*
X407836300Y-109532700D01*
X407836300Y-109532700D02*
X409393000Y-111089400D01*
X409393000Y-111089400D02*
X416854700Y-111089400D01*
X416854700Y-111089400D02*
X419158700Y-113393400D01*
X419158700Y-113393400D02*
X425955700Y-113393400D01*
X425955700Y-113393400D02*
X426776000Y-112573100D01*
X426776000Y-112573100D02*
X426776000Y-110823800D01*
X426776000Y-110823800D02*
X436607000Y-100992800D01*
X396900000Y-63855600D02*
X401175300Y-63855600D01*
X402469700Y-65599300D02*
X401175300Y-64304900D01*
X401175300Y-64304900D02*
X401175300Y-63855600D01*
%TO.N,P48*%
X401175300Y-60045600D02*
X401855000Y-60045600D01*
X401855000Y-60045600D02*
X402159300Y-59741300D01*
X456150600Y-136236300D02*
X456150600Y-136451900D01*
X456150600Y-136451900D02*
X457241800Y-137543100D01*
X457241800Y-137543100D02*
X467633600Y-137543100D01*
X467633600Y-137543100D02*
X467997400Y-137179300D01*
X467997400Y-137179300D02*
X467997400Y-114614900D01*
X467997400Y-114614900D02*
X467848600Y-114466100D01*
X467848600Y-114466100D02*
X465599300Y-114466100D01*
X465599300Y-114466100D02*
X462540500Y-111407300D01*
X462540500Y-111407300D02*
X462540500Y-110768500D01*
X462540500Y-110768500D02*
X461917200Y-110145200D01*
X461917200Y-110145200D02*
X460368000Y-110145200D01*
X460368000Y-110145200D02*
X458874900Y-108652100D01*
X436632100Y-92717000D02*
X436632100Y-94403100D01*
X436632100Y-94403100D02*
X449475900Y-107246900D01*
X449475900Y-107246900D02*
X453649100Y-107246900D01*
X453649100Y-107246900D02*
X455232000Y-105664000D01*
X396900000Y-60045600D02*
X401175300Y-60045600D01*
%TO.N,P49*%
X440176800Y-99109400D02*
X448760700Y-107693300D01*
X448760700Y-107693300D02*
X454864100Y-107693300D01*
X454864100Y-107693300D02*
X456400300Y-106157100D01*
X456400300Y-106157100D02*
X456400300Y-104292300D01*
X456400300Y-104292300D02*
X455232000Y-103124000D01*
X401175300Y-58775600D02*
X401190100Y-58760800D01*
X401190100Y-58760800D02*
X402332700Y-58760800D01*
X396900000Y-58775600D02*
X401175300Y-58775600D01*
%TO.N,P50*%
X403410100Y-66862300D02*
X403410100Y-56588600D01*
X403410100Y-56588600D02*
X403014600Y-56193100D01*
X403014600Y-56193100D02*
X402194300Y-56193100D01*
X402194300Y-56193100D02*
X401175300Y-57212100D01*
X401175300Y-57212100D02*
X401175300Y-57505600D01*
X396900000Y-57505600D02*
X401175300Y-57505600D01*
X452378700Y-134682700D02*
X455639400Y-137943400D01*
X455639400Y-137943400D02*
X467881300Y-137943400D01*
X467881300Y-137943400D02*
X468397700Y-137427000D01*
X468397700Y-137427000D02*
X468397700Y-114449000D01*
X468397700Y-114449000D02*
X467949500Y-114000800D01*
X467949500Y-114000800D02*
X465702000Y-114000800D01*
X465702000Y-114000800D02*
X462954400Y-111253200D01*
X462954400Y-111253200D02*
X462954400Y-110616200D01*
X462954400Y-110616200D02*
X461566900Y-109228700D01*
X461566900Y-109228700D02*
X460733700Y-109228700D01*
X438835500Y-93517600D02*
X438835500Y-96040300D01*
X438835500Y-96040300D02*
X449641700Y-106846500D01*
X449641700Y-106846500D02*
X451509500Y-106846500D01*
X451509500Y-106846500D02*
X452692000Y-105664000D01*
%TO.N,P51*%
X418469600Y-97347700D02*
X415464000Y-94342100D01*
X415464000Y-94342100D02*
X412547500Y-94342100D01*
X412547500Y-94342100D02*
X407612200Y-89406800D01*
X407612200Y-89406800D02*
X407612200Y-88522700D01*
X407612200Y-88522700D02*
X406452500Y-87363000D01*
X406452500Y-87363000D02*
X406452500Y-68847500D01*
X406452500Y-68847500D02*
X403810400Y-66205400D01*
X403810400Y-66205400D02*
X403810400Y-56422700D01*
X403810400Y-56422700D02*
X403180500Y-55792800D01*
X403180500Y-55792800D02*
X401618100Y-55792800D01*
X401618100Y-55792800D02*
X401175300Y-56235600D01*
X396900000Y-56235600D02*
X401175300Y-56235600D01*
X452692000Y-103124000D02*
X451982500Y-103124000D01*
X451982500Y-103124000D02*
X450855000Y-104251500D01*
X450855000Y-104251500D02*
X448588600Y-104251500D01*
X448588600Y-104251500D02*
X442802700Y-98465600D01*
X456057000Y-86868000D02*
X456057000Y-87993300D01*
X452692000Y-103124000D02*
X452692000Y-96460000D01*
X452692000Y-96460000D02*
X454642400Y-94509600D01*
X454642400Y-94509600D02*
X454642400Y-89174700D01*
X454642400Y-89174700D02*
X455823800Y-87993300D01*
X455823800Y-87993300D02*
X456057000Y-87993300D01*
%TO.N,P52*%
X403544200Y-130553900D02*
X403544200Y-120942000D01*
X403544200Y-120942000D02*
X402100800Y-119498600D01*
X401175300Y-54965600D02*
X401602200Y-55392500D01*
X401602200Y-55392500D02*
X403346400Y-55392500D01*
X403346400Y-55392500D02*
X404210700Y-56256800D01*
X404210700Y-56256800D02*
X404210700Y-60300500D01*
X404210700Y-60300500D02*
X404485800Y-60575600D01*
X458597000Y-86868000D02*
X458597000Y-87993300D01*
X450152000Y-105664000D02*
X451422000Y-104394000D01*
X451422000Y-104394000D02*
X453017500Y-104394000D01*
X453017500Y-104394000D02*
X453958600Y-103452900D01*
X453958600Y-103452900D02*
X453958600Y-96055100D01*
X453958600Y-96055100D02*
X457327000Y-92686700D01*
X457327000Y-92686700D02*
X457327000Y-89030100D01*
X457327000Y-89030100D02*
X458363800Y-87993300D01*
X458363800Y-87993300D02*
X458597000Y-87993300D01*
X439990700Y-93640100D02*
X439990700Y-96629200D01*
X439990700Y-96629200D02*
X449025500Y-105664000D01*
X449025500Y-105664000D02*
X450152000Y-105664000D01*
X396900000Y-54965600D02*
X401175300Y-54965600D01*
%TO.N,P53*%
X401175300Y-53695600D02*
X401249600Y-53621300D01*
X401249600Y-53621300D02*
X401795300Y-53621300D01*
X401795300Y-53621300D02*
X402891100Y-54717100D01*
X419962200Y-66169300D02*
X419962200Y-76684500D01*
X419962200Y-76684500D02*
X419415500Y-77231200D01*
X419415500Y-77231200D02*
X419415500Y-91554200D01*
X419415500Y-91554200D02*
X419515700Y-91654400D01*
X446041700Y-95201500D02*
X442587800Y-95201500D01*
X442587800Y-95201500D02*
X442093300Y-95696000D01*
X396900000Y-53695600D02*
X401175300Y-53695600D01*
X446041700Y-95201500D02*
X446041700Y-99013700D01*
X446041700Y-99013700D02*
X450152000Y-103124000D01*
X456057000Y-85453300D02*
X455530400Y-85453300D01*
X455530400Y-85453300D02*
X446041700Y-94942000D01*
X446041700Y-94942000D02*
X446041700Y-95201500D01*
X456057000Y-84328000D02*
X456057000Y-85453300D01*
%TO.N,P54*%
X437300200Y-81844100D02*
X437838500Y-81305800D01*
X437838500Y-81305800D02*
X437838500Y-78311200D01*
X437838500Y-78311200D02*
X433999900Y-74472600D01*
X433999900Y-74472600D02*
X433999900Y-74454500D01*
X433999900Y-74454500D02*
X433054700Y-73509300D01*
X433054700Y-73509300D02*
X433054700Y-72601600D01*
X433054700Y-72601600D02*
X430929800Y-70476700D01*
X430929800Y-70476700D02*
X430929800Y-65749500D01*
X430929800Y-65749500D02*
X431546000Y-65133300D01*
X403544200Y-140463100D02*
X404248000Y-139759300D01*
X404248000Y-139759300D02*
X404248000Y-115483900D01*
X404248000Y-115483900D02*
X401748700Y-112984600D01*
X401748700Y-112984600D02*
X401748700Y-112747400D01*
X401748700Y-112747400D02*
X401661100Y-112747400D01*
X407321800Y-83088900D02*
X407321800Y-79616100D01*
X407321800Y-79616100D02*
X407864600Y-79073300D01*
X407864600Y-79073300D02*
X407864600Y-77754900D01*
X407864600Y-77754900D02*
X406988600Y-76878900D01*
X406988600Y-76878900D02*
X406988600Y-71292900D01*
X406988600Y-71292900D02*
X408114000Y-70167500D01*
X408114000Y-70167500D02*
X408114000Y-69942800D01*
X408114000Y-69942800D02*
X404443100Y-66271900D01*
X404443100Y-66271900D02*
X404443100Y-62668800D01*
X404443100Y-62668800D02*
X405161100Y-61950800D01*
X405161100Y-61950800D02*
X405161100Y-59883200D01*
X405161100Y-59883200D02*
X404611000Y-59333100D01*
X404611000Y-59333100D02*
X404611000Y-55481900D01*
X404611000Y-55481900D02*
X401554700Y-52425600D01*
X401554700Y-52425600D02*
X401175300Y-52425600D01*
X431546000Y-64008000D02*
X431546000Y-65133300D01*
X396900000Y-52425600D02*
X401175300Y-52425600D01*
%TO.N,P55*%
X442041500Y-91625600D02*
X441656100Y-91240200D01*
X441656100Y-91240200D02*
X441656100Y-87763900D01*
X441656100Y-87763900D02*
X437612500Y-83720300D01*
X437612500Y-83720300D02*
X435738100Y-83720300D01*
X435738100Y-83720300D02*
X435119700Y-84338700D01*
X435119700Y-84338700D02*
X432722600Y-81941600D01*
X432722600Y-81941600D02*
X432722600Y-78752700D01*
X432722600Y-78752700D02*
X431611500Y-77641600D01*
X431611500Y-77641600D02*
X431611500Y-77564400D01*
X408114000Y-72707500D02*
X409279400Y-71542100D01*
X409279400Y-71542100D02*
X409279400Y-69331400D01*
X409279400Y-69331400D02*
X408954300Y-69006300D01*
X408954300Y-69006300D02*
X408711400Y-69006300D01*
X408711400Y-69006300D02*
X404843400Y-65138300D01*
X404843400Y-65138300D02*
X404843400Y-62834700D01*
X404843400Y-62834700D02*
X405561400Y-62116700D01*
X405561400Y-62116700D02*
X405561400Y-59717200D01*
X405561400Y-59717200D02*
X405011300Y-59167100D01*
X405011300Y-59167100D02*
X405011300Y-54368100D01*
X405011300Y-54368100D02*
X403153900Y-52510700D01*
X403153900Y-52510700D02*
X403153900Y-51919600D01*
X403153900Y-51919600D02*
X402690900Y-51456600D01*
X402690900Y-51456600D02*
X401476300Y-51456600D01*
X401476300Y-51456600D02*
X401175300Y-51155600D01*
X396900000Y-51155600D02*
X401175300Y-51155600D01*
%TO.N,P56*%
X444950500Y-97069400D02*
X444680100Y-97339800D01*
X444680100Y-97339800D02*
X441797400Y-97339800D01*
X441797400Y-97339800D02*
X440825500Y-96367900D01*
X440825500Y-96367900D02*
X440825500Y-93481500D01*
X440825500Y-93481500D02*
X440114000Y-92770000D01*
X440114000Y-92770000D02*
X438009300Y-92770000D01*
X438009300Y-92770000D02*
X428017300Y-82778000D01*
X428017300Y-82778000D02*
X426989700Y-82778000D01*
X426989700Y-82778000D02*
X425293800Y-81082100D01*
X425293800Y-81082100D02*
X425293800Y-80915100D01*
X401175300Y-47345600D02*
X401175300Y-47746200D01*
X401175300Y-47746200D02*
X402941600Y-49512500D01*
X402941600Y-49512500D02*
X404038200Y-49512500D01*
X404038200Y-49512500D02*
X407286900Y-52761200D01*
X407286900Y-52761200D02*
X407286900Y-59240400D01*
X407286900Y-59240400D02*
X407660200Y-59613700D01*
X407660200Y-59613700D02*
X407660200Y-60584100D01*
X407660200Y-60584100D02*
X405311100Y-62933200D01*
X405311100Y-62933200D02*
X405311100Y-64979900D01*
X405311100Y-64979900D02*
X407344800Y-67013600D01*
X407344800Y-67013600D02*
X407611500Y-67013600D01*
X407611500Y-67013600D02*
X410654000Y-70056100D01*
X410654000Y-70056100D02*
X410654000Y-70167500D01*
X478790000Y-65133300D02*
X482852700Y-69196000D01*
X482852700Y-69196000D02*
X482852700Y-96718100D01*
X478790000Y-64008000D02*
X478790000Y-65133300D01*
X396900000Y-47345600D02*
X401175300Y-47345600D01*
%TO.N,P57*%
X401175300Y-46075600D02*
X401701500Y-46601800D01*
X401701500Y-46601800D02*
X401701500Y-47706100D01*
X401701500Y-47706100D02*
X403107500Y-49112100D01*
X403107500Y-49112100D02*
X404204000Y-49112100D01*
X404204000Y-49112100D02*
X408740900Y-53649000D01*
X408740900Y-53649000D02*
X408740900Y-61720700D01*
X408740900Y-61720700D02*
X410100600Y-63080400D01*
X410100600Y-63080400D02*
X410100600Y-65701400D01*
X410100600Y-65701400D02*
X411779400Y-67380200D01*
X411779400Y-67380200D02*
X411779400Y-71582100D01*
X411779400Y-71582100D02*
X410654000Y-72707500D01*
X396900000Y-46075600D02*
X401175300Y-46075600D01*
X476250000Y-64008000D02*
X476250000Y-67088600D01*
X476250000Y-67088600D02*
X477756400Y-68595000D01*
X477756400Y-68595000D02*
X477756400Y-95414800D01*
X477756400Y-95414800D02*
X476043200Y-97128000D01*
%TO.N,P58*%
X401175300Y-44805600D02*
X406811300Y-50441600D01*
X406811300Y-50441600D02*
X406811300Y-51153200D01*
X406811300Y-51153200D02*
X409141300Y-53483200D01*
X409141300Y-53483200D02*
X409141300Y-61092100D01*
X409141300Y-61092100D02*
X410208400Y-62159200D01*
X410208400Y-62159200D02*
X411475900Y-62159200D01*
X411475900Y-62159200D02*
X412354400Y-63037700D01*
X412354400Y-63037700D02*
X412354400Y-69327900D01*
X412354400Y-69327900D02*
X413194000Y-70167500D01*
X396900000Y-44805600D02*
X401175300Y-44805600D01*
%TO.N,P59*%
X401175300Y-43535600D02*
X401175300Y-43981400D01*
X401175300Y-43981400D02*
X407211600Y-50017700D01*
X407211600Y-50017700D02*
X407211600Y-50987300D01*
X407211600Y-50987300D02*
X410325900Y-54101600D01*
X410325900Y-54101600D02*
X410325900Y-61313300D01*
X396900000Y-43535600D02*
X401175300Y-43535600D01*
%TO.N,P60*%
X401175300Y-42265600D02*
X406215300Y-47305600D01*
X406215300Y-47305600D02*
X406215300Y-48455200D01*
X406215300Y-48455200D02*
X407611900Y-49851800D01*
X407611900Y-49851800D02*
X407611900Y-50821400D01*
X407611900Y-50821400D02*
X410726300Y-53935800D01*
X410726300Y-53935800D02*
X410726300Y-58381100D01*
X410726300Y-58381100D02*
X415036000Y-62690800D01*
X415036000Y-62690800D02*
X415036000Y-68091300D01*
X415036000Y-68091300D02*
X415734000Y-68789300D01*
X415734000Y-68789300D02*
X415734000Y-70167500D01*
X396900000Y-42265600D02*
X401175300Y-42265600D01*
X407904000Y-87016000D02*
X408006400Y-86913600D01*
X408006400Y-86913600D02*
X408006400Y-82754000D01*
X408006400Y-82754000D02*
X407722200Y-82469800D01*
X407722200Y-82469800D02*
X407722200Y-80314300D01*
X407722200Y-80314300D02*
X414464000Y-73572500D01*
X414464000Y-73572500D02*
X414464000Y-71437500D01*
X414464000Y-71437500D02*
X415734000Y-70167500D01*
%TO.N,P61*%
X401175300Y-40995600D02*
X406615600Y-46435900D01*
X406615600Y-46435900D02*
X406615600Y-48289300D01*
X406615600Y-48289300D02*
X408012200Y-49685900D01*
X408012200Y-49685900D02*
X408012200Y-50655400D01*
X408012200Y-50655400D02*
X411185700Y-53828900D01*
X411185700Y-53828900D02*
X411185700Y-57106600D01*
X411185700Y-57106600D02*
X412599300Y-58520200D01*
X408287600Y-88568500D02*
X408603800Y-88252300D01*
X408603800Y-88252300D02*
X408603800Y-82320300D01*
X408603800Y-82320300D02*
X408156400Y-81872900D01*
X408156400Y-81872900D02*
X408156400Y-80589300D01*
X408156400Y-80589300D02*
X415734000Y-73011700D01*
X415734000Y-73011700D02*
X415734000Y-72707500D01*
X396900000Y-40995600D02*
X401175300Y-40995600D01*
%TO.N,P62*%
X445716100Y-88266900D02*
X445716100Y-87771600D01*
X445716100Y-87771600D02*
X449076400Y-84411300D01*
X449076400Y-84411300D02*
X449755400Y-84411300D01*
X449755400Y-84411300D02*
X453000500Y-81166200D01*
X453000500Y-81166200D02*
X460417200Y-81166200D01*
X460417200Y-81166200D02*
X464782000Y-85531000D01*
X464782000Y-85531000D02*
X464782000Y-97230900D01*
X464782000Y-97230900D02*
X469640300Y-102089200D01*
X396900000Y-39725600D02*
X401175300Y-39725600D01*
X418274000Y-70167500D02*
X418398300Y-70043200D01*
X418398300Y-70043200D02*
X418398300Y-65929800D01*
X418398300Y-65929800D02*
X417576000Y-65107500D01*
X417576000Y-65107500D02*
X417576000Y-59370100D01*
X417576000Y-59370100D02*
X408412500Y-50206600D01*
X408412500Y-50206600D02*
X408412500Y-46962800D01*
X408412500Y-46962800D02*
X401175300Y-39725600D01*
X408831800Y-81197500D02*
X408937900Y-81197500D01*
X408937900Y-81197500D02*
X416945700Y-73189700D01*
X416945700Y-73189700D02*
X416945700Y-71495800D01*
X416945700Y-71495800D02*
X418274000Y-70167500D01*
%TO.N,P63*%
X454868100Y-99060200D02*
X457765900Y-101958000D01*
X457765900Y-101958000D02*
X461733400Y-101958000D01*
X461733400Y-101958000D02*
X466715000Y-106939600D01*
X418274000Y-72707500D02*
X419439000Y-71542500D01*
X419439000Y-71542500D02*
X419439000Y-66601000D01*
X419439000Y-66601000D02*
X419286900Y-66448900D01*
X419286900Y-66448900D02*
X419286900Y-65889600D01*
X419286900Y-65889600D02*
X419972600Y-65203900D01*
X419972600Y-65203900D02*
X419972600Y-61155100D01*
X419972600Y-61155100D02*
X409493400Y-50675900D01*
X409493400Y-50675900D02*
X409493400Y-47372900D01*
X409493400Y-47372900D02*
X401175300Y-39054800D01*
X401175300Y-39054800D02*
X401175300Y-38455600D01*
X418274000Y-72707500D02*
X418274000Y-93256500D01*
X418274000Y-93256500D02*
X419439500Y-94422000D01*
X396900000Y-38455600D02*
X401175300Y-38455600D01*
%TO.N,AO2*%
X455676000Y-132588000D02*
X452692000Y-129604000D01*
X452692000Y-129604000D02*
X452692000Y-121875000D01*
%TO.N,AO1*%
X456565000Y-124079000D02*
X455232000Y-122746000D01*
X455232000Y-122746000D02*
X455232000Y-121875000D01*
%TO.N,AO3*%
X450152000Y-119335000D02*
X449027000Y-120460000D01*
X449027000Y-120460000D02*
X449027000Y-131019000D01*
X449027000Y-131019000D02*
X450278000Y-132270000D01*
%TD*%
M02*
