%TF.GenerationSoftware,KiCad,Pcbnew,(5.1.9)-1*%
%TF.CreationDate,2021-07-02T17:33:52-07:00*%
%TF.ProjectId,MAD_P2,4d41445f-5032-42e6-9b69-6361645f7063,rev?*%
%TF.SameCoordinates,Original*%
%TF.FileFunction,Copper,L2,Inr*%
%TF.FilePolarity,Positive*%
%FSLAX46Y46*%
G04 Gerber Fmt 4.6, Leading zero omitted, Abs format (unit mm)*
G04 Created by KiCad (PCBNEW (5.1.9)-1) date 2021-07-02 17:33:52*
%MOMM*%
%LPD*%
G01*
G04 APERTURE LIST*
%TA.AperFunction,ComponentPad*%
%ADD10C,5.080000*%
%TD*%
%TA.AperFunction,ComponentPad*%
%ADD11C,1.600000*%
%TD*%
%TA.AperFunction,ComponentPad*%
%ADD12C,1.700000*%
%TD*%
%TA.AperFunction,ComponentPad*%
%ADD13R,1.700000X1.700000*%
%TD*%
%TA.AperFunction,ComponentPad*%
%ADD14O,1.700000X1.700000*%
%TD*%
%TA.AperFunction,ComponentPad*%
%ADD15C,4.064000*%
%TD*%
%TA.AperFunction,ComponentPad*%
%ADD16O,2.000000X0.900000*%
%TD*%
%TA.AperFunction,ComponentPad*%
%ADD17O,1.700000X0.900000*%
%TD*%
%TA.AperFunction,ComponentPad*%
%ADD18C,0.500000*%
%TD*%
%TA.AperFunction,ComponentPad*%
%ADD19C,2.000000*%
%TD*%
%TA.AperFunction,ViaPad*%
%ADD20C,0.800000*%
%TD*%
%TA.AperFunction,Conductor*%
%ADD21C,0.250000*%
%TD*%
%TA.AperFunction,Conductor*%
%ADD22C,0.800000*%
%TD*%
%TA.AperFunction,Conductor*%
%ADD23C,2.500000*%
%TD*%
G04 APERTURE END LIST*
D10*
%TO.N,N/C*%
%TO.C,DISP_HOLE_3*%
X395605000Y-157915000D03*
%TD*%
%TO.N,N/C*%
%TO.C,DISP_HOLE_1*%
X395605000Y-18415000D03*
%TD*%
D11*
%TO.N,Net-(C74-Pad1)*%
%TO.C,F5*%
X423776000Y-17081500D03*
%TO.N,VIN_RAW*%
X426276000Y-17081500D03*
%TD*%
D12*
%TO.N,GND*%
%TO.C,J11*%
X460312000Y-73279000D03*
%TO.N,5V_MAIN1*%
X457772000Y-73279000D03*
%TO.N,VIN_L1*%
X455232000Y-73279000D03*
%TO.N,V_32_35*%
X452692000Y-73279000D03*
%TO.N,V_0_3*%
X450152000Y-73279000D03*
%TO.N,GND*%
X460312000Y-70739000D03*
%TO.N,3.3V_MAIN1*%
X457772000Y-70739000D03*
%TO.N,V_32_35*%
X455232000Y-70739000D03*
%TO.N,V_0_3*%
X452692000Y-70739000D03*
%TO.N,GND*%
%TA.AperFunction,ComponentPad*%
G36*
G01*
X449552000Y-69889000D02*
X450752000Y-69889000D01*
G75*
G02*
X451002000Y-70139000I0J-250000D01*
G01*
X451002000Y-71339000D01*
G75*
G02*
X450752000Y-71589000I-250000J0D01*
G01*
X449552000Y-71589000D01*
G75*
G02*
X449302000Y-71339000I0J250000D01*
G01*
X449302000Y-70139000D01*
G75*
G02*
X449552000Y-69889000I250000J0D01*
G01*
G37*
%TD.AperFunction*%
%TD*%
D13*
%TO.N,VIN_RAW*%
%TO.C,J4*%
X408177800Y-26289000D03*
D14*
%TO.N,GND*%
X405637800Y-26289000D03*
%TD*%
D13*
%TO.N,Net-(J27-Pad1)*%
%TO.C,J27*%
X417118800Y-26289000D03*
D14*
%TO.N,GND*%
X414578800Y-26289000D03*
%TD*%
D13*
%TO.N,Net-(J17-Pad1)*%
%TO.C,J17*%
X426059800Y-26289000D03*
D14*
%TO.N,GND*%
X423519800Y-26289000D03*
%TD*%
D13*
%TO.N,Net-(J1-Pad1)*%
%TO.C,J1*%
X435000800Y-26289000D03*
D14*
%TO.N,GND*%
X432460800Y-26289000D03*
%TD*%
D13*
%TO.N,Net-(J28-Pad1)*%
%TO.C,J28*%
X443940800Y-26289000D03*
D14*
%TO.N,GND*%
X441400800Y-26289000D03*
%TD*%
D13*
%TO.N,Net-(J2-Pad1)*%
%TO.C,J2*%
X452881800Y-26289000D03*
D14*
%TO.N,GND*%
X450341800Y-26289000D03*
%TD*%
D13*
%TO.N,Net-(J29-Pad1)*%
%TO.C,J29*%
X461822800Y-26289000D03*
D14*
%TO.N,GND*%
X459282800Y-26289000D03*
%TD*%
D13*
%TO.N,Net-(J3-Pad1)*%
%TO.C,J3*%
X470763800Y-26289000D03*
D14*
%TO.N,GND*%
X468223800Y-26289000D03*
%TD*%
D13*
%TO.N,Net-(J30-Pad1)*%
%TO.C,J30*%
X479704800Y-26289000D03*
D14*
%TO.N,GND*%
X477164800Y-26289000D03*
%TD*%
D13*
%TO.N,Net-(J12-Pad1)*%
%TO.C,J12*%
X488644800Y-26289000D03*
D14*
%TO.N,GND*%
X486104800Y-26289000D03*
%TD*%
D15*
%TO.N,N/C*%
%TO.C,P10*%
X488950000Y-112268000D03*
%TD*%
%TO.N,N/C*%
%TO.C,P8*%
X406400000Y-112268000D03*
%TD*%
%TO.N,N/C*%
%TO.C,P13*%
X482600000Y-64008000D03*
%TD*%
%TO.N,N/C*%
%TO.C,P11*%
X407670000Y-64008000D03*
%TD*%
%TO.N,P34*%
%TO.C,J7*%
%TA.AperFunction,ComponentPad*%
G36*
G01*
X408912000Y-102414000D02*
X410112000Y-102414000D01*
G75*
G02*
X410362000Y-102664000I0J-250000D01*
G01*
X410362000Y-103864000D01*
G75*
G02*
X410112000Y-104114000I-250000J0D01*
G01*
X408912000Y-104114000D01*
G75*
G02*
X408662000Y-103864000I0J250000D01*
G01*
X408662000Y-102664000D01*
G75*
G02*
X408912000Y-102414000I250000J0D01*
G01*
G37*
%TD.AperFunction*%
D12*
%TO.N,P36*%
X412052000Y-103264000D03*
%TO.N,P38*%
X414592000Y-103264000D03*
%TO.N,P40*%
X417132000Y-103264000D03*
%TO.N,P42*%
X419672000Y-103264000D03*
%TO.N,P35*%
X409512000Y-105804000D03*
%TO.N,P37*%
X412052000Y-105804000D03*
%TO.N,P39*%
X414592000Y-105804000D03*
%TO.N,P41*%
X417132000Y-105804000D03*
%TO.N,P43*%
X419672000Y-105804000D03*
%TD*%
D16*
%TO.N,Net-(J8-PadS1)*%
%TO.C,J8*%
X398119000Y-85514700D03*
X398119000Y-94154700D03*
D17*
X393949000Y-85514700D03*
X393949000Y-94154700D03*
%TD*%
%TO.N,P44*%
%TO.C,J9*%
%TA.AperFunction,ComponentPad*%
G36*
G01*
X460912000Y-106514000D02*
X459712000Y-106514000D01*
G75*
G02*
X459462000Y-106264000I0J250000D01*
G01*
X459462000Y-105064000D01*
G75*
G02*
X459712000Y-104814000I250000J0D01*
G01*
X460912000Y-104814000D01*
G75*
G02*
X461162000Y-105064000I0J-250000D01*
G01*
X461162000Y-106264000D01*
G75*
G02*
X460912000Y-106514000I-250000J0D01*
G01*
G37*
%TD.AperFunction*%
D12*
%TO.N,P46*%
X457772000Y-105664000D03*
%TO.N,P48*%
X455232000Y-105664000D03*
%TO.N,P50*%
X452692000Y-105664000D03*
%TO.N,P52*%
X450152000Y-105664000D03*
%TO.N,P45*%
X460312000Y-103124000D03*
%TO.N,P47*%
X457772000Y-103124000D03*
%TO.N,P49*%
X455232000Y-103124000D03*
%TO.N,P51*%
X452692000Y-103124000D03*
%TO.N,P53*%
X450152000Y-103124000D03*
%TD*%
%TO.N,P63*%
%TO.C,J10*%
X418274000Y-72707500D03*
%TO.N,P61*%
X415734000Y-72707500D03*
%TO.N,P59*%
X413194000Y-72707500D03*
%TO.N,P57*%
X410654000Y-72707500D03*
%TO.N,P55*%
X408114000Y-72707500D03*
%TO.N,P62*%
X418274000Y-70167500D03*
%TO.N,P60*%
X415734000Y-70167500D03*
%TO.N,P58*%
X413194000Y-70167500D03*
%TO.N,P56*%
X410654000Y-70167500D03*
%TO.N,P54*%
%TA.AperFunction,ComponentPad*%
G36*
G01*
X407514000Y-69317500D02*
X408714000Y-69317500D01*
G75*
G02*
X408964000Y-69567500I0J-250000D01*
G01*
X408964000Y-70767500D01*
G75*
G02*
X408714000Y-71017500I-250000J0D01*
G01*
X407514000Y-71017500D01*
G75*
G02*
X407264000Y-70767500I0J250000D01*
G01*
X407264000Y-69567500D01*
G75*
G02*
X407514000Y-69317500I250000J0D01*
G01*
G37*
%TD.AperFunction*%
%TD*%
%TO.N,P20*%
%TO.C,J13*%
%TA.AperFunction,ComponentPad*%
G36*
G01*
X473491000Y-80684000D02*
X474691000Y-80684000D01*
G75*
G02*
X474941000Y-80934000I0J-250000D01*
G01*
X474941000Y-82134000D01*
G75*
G02*
X474691000Y-82384000I-250000J0D01*
G01*
X473491000Y-82384000D01*
G75*
G02*
X473241000Y-82134000I0J250000D01*
G01*
X473241000Y-80934000D01*
G75*
G02*
X473491000Y-80684000I250000J0D01*
G01*
G37*
%TD.AperFunction*%
%TO.N,P22*%
X476631000Y-81534000D03*
%TO.N,P24*%
X479171000Y-81534000D03*
%TO.N,P26*%
X481711000Y-81534000D03*
%TO.N,P28*%
X484251000Y-81534000D03*
%TO.N,P21*%
X474091000Y-84074000D03*
%TO.N,P23*%
X476631000Y-84074000D03*
%TO.N,P25*%
X479171000Y-84074000D03*
%TO.N,P27*%
X481711000Y-84074000D03*
%TO.N,P29*%
X484251000Y-84074000D03*
%TD*%
%TO.N,Net-(J14-Pad1)*%
%TO.C,J14*%
%TA.AperFunction,ComponentPad*%
G36*
G01*
X473491000Y-69889000D02*
X474691000Y-69889000D01*
G75*
G02*
X474941000Y-70139000I0J-250000D01*
G01*
X474941000Y-71339000D01*
G75*
G02*
X474691000Y-71589000I-250000J0D01*
G01*
X473491000Y-71589000D01*
G75*
G02*
X473241000Y-71339000I0J250000D01*
G01*
X473241000Y-70139000D01*
G75*
G02*
X473491000Y-69889000I250000J0D01*
G01*
G37*
%TD.AperFunction*%
%TO.N,Net-(J14-Pad3)*%
X476631000Y-70739000D03*
%TO.N,Net-(J14-Pad5)*%
X479171000Y-70739000D03*
%TO.N,GND*%
X481711000Y-70739000D03*
X484251000Y-70739000D03*
%TO.N,Net-(J14-Pad2)*%
X474091000Y-73279000D03*
%TO.N,GND*%
X476631000Y-73279000D03*
X479171000Y-73279000D03*
X481711000Y-73279000D03*
%TO.N,Net-(J14-Pad10)*%
X484251000Y-73279000D03*
%TD*%
%TO.N,A1+*%
%TO.C,J15*%
%TA.AperFunction,ComponentPad*%
G36*
G01*
X420272000Y-122725000D02*
X419072000Y-122725000D01*
G75*
G02*
X418822000Y-122475000I0J250000D01*
G01*
X418822000Y-121275000D01*
G75*
G02*
X419072000Y-121025000I250000J0D01*
G01*
X420272000Y-121025000D01*
G75*
G02*
X420522000Y-121275000I0J-250000D01*
G01*
X420522000Y-122475000D01*
G75*
G02*
X420272000Y-122725000I-250000J0D01*
G01*
G37*
%TD.AperFunction*%
%TO.N,A2+*%
X417132000Y-121875000D03*
%TO.N,A3+*%
X414592000Y-121875000D03*
%TO.N,A4+*%
X412052000Y-121875000D03*
%TO.N,GND*%
X409512000Y-121875000D03*
%TO.N,A1-*%
X419672000Y-119335000D03*
%TO.N,A2-*%
X417132000Y-119335000D03*
%TO.N,A3-*%
X414592000Y-119335000D03*
%TO.N,A4-*%
X412052000Y-119335000D03*
%TO.N,3.3V_ADC*%
X409512000Y-119335000D03*
%TD*%
%TO.N,3.3V_ADC*%
%TO.C,J16*%
%TA.AperFunction,ComponentPad*%
G36*
G01*
X460912000Y-122725000D02*
X459712000Y-122725000D01*
G75*
G02*
X459462000Y-122475000I0J250000D01*
G01*
X459462000Y-121275000D01*
G75*
G02*
X459712000Y-121025000I250000J0D01*
G01*
X460912000Y-121025000D01*
G75*
G02*
X461162000Y-121275000I0J-250000D01*
G01*
X461162000Y-122475000D01*
G75*
G02*
X460912000Y-122725000I-250000J0D01*
G01*
G37*
%TD.AperFunction*%
%TO.N,5V_ADC*%
X457772000Y-121875000D03*
%TO.N,AO1*%
X455232000Y-121875000D03*
%TO.N,AO2*%
X452692000Y-121875000D03*
%TO.N,GND*%
X450152000Y-121875000D03*
%TO.N,AO0*%
X460312000Y-119335000D03*
%TO.N,GND*%
X457772000Y-119335000D03*
X455232000Y-119335000D03*
X452692000Y-119335000D03*
%TO.N,AO3*%
X450152000Y-119335000D03*
%TD*%
%TO.N,P9*%
%TO.C,J21*%
X484251000Y-105664000D03*
%TO.N,P7*%
X481711000Y-105664000D03*
%TO.N,P5*%
X479171000Y-105664000D03*
%TO.N,P3*%
X476631000Y-105664000D03*
%TO.N,P1*%
X474091000Y-105664000D03*
%TO.N,P8*%
X484251000Y-103124000D03*
%TO.N,P6*%
X481711000Y-103124000D03*
%TO.N,P4*%
X479171000Y-103124000D03*
%TO.N,P2*%
X476631000Y-103124000D03*
%TO.N,P0*%
%TA.AperFunction,ComponentPad*%
G36*
G01*
X473491000Y-102274000D02*
X474691000Y-102274000D01*
G75*
G02*
X474941000Y-102524000I0J-250000D01*
G01*
X474941000Y-103724000D01*
G75*
G02*
X474691000Y-103974000I-250000J0D01*
G01*
X473491000Y-103974000D01*
G75*
G02*
X473241000Y-103724000I0J250000D01*
G01*
X473241000Y-102524000D01*
G75*
G02*
X473491000Y-102274000I250000J0D01*
G01*
G37*
%TD.AperFunction*%
%TD*%
%TO.N,P19*%
%TO.C,J22*%
X484251000Y-94869000D03*
%TO.N,P17*%
X481711000Y-94869000D03*
%TO.N,P15*%
X479171000Y-94869000D03*
%TO.N,P13*%
X476631000Y-94869000D03*
%TO.N,P11*%
X474091000Y-94869000D03*
%TO.N,P18*%
X484251000Y-92329000D03*
%TO.N,P16*%
X481711000Y-92329000D03*
%TO.N,P14*%
X479171000Y-92329000D03*
%TO.N,P12*%
X476631000Y-92329000D03*
%TO.N,P10*%
%TA.AperFunction,ComponentPad*%
G36*
G01*
X473491000Y-91479000D02*
X474691000Y-91479000D01*
G75*
G02*
X474941000Y-91729000I0J-250000D01*
G01*
X474941000Y-92929000D01*
G75*
G02*
X474691000Y-93179000I-250000J0D01*
G01*
X473491000Y-93179000D01*
G75*
G02*
X473241000Y-92929000I0J250000D01*
G01*
X473241000Y-91729000D01*
G75*
G02*
X473491000Y-91479000I250000J0D01*
G01*
G37*
%TD.AperFunction*%
%TD*%
D14*
%TO.N,P61*%
%TO.C,JP10*%
X436626000Y-73787000D03*
D13*
%TO.N,FLASH_CS*%
X439166000Y-73787000D03*
%TD*%
D18*
%TO.N,GND*%
%TO.C,U1*%
X434295019Y-87579200D03*
X435090515Y-86783705D03*
X435886010Y-85988210D03*
X436681505Y-85192715D03*
X437477000Y-84397219D03*
X435090515Y-88374695D03*
X435886010Y-87579200D03*
X436681505Y-86783705D03*
X437477000Y-85988210D03*
X438272495Y-85192715D03*
X435886010Y-89170190D03*
X436681505Y-88374695D03*
X437477000Y-87579200D03*
X438272495Y-86783705D03*
X439067990Y-85988210D03*
X436681505Y-89965685D03*
X437477000Y-89170190D03*
X438272495Y-88374695D03*
X439067990Y-87579200D03*
X439863485Y-86783705D03*
X437477000Y-90761181D03*
X438272495Y-89965685D03*
X439067990Y-89170190D03*
X439863485Y-88374695D03*
X440658981Y-87579200D03*
%TD*%
D14*
%TO.N,Net-(J18-Pad8)*%
%TO.C,J18*%
X461010000Y-112268000D03*
%TO.N,Net-(J18-Pad7)*%
X458470000Y-112268000D03*
%TO.N,Net-(J18-Pad6)*%
X455930000Y-112268000D03*
%TO.N,Net-(J18-Pad5)*%
X453390000Y-112268000D03*
%TO.N,Net-(J18-Pad4)*%
X450850000Y-112268000D03*
%TO.N,Net-(J18-Pad3)*%
X448310000Y-112268000D03*
%TO.N,Net-(J18-Pad2)*%
X445770000Y-112268000D03*
D13*
%TO.N,Net-(J18-Pad1)*%
X443230000Y-112268000D03*
%TD*%
%TO.N,Net-(J19-Pad1)*%
%TO.C,J19*%
X466090000Y-112268000D03*
D14*
%TO.N,Net-(J19-Pad2)*%
X468630000Y-112268000D03*
%TO.N,Net-(J19-Pad3)*%
X471170000Y-112268000D03*
%TO.N,Net-(J19-Pad4)*%
X473710000Y-112268000D03*
%TO.N,Net-(J19-Pad5)*%
X476250000Y-112268000D03*
%TO.N,Net-(J19-Pad6)*%
X478790000Y-112268000D03*
%TO.N,Net-(J19-Pad7)*%
X481330000Y-112268000D03*
%TO.N,Net-(J19-Pad8)*%
X483870000Y-112268000D03*
%TD*%
D13*
%TO.N,Net-(J20-Pad1)*%
%TO.C,J20*%
X420370000Y-112268000D03*
D14*
%TO.N,3.3V_MAIN1*%
X422910000Y-112268000D03*
%TO.N,RESET*%
X425450000Y-112268000D03*
%TO.N,3.3V_MAIN1*%
X427990000Y-112268000D03*
%TO.N,5V_MAIN1*%
X430530000Y-112268000D03*
%TO.N,GND*%
X433070000Y-112268000D03*
X435610000Y-112268000D03*
%TO.N,VIN_L1*%
X438150000Y-112268000D03*
%TD*%
D13*
%TO.N,5V_MAIN1*%
%TO.C,J23*%
X458597000Y-84328000D03*
D14*
%TO.N,P53*%
X456057000Y-84328000D03*
%TO.N,P52*%
X458597000Y-86868000D03*
%TO.N,P51*%
X456057000Y-86868000D03*
%TO.N,GND*%
X458597000Y-89408000D03*
%TO.N,RESET*%
X456057000Y-89408000D03*
%TD*%
D13*
%TO.N,Net-(J24-Pad1)*%
%TO.C,J24*%
X411226000Y-64008000D03*
D14*
%TO.N,Net-(J24-Pad2)*%
X413766000Y-64008000D03*
%TO.N,Net-(J24-Pad3)*%
X416306000Y-64008000D03*
%TO.N,GND*%
X418846000Y-64008000D03*
%TO.N,Net-(J24-Pad5)*%
X421386000Y-64008000D03*
%TO.N,Net-(J24-Pad6)*%
X423926000Y-64008000D03*
%TO.N,Net-(J24-Pad7)*%
X426466000Y-64008000D03*
%TO.N,P55*%
X429006000Y-64008000D03*
%TO.N,P54*%
X431546000Y-64008000D03*
%TO.N,Net-(J24-Pad10)*%
X434086000Y-64008000D03*
%TD*%
%TO.N,Net-(J25-Pad8)*%
%TO.C,J25*%
X455930000Y-64008000D03*
%TO.N,Net-(J25-Pad7)*%
X453390000Y-64008000D03*
%TO.N,Net-(J25-Pad6)*%
X450850000Y-64008000D03*
%TO.N,Net-(J25-Pad5)*%
X448310000Y-64008000D03*
%TO.N,Net-(J25-Pad4)*%
X445770000Y-64008000D03*
%TO.N,Net-(J25-Pad3)*%
X443230000Y-64008000D03*
%TO.N,Net-(J25-Pad2)*%
X440690000Y-64008000D03*
D13*
%TO.N,Net-(J25-Pad1)*%
X438150000Y-64008000D03*
%TD*%
%TO.N,Net-(J26-Pad1)*%
%TO.C,J26*%
X461010000Y-64008000D03*
D14*
%TO.N,Net-(J26-Pad2)*%
X463550000Y-64008000D03*
%TO.N,Net-(J26-Pad3)*%
X466090000Y-64008000D03*
%TO.N,Net-(J26-Pad4)*%
X468630000Y-64008000D03*
%TO.N,Net-(J26-Pad5)*%
X471170000Y-64008000D03*
%TO.N,Net-(J26-Pad6)*%
X473710000Y-64008000D03*
%TO.N,P57*%
X476250000Y-64008000D03*
%TO.N,P56*%
X478790000Y-64008000D03*
%TD*%
D13*
%TO.N,HS_VIN*%
%TO.C,J33*%
X396494000Y-127889000D03*
D14*
%TO.N,HS_1*%
X396494000Y-130429000D03*
%TO.N,HS_2*%
X396494000Y-132969000D03*
%TO.N,HS_3*%
X396494000Y-135509000D03*
%TO.N,HS_4*%
X396494000Y-138049000D03*
%TO.N,GND*%
X396494000Y-140589000D03*
%TD*%
D19*
%TO.N,GND*%
%TO.C,SW1*%
X396312000Y-121666000D03*
%TO.N,RESET*%
X400812000Y-121666000D03*
%TO.N,GND*%
X396312000Y-115166000D03*
%TO.N,RESET*%
X400812000Y-115166000D03*
%TD*%
D13*
%TO.N,RESET*%
%TO.C,J34*%
X509588000Y-114744000D03*
D14*
%TO.N,P62*%
X509588000Y-117284000D03*
%TO.N,P63*%
X509588000Y-119824000D03*
%TO.N,VBUS*%
X509588000Y-122364000D03*
%TO.N,Net-(J34-Pad5)*%
X509588000Y-124904000D03*
%TO.N,GND*%
X509588000Y-127444000D03*
%TD*%
D11*
%TO.N,Net-(C73-Pad1)*%
%TO.C,F1*%
X400558000Y-17208500D03*
%TO.N,VIN_RAW*%
X400558000Y-19708500D03*
%TD*%
%TO.N,VIN_RAW*%
%TO.C,F2*%
X410972000Y-24638000D03*
%TO.N,Net-(C91-Pad1)*%
X410972000Y-22138000D03*
%TD*%
%TO.N,VIN_RAW*%
%TO.C,F3*%
X412242000Y-19391000D03*
%TO.N,Net-(C75-Pad1)*%
X412242000Y-16891000D03*
%TD*%
D20*
%TO.N,Net-(BT1-Pad1)*%
X476314000Y-128080000D03*
%TO.N,GND*%
X414844300Y-81728200D03*
X409727600Y-97350900D03*
X449494500Y-85514400D03*
X411265900Y-90549000D03*
X405686700Y-58657300D03*
X421168000Y-90696700D03*
X407127800Y-78684400D03*
X421219000Y-77795500D03*
X405850000Y-32146900D03*
X428057900Y-70843500D03*
X401302200Y-32689800D03*
X435053300Y-104749400D03*
X427024600Y-99489500D03*
X411554100Y-86244200D03*
X465857700Y-94714900D03*
X448998000Y-75115400D03*
X399796000Y-94615000D03*
X465582000Y-27178000D03*
X409448000Y-130492000D03*
X414210000Y-130175000D03*
X415988000Y-130937000D03*
X420814000Y-131508000D03*
X421068000Y-130683000D03*
X431864000Y-131191000D03*
X426530000Y-131445000D03*
X427038000Y-130556000D03*
X429006000Y-142176000D03*
X427800000Y-142176000D03*
X423164000Y-142367000D03*
X422212000Y-142367000D03*
X417512000Y-142494000D03*
X416624000Y-142558000D03*
X411162000Y-142176000D03*
X410274000Y-142304000D03*
X415036000Y-148018000D03*
X408686000Y-151828000D03*
X408750000Y-149860000D03*
X408686000Y-146240000D03*
X408750000Y-148082000D03*
X408750000Y-144145000D03*
X414972000Y-149479000D03*
X418592000Y-149924000D03*
X429578000Y-147828000D03*
X425514000Y-149225000D03*
X425577000Y-154368000D03*
X417449000Y-158115000D03*
X422084000Y-158750000D03*
X422910000Y-159830000D03*
X430212000Y-157353000D03*
X428498000Y-156146000D03*
X427546000Y-155321000D03*
X426593000Y-155321000D03*
X424053000Y-159830000D03*
X510350000Y-37846000D03*
X511810000Y-37782500D03*
X511874000Y-34671000D03*
X510413000Y-34671000D03*
X512382000Y-30861000D03*
X509842000Y-29210000D03*
X509968000Y-27813000D03*
X512064000Y-26225500D03*
X511429000Y-24511000D03*
X511492000Y-19113500D03*
X510159000Y-19177000D03*
X508762000Y-19177000D03*
X507492000Y-19177000D03*
X494220000Y-24955500D03*
X492379000Y-25082500D03*
X494030000Y-21463000D03*
X492252000Y-21463000D03*
X453006500Y-95164500D03*
X442024000Y-67627500D03*
X440690000Y-66357500D03*
X431610000Y-67056000D03*
X404120600Y-89772200D03*
X399860000Y-86614000D03*
X401193000Y-84772500D03*
X394970000Y-101156000D03*
X412052000Y-109093000D03*
X415290000Y-113284000D03*
X415354000Y-114173000D03*
X473202000Y-135954000D03*
X473202000Y-137795000D03*
X473202000Y-139636000D03*
X473202000Y-141351000D03*
X473202000Y-143192000D03*
X473202000Y-144970000D03*
X473202000Y-146748000D03*
X473266000Y-148590000D03*
X473202000Y-150432000D03*
X473138000Y-152146000D03*
X473266000Y-153988000D03*
X473266000Y-155829000D03*
X473202000Y-157670000D03*
X438468000Y-156400000D03*
X442532000Y-158369000D03*
X455803000Y-129667000D03*
X455866000Y-131000000D03*
X462216000Y-129159000D03*
X462216000Y-131254000D03*
X462216000Y-133096000D03*
X452946000Y-132969000D03*
X446342000Y-133096000D03*
X446342000Y-131128000D03*
X485458000Y-125476000D03*
X472440000Y-126746000D03*
X472440000Y-125540000D03*
X472504000Y-124206000D03*
X472567000Y-122936000D03*
X472504000Y-121666000D03*
X485330000Y-121730000D03*
X485330000Y-123000000D03*
X485330000Y-124206000D03*
X452374000Y-149796000D03*
X452247000Y-147892000D03*
X448183000Y-147892000D03*
X448183000Y-149860000D03*
X511874000Y-157353000D03*
X510858000Y-157353000D03*
X483108000Y-145542000D03*
X486029000Y-140208000D03*
X490093000Y-138049000D03*
X498030000Y-117348000D03*
X499682000Y-118872000D03*
X504444000Y-118554000D03*
X502285000Y-118554000D03*
X505587000Y-117475000D03*
X505524000Y-113856000D03*
X510032000Y-104902000D03*
X511429000Y-104902000D03*
X511302000Y-108077000D03*
X510286000Y-108014000D03*
X512191000Y-96456500D03*
X512128000Y-101156000D03*
X510350000Y-99504500D03*
X510350000Y-97853500D03*
X510413000Y-94869000D03*
X510476000Y-89598500D03*
X509143000Y-89598500D03*
X507873000Y-89662000D03*
X506603000Y-89598500D03*
X494030000Y-95059500D03*
X492316000Y-95123000D03*
X494030000Y-91313000D03*
X492506000Y-91376500D03*
X499491000Y-86042500D03*
X498284000Y-86042500D03*
X497332000Y-84391500D03*
X504825000Y-84963000D03*
X503555000Y-86106000D03*
X504762000Y-81470500D03*
X509714000Y-75374500D03*
X511112000Y-75438000D03*
X511238000Y-72199500D03*
X509778000Y-72326500D03*
X511366000Y-63690500D03*
X511429000Y-68516500D03*
X509397000Y-66675000D03*
X509397000Y-65405000D03*
X509397000Y-62484000D03*
X509397000Y-57150000D03*
X508064000Y-57213500D03*
X506794000Y-57150000D03*
X505524000Y-57213500D03*
X492824000Y-62166500D03*
X491236000Y-62230000D03*
X493141000Y-58610500D03*
X491490000Y-58547000D03*
X504380000Y-41846500D03*
X507556000Y-41846500D03*
X508762000Y-45466000D03*
X508000000Y-47180500D03*
X506984000Y-47180500D03*
X499682000Y-45529500D03*
X498856000Y-47117000D03*
X497904000Y-47180500D03*
X498729000Y-41846500D03*
X495364000Y-41719500D03*
X486283000Y-48387000D03*
X488188000Y-48323500D03*
X487998000Y-44323000D03*
X486346000Y-44450000D03*
X489839000Y-36385500D03*
X489839000Y-31051500D03*
X488632000Y-31115000D03*
X487299000Y-31051500D03*
X485902000Y-31178500D03*
X467614000Y-35623500D03*
X466408000Y-30670500D03*
X463931000Y-30734000D03*
X472059000Y-31940500D03*
X473710000Y-32067500D03*
X474028000Y-35433000D03*
X472313000Y-35496500D03*
X471551000Y-39116000D03*
X471551000Y-40894000D03*
X467487000Y-40894000D03*
X467550000Y-39370000D03*
X480378000Y-57150000D03*
X481965000Y-57404000D03*
X482028000Y-54038500D03*
X480568000Y-54102000D03*
X449898000Y-58801000D03*
X447612000Y-58737500D03*
X445072000Y-46482000D03*
X446405000Y-46545500D03*
X446278000Y-49466500D03*
X445135000Y-49466500D03*
X449390000Y-31813500D03*
X451612000Y-31940500D03*
X451548000Y-35687000D03*
X449516000Y-35560000D03*
X449262000Y-39370000D03*
X449199000Y-41465500D03*
X445135000Y-41529000D03*
X445072000Y-39687500D03*
X445198000Y-36068000D03*
X445072000Y-30797500D03*
X443928000Y-30670500D03*
X442658000Y-30734000D03*
X441388000Y-30734000D03*
X426466000Y-39433500D03*
X426466000Y-41275000D03*
X467360000Y-45974000D03*
X468884000Y-45974000D03*
X468630000Y-48958500D03*
X467614000Y-49022000D03*
X471551000Y-58928000D03*
X469074000Y-54610000D03*
X471551000Y-51244500D03*
X469710000Y-51244500D03*
X468566000Y-51308000D03*
X462026000Y-58610500D03*
X459676000Y-58674000D03*
X462026000Y-51244500D03*
X459613000Y-51117500D03*
X456946000Y-54546500D03*
X457772000Y-51117500D03*
X456502000Y-51181000D03*
X449770000Y-51371500D03*
X447738000Y-51371500D03*
X445960000Y-51435000D03*
X444944000Y-51498500D03*
X438468000Y-58737500D03*
X438340000Y-51371500D03*
X435166000Y-51181000D03*
X433578000Y-51308000D03*
X432181000Y-51308000D03*
X415988000Y-58737500D03*
X414020000Y-58737500D03*
X411861000Y-54927500D03*
X411290000Y-51435000D03*
X412432000Y-51435000D03*
X414147000Y-51371500D03*
X416052000Y-51435000D03*
X425450000Y-58674000D03*
X425450000Y-51371500D03*
X423545000Y-51308000D03*
X422275000Y-51244500D03*
X420751000Y-47498000D03*
X423608000Y-48831500D03*
X422338000Y-48768000D03*
X426847000Y-31750000D03*
X428498000Y-31877000D03*
X428562000Y-35433000D03*
X426847000Y-35369500D03*
X422974000Y-36258500D03*
X419164000Y-30988000D03*
X420370000Y-30924500D03*
X421704000Y-30988000D03*
X422974000Y-30988000D03*
X405183000Y-22489600D03*
X408395000Y-20610800D03*
X419354000Y-22669500D03*
X416814000Y-22542500D03*
X417830000Y-16891000D03*
X406464000Y-16891000D03*
%TO.N,+1V8*%
X447341100Y-79200800D03*
X434865600Y-69644500D03*
X449272900Y-83436000D03*
X443744600Y-95890700D03*
X442123200Y-96646400D03*
X427387700Y-94230300D03*
X428928800Y-95576000D03*
X438022300Y-97653600D03*
X433197000Y-59436000D03*
%TO.N,VIN_L1*%
X450672600Y-100870700D03*
X468701500Y-99070600D03*
X410998100Y-112876900D03*
X456565000Y-65722500D03*
X455676000Y-61531500D03*
X505460000Y-59436000D03*
X442150000Y-32956500D03*
X429324000Y-28575000D03*
X445452000Y-17272000D03*
X440436000Y-17272000D03*
X435546000Y-17780000D03*
X413179000Y-28273200D03*
%TO.N,+5V*%
X478736600Y-132058300D03*
X469473400Y-127097300D03*
%TO.N,+5V_3*%
X481453600Y-153990100D03*
X491744000Y-28511500D03*
X476250000Y-20320000D03*
X470789000Y-20320000D03*
X465900000Y-20320000D03*
%TO.N,+5V_1*%
X480817000Y-146088700D03*
X430938000Y-28548300D03*
X445580000Y-20383500D03*
X440754000Y-20383500D03*
X435737000Y-20383500D03*
%TO.N,+5V_2*%
X481946700Y-146268600D03*
X469202000Y-28575000D03*
X460756000Y-20320000D03*
X455486000Y-20320000D03*
X450723000Y-20320000D03*
%TO.N,+3.3V_3*%
X480321500Y-153163500D03*
X464058000Y-59563000D03*
X470154000Y-34734500D03*
X476186000Y-23368000D03*
X470852000Y-23368000D03*
X465836000Y-23368000D03*
%TO.N,+3.3V_1*%
X489166300Y-77996300D03*
X457668200Y-66166700D03*
X442976000Y-51435000D03*
X434594000Y-30861000D03*
X445680000Y-23785800D03*
X440372000Y-23368000D03*
X435420000Y-23368000D03*
%TO.N,+3.3V_2*%
X476983000Y-147476600D03*
X455866000Y-27686000D03*
X455866000Y-34798000D03*
X456311000Y-49911000D03*
X460820000Y-23368000D03*
X455740000Y-23368000D03*
X450850000Y-23368000D03*
%TO.N,+3V3*%
X461610300Y-110828600D03*
X413290000Y-109212100D03*
X417303800Y-93831100D03*
X403866500Y-107302600D03*
X440246000Y-158242000D03*
X481330000Y-129350000D03*
X402272000Y-125794000D03*
%TO.N,VIN_IO*%
X507492000Y-24701500D03*
X409638000Y-29718000D03*
%TO.N,VIN_ADC*%
X410335900Y-30679600D03*
X505333000Y-91249500D03*
X403162000Y-23939500D03*
%TO.N,5V_ADC*%
X483275800Y-114498800D03*
X462305000Y-107377300D03*
X422735300Y-99446000D03*
X476960000Y-116026300D03*
X491617000Y-104902000D03*
%TO.N,3.3V_ADC*%
X489068300Y-121443000D03*
X478939800Y-133543900D03*
%TO.N,VBUS*%
X416046500Y-101149700D03*
%TO.N,Net-(C104-Pad1)*%
X410714500Y-89152100D03*
X408963500Y-89802900D03*
%TO.N,RESET*%
X469912400Y-105378300D03*
X461341200Y-101282700D03*
X416391500Y-90600900D03*
X417336000Y-56030700D03*
X420927200Y-66230500D03*
%TO.N,FLASH_CS*%
X452944800Y-83657100D03*
%TO.N,5V_MAIN1*%
X437579700Y-62009600D03*
X456287300Y-99460900D03*
X431990000Y-109156000D03*
X490284000Y-76263500D03*
%TO.N,3.3V_MAIN1*%
X462184100Y-76873800D03*
X476573000Y-110845600D03*
X462470000Y-114131000D03*
X463614000Y-109474000D03*
X490918000Y-80708500D03*
%TO.N,Net-(J32-Pad7)*%
X440246000Y-147828000D03*
%TO.N,V_0_3*%
X429232100Y-78793900D03*
X405397700Y-51827200D03*
X410835300Y-50214600D03*
X406984900Y-59893500D03*
X402646700Y-61233600D03*
X466302100Y-68364100D03*
X432008600Y-72651100D03*
X427302700Y-71452000D03*
X446696100Y-77199300D03*
X500316000Y-56388000D03*
%TO.N,V_32_35*%
X401869500Y-75406700D03*
X444945200Y-87591100D03*
X401469000Y-49066700D03*
X429068500Y-61521000D03*
X402734800Y-56868400D03*
X462978000Y-66611500D03*
X493204000Y-51752500D03*
%TO.N,P0*%
X412411900Y-36439800D03*
X456440300Y-69284700D03*
%TO.N,P1*%
X472125500Y-102649400D03*
X401482700Y-29873000D03*
X450003700Y-80884400D03*
%TO.N,P2*%
X402161900Y-31447600D03*
X438225200Y-66217200D03*
X448652900Y-80665900D03*
X455969700Y-76402800D03*
%TO.N,P3*%
X442494300Y-75618000D03*
X447970200Y-80004700D03*
X402980800Y-32754700D03*
%TO.N,P4*%
X402247100Y-33527000D03*
X443802000Y-86233900D03*
X479171000Y-99284900D03*
%TO.N,P5*%
X458937100Y-78377600D03*
X446186400Y-80172300D03*
X403732600Y-37020300D03*
%TO.N,P6*%
X469832300Y-103987600D03*
X403384200Y-38321400D03*
X442789000Y-87697300D03*
%TO.N,P7*%
X401457400Y-37026500D03*
X442572100Y-62170900D03*
X444222300Y-78095900D03*
X477095800Y-28732100D03*
%TO.N,P8*%
X438930400Y-61954100D03*
X437932200Y-71044200D03*
X440741400Y-81829600D03*
X401733800Y-38015300D03*
%TO.N,P9*%
X468603200Y-103740000D03*
X443869200Y-79958200D03*
X407894700Y-39838400D03*
%TO.N,P10*%
X410057700Y-39963200D03*
X444632100Y-76287900D03*
%TO.N,P11*%
X410639600Y-41202700D03*
X443200100Y-76280300D03*
%TO.N,P12*%
X413918300Y-43151200D03*
X442286200Y-73854600D03*
X463750700Y-89356700D03*
X457819400Y-80490800D03*
%TO.N,P13*%
X439091900Y-80473900D03*
X410981700Y-45999300D03*
%TO.N,P14*%
X438648200Y-75389700D03*
X407458900Y-47843800D03*
X439966600Y-77293300D03*
%TO.N,P15*%
X402418800Y-47415800D03*
X432877500Y-62147000D03*
X461143300Y-80737800D03*
%TO.N,P16*%
X403251200Y-48271900D03*
X434662300Y-74068200D03*
X461396500Y-87628800D03*
%TO.N,P17*%
X426424100Y-67371900D03*
X402994800Y-50621200D03*
X434639100Y-77157700D03*
%TO.N,P18*%
X478551800Y-90675300D03*
X435812400Y-80255900D03*
X401594200Y-50614600D03*
X427877800Y-62839200D03*
%TO.N,P19*%
X451624300Y-85034900D03*
X432524000Y-75066000D03*
X404263900Y-51315700D03*
%TO.N,P20*%
X433179600Y-49846200D03*
X402478500Y-52200800D03*
X422783200Y-62640700D03*
%TO.N,P21*%
X401540400Y-54333000D03*
X426440800Y-70775500D03*
X432047300Y-79137900D03*
%TO.N,P22*%
X474488800Y-90045300D03*
X433903200Y-82163100D03*
X431195100Y-76213700D03*
X403857900Y-52259800D03*
%TO.N,P23*%
X475881700Y-90164300D03*
X424861000Y-70774800D03*
X401932400Y-57410100D03*
X431552000Y-80488600D03*
%TO.N,P24*%
X469604300Y-91536300D03*
X432639400Y-83541500D03*
X430576700Y-80593500D03*
X407967700Y-57725300D03*
X423169700Y-70090400D03*
%TO.N,P25*%
X406236800Y-60489500D03*
X425189700Y-73950400D03*
X430305300Y-81944200D03*
X472787100Y-90445600D03*
%TO.N,P26*%
X460048700Y-84024100D03*
X402503000Y-62914800D03*
X428281700Y-78561000D03*
X431155400Y-84919500D03*
%TO.N,P27*%
X460775300Y-86180900D03*
X429912100Y-74615300D03*
X409565400Y-66406000D03*
%TO.N,P28*%
X427189800Y-81967000D03*
X476556800Y-90857900D03*
X411676800Y-73870200D03*
%TO.N,P29*%
X433946000Y-99985000D03*
X428695800Y-87398100D03*
X408000200Y-76054000D03*
%TO.N,P30*%
X404939900Y-73879600D03*
X420545800Y-84875600D03*
X427453700Y-67958900D03*
X428643500Y-76955700D03*
%TO.N,P31*%
X422578400Y-89961600D03*
X470069500Y-94637400D03*
X466321300Y-72933000D03*
X402477500Y-69390300D03*
X421014600Y-86306000D03*
%TO.N,P32*%
X409072800Y-76454300D03*
X466352500Y-77463400D03*
X467276800Y-93587500D03*
X434369100Y-90870000D03*
%TO.N,P33*%
X403572000Y-72454100D03*
X421967700Y-86240100D03*
X426592500Y-90870100D03*
X470806200Y-95244800D03*
%TO.N,P34*%
X426401300Y-93882300D03*
X471921900Y-95972100D03*
X405460500Y-99431100D03*
%TO.N,P35*%
X404846600Y-76736800D03*
X430673700Y-89646500D03*
X490311900Y-139002700D03*
X427513600Y-108190700D03*
%TO.N,P36*%
X424164300Y-98575000D03*
X490090400Y-152068000D03*
X404149900Y-82138000D03*
%TO.N,P37*%
X436984900Y-109671600D03*
X431574800Y-90407700D03*
X432137800Y-104453900D03*
X402295000Y-77360800D03*
%TO.N,P38*%
X464238800Y-108103900D03*
X406095900Y-104450900D03*
X429138700Y-94441800D03*
X427298300Y-101657400D03*
%TO.N,P39*%
X408883000Y-107659200D03*
X436991000Y-144950400D03*
X429963800Y-94960800D03*
X429330400Y-103096200D03*
%TO.N,P40*%
X403784400Y-96223800D03*
X440356000Y-153541400D03*
X429662100Y-96437600D03*
X427309300Y-102634300D03*
%TO.N,P41*%
X409526400Y-98474500D03*
X439222000Y-152750300D03*
X431222200Y-96178800D03*
X428410300Y-104573000D03*
%TO.N,P42*%
X430366500Y-97233500D03*
X426912500Y-103598700D03*
X415197300Y-111839200D03*
X438255300Y-153247500D03*
%TO.N,P43*%
X404976500Y-78590100D03*
X415708700Y-87977600D03*
X426204200Y-105267200D03*
X415278800Y-110359500D03*
X413912800Y-152188400D03*
%TO.N,P44*%
X417539700Y-99417000D03*
X438522100Y-104518500D03*
X417313900Y-153725900D03*
%TO.N,P45*%
X403890900Y-70240300D03*
X433431800Y-90296800D03*
X416906200Y-150876200D03*
X434042700Y-96803300D03*
X403877300Y-106109400D03*
%TO.N,P46*%
X417565700Y-97883500D03*
X409137100Y-156002500D03*
X406062400Y-88105200D03*
X435502000Y-100944000D03*
%TO.N,P47*%
X436607000Y-100992800D03*
X402469700Y-65599300D03*
X431258200Y-86974000D03*
X413132800Y-156133500D03*
%TO.N,P48*%
X458874900Y-108652100D03*
X456150600Y-136236300D03*
X402159300Y-59741300D03*
X436632100Y-92717000D03*
%TO.N,P49*%
X465156400Y-107182000D03*
X402332700Y-58760800D03*
X417720300Y-66587000D03*
X418282900Y-94946200D03*
X440176800Y-99109400D03*
%TO.N,P50*%
X403410100Y-66862300D03*
X438957500Y-91338900D03*
X460733700Y-109228700D03*
X452378700Y-134682700D03*
X438835500Y-93517600D03*
%TO.N,P51*%
X411498900Y-101376200D03*
X418469600Y-97347700D03*
X442802700Y-98465600D03*
%TO.N,P52*%
X439990700Y-93640100D03*
X402100800Y-119498600D03*
X403544200Y-130553900D03*
X404485800Y-60575600D03*
X415076600Y-86309800D03*
X414167000Y-89124400D03*
%TO.N,P53*%
X402891100Y-54717100D03*
X419962200Y-66169300D03*
X419515700Y-91654400D03*
X442093300Y-95696000D03*
X403542300Y-136013600D03*
%TO.N,P54*%
X407321800Y-83088900D03*
X401661100Y-112747400D03*
X403544200Y-140463100D03*
X437300200Y-81844100D03*
%TO.N,P55*%
X442041500Y-91625600D03*
X473129700Y-99300100D03*
X431611500Y-77564400D03*
%TO.N,P56*%
X425293800Y-80915100D03*
X444950500Y-97069400D03*
X482852700Y-96718100D03*
%TO.N,P57*%
X476043200Y-97128000D03*
X442331500Y-89545100D03*
%TO.N,P58*%
X466032800Y-96405800D03*
X406664100Y-97582300D03*
X447133900Y-94818600D03*
%TO.N,P59*%
X456849900Y-95646300D03*
X394875000Y-104059200D03*
X443130200Y-90803900D03*
X410325900Y-61313300D03*
%TO.N,P60*%
X407904000Y-87016000D03*
X458707400Y-96085700D03*
X449152700Y-92992200D03*
X400428400Y-104504700D03*
%TO.N,P61*%
X402195900Y-100947800D03*
X408287600Y-88568500D03*
X412599300Y-58520200D03*
X414771600Y-69113500D03*
X437163100Y-80331100D03*
%TO.N,P62*%
X445716100Y-88266900D03*
X469640300Y-102089200D03*
X408831800Y-81197500D03*
%TO.N,P63*%
X419439500Y-94422000D03*
X454868100Y-99060200D03*
X466715000Y-106939600D03*
%TO.N,AO2*%
X455676000Y-132588000D03*
%TO.N,AO1*%
X456565000Y-124079000D03*
%TO.N,AO3*%
X450278000Y-132270000D03*
%TD*%
D21*
%TO.N,+1V8*%
X435486000Y-69499000D02*
X435011100Y-69499000D01*
X435011100Y-69499000D02*
X434865600Y-69644500D01*
X447341100Y-79200800D02*
X445849500Y-77709200D01*
X445849500Y-77709200D02*
X445849500Y-76422200D01*
X445849500Y-76422200D02*
X438926300Y-69499000D01*
X438926300Y-69499000D02*
X435486000Y-69499000D01*
X435486000Y-64680000D02*
X435486000Y-69499000D01*
D22*
X433197000Y-59436000D02*
X435486000Y-61725000D01*
X435486000Y-61725000D02*
X435486000Y-64680000D01*
D21*
X438022300Y-97653600D02*
X437847400Y-97478700D01*
X437847400Y-97478700D02*
X431566700Y-97478700D01*
X431566700Y-97478700D02*
X430535500Y-96447500D01*
X430535500Y-96447500D02*
X430535500Y-96350900D01*
X430535500Y-96350900D02*
X429946800Y-95762200D01*
X429946800Y-95762200D02*
X429115000Y-95762200D01*
X429115000Y-95762200D02*
X428928800Y-95576000D01*
X438022300Y-97653600D02*
X439029500Y-96646400D01*
X439029500Y-96646400D02*
X442123200Y-96646400D01*
X443744600Y-95890700D02*
X442988900Y-96646400D01*
X442988900Y-96646400D02*
X442123200Y-96646400D01*
X428928800Y-95576000D02*
X428733400Y-95576000D01*
X428733400Y-95576000D02*
X427387700Y-94230300D01*
%TO.N,VIN_L1*%
X468701500Y-99070600D02*
X462032200Y-99070600D01*
X462032200Y-99070600D02*
X460232100Y-100870700D01*
X460232100Y-100870700D02*
X450672600Y-100870700D01*
X456565000Y-65722500D02*
X456565000Y-66018400D01*
X456565000Y-66018400D02*
X458947200Y-68400600D01*
X458947200Y-68400600D02*
X458947200Y-73740800D01*
X458947200Y-73740800D02*
X458278800Y-74409200D01*
X458278800Y-74409200D02*
X456362200Y-74409200D01*
X456362200Y-74409200D02*
X455232000Y-73279000D01*
X438150000Y-112268000D02*
X437024700Y-112268000D01*
X437024700Y-112268000D02*
X437024700Y-112050800D01*
X437024700Y-112050800D02*
X436116600Y-111142700D01*
X436116600Y-111142700D02*
X412732300Y-111142700D01*
X412732300Y-111142700D02*
X410998100Y-112876900D01*
D22*
X454107000Y-33356500D02*
X479380000Y-33356500D01*
X479380000Y-33356500D02*
X482763000Y-36739300D01*
X482763000Y-36739300D02*
X505460000Y-59436000D01*
X454107000Y-33356500D02*
X454107000Y-59963000D01*
X454107000Y-59963000D02*
X455676000Y-61531500D01*
X442150000Y-32956500D02*
X442550000Y-33356500D01*
X442550000Y-33356500D02*
X454107000Y-33356500D01*
X435546000Y-17780000D02*
X429324000Y-24003000D01*
X429324000Y-24003000D02*
X429324000Y-28575000D01*
X440436000Y-17272000D02*
X445452000Y-17272000D01*
X435546000Y-17780000D02*
X439928000Y-17780000D01*
X439928000Y-17780000D02*
X440436000Y-17272000D01*
D21*
%TO.N,+5V*%
X478736600Y-132058300D02*
X474434400Y-132058300D01*
X474434400Y-132058300D02*
X469473400Y-127097300D01*
%TO.N,+5V_3*%
X491744000Y-28511500D02*
X496242600Y-24012900D01*
X496242600Y-24012900D02*
X507772600Y-24012900D01*
X507772600Y-24012900D02*
X513066700Y-29307000D01*
X513066700Y-29307000D02*
X513066700Y-123028400D01*
X513066700Y-123028400D02*
X509921100Y-126174000D01*
X509921100Y-126174000D02*
X509254300Y-126174000D01*
X509254300Y-126174000D02*
X481453600Y-153974700D01*
X481453600Y-153974700D02*
X481453600Y-153990100D01*
D22*
X476250000Y-20320000D02*
X484442000Y-28511500D01*
X484442000Y-28511500D02*
X491744000Y-28511500D01*
X470789000Y-20320000D02*
X476250000Y-20320000D01*
X465900000Y-20320000D02*
X470789000Y-20320000D01*
%TO.N,+5V_1*%
X435737000Y-20383500D02*
X430938000Y-25182800D01*
X430938000Y-25182800D02*
X430938000Y-28548300D01*
X440754000Y-20383500D02*
X445580000Y-20383500D01*
X435737000Y-20383500D02*
X440754000Y-20383500D01*
%TO.N,+5V_2*%
X460756000Y-20320000D02*
X460756000Y-20893200D01*
X460756000Y-20893200D02*
X468438000Y-28575000D01*
X468438000Y-28575000D02*
X469202000Y-28575000D01*
X455486000Y-20320000D02*
X460756000Y-20320000D01*
X450723000Y-20320000D02*
X455486000Y-20320000D01*
D21*
%TO.N,+3.3V_3*%
X464058000Y-59563000D02*
X464729200Y-60234200D01*
X464729200Y-60234200D02*
X464729200Y-64430500D01*
X464729200Y-64430500D02*
X464026400Y-65133300D01*
X464026400Y-65133300D02*
X463487600Y-65133300D01*
X463487600Y-65133300D02*
X462302600Y-66318300D01*
X462302600Y-66318300D02*
X462302600Y-66918600D01*
X462302600Y-66918600D02*
X464430900Y-69046900D01*
X464430900Y-69046900D02*
X485810300Y-69046900D01*
X485810300Y-69046900D02*
X501688800Y-84925400D01*
X501688800Y-84925400D02*
X501688800Y-85639300D01*
X501688800Y-85639300D02*
X506793600Y-90744100D01*
X506793600Y-90744100D02*
X506793600Y-99226200D01*
X506793600Y-99226200D02*
X512131900Y-104564500D01*
X512131900Y-104564500D02*
X512131900Y-121451000D01*
X512131900Y-121451000D02*
X509948900Y-123634000D01*
X509948900Y-123634000D02*
X509205800Y-123634000D01*
X509205800Y-123634000D02*
X480321500Y-152518300D01*
X480321500Y-152518300D02*
X480321500Y-153163500D01*
D22*
X470154000Y-34734500D02*
X464058000Y-40830500D01*
X464058000Y-40830500D02*
X464058000Y-59563000D01*
X470852000Y-23368000D02*
X476186000Y-23368000D01*
X465836000Y-23368000D02*
X470852000Y-23368000D01*
D21*
%TO.N,+3.3V_1*%
X457668200Y-66166700D02*
X466847900Y-75346400D01*
X466847900Y-75346400D02*
X490335000Y-75346400D01*
X490335000Y-75346400D02*
X490969100Y-75980500D01*
X490969100Y-75980500D02*
X490969100Y-76543700D01*
X490969100Y-76543700D02*
X489516500Y-77996300D01*
X489516500Y-77996300D02*
X489166300Y-77996300D01*
D22*
X434594000Y-30861000D02*
X442976000Y-39243000D01*
X442976000Y-39243000D02*
X442976000Y-51435000D01*
X440372000Y-23368000D02*
X445262000Y-23368000D01*
X445262000Y-23368000D02*
X445680000Y-23785800D01*
X435420000Y-23368000D02*
X440372000Y-23368000D01*
%TO.N,+3.3V_2*%
X455866000Y-27686000D02*
X455866000Y-23495000D01*
X455866000Y-23495000D02*
X455740000Y-23368000D01*
X456311000Y-49911000D02*
X455866000Y-49466500D01*
X455866000Y-49466500D02*
X455866000Y-34798000D01*
X455740000Y-23368000D02*
X460820000Y-23368000D01*
X450850000Y-23368000D02*
X455740000Y-23368000D01*
D21*
%TO.N,+3V3*%
X402272000Y-125794000D02*
X403624900Y-124441100D01*
X403624900Y-124441100D02*
X403624900Y-107544200D01*
X403624900Y-107544200D02*
X403866500Y-107302600D01*
X461610300Y-110828600D02*
X461960600Y-110828600D01*
X461960600Y-110828600D02*
X462000000Y-110868000D01*
X413290000Y-109212100D02*
X415766500Y-109212100D01*
X415766500Y-109212100D02*
X417278000Y-110723600D01*
X417278000Y-110723600D02*
X436515700Y-110723600D01*
X436515700Y-110723600D02*
X436620700Y-110828600D01*
X436620700Y-110828600D02*
X461610300Y-110828600D01*
X408378800Y-106389700D02*
X407465900Y-107302600D01*
X407465900Y-107302600D02*
X403866500Y-107302600D01*
X413290000Y-109212100D02*
X412387800Y-108309900D01*
X412387800Y-108309900D02*
X410488800Y-108309900D01*
X410488800Y-108309900D02*
X409162800Y-106983900D01*
X409162800Y-106983900D02*
X408973000Y-106983900D01*
X408973000Y-106983900D02*
X408378800Y-106389700D01*
D22*
X462000000Y-110868000D02*
X465263000Y-114131000D01*
X465263000Y-114131000D02*
X467842000Y-114131000D01*
X467842000Y-114131000D02*
X481330000Y-127619000D01*
X481330000Y-127619000D02*
X481330000Y-129350000D01*
D21*
X408378800Y-106389700D02*
X408378800Y-102436700D01*
X408378800Y-102436700D02*
X416984400Y-93831100D01*
X416984400Y-93831100D02*
X417303800Y-93831100D01*
D22*
%TO.N,VIN_IO*%
X409638000Y-29718000D02*
X502476000Y-29718000D01*
X502476000Y-29718000D02*
X507492000Y-24701500D01*
D21*
%TO.N,VIN_ADC*%
X505333000Y-91249500D02*
X505333000Y-90881100D01*
X505333000Y-90881100D02*
X497057200Y-82605300D01*
X497057200Y-82605300D02*
X497057200Y-80870900D01*
X497057200Y-80870900D02*
X488195300Y-72009000D01*
X488195300Y-72009000D02*
X466607400Y-72009000D01*
X466607400Y-72009000D02*
X456815300Y-62216900D01*
X456815300Y-62216900D02*
X448228300Y-62216900D01*
X448228300Y-62216900D02*
X434873100Y-48861700D01*
X434873100Y-48861700D02*
X428518000Y-48861700D01*
X428518000Y-48861700D02*
X410335900Y-30679600D01*
%TO.N,5V_ADC*%
X422735300Y-99446000D02*
X424233300Y-100944000D01*
X424233300Y-100944000D02*
X432817600Y-100944000D01*
X432817600Y-100944000D02*
X433334500Y-101460900D01*
X433334500Y-101460900D02*
X434345800Y-101460900D01*
X434345800Y-101460900D02*
X440525600Y-107640700D01*
X440525600Y-107640700D02*
X457799000Y-107640700D01*
X457799000Y-107640700D02*
X458062400Y-107377300D01*
X458062400Y-107377300D02*
X462305000Y-107377300D01*
X480533500Y-117241100D02*
X479318700Y-116026300D01*
X479318700Y-116026300D02*
X476960000Y-116026300D01*
X457772000Y-121875000D02*
X457772000Y-134634100D01*
X457772000Y-134634100D02*
X457048600Y-135357500D01*
X457048600Y-135357500D02*
X457048600Y-137420600D01*
X457048600Y-137420600D02*
X457177300Y-137549300D01*
X457177300Y-137549300D02*
X467690500Y-137549300D01*
X467690500Y-137549300D02*
X472371300Y-132868500D01*
X472371300Y-132868500D02*
X478901700Y-132868500D01*
X478901700Y-132868500D02*
X482029800Y-129740400D01*
X482029800Y-129740400D02*
X482029800Y-118737400D01*
X482029800Y-118737400D02*
X480533500Y-117241100D01*
X483275800Y-114498800D02*
X480533500Y-117241100D01*
%TO.N,3.3V_ADC*%
X478939800Y-133543900D02*
X489068300Y-123415400D01*
X489068300Y-123415400D02*
X489068300Y-121443000D01*
X460312000Y-121875000D02*
X459142000Y-120705000D01*
X459142000Y-120705000D02*
X457346600Y-120705000D01*
X457346600Y-120705000D02*
X456646600Y-121405000D01*
X456646600Y-121405000D02*
X456646600Y-122668300D01*
X456646600Y-122668300D02*
X454950900Y-124364000D01*
X454950900Y-124364000D02*
X454950900Y-135991600D01*
X454950900Y-135991600D02*
X456908900Y-137949600D01*
X456908900Y-137949600D02*
X467856500Y-137949600D01*
X467856500Y-137949600D02*
X472262200Y-133543900D01*
X472262200Y-133543900D02*
X478939800Y-133543900D01*
%TO.N,VBUS*%
X509588000Y-122364000D02*
X492662300Y-122364000D01*
X492662300Y-122364000D02*
X483721500Y-113423200D01*
X483721500Y-113423200D02*
X475794800Y-113423200D01*
X475794800Y-113423200D02*
X474980000Y-112608400D01*
X474980000Y-112608400D02*
X474980000Y-111937300D01*
X474980000Y-111937300D02*
X473416600Y-110373900D01*
X473416600Y-110373900D02*
X463553000Y-110373900D01*
X463553000Y-110373900D02*
X462870700Y-109691600D01*
X462870700Y-109691600D02*
X461225900Y-109691600D01*
X461225900Y-109691600D02*
X461013500Y-109904000D01*
X461013500Y-109904000D02*
X438942400Y-109904000D01*
X438942400Y-109904000D02*
X432816900Y-103778500D01*
X432816900Y-103778500D02*
X431726500Y-103778500D01*
X431726500Y-103778500D02*
X428414400Y-107090600D01*
X428414400Y-107090600D02*
X427092200Y-107090600D01*
X427092200Y-107090600D02*
X426852900Y-107329900D01*
X426852900Y-107329900D02*
X414434900Y-107329900D01*
X414434900Y-107329900D02*
X413457400Y-106352400D01*
X413457400Y-106352400D02*
X413457400Y-102732800D01*
X413457400Y-102732800D02*
X415040500Y-101149700D01*
X415040500Y-101149700D02*
X416046500Y-101149700D01*
%TO.N,VIN_RAW*%
X408178000Y-24651000D02*
X408177800Y-24651200D01*
X408177800Y-24651200D02*
X408177800Y-26289000D01*
D23*
X408178000Y-24651000D02*
X408178000Y-26289000D01*
X408178000Y-26289000D02*
X409321000Y-26289000D01*
X409321000Y-26289000D02*
X410972000Y-24638000D01*
X400558000Y-19708500D02*
X404947000Y-19708500D01*
X404947000Y-19708500D02*
X408178000Y-22939000D01*
X408178000Y-22939000D02*
X408178000Y-24651000D01*
X426276000Y-17081500D02*
X426276000Y-18212900D01*
X426276000Y-18212900D02*
X425097000Y-19391000D01*
X425097000Y-19391000D02*
X412242000Y-19391000D01*
X410972000Y-24638000D02*
X412103000Y-24638000D01*
X412103000Y-24638000D02*
X413172000Y-23569400D01*
X413172000Y-23569400D02*
X413172000Y-20321000D01*
X413172000Y-20321000D02*
X412242000Y-19391000D01*
D21*
%TO.N,RESET*%
X509588000Y-114744000D02*
X508462700Y-114744000D01*
X469912400Y-105378300D02*
X471768100Y-107234000D01*
X471768100Y-107234000D02*
X500952700Y-107234000D01*
X500952700Y-107234000D02*
X508462700Y-114744000D01*
%TO.N,FLASH_CS*%
X439166000Y-74912300D02*
X443501200Y-79247500D01*
X443501200Y-79247500D02*
X444184400Y-79247500D01*
X444184400Y-79247500D02*
X444579900Y-79643000D01*
X444579900Y-79643000D02*
X444579900Y-80198400D01*
X444579900Y-80198400D02*
X445637400Y-81255900D01*
X445637400Y-81255900D02*
X447134000Y-81255900D01*
X447134000Y-81255900D02*
X448238400Y-82360300D01*
X448238400Y-82360300D02*
X451648000Y-82360300D01*
X451648000Y-82360300D02*
X452944800Y-83657100D01*
X439166000Y-73787000D02*
X439166000Y-74912300D01*
%TO.N,5V_MAIN1*%
X459790100Y-78270200D02*
X459790100Y-82009600D01*
X459790100Y-82009600D02*
X458597000Y-83202700D01*
X490284000Y-76263500D02*
X490205500Y-76185000D01*
X490205500Y-76185000D02*
X461875300Y-76185000D01*
X461875300Y-76185000D02*
X459790100Y-78270200D01*
X459790100Y-78270200D02*
X456428000Y-74908100D01*
X456428000Y-74908100D02*
X455248700Y-74908100D01*
X455248700Y-74908100D02*
X454106600Y-73766000D01*
X454106600Y-73766000D02*
X454106600Y-72809000D01*
X454106600Y-72809000D02*
X454806600Y-72109000D01*
X454806600Y-72109000D02*
X456602000Y-72109000D01*
X456602000Y-72109000D02*
X457772000Y-73279000D01*
X437579700Y-62009600D02*
X437024600Y-62564700D01*
X437024600Y-62564700D02*
X437024600Y-64997100D01*
X437024600Y-64997100D02*
X437567600Y-65540100D01*
X437567600Y-65540100D02*
X446945000Y-65540100D01*
X446945000Y-65540100D02*
X451500700Y-70095800D01*
X451500700Y-70095800D02*
X451500700Y-71192700D01*
X451500700Y-71192700D02*
X452427200Y-72119200D01*
X452427200Y-72119200D02*
X453416800Y-72119200D01*
X453416800Y-72119200D02*
X454106600Y-72809000D01*
X458597000Y-84328000D02*
X458597000Y-83202700D01*
%TO.N,3.3V_MAIN1*%
X466039700Y-107258100D02*
X466039700Y-104699700D01*
X466039700Y-104699700D02*
X469695600Y-101043800D01*
X469695600Y-101043800D02*
X480907700Y-101043800D01*
X480907700Y-101043800D02*
X490918000Y-91033500D01*
X490918000Y-91033500D02*
X490918000Y-80708500D01*
X463614000Y-109474000D02*
X463823800Y-109474000D01*
X463823800Y-109474000D02*
X466039700Y-107258100D01*
X466039700Y-107258100D02*
X468532600Y-109751000D01*
X468532600Y-109751000D02*
X475478400Y-109751000D01*
X475478400Y-109751000D02*
X476573000Y-110845600D01*
X490918000Y-80708500D02*
X486997500Y-76788000D01*
X486997500Y-76788000D02*
X462269900Y-76788000D01*
X462269900Y-76788000D02*
X462184100Y-76873800D01*
D22*
X427990000Y-112268000D02*
X426590000Y-113668000D01*
X426590000Y-113668000D02*
X424310000Y-113668000D01*
X424310000Y-113668000D02*
X422910000Y-112268000D01*
X462470000Y-114131000D02*
X429853000Y-114131000D01*
X429853000Y-114131000D02*
X427990000Y-112268000D01*
D21*
%TO.N,V_0_3*%
X427302700Y-71452000D02*
X422871500Y-71452000D01*
X422871500Y-71452000D02*
X418801800Y-67382300D01*
X418801800Y-67382300D02*
X417560200Y-67382300D01*
X417560200Y-67382300D02*
X416566100Y-66388200D01*
X416566100Y-66388200D02*
X410502700Y-66388200D01*
X410502700Y-66388200D02*
X409845200Y-65730700D01*
X409845200Y-65730700D02*
X409285800Y-65730700D01*
X409285800Y-65730700D02*
X408666600Y-66349900D01*
X408666600Y-66349900D02*
X406742400Y-66349900D01*
X406742400Y-66349900D02*
X405362600Y-64970100D01*
X405362600Y-64970100D02*
X405362600Y-62318800D01*
X405362600Y-62318800D02*
X406912100Y-60769300D01*
X406912100Y-60769300D02*
X406912100Y-60209700D01*
X406912100Y-60209700D02*
X406790400Y-60088000D01*
X429232100Y-78413900D02*
X429141600Y-78413900D01*
X429141600Y-78413900D02*
X427956300Y-77228600D01*
X427956300Y-77228600D02*
X427956300Y-76661200D01*
X427956300Y-76661200D02*
X428337100Y-76280400D01*
X428337100Y-76280400D02*
X429202200Y-76280400D01*
X429202200Y-76280400D02*
X430587400Y-74895200D01*
X430587400Y-74895200D02*
X430587400Y-74335500D01*
X430587400Y-74335500D02*
X427703900Y-71452000D01*
X427703900Y-71452000D02*
X427302700Y-71452000D01*
X432008600Y-72651100D02*
X431788300Y-72871400D01*
X431788300Y-72871400D02*
X431788300Y-75516000D01*
X431788300Y-75516000D02*
X431870400Y-75598100D01*
X431870400Y-75598100D02*
X431870400Y-76493500D01*
X431870400Y-76493500D02*
X431474900Y-76889000D01*
X431474900Y-76889000D02*
X430757000Y-76889000D01*
X430757000Y-76889000D02*
X429232100Y-78413900D01*
X429232100Y-78413900D02*
X429232100Y-78793900D01*
X410835300Y-50214600D02*
X409222700Y-51827200D01*
X409222700Y-51827200D02*
X405397700Y-51827200D01*
X406790400Y-60088000D02*
X406516600Y-59814200D01*
X406516600Y-59814200D02*
X404066100Y-59814200D01*
X404066100Y-59814200D02*
X402646700Y-61233600D01*
X406790400Y-60088000D02*
X406984900Y-59893500D01*
X500316000Y-56388000D02*
X488339900Y-68364100D01*
X488339900Y-68364100D02*
X466302100Y-68364100D01*
%TO.N,V_32_35*%
X401693400Y-56610200D02*
X400593500Y-57710100D01*
X400593500Y-57710100D02*
X400593500Y-74130700D01*
X400593500Y-74130700D02*
X401869500Y-75406700D01*
X401693400Y-56610200D02*
X400865100Y-55781900D01*
X400865100Y-55781900D02*
X400865100Y-49807300D01*
X400865100Y-49807300D02*
X401533400Y-49139000D01*
X402734800Y-56868400D02*
X402476600Y-56610200D01*
X402476600Y-56610200D02*
X401693400Y-56610200D01*
X401533400Y-49139000D02*
X401533400Y-49131100D01*
X401533400Y-49131100D02*
X401469000Y-49066700D01*
X429068500Y-61521000D02*
X429068400Y-61521000D01*
X429068400Y-61521000D02*
X429068400Y-61332400D01*
X429068400Y-61332400D02*
X416875000Y-49139000D01*
X416875000Y-49139000D02*
X401533400Y-49139000D01*
D22*
X493204000Y-51752500D02*
X485182000Y-59775000D01*
X485182000Y-59775000D02*
X485182000Y-65247400D01*
X485182000Y-65247400D02*
X483818000Y-66611500D01*
X483818000Y-66611500D02*
X462978000Y-66611500D01*
D21*
%TO.N,P0*%
X412411900Y-36439800D02*
X412411900Y-36439900D01*
X412411900Y-36439900D02*
X413028600Y-36439900D01*
X413028600Y-36439900D02*
X438255100Y-61666400D01*
X438255100Y-61666400D02*
X438255100Y-62233800D01*
X438255100Y-62233800D02*
X438650700Y-62629400D01*
X438650700Y-62629400D02*
X438892100Y-62629400D01*
X438892100Y-62629400D02*
X439534000Y-63271300D01*
X439534000Y-63271300D02*
X439534000Y-64500600D01*
X439534000Y-64500600D02*
X440173100Y-65139700D01*
X440173100Y-65139700D02*
X452295300Y-65139700D01*
X452295300Y-65139700D02*
X456440300Y-69284700D01*
%TO.N,P1*%
X401482700Y-29873000D02*
X400626800Y-30728900D01*
X400626800Y-30728900D02*
X400626800Y-37945000D01*
X400626800Y-37945000D02*
X407867200Y-45185400D01*
X407867200Y-45185400D02*
X416622900Y-45185400D01*
X416622900Y-45185400D02*
X421306500Y-49869000D01*
X421306500Y-49869000D02*
X424956800Y-49869000D01*
X424956800Y-49869000D02*
X436174300Y-61086500D01*
X436174300Y-61086500D02*
X436174300Y-65687700D01*
X436174300Y-65687700D02*
X450003700Y-79517100D01*
X450003700Y-79517100D02*
X450003700Y-80884400D01*
X472125500Y-102649400D02*
X472125500Y-103698500D01*
X472125500Y-103698500D02*
X474091000Y-105664000D01*
%TO.N,P2*%
X455969700Y-76402800D02*
X448410800Y-76402800D01*
X448410800Y-76402800D02*
X438225200Y-66217200D01*
%TO.N,P3*%
X442494300Y-75618000D02*
X442494300Y-76540200D01*
X442494300Y-76540200D02*
X443111700Y-77157600D01*
X443111700Y-77157600D02*
X444342900Y-77157600D01*
X444342900Y-77157600D02*
X447190000Y-80004700D01*
X447190000Y-80004700D02*
X447970200Y-80004700D01*
%TO.N,P4*%
X443802000Y-86233900D02*
X445204500Y-86233900D01*
X445204500Y-86233900D02*
X449335000Y-90364400D01*
X449335000Y-90364400D02*
X450860300Y-90364400D01*
X450860300Y-90364400D02*
X454666200Y-94170300D01*
X454666200Y-94170300D02*
X461584800Y-94170300D01*
X461584800Y-94170300D02*
X463284700Y-92470400D01*
X463284700Y-92470400D02*
X472100800Y-92470400D01*
X472100800Y-92470400D02*
X473308100Y-93677700D01*
X473308100Y-93677700D02*
X474503100Y-93677700D01*
X474503100Y-93677700D02*
X475216900Y-94391500D01*
X475216900Y-94391500D02*
X475216900Y-95330800D01*
X475216900Y-95330800D02*
X479171000Y-99284900D01*
%TO.N,P5*%
X450679000Y-78548900D02*
X458765800Y-78548900D01*
X458765800Y-78548900D02*
X458937100Y-78377600D01*
X403732600Y-37020300D02*
X403827400Y-37115100D01*
X403827400Y-37115100D02*
X412896300Y-37115100D01*
X412896300Y-37115100D02*
X436574700Y-60793500D01*
X436574700Y-60793500D02*
X436574700Y-65521700D01*
X436574700Y-65521700D02*
X449601900Y-78548900D01*
X449601900Y-78548900D02*
X450679000Y-78548900D01*
X450679000Y-78548900D02*
X450679000Y-81164200D01*
X450679000Y-81164200D02*
X450283500Y-81559700D01*
X450283500Y-81559700D02*
X448570200Y-81559700D01*
X448570200Y-81559700D02*
X447465800Y-80455300D01*
X447465800Y-80455300D02*
X446469400Y-80455300D01*
X446469400Y-80455300D02*
X446186400Y-80172300D01*
%TO.N,P6*%
X481711000Y-103124000D02*
X480561100Y-101974100D01*
X480561100Y-101974100D02*
X471845800Y-101974100D01*
X471845800Y-101974100D02*
X469832300Y-103987600D01*
%TO.N,P7*%
X408920600Y-34741200D02*
X413508900Y-34741200D01*
X413508900Y-34741200D02*
X440938600Y-62170900D01*
X440938600Y-62170900D02*
X442572100Y-62170900D01*
X477095800Y-28732100D02*
X476019000Y-27655300D01*
X476019000Y-27655300D02*
X476019000Y-24812400D01*
X476019000Y-24812400D02*
X476910700Y-23920700D01*
X476910700Y-23920700D02*
X476910700Y-23110100D01*
X476910700Y-23110100D02*
X475887300Y-22086700D01*
X475887300Y-22086700D02*
X465273300Y-22086700D01*
X465273300Y-22086700D02*
X459783200Y-16596600D01*
X459783200Y-16596600D02*
X431620600Y-16596600D01*
X431620600Y-16596600D02*
X419174600Y-29042600D01*
X419174600Y-29042600D02*
X409347600Y-29042600D01*
X409347600Y-29042600D02*
X408920600Y-29469600D01*
X408920600Y-29469600D02*
X408920600Y-34741200D01*
X408920600Y-34741200D02*
X403742700Y-34741200D01*
X403742700Y-34741200D02*
X401457400Y-37026500D01*
%TO.N,P8*%
X401733800Y-38015300D02*
X403984600Y-35764500D01*
X403984600Y-35764500D02*
X412995900Y-35764500D01*
X412995900Y-35764500D02*
X438930400Y-61699000D01*
X438930400Y-61699000D02*
X438930400Y-61954100D01*
X484251000Y-103124000D02*
X491640500Y-95734500D01*
X491640500Y-95734500D02*
X491640500Y-76085700D01*
X491640500Y-76085700D02*
X490242600Y-74687800D01*
X490242600Y-74687800D02*
X467050100Y-74687800D01*
X467050100Y-74687800D02*
X458343500Y-65981200D01*
X458343500Y-65981200D02*
X458343500Y-64817600D01*
X458343500Y-64817600D02*
X456372100Y-62846200D01*
X456372100Y-62846200D02*
X439822500Y-62846200D01*
X439822500Y-62846200D02*
X438930400Y-61954100D01*
%TO.N,P9*%
X484251000Y-105664000D02*
X483081400Y-106833600D01*
X483081400Y-106833600D02*
X472322800Y-106833600D01*
X472322800Y-106833600D02*
X470192200Y-104703000D01*
X470192200Y-104703000D02*
X469566200Y-104703000D01*
X469566200Y-104703000D02*
X468603200Y-103740000D01*
%TO.N,P12*%
X442286200Y-73854600D02*
X441818800Y-74322000D01*
X441818800Y-74322000D02*
X441818800Y-76671200D01*
X441818800Y-76671200D02*
X443994800Y-78847200D01*
X443994800Y-78847200D02*
X444350300Y-78847200D01*
X444350300Y-78847200D02*
X444980200Y-79477100D01*
X444980200Y-79477100D02*
X444980200Y-79949800D01*
X444980200Y-79949800D02*
X445886000Y-80855600D01*
X445886000Y-80855600D02*
X447299900Y-80855600D01*
X447299900Y-80855600D02*
X448404300Y-81960000D01*
X448404300Y-81960000D02*
X456350200Y-81960000D01*
X456350200Y-81960000D02*
X457819400Y-80490800D01*
X476631000Y-92329000D02*
X477256500Y-91703500D01*
X477256500Y-91703500D02*
X477256500Y-90566400D01*
X477256500Y-90566400D02*
X475659700Y-88969600D01*
X475659700Y-88969600D02*
X464137800Y-88969600D01*
X464137800Y-88969600D02*
X463750700Y-89356700D01*
%TO.N,P13*%
X439091900Y-80473900D02*
X439091900Y-81135300D01*
X439091900Y-81135300D02*
X441414100Y-83457500D01*
X441414100Y-83457500D02*
X445916400Y-83457500D01*
X445916400Y-83457500D02*
X449679400Y-87220500D01*
X449679400Y-87220500D02*
X451113700Y-87220500D01*
X451113700Y-87220500D02*
X455661700Y-91768500D01*
X455661700Y-91768500D02*
X460377900Y-91768500D01*
X460377900Y-91768500D02*
X463577100Y-88569300D01*
X463577100Y-88569300D02*
X475825600Y-88569300D01*
X475825600Y-88569300D02*
X477813100Y-90556800D01*
X477813100Y-90556800D02*
X477813100Y-93686900D01*
X477813100Y-93686900D02*
X476631000Y-94869000D01*
%TO.N,P14*%
X438648200Y-75389700D02*
X438037600Y-74779100D01*
X438037600Y-74779100D02*
X438037600Y-73523600D01*
X438037600Y-73523600D02*
X436952500Y-72438500D01*
X436952500Y-72438500D02*
X436686000Y-72438500D01*
X436686000Y-72438500D02*
X432907300Y-68659800D01*
X432907300Y-68659800D02*
X432907300Y-63675000D01*
X432907300Y-63675000D02*
X431973900Y-62741600D01*
X431973900Y-62741600D02*
X431859900Y-62741600D01*
X431859900Y-62741600D02*
X416962100Y-47843800D01*
X416962100Y-47843800D02*
X407458900Y-47843800D01*
X439966600Y-77293300D02*
X439155700Y-76482400D01*
X439155700Y-76482400D02*
X434349900Y-76482400D01*
X434349900Y-76482400D02*
X433910900Y-76921400D01*
X433910900Y-76921400D02*
X433910900Y-77474200D01*
X433910900Y-77474200D02*
X435634700Y-79198000D01*
X435634700Y-79198000D02*
X440505700Y-79198000D01*
X440505700Y-79198000D02*
X443764500Y-82456800D01*
X443764500Y-82456800D02*
X446636300Y-82456800D01*
X446636300Y-82456800D02*
X448991200Y-84811700D01*
X448991200Y-84811700D02*
X449837400Y-84811700D01*
X449837400Y-84811700D02*
X455979900Y-90954200D01*
X455979900Y-90954200D02*
X460059900Y-90954200D01*
X460059900Y-90954200D02*
X463245400Y-87768700D01*
X463245400Y-87768700D02*
X476644600Y-87768700D01*
X476644600Y-87768700D02*
X479260500Y-90384600D01*
X479260500Y-90384600D02*
X479260500Y-92239500D01*
X479260500Y-92239500D02*
X479171000Y-92329000D01*
%TO.N,P15*%
X479171000Y-94869000D02*
X480344600Y-96042600D01*
X480344600Y-96042600D02*
X484696700Y-96042600D01*
X484696700Y-96042600D02*
X485418400Y-95320900D01*
X485418400Y-95320900D02*
X485418400Y-90787800D01*
X485418400Y-90787800D02*
X482836400Y-88205800D01*
X482836400Y-88205800D02*
X482836400Y-83604300D01*
X482836400Y-83604300D02*
X482036100Y-82804000D01*
X482036100Y-82804000D02*
X463209500Y-82804000D01*
X463209500Y-82804000D02*
X461143300Y-80737800D01*
X432877500Y-62147000D02*
X431851300Y-62147000D01*
X431851300Y-62147000D02*
X416872800Y-47168500D01*
X416872800Y-47168500D02*
X402666100Y-47168500D01*
X402666100Y-47168500D02*
X402418800Y-47415800D01*
%TO.N,P16*%
X403251200Y-48271900D02*
X403498400Y-48519100D01*
X403498400Y-48519100D02*
X417071200Y-48519100D01*
X417071200Y-48519100D02*
X430170400Y-61618300D01*
X430170400Y-61618300D02*
X430170400Y-67199100D01*
X430170400Y-67199100D02*
X434662300Y-71691000D01*
X434662300Y-71691000D02*
X434662300Y-74068200D01*
X481711000Y-92329000D02*
X481711000Y-91702600D01*
X481711000Y-91702600D02*
X476976500Y-86968100D01*
X476976500Y-86968100D02*
X462057200Y-86968100D01*
X462057200Y-86968100D02*
X461396500Y-87628800D01*
%TO.N,P17*%
X426424100Y-67371900D02*
X425643200Y-67371900D01*
X425643200Y-67371900D02*
X422511400Y-64240100D01*
X422511400Y-64240100D02*
X422511400Y-63535500D01*
X422511400Y-63535500D02*
X418388800Y-59412900D01*
X418388800Y-59412900D02*
X415667400Y-59412900D01*
X415667400Y-59412900D02*
X415085300Y-58830800D01*
X415085300Y-58830800D02*
X415085300Y-57196600D01*
X415085300Y-57196600D02*
X411720800Y-53832100D01*
X411720800Y-53832100D02*
X403527400Y-53832100D01*
X403527400Y-53832100D02*
X403336800Y-53641500D01*
X403336800Y-53641500D02*
X402964200Y-53641500D01*
X402964200Y-53641500D02*
X401803200Y-52480500D01*
X401803200Y-52480500D02*
X401803200Y-51812800D01*
X401803200Y-51812800D02*
X402994800Y-50621200D01*
X434639100Y-77157700D02*
X435490400Y-78009000D01*
X435490400Y-78009000D02*
X439903100Y-78009000D01*
X439903100Y-78009000D02*
X443950600Y-82056500D01*
X443950600Y-82056500D02*
X446802200Y-82056500D01*
X446802200Y-82056500D02*
X448857000Y-84111300D01*
X448857000Y-84111300D02*
X449719100Y-84111300D01*
X449719100Y-84111300D02*
X453890500Y-88282700D01*
X453890500Y-88282700D02*
X456523100Y-88282700D01*
X456523100Y-88282700D02*
X457182300Y-88941900D01*
X457182300Y-88941900D02*
X457182300Y-89624500D01*
X457182300Y-89624500D02*
X458111600Y-90553800D01*
X458111600Y-90553800D02*
X459493700Y-90553800D01*
X459493700Y-90553800D02*
X462679100Y-87368400D01*
X462679100Y-87368400D02*
X476810600Y-87368400D01*
X476810600Y-87368400D02*
X480536400Y-91094200D01*
X480536400Y-91094200D02*
X480536400Y-93694400D01*
X480536400Y-93694400D02*
X481711000Y-94869000D01*
%TO.N,P18*%
X427877800Y-62839200D02*
X427877800Y-62274700D01*
X427877800Y-62274700D02*
X415142400Y-49539300D01*
X415142400Y-49539300D02*
X402669500Y-49539300D01*
X402669500Y-49539300D02*
X401594200Y-50614600D01*
X435812400Y-80255900D02*
X436445600Y-79622700D01*
X436445600Y-79622700D02*
X440364000Y-79622700D01*
X440364000Y-79622700D02*
X443798500Y-83057200D01*
X443798500Y-83057200D02*
X446082300Y-83057200D01*
X446082300Y-83057200D02*
X449845300Y-86820200D01*
X449845300Y-86820200D02*
X451279600Y-86820200D01*
X451279600Y-86820200D02*
X455827600Y-91368200D01*
X455827600Y-91368200D02*
X460212000Y-91368200D01*
X460212000Y-91368200D02*
X463411200Y-88169000D01*
X463411200Y-88169000D02*
X476045500Y-88169000D01*
X476045500Y-88169000D02*
X478551800Y-90675300D01*
%TO.N,P19*%
X404263900Y-51315700D02*
X404263900Y-51648400D01*
X404263900Y-51648400D02*
X405118000Y-52502500D01*
X405118000Y-52502500D02*
X416552100Y-52502500D01*
X416552100Y-52502500D02*
X427594400Y-63544800D01*
X427594400Y-63544800D02*
X427594400Y-65982700D01*
X427594400Y-65982700D02*
X432705900Y-71094200D01*
X432705900Y-71094200D02*
X432705900Y-74884100D01*
X432705900Y-74884100D02*
X432524000Y-75066000D01*
X484251000Y-94869000D02*
X482981000Y-93599000D01*
X482981000Y-93599000D02*
X482981000Y-91979500D01*
X482981000Y-91979500D02*
X477569300Y-86567800D01*
X477569300Y-86567800D02*
X461403600Y-86567800D01*
X461403600Y-86567800D02*
X459933400Y-88038000D01*
X459933400Y-88038000D02*
X458171600Y-88038000D01*
X458171600Y-88038000D02*
X457471600Y-87338000D01*
X457471600Y-87338000D02*
X457471600Y-86651700D01*
X457471600Y-86651700D02*
X456308400Y-85488500D01*
X456308400Y-85488500D02*
X452077900Y-85488500D01*
X452077900Y-85488500D02*
X451624300Y-85034900D01*
%TO.N,P20*%
X422783200Y-62640700D02*
X413574300Y-53431800D01*
X413574300Y-53431800D02*
X403709500Y-53431800D01*
X403709500Y-53431800D02*
X402478500Y-52200800D01*
%TO.N,P21*%
X432047300Y-79137900D02*
X433304700Y-77880500D01*
X433304700Y-77880500D02*
X433304800Y-77880500D01*
X433304800Y-77880500D02*
X433304800Y-76930200D01*
X433304800Y-76930200D02*
X434165800Y-76069200D01*
X434165800Y-76069200D02*
X439741800Y-76069200D01*
X439741800Y-76069200D02*
X440641900Y-76969300D01*
X440641900Y-76969300D02*
X440641900Y-77688500D01*
X440641900Y-77688500D02*
X444609600Y-81656200D01*
X444609600Y-81656200D02*
X446968100Y-81656200D01*
X446968100Y-81656200D02*
X448072500Y-82760600D01*
X448072500Y-82760600D02*
X450986800Y-82760600D01*
X450986800Y-82760600D02*
X452619000Y-84392800D01*
X452619000Y-84392800D02*
X453164100Y-84392800D01*
X453164100Y-84392800D02*
X454354200Y-83202700D01*
X454354200Y-83202700D02*
X456523100Y-83202700D01*
X456523100Y-83202700D02*
X457182300Y-83861900D01*
X457182300Y-83861900D02*
X457182300Y-85008600D01*
X457182300Y-85008600D02*
X457673900Y-85500200D01*
X457673900Y-85500200D02*
X472664800Y-85500200D01*
X472664800Y-85500200D02*
X474091000Y-84074000D01*
X426440800Y-70775500D02*
X420020500Y-64355200D01*
X420020500Y-64355200D02*
X420020500Y-63548600D01*
X420020500Y-63548600D02*
X416694900Y-60223000D01*
X416694900Y-60223000D02*
X413346900Y-60223000D01*
X413346900Y-60223000D02*
X407399000Y-54275100D01*
X407399000Y-54275100D02*
X403404200Y-54275100D01*
X403404200Y-54275100D02*
X403170900Y-54041800D01*
X403170900Y-54041800D02*
X401831600Y-54041800D01*
X401831600Y-54041800D02*
X401540400Y-54333000D01*
%TO.N,P22*%
X431195100Y-76213700D02*
X431388000Y-76020800D01*
X431388000Y-76020800D02*
X431388000Y-74003700D01*
X431388000Y-74003700D02*
X431326400Y-73942100D01*
X431326400Y-73942100D02*
X431326400Y-70847100D01*
X431326400Y-70847100D02*
X425306700Y-64827400D01*
X425306700Y-64827400D02*
X425306700Y-62998700D01*
X425306700Y-62998700D02*
X415260500Y-52952500D01*
X415260500Y-52952500D02*
X404550600Y-52952500D01*
X404550600Y-52952500D02*
X403857900Y-52259800D01*
X433903200Y-82163100D02*
X434578600Y-82838500D01*
X434578600Y-82838500D02*
X439662600Y-82838500D01*
X439662600Y-82838500D02*
X441082200Y-84258100D01*
X441082200Y-84258100D02*
X445584600Y-84258100D01*
X445584600Y-84258100D02*
X449347600Y-88021100D01*
X449347600Y-88021100D02*
X450781800Y-88021100D01*
X450781800Y-88021100D02*
X455329800Y-92569100D01*
X455329800Y-92569100D02*
X460921200Y-92569100D01*
X460921200Y-92569100D02*
X462863900Y-90626400D01*
X462863900Y-90626400D02*
X464562500Y-90626400D01*
X464562500Y-90626400D02*
X465418700Y-89770200D01*
X465418700Y-89770200D02*
X474213700Y-89770200D01*
X474213700Y-89770200D02*
X474488800Y-90045300D01*
%TO.N,P23*%
X424861000Y-70774800D02*
X422863200Y-70774800D01*
X422863200Y-70774800D02*
X417761400Y-65673000D01*
X417761400Y-65673000D02*
X416983300Y-65673000D01*
X416983300Y-65673000D02*
X416897900Y-65587600D01*
X416897900Y-65587600D02*
X413718500Y-65587600D01*
X413718500Y-65587600D02*
X412636600Y-64505700D01*
X412636600Y-64505700D02*
X412636600Y-62668900D01*
X412636600Y-62668900D02*
X410605700Y-60638000D01*
X410605700Y-60638000D02*
X409922400Y-60638000D01*
X409922400Y-60638000D02*
X406742300Y-57457900D01*
X406742300Y-57457900D02*
X404340100Y-57457900D01*
X404340100Y-57457900D02*
X404181900Y-57616100D01*
X404181900Y-57616100D02*
X402138400Y-57616100D01*
X402138400Y-57616100D02*
X401932400Y-57410100D01*
X431552000Y-80488600D02*
X434523900Y-80488600D01*
X434523900Y-80488600D02*
X435366800Y-81331500D01*
X435366800Y-81331500D02*
X436258100Y-81331500D01*
X436258100Y-81331500D02*
X436421000Y-81168600D01*
X436421000Y-81168600D02*
X438559000Y-81168600D01*
X438559000Y-81168600D02*
X441248200Y-83857800D01*
X441248200Y-83857800D02*
X445750500Y-83857800D01*
X445750500Y-83857800D02*
X449513500Y-87620800D01*
X449513500Y-87620800D02*
X450947800Y-87620800D01*
X450947800Y-87620800D02*
X455495800Y-92168800D01*
X455495800Y-92168800D02*
X460755300Y-92168800D01*
X460755300Y-92168800D02*
X462698000Y-90226100D01*
X462698000Y-90226100D02*
X464396600Y-90226100D01*
X464396600Y-90226100D02*
X465252800Y-89369900D01*
X465252800Y-89369900D02*
X475087300Y-89369900D01*
X475087300Y-89369900D02*
X475881700Y-90164300D01*
%TO.N,P24*%
X423169700Y-70090400D02*
X422745000Y-70090400D01*
X422745000Y-70090400D02*
X417927200Y-65272600D01*
X417927200Y-65272600D02*
X417149100Y-65272600D01*
X417149100Y-65272600D02*
X417063800Y-65187300D01*
X417063800Y-65187300D02*
X415889900Y-65187300D01*
X415889900Y-65187300D02*
X415036000Y-64333400D01*
X415036000Y-64333400D02*
X415036000Y-63607900D01*
X415036000Y-63607900D02*
X409153400Y-57725300D01*
X409153400Y-57725300D02*
X407967700Y-57725300D01*
X432639400Y-83541500D02*
X433137300Y-84039400D01*
X433137300Y-84039400D02*
X436376400Y-84039400D01*
X436376400Y-84039400D02*
X437291100Y-84954100D01*
X437291100Y-84954100D02*
X437715700Y-84954100D01*
X437715700Y-84954100D02*
X438047400Y-84622400D01*
X438047400Y-84622400D02*
X438445400Y-84622400D01*
X438445400Y-84622400D02*
X439282000Y-85459000D01*
X439282000Y-85459000D02*
X445086900Y-85459000D01*
X445086900Y-85459000D02*
X449201900Y-89574000D01*
X449201900Y-89574000D02*
X450636100Y-89574000D01*
X450636100Y-89574000D02*
X454832100Y-93770000D01*
X454832100Y-93770000D02*
X461418900Y-93770000D01*
X461418900Y-93770000D02*
X463291200Y-91897700D01*
X463291200Y-91897700D02*
X469242900Y-91897700D01*
X469242900Y-91897700D02*
X469604300Y-91536300D01*
%TO.N,P25*%
X425189700Y-73950400D02*
X424237400Y-73950400D01*
X424237400Y-73950400D02*
X418870200Y-68583200D01*
X418870200Y-68583200D02*
X417628700Y-68583200D01*
X417628700Y-68583200D02*
X416234300Y-67188800D01*
X416234300Y-67188800D02*
X406954400Y-67188800D01*
X406954400Y-67188800D02*
X404962200Y-65196600D01*
X404962200Y-65196600D02*
X404962200Y-61764100D01*
X404962200Y-61764100D02*
X406236800Y-60489500D01*
X472787100Y-90445600D02*
X465309500Y-90445600D01*
X465309500Y-90445600D02*
X464685600Y-91069500D01*
X464685600Y-91069500D02*
X462987000Y-91069500D01*
X462987000Y-91069500D02*
X461087100Y-92969400D01*
X461087100Y-92969400D02*
X455163900Y-92969400D01*
X455163900Y-92969400D02*
X450957700Y-88763200D01*
X450957700Y-88763200D02*
X449523500Y-88763200D01*
X449523500Y-88763200D02*
X445418700Y-84658400D01*
X445418700Y-84658400D02*
X440916400Y-84658400D01*
X440916400Y-84658400D02*
X439496800Y-83238800D01*
X439496800Y-83238800D02*
X433891700Y-83238800D01*
X433891700Y-83238800D02*
X432441000Y-81788100D01*
X432441000Y-81788100D02*
X430305300Y-81788100D01*
X430305300Y-81788100D02*
X430305300Y-81944200D01*
%TO.N,P26*%
X428281700Y-78561000D02*
X418754600Y-69033900D01*
X418754600Y-69033900D02*
X417513200Y-69033900D01*
X417513200Y-69033900D02*
X416068400Y-67589100D01*
X416068400Y-67589100D02*
X406788500Y-67589100D01*
X406788500Y-67589100D02*
X402503000Y-63303600D01*
X402503000Y-63303600D02*
X402503000Y-62914800D01*
X481711000Y-81534000D02*
X480226800Y-80049800D01*
X480226800Y-80049800D02*
X460874900Y-80049800D01*
X460874900Y-80049800D02*
X460399000Y-80525700D01*
X460399000Y-80525700D02*
X460399000Y-83673800D01*
X460399000Y-83673800D02*
X460048700Y-84024100D01*
%TO.N,P27*%
X429912100Y-74615300D02*
X428083800Y-72787000D01*
X428083800Y-72787000D02*
X423640300Y-72787000D01*
X423640300Y-72787000D02*
X418635900Y-67782600D01*
X418635900Y-67782600D02*
X417394300Y-67782600D01*
X417394300Y-67782600D02*
X416400200Y-66788500D01*
X416400200Y-66788500D02*
X409947900Y-66788500D01*
X409947900Y-66788500D02*
X409565400Y-66406000D01*
X481711000Y-84074000D02*
X479617500Y-86167500D01*
X479617500Y-86167500D02*
X460788700Y-86167500D01*
X460788700Y-86167500D02*
X460775300Y-86180900D01*
%TO.N,P28*%
X427189800Y-81967000D02*
X427710500Y-82487700D01*
X427710500Y-82487700D02*
X429893800Y-82487700D01*
X429893800Y-82487700D02*
X430025600Y-82619500D01*
X430025600Y-82619500D02*
X430585100Y-82619500D01*
X430585100Y-82619500D02*
X430716900Y-82487700D01*
X430716900Y-82487700D02*
X432540700Y-82487700D01*
X432540700Y-82487700D02*
X433692100Y-83639100D01*
X433692100Y-83639100D02*
X439330900Y-83639100D01*
X439330900Y-83639100D02*
X440750500Y-85058700D01*
X440750500Y-85058700D02*
X445252800Y-85058700D01*
X445252800Y-85058700D02*
X449367700Y-89173600D01*
X449367700Y-89173600D02*
X450801900Y-89173600D01*
X450801900Y-89173600D02*
X454998000Y-93369700D01*
X454998000Y-93369700D02*
X461253000Y-93369700D01*
X461253000Y-93369700D02*
X463152900Y-91469800D01*
X463152900Y-91469800D02*
X464851500Y-91469800D01*
X464851500Y-91469800D02*
X465463400Y-90857900D01*
X465463400Y-90857900D02*
X472244400Y-90857900D01*
X472244400Y-90857900D02*
X472507400Y-91120900D01*
X472507400Y-91120900D02*
X476293800Y-91120900D01*
X476293800Y-91120900D02*
X476556800Y-90857900D01*
X411676800Y-73870200D02*
X413387600Y-75581000D01*
X413387600Y-75581000D02*
X417302300Y-75581000D01*
X417302300Y-75581000D02*
X423688300Y-81967000D01*
X423688300Y-81967000D02*
X427189800Y-81967000D01*
%TO.N,P29*%
X484251000Y-84074000D02*
X485818900Y-85641900D01*
X485818900Y-85641900D02*
X485818900Y-95488700D01*
X485818900Y-95488700D02*
X480700200Y-100607400D01*
X480700200Y-100607400D02*
X461061600Y-100607400D01*
X461061600Y-100607400D02*
X460122900Y-101546100D01*
X460122900Y-101546100D02*
X440028300Y-101546100D01*
X440028300Y-101546100D02*
X438534300Y-100052100D01*
X438534300Y-100052100D02*
X434013100Y-100052100D01*
X434013100Y-100052100D02*
X433946000Y-99985000D01*
X408000200Y-76054000D02*
X408000200Y-76336700D01*
X408000200Y-76336700D02*
X408793100Y-77129600D01*
X408793100Y-77129600D02*
X409290700Y-77129600D01*
X409290700Y-77129600D02*
X414923900Y-82762800D01*
X414923900Y-82762800D02*
X419671500Y-82762800D01*
X419671500Y-82762800D02*
X423732700Y-86824000D01*
X423732700Y-86824000D02*
X428121700Y-86824000D01*
X428121700Y-86824000D02*
X428695800Y-87398100D01*
%TO.N,P30*%
X427453700Y-67958900D02*
X430926100Y-71431300D01*
X430926100Y-71431300D02*
X430926100Y-74108000D01*
X430926100Y-74108000D02*
X430987700Y-74169600D01*
X430987700Y-74169600D02*
X430987700Y-75061000D01*
X430987700Y-75061000D02*
X429093000Y-76955700D01*
X429093000Y-76955700D02*
X428643500Y-76955700D01*
X404939900Y-73879600D02*
X404939900Y-73948700D01*
X404939900Y-73948700D02*
X407720500Y-76729300D01*
X407720500Y-76729300D02*
X407826600Y-76729300D01*
X407826600Y-76729300D02*
X408627200Y-77529900D01*
X408627200Y-77529900D02*
X409124800Y-77529900D01*
X409124800Y-77529900D02*
X416470500Y-84875600D01*
X416470500Y-84875600D02*
X420545800Y-84875600D01*
%TO.N,P31*%
X421014600Y-86306000D02*
X416594200Y-86306000D01*
X416594200Y-86306000D02*
X408827600Y-78539400D01*
X408827600Y-78539400D02*
X408504300Y-78539400D01*
X408504300Y-78539400D02*
X407543200Y-77578300D01*
X407543200Y-77578300D02*
X407068500Y-77578300D01*
X407068500Y-77578300D02*
X402477500Y-72987300D01*
X402477500Y-72987300D02*
X402477500Y-69390300D01*
X422578400Y-89961600D02*
X426639300Y-89961600D01*
X426639300Y-89961600D02*
X427474000Y-90796300D01*
X427474000Y-90796300D02*
X427487000Y-90796300D01*
X427487000Y-90796300D02*
X429027700Y-92337000D01*
X429027700Y-92337000D02*
X429687800Y-92337000D01*
X429687800Y-92337000D02*
X430435400Y-93084600D01*
X430435400Y-93084600D02*
X431867400Y-93084600D01*
X431867400Y-93084600D02*
X433776400Y-94993600D01*
X433776400Y-94993600D02*
X441099300Y-94993600D01*
X441099300Y-94993600D02*
X441517600Y-94575300D01*
X441517600Y-94575300D02*
X445927300Y-94575300D01*
X445927300Y-94575300D02*
X448516400Y-97164400D01*
X448516400Y-97164400D02*
X455714400Y-97164400D01*
X455714400Y-97164400D02*
X456072500Y-97522500D01*
X456072500Y-97522500D02*
X457627400Y-97522500D01*
X457627400Y-97522500D02*
X457985500Y-97164400D01*
X457985500Y-97164400D02*
X467542500Y-97164400D01*
X467542500Y-97164400D02*
X470069500Y-94637400D01*
%TO.N,P32*%
X434369100Y-90870000D02*
X434267000Y-90972100D01*
X434267000Y-90972100D02*
X433152100Y-90972100D01*
X433152100Y-90972100D02*
X429371100Y-87191100D01*
X429371100Y-87191100D02*
X429371100Y-87118300D01*
X429371100Y-87118300D02*
X428676400Y-86423600D01*
X428676400Y-86423600D02*
X423898500Y-86423600D01*
X423898500Y-86423600D02*
X417286000Y-79811100D01*
X417286000Y-79811100D02*
X412590300Y-79811100D01*
X412590300Y-79811100D02*
X409233500Y-76454300D01*
X409233500Y-76454300D02*
X409072800Y-76454300D01*
X467276800Y-93587500D02*
X463300000Y-93587500D01*
X463300000Y-93587500D02*
X461916600Y-94970900D01*
X461916600Y-94970900D02*
X454334400Y-94970900D01*
X454334400Y-94970900D02*
X450636600Y-91273100D01*
X450636600Y-91273100D02*
X444554500Y-91273100D01*
X444554500Y-91273100D02*
X443410000Y-90128600D01*
X443410000Y-90128600D02*
X442850500Y-90128600D01*
X442850500Y-90128600D02*
X442740400Y-90238700D01*
X442740400Y-90238700D02*
X441565000Y-90238700D01*
X441565000Y-90238700D02*
X439789500Y-92014200D01*
X439789500Y-92014200D02*
X435513300Y-92014200D01*
X435513300Y-92014200D02*
X434369100Y-90870000D01*
%TO.N,P33*%
X426592500Y-90870100D02*
X426919000Y-91196600D01*
X426919000Y-91196600D02*
X427321100Y-91196600D01*
X427321100Y-91196600D02*
X428861800Y-92737300D01*
X428861800Y-92737300D02*
X429521900Y-92737300D01*
X429521900Y-92737300D02*
X430269500Y-93484900D01*
X430269500Y-93484900D02*
X431701500Y-93484900D01*
X431701500Y-93484900D02*
X433610500Y-95393900D01*
X433610500Y-95393900D02*
X441440400Y-95393900D01*
X441440400Y-95393900D02*
X441858700Y-94975600D01*
X441858700Y-94975600D02*
X445417400Y-94975600D01*
X445417400Y-94975600D02*
X448010500Y-97568700D01*
X448010500Y-97568700D02*
X455552500Y-97568700D01*
X455552500Y-97568700D02*
X455906600Y-97922800D01*
X455906600Y-97922800D02*
X457793300Y-97922800D01*
X457793300Y-97922800D02*
X458147400Y-97568700D01*
X458147400Y-97568700D02*
X468482300Y-97568700D01*
X468482300Y-97568700D02*
X470806200Y-95244800D01*
X421967700Y-86240100D02*
X421318500Y-85590900D01*
X421318500Y-85590900D02*
X416445300Y-85590900D01*
X416445300Y-85590900D02*
X408867400Y-78013000D01*
X408867400Y-78013000D02*
X408544100Y-78013000D01*
X408544100Y-78013000D02*
X407709100Y-77178000D01*
X407709100Y-77178000D02*
X407234400Y-77178000D01*
X407234400Y-77178000D02*
X403572000Y-73515600D01*
X403572000Y-73515600D02*
X403572000Y-72454100D01*
%TO.N,P34*%
X471921900Y-95972100D02*
X469925000Y-97969000D01*
X469925000Y-97969000D02*
X458313300Y-97969000D01*
X458313300Y-97969000D02*
X457959200Y-98323100D01*
X457959200Y-98323100D02*
X455740700Y-98323100D01*
X455740700Y-98323100D02*
X455386600Y-97969000D01*
X455386600Y-97969000D02*
X446805200Y-97969000D01*
X446805200Y-97969000D02*
X445230300Y-96394100D01*
X445230300Y-96394100D02*
X444281700Y-96394100D01*
X444281700Y-96394100D02*
X443285800Y-97390000D01*
X443285800Y-97390000D02*
X439612000Y-97390000D01*
X439612000Y-97390000D02*
X438658700Y-98343300D01*
X438658700Y-98343300D02*
X435248000Y-98343300D01*
X435248000Y-98343300D02*
X434876400Y-97971700D01*
X434876400Y-97971700D02*
X430127100Y-97971700D01*
X430127100Y-97971700D02*
X426446900Y-94291500D01*
X426446900Y-94291500D02*
X426446900Y-93927800D01*
X426446900Y-93927800D02*
X426446800Y-93927800D01*
X426446800Y-93927800D02*
X426401300Y-93882300D01*
X426401300Y-93882300D02*
X426265700Y-93746700D01*
X426265700Y-93746700D02*
X418480100Y-93746700D01*
X418480100Y-93746700D02*
X412005300Y-100221500D01*
X412005300Y-100221500D02*
X411686600Y-100221500D01*
X411686600Y-100221500D02*
X409512000Y-102396100D01*
X409512000Y-102396100D02*
X409512000Y-103264000D01*
%TO.N,P35*%
X404846600Y-76736800D02*
X405505500Y-76736800D01*
X405505500Y-76736800D02*
X406747300Y-77978600D01*
X406747300Y-77978600D02*
X407377300Y-77978600D01*
X407377300Y-77978600D02*
X408358000Y-78959300D01*
X408358000Y-78959300D02*
X408681300Y-78959300D01*
X408681300Y-78959300D02*
X417002700Y-87280700D01*
X417002700Y-87280700D02*
X427355600Y-87280700D01*
X427355600Y-87280700D02*
X428469400Y-88394500D01*
X428469400Y-88394500D02*
X429421700Y-88394500D01*
X429421700Y-88394500D02*
X430673700Y-89646500D01*
X490311900Y-139002700D02*
X490083000Y-139002700D01*
X490083000Y-139002700D02*
X489363900Y-138283600D01*
X489363900Y-138283600D02*
X489363900Y-126140700D01*
X489363900Y-126140700D02*
X489759100Y-125745500D01*
X489759100Y-125745500D02*
X489759100Y-120027000D01*
X489759100Y-120027000D02*
X483555600Y-113823500D01*
X483555600Y-113823500D02*
X471094600Y-113823500D01*
X471094600Y-113823500D02*
X469900000Y-112628900D01*
X469900000Y-112628900D02*
X469900000Y-111885700D01*
X469900000Y-111885700D02*
X469157000Y-111142700D01*
X469157000Y-111142700D02*
X463755500Y-111142700D01*
X463755500Y-111142700D02*
X462715500Y-110102700D01*
X462715500Y-110102700D02*
X461381000Y-110102700D01*
X461381000Y-110102700D02*
X461136800Y-110346900D01*
X461136800Y-110346900D02*
X436705200Y-110346900D01*
X436705200Y-110346900D02*
X434549000Y-108190700D01*
X434549000Y-108190700D02*
X427513600Y-108190700D01*
X409512000Y-105804000D02*
X411473900Y-107765900D01*
X411473900Y-107765900D02*
X413642000Y-107765900D01*
X413642000Y-107765900D02*
X414066800Y-108190700D01*
X414066800Y-108190700D02*
X427513600Y-108190700D01*
%TO.N,P36*%
X404149900Y-82138000D02*
X403445300Y-82842600D01*
X403445300Y-82842600D02*
X403445300Y-93598400D01*
X403445300Y-93598400D02*
X398899500Y-98144200D01*
X398899500Y-98144200D02*
X398899500Y-100436200D01*
X398899500Y-100436200D02*
X398507800Y-100827900D01*
X398507800Y-100827900D02*
X398507800Y-148936700D01*
X398507800Y-148936700D02*
X406398400Y-156827300D01*
X406398400Y-156827300D02*
X429477600Y-156827300D01*
X429477600Y-156827300D02*
X431630600Y-154674300D01*
X431630600Y-154674300D02*
X487484100Y-154674300D01*
X487484100Y-154674300D02*
X490090400Y-152068000D01*
X424164300Y-98575000D02*
X423914100Y-98324800D01*
X423914100Y-98324800D02*
X421944000Y-98324800D01*
X421944000Y-98324800D02*
X421693800Y-98575000D01*
X421693800Y-98575000D02*
X416741000Y-98575000D01*
X416741000Y-98575000D02*
X412052000Y-103264000D01*
%TO.N,P37*%
X432000300Y-104687000D02*
X432000300Y-104591400D01*
X432000300Y-104591400D02*
X432137800Y-104453900D01*
X436984900Y-109671600D02*
X432000300Y-104687000D01*
X412052000Y-105804000D02*
X412246300Y-105804000D01*
X412246300Y-105804000D02*
X414172500Y-107730200D01*
X414172500Y-107730200D02*
X427018800Y-107730200D01*
X427018800Y-107730200D02*
X427258100Y-107490900D01*
X427258100Y-107490900D02*
X429196400Y-107490900D01*
X429196400Y-107490900D02*
X432000300Y-104687000D01*
%TO.N,P38*%
X427298300Y-101657400D02*
X427502100Y-101861200D01*
X427502100Y-101861200D02*
X433743100Y-101861200D01*
X433743100Y-101861200D02*
X439944400Y-108062500D01*
X439944400Y-108062500D02*
X458178100Y-108062500D01*
X458178100Y-108062500D02*
X458299700Y-107940900D01*
X458299700Y-107940900D02*
X459231700Y-107940900D01*
X459231700Y-107940900D02*
X459394700Y-108103900D01*
X459394700Y-108103900D02*
X464238800Y-108103900D01*
X406095900Y-104450900D02*
X406096000Y-104450900D01*
X406096000Y-104450900D02*
X406096000Y-104081700D01*
X406096000Y-104081700D02*
X417025200Y-93152500D01*
X417025200Y-93152500D02*
X427578400Y-93152500D01*
X427578400Y-93152500D02*
X428867700Y-94441800D01*
X428867700Y-94441800D02*
X429138700Y-94441800D01*
X414592000Y-103264000D02*
X414943200Y-103264000D01*
X414943200Y-103264000D02*
X416549800Y-101657400D01*
X416549800Y-101657400D02*
X427298300Y-101657400D01*
%TO.N,P39*%
X414592000Y-105804000D02*
X415717500Y-106929500D01*
X415717500Y-106929500D02*
X426687100Y-106929500D01*
X426687100Y-106929500D02*
X428368200Y-105248400D01*
X428368200Y-105248400D02*
X428690100Y-105248400D01*
X428690100Y-105248400D02*
X429330400Y-104608100D01*
X429330400Y-104608100D02*
X429330400Y-103096200D01*
X408883000Y-107659200D02*
X407719800Y-107659200D01*
X407719800Y-107659200D02*
X404092600Y-111286400D01*
X404092600Y-111286400D02*
X404092600Y-113608000D01*
X404092600Y-113608000D02*
X405806600Y-115322000D01*
X405806600Y-115322000D02*
X405806600Y-153842300D01*
X405806600Y-153842300D02*
X405981300Y-154017000D01*
X405981300Y-154017000D02*
X408328900Y-154017000D01*
X408328900Y-154017000D02*
X411231400Y-151114500D01*
X411231400Y-151114500D02*
X415033800Y-151114500D01*
X415033800Y-151114500D02*
X421197900Y-144950400D01*
X421197900Y-144950400D02*
X436991000Y-144950400D01*
%TO.N,P40*%
X403784400Y-96223800D02*
X400720000Y-99288200D01*
X400720000Y-99288200D02*
X400720000Y-101782200D01*
X400720000Y-101782200D02*
X399325600Y-103176600D01*
X399325600Y-103176600D02*
X399325600Y-148534100D01*
X399325600Y-148534100D02*
X405621200Y-154829700D01*
X405621200Y-154829700D02*
X421649700Y-154829700D01*
X421649700Y-154829700D02*
X422817400Y-153662000D01*
X422817400Y-153662000D02*
X436685200Y-153662000D01*
X436685200Y-153662000D02*
X436959900Y-153936700D01*
X436959900Y-153936700D02*
X439960700Y-153936700D01*
X439960700Y-153936700D02*
X440356000Y-153541400D01*
X417132000Y-103264000D02*
X418259500Y-102136500D01*
X418259500Y-102136500D02*
X426811500Y-102136500D01*
X426811500Y-102136500D02*
X427309300Y-102634300D01*
%TO.N,P41*%
X439222000Y-152750300D02*
X439039700Y-152568000D01*
X439039700Y-152568000D02*
X423126200Y-152568000D01*
X423126200Y-152568000D02*
X421264900Y-154429300D01*
X421264900Y-154429300D02*
X405787100Y-154429300D01*
X405787100Y-154429300D02*
X401170900Y-149813100D01*
X401170900Y-149813100D02*
X401170900Y-123785600D01*
X401170900Y-123785600D02*
X402790700Y-122165800D01*
X402790700Y-122165800D02*
X402790700Y-105386500D01*
X402790700Y-105386500D02*
X409526400Y-98650800D01*
X409526400Y-98650800D02*
X409526400Y-98474500D01*
X417132000Y-105804000D02*
X418363000Y-104573000D01*
X418363000Y-104573000D02*
X428410300Y-104573000D01*
%TO.N,P42*%
X419672000Y-103264000D02*
X420006700Y-103598700D01*
X420006700Y-103598700D02*
X426912500Y-103598700D01*
%TO.N,P43*%
X415708700Y-87977600D02*
X415223200Y-87977600D01*
X415223200Y-87977600D02*
X409547700Y-82302100D01*
X409547700Y-82302100D02*
X408658100Y-82302100D01*
X408658100Y-82302100D02*
X404976500Y-78620500D01*
X404976500Y-78620500D02*
X404976500Y-78590100D01*
X419672000Y-105804000D02*
X425667400Y-105804000D01*
X425667400Y-105804000D02*
X426204200Y-105267200D01*
%TO.N,P44*%
X417539700Y-99417000D02*
X421618300Y-99417000D01*
X421618300Y-99417000D02*
X422310200Y-98725100D01*
X422310200Y-98725100D02*
X423302000Y-98725100D01*
X423302000Y-98725100D02*
X425000700Y-100423800D01*
X425000700Y-100423800D02*
X432863600Y-100423800D01*
X432863600Y-100423800D02*
X433500400Y-101060600D01*
X433500400Y-101060600D02*
X434658900Y-101060600D01*
X434658900Y-101060600D02*
X438116800Y-104518500D01*
X438116800Y-104518500D02*
X438522100Y-104518500D01*
X460312000Y-105664000D02*
X459135900Y-106840100D01*
X459135900Y-106840100D02*
X458033300Y-106840100D01*
X458033300Y-106840100D02*
X457675500Y-107197900D01*
X457675500Y-107197900D02*
X441201500Y-107197900D01*
X441201500Y-107197900D02*
X438522100Y-104518500D01*
%TO.N,P45*%
X403890900Y-70240300D02*
X405372700Y-71722100D01*
X405372700Y-71722100D02*
X405372700Y-71757400D01*
X405372700Y-71757400D02*
X405615300Y-72000000D01*
X405615300Y-72000000D02*
X405615300Y-73617700D01*
X405615300Y-73617700D02*
X407340500Y-75342900D01*
X407340500Y-75342900D02*
X409273000Y-75342900D01*
X409273000Y-75342900D02*
X413340800Y-79410700D01*
X413340800Y-79410700D02*
X417451800Y-79410700D01*
X417451800Y-79410700D02*
X424064300Y-86023200D01*
X424064300Y-86023200D02*
X428842200Y-86023200D01*
X428842200Y-86023200D02*
X429771400Y-86952400D01*
X429771400Y-86952400D02*
X429771400Y-87008400D01*
X429771400Y-87008400D02*
X433059800Y-90296800D01*
X433059800Y-90296800D02*
X433431800Y-90296800D01*
X434042700Y-96803300D02*
X433605600Y-96803300D01*
X433605600Y-96803300D02*
X431087800Y-94285500D01*
X431087800Y-94285500D02*
X429937700Y-94285500D01*
X429937700Y-94285500D02*
X429190100Y-93537900D01*
X429190100Y-93537900D02*
X428530000Y-93537900D01*
X428530000Y-93537900D02*
X427744300Y-92752200D01*
X427744300Y-92752200D02*
X416822900Y-92752200D01*
X416822900Y-92752200D02*
X403877300Y-105697800D01*
X403877300Y-105697800D02*
X403877300Y-106109400D01*
%TO.N,P46*%
X417565700Y-97883500D02*
X417705200Y-98023000D01*
X417705200Y-98023000D02*
X418749400Y-98023000D01*
X418749400Y-98023000D02*
X418873700Y-97898700D01*
X418873700Y-97898700D02*
X427672400Y-97898700D01*
X427672400Y-97898700D02*
X429583500Y-99809800D01*
X429583500Y-99809800D02*
X432815800Y-99809800D01*
X432815800Y-99809800D02*
X433666300Y-100660300D01*
X433666300Y-100660300D02*
X435218300Y-100660300D01*
X435218300Y-100660300D02*
X435502000Y-100944000D01*
X406062400Y-88105200D02*
X406062400Y-92891400D01*
X406062400Y-92891400D02*
X400303700Y-98650100D01*
X400303700Y-98650100D02*
X400303700Y-101632300D01*
X400303700Y-101632300D02*
X398925200Y-103010800D01*
X398925200Y-103010800D02*
X398925200Y-148787800D01*
X398925200Y-148787800D02*
X406139900Y-156002500D01*
X406139900Y-156002500D02*
X409137100Y-156002500D01*
X457772000Y-105664000D02*
X456638500Y-106797500D01*
X456638500Y-106797500D02*
X441905000Y-106797500D01*
X441905000Y-106797500D02*
X438752000Y-103644500D01*
X438752000Y-103644500D02*
X438202500Y-103644500D01*
X438202500Y-103644500D02*
X435502000Y-100944000D01*
%TO.N,P47*%
X436607000Y-100992800D02*
X437573700Y-101959500D01*
X437573700Y-101959500D02*
X445623900Y-101959500D01*
X445623900Y-101959500D02*
X447979000Y-104314600D01*
X447979000Y-104314600D02*
X456581400Y-104314600D01*
X456581400Y-104314600D02*
X457772000Y-103124000D01*
X402469700Y-65599300D02*
X403139800Y-65599300D01*
X403139800Y-65599300D02*
X406332600Y-68792100D01*
X406332600Y-68792100D02*
X406173300Y-68951400D01*
X406173300Y-68951400D02*
X406173300Y-71425600D01*
X406173300Y-71425600D02*
X406573500Y-71825800D01*
X406573500Y-71825800D02*
X406573500Y-73405000D01*
X406573500Y-73405000D02*
X407674700Y-74506200D01*
X407674700Y-74506200D02*
X409568700Y-74506200D01*
X409568700Y-74506200D02*
X413509500Y-78447000D01*
X413509500Y-78447000D02*
X417903500Y-78447000D01*
X417903500Y-78447000D02*
X423886200Y-84429700D01*
X423886200Y-84429700D02*
X428713900Y-84429700D01*
X428713900Y-84429700D02*
X431258200Y-86974000D01*
%TO.N,P48*%
X402159300Y-59741300D02*
X401394100Y-60506500D01*
X401394100Y-60506500D02*
X401394100Y-73410000D01*
X401394100Y-73410000D02*
X403771000Y-75786900D01*
X403771000Y-75786900D02*
X403771000Y-77182400D01*
X403771000Y-77182400D02*
X404401000Y-77812400D01*
X404401000Y-77812400D02*
X405210600Y-77812400D01*
X405210600Y-77812400D02*
X406052200Y-78654000D01*
X406052200Y-78654000D02*
X406052200Y-79130000D01*
X406052200Y-79130000D02*
X406682200Y-79760000D01*
X406682200Y-79760000D02*
X408349600Y-79760000D01*
X408349600Y-79760000D02*
X414401300Y-85811700D01*
X414401300Y-85811700D02*
X414401300Y-86589500D01*
X414401300Y-86589500D02*
X414796900Y-86985100D01*
X414796900Y-86985100D02*
X415880000Y-86985100D01*
X415880000Y-86985100D02*
X416575900Y-87681000D01*
X416575900Y-87681000D02*
X427189700Y-87681000D01*
X427189700Y-87681000D02*
X428303500Y-88794800D01*
X428303500Y-88794800D02*
X428316500Y-88794800D01*
X428316500Y-88794800D02*
X429857200Y-90335500D01*
X429857200Y-90335500D02*
X430517300Y-90335500D01*
X430517300Y-90335500D02*
X431264900Y-91083100D01*
X431264900Y-91083100D02*
X432696900Y-91083100D01*
X432696900Y-91083100D02*
X434330800Y-92717000D01*
X434330800Y-92717000D02*
X436632100Y-92717000D01*
%TO.N,P49*%
X417720300Y-66587000D02*
X417330200Y-66196900D01*
X417330200Y-66196900D02*
X416941000Y-66196900D01*
X416941000Y-66196900D02*
X416732000Y-65987900D01*
X416732000Y-65987900D02*
X411096200Y-65987900D01*
X411096200Y-65987900D02*
X410039000Y-64930700D01*
X410039000Y-64930700D02*
X410039000Y-61992500D01*
X410039000Y-61992500D02*
X407264700Y-59218200D01*
X407264700Y-59218200D02*
X406705200Y-59218200D01*
X406705200Y-59218200D02*
X406509500Y-59413900D01*
X406509500Y-59413900D02*
X402985800Y-59413900D01*
X402985800Y-59413900D02*
X402332700Y-58760800D01*
X440176800Y-99109400D02*
X440080000Y-99206200D01*
X440080000Y-99206200D02*
X434978500Y-99206200D01*
X434978500Y-99206200D02*
X434544600Y-98772300D01*
X434544600Y-98772300D02*
X429678400Y-98772300D01*
X429678400Y-98772300D02*
X426127400Y-95221300D01*
X426127400Y-95221300D02*
X418558000Y-95221300D01*
X418558000Y-95221300D02*
X418282900Y-94946200D01*
X455232000Y-103124000D02*
X456396700Y-101959300D01*
X456396700Y-101959300D02*
X458207700Y-101959300D01*
X458207700Y-101959300D02*
X459042000Y-102793600D01*
X459042000Y-102793600D02*
X459042000Y-103484900D01*
X459042000Y-103484900D02*
X459830300Y-104273200D01*
X459830300Y-104273200D02*
X462247600Y-104273200D01*
X462247600Y-104273200D02*
X465156400Y-107182000D01*
%TO.N,P50*%
X403410100Y-66862300D02*
X405773000Y-69225200D01*
X405773000Y-69225200D02*
X405773000Y-71591500D01*
X405773000Y-71591500D02*
X406015700Y-71834200D01*
X406015700Y-71834200D02*
X406015700Y-73413500D01*
X406015700Y-73413500D02*
X407508800Y-74906600D01*
X407508800Y-74906600D02*
X409403000Y-74906600D01*
X409403000Y-74906600D02*
X413343700Y-78847300D01*
X413343700Y-78847300D02*
X417454600Y-78847300D01*
X417454600Y-78847300D02*
X423616400Y-85009100D01*
X423616400Y-85009100D02*
X428394300Y-85009100D01*
X428394300Y-85009100D02*
X430171700Y-86786500D01*
X430171700Y-86786500D02*
X430171700Y-86842400D01*
X430171700Y-86842400D02*
X430978600Y-87649300D01*
X430978600Y-87649300D02*
X432902400Y-87649300D01*
X432902400Y-87649300D02*
X436592000Y-91338900D01*
X436592000Y-91338900D02*
X438957500Y-91338900D01*
%TO.N,P51*%
X411498900Y-101376200D02*
X415705500Y-97169600D01*
X415705500Y-97169600D02*
X418291500Y-97169600D01*
X418291500Y-97169600D02*
X418469600Y-97347700D01*
X442802700Y-98465600D02*
X441483600Y-99784700D01*
X441483600Y-99784700D02*
X439897100Y-99784700D01*
X439897100Y-99784700D02*
X439719000Y-99606600D01*
X439719000Y-99606600D02*
X434812700Y-99606600D01*
X434812700Y-99606600D02*
X434378700Y-99172600D01*
X434378700Y-99172600D02*
X429512500Y-99172600D01*
X429512500Y-99172600D02*
X427687600Y-97347700D01*
X427687600Y-97347700D02*
X418469600Y-97347700D01*
%TO.N,P52*%
X404485800Y-60575600D02*
X403094000Y-61967400D01*
X403094000Y-61967400D02*
X402434200Y-61967400D01*
X402434200Y-61967400D02*
X401794400Y-62607200D01*
X401794400Y-62607200D02*
X401794400Y-73244100D01*
X401794400Y-73244100D02*
X404171300Y-75621000D01*
X404171300Y-75621000D02*
X404171300Y-77016500D01*
X404171300Y-77016500D02*
X404566900Y-77412100D01*
X404566900Y-77412100D02*
X405394400Y-77412100D01*
X405394400Y-77412100D02*
X406452500Y-78470200D01*
X406452500Y-78470200D02*
X406452500Y-78964100D01*
X406452500Y-78964100D02*
X406848100Y-79359700D01*
X406848100Y-79359700D02*
X408515500Y-79359700D01*
X408515500Y-79359700D02*
X415076600Y-85920800D01*
X415076600Y-85920800D02*
X415076600Y-86309800D01*
X414167000Y-89124400D02*
X414496100Y-89453500D01*
X414496100Y-89453500D02*
X418098300Y-89453500D01*
X418098300Y-89453500D02*
X418669900Y-88881900D01*
X418669900Y-88881900D02*
X426692000Y-88881900D01*
X426692000Y-88881900D02*
X427805800Y-89995700D01*
X427805800Y-89995700D02*
X427818800Y-89995700D01*
X427818800Y-89995700D02*
X429359500Y-91536400D01*
X429359500Y-91536400D02*
X430019600Y-91536400D01*
X430019600Y-91536400D02*
X430767200Y-92284000D01*
X430767200Y-92284000D02*
X432199200Y-92284000D01*
X432199200Y-92284000D02*
X434108200Y-94193000D01*
X434108200Y-94193000D02*
X439437800Y-94193000D01*
X439437800Y-94193000D02*
X439990700Y-93640100D01*
X414167000Y-89124400D02*
X404785200Y-98506200D01*
X404785200Y-98506200D02*
X404785200Y-102825700D01*
X404785200Y-102825700D02*
X402336500Y-105274400D01*
X402336500Y-105274400D02*
X402336500Y-119262900D01*
X402336500Y-119262900D02*
X402100800Y-119498600D01*
%TO.N,P53*%
X403542300Y-136013600D02*
X401589900Y-134061200D01*
X401589900Y-134061200D02*
X401589900Y-124875900D01*
X401589900Y-124875900D02*
X403191100Y-123274700D01*
X403191100Y-123274700D02*
X403191100Y-105803600D01*
X403191100Y-105803600D02*
X417340300Y-91654400D01*
X417340300Y-91654400D02*
X419515700Y-91654400D01*
X419962200Y-66169300D02*
X419403000Y-66169300D01*
X419403000Y-66169300D02*
X417576000Y-64342300D01*
X417576000Y-64342300D02*
X417576000Y-63612500D01*
X417576000Y-63612500D02*
X415858100Y-61894600D01*
X415858100Y-61894600D02*
X414123000Y-61894600D01*
X414123000Y-61894600D02*
X406945500Y-54717100D01*
X406945500Y-54717100D02*
X402891100Y-54717100D01*
X419515700Y-91654400D02*
X427212700Y-91654400D01*
X427212700Y-91654400D02*
X428695900Y-93137600D01*
X428695900Y-93137600D02*
X429356000Y-93137600D01*
X429356000Y-93137600D02*
X430103600Y-93885200D01*
X430103600Y-93885200D02*
X431253700Y-93885200D01*
X431253700Y-93885200D02*
X433204300Y-95835800D01*
X433204300Y-95835800D02*
X441953500Y-95835800D01*
X441953500Y-95835800D02*
X442093300Y-95696000D01*
%TO.N,P54*%
X408114000Y-70167500D02*
X409247700Y-69033800D01*
X409247700Y-69033800D02*
X411144300Y-69033800D01*
X411144300Y-69033800D02*
X412068600Y-69958100D01*
X412068600Y-69958100D02*
X412068600Y-70637500D01*
X412068600Y-70637500D02*
X413013200Y-71582100D01*
X413013200Y-71582100D02*
X413664000Y-71582100D01*
X413664000Y-71582100D02*
X414464000Y-72382100D01*
X414464000Y-72382100D02*
X414464000Y-73065400D01*
X414464000Y-73065400D02*
X416144600Y-74746000D01*
X416144600Y-74746000D02*
X420624600Y-74746000D01*
X420624600Y-74746000D02*
X426913400Y-81034800D01*
X426913400Y-81034800D02*
X430063000Y-81034800D01*
X430063000Y-81034800D02*
X430297000Y-81268800D01*
X430297000Y-81268800D02*
X430741100Y-81268800D01*
X430741100Y-81268800D02*
X430769400Y-81297100D01*
X430769400Y-81297100D02*
X434766200Y-81297100D01*
X434766200Y-81297100D02*
X435313200Y-81844100D01*
X435313200Y-81844100D02*
X437300200Y-81844100D01*
X407321800Y-83088900D02*
X406923700Y-83487000D01*
X406923700Y-83487000D02*
X406923700Y-94279700D01*
X406923700Y-94279700D02*
X401120300Y-100083100D01*
X401120300Y-100083100D02*
X401120300Y-101948200D01*
X401120300Y-101948200D02*
X399726000Y-103342500D01*
X399726000Y-103342500D02*
X399726000Y-110812300D01*
X399726000Y-110812300D02*
X401661100Y-112747400D01*
%TO.N,P55*%
X431611500Y-77564400D02*
X429658100Y-79517800D01*
X429658100Y-79517800D02*
X428111600Y-79517800D01*
X428111600Y-79517800D02*
X419886700Y-71292900D01*
X419886700Y-71292900D02*
X417803900Y-71292900D01*
X417803900Y-71292900D02*
X417098600Y-70587600D01*
X417098600Y-70587600D02*
X417098600Y-69893200D01*
X417098600Y-69893200D02*
X415595100Y-68389700D01*
X415595100Y-68389700D02*
X407867400Y-68389700D01*
X407867400Y-68389700D02*
X406973900Y-69283200D01*
X406973900Y-69283200D02*
X406973900Y-70993600D01*
X406973900Y-70993600D02*
X408114000Y-72133700D01*
X408114000Y-72133700D02*
X408114000Y-72707500D01*
X431611500Y-77564400D02*
X431611500Y-77427100D01*
X431611500Y-77427100D02*
X433199300Y-75839300D01*
X433199300Y-75839300D02*
X433199300Y-71021400D01*
X433199300Y-71021400D02*
X429006000Y-66828100D01*
X429006000Y-66828100D02*
X429006000Y-65133300D01*
X473129700Y-99300100D02*
X473129700Y-96176200D01*
X473129700Y-96176200D02*
X470914400Y-93960900D01*
X470914400Y-93960900D02*
X469726000Y-93960900D01*
X469726000Y-93960900D02*
X469424100Y-94262800D01*
X469424100Y-94262800D02*
X466997100Y-94262800D01*
X466997100Y-94262800D02*
X466762800Y-94028500D01*
X466762800Y-94028500D02*
X465103800Y-94028500D01*
X465103800Y-94028500D02*
X463761100Y-95371200D01*
X463761100Y-95371200D02*
X458080000Y-95371200D01*
X458080000Y-95371200D02*
X457129600Y-96321600D01*
X457129600Y-96321600D02*
X456570200Y-96321600D01*
X456570200Y-96321600D02*
X456212100Y-95963500D01*
X456212100Y-95963500D02*
X452847700Y-95963500D01*
X452847700Y-95963500D02*
X450503400Y-93619200D01*
X450503400Y-93619200D02*
X450503400Y-93320300D01*
X450503400Y-93320300D02*
X449256800Y-92073700D01*
X449256800Y-92073700D02*
X442489600Y-92073700D01*
X442489600Y-92073700D02*
X442041500Y-91625600D01*
X429006000Y-64008000D02*
X429006000Y-65133300D01*
%TO.N,P56*%
X482852700Y-96718100D02*
X479595400Y-99975400D01*
X479595400Y-99975400D02*
X472850000Y-99975400D01*
X472850000Y-99975400D02*
X471243900Y-98369300D01*
X471243900Y-98369300D02*
X458479200Y-98369300D01*
X458479200Y-98369300D02*
X458125100Y-98723400D01*
X458125100Y-98723400D02*
X455574800Y-98723400D01*
X455574800Y-98723400D02*
X455220700Y-98369300D01*
X455220700Y-98369300D02*
X446250400Y-98369300D01*
X446250400Y-98369300D02*
X444950500Y-97069400D01*
X425293800Y-80915100D02*
X419559300Y-75180600D01*
X419559300Y-75180600D02*
X414054400Y-75180600D01*
X414054400Y-75180600D02*
X411924000Y-73050200D01*
X411924000Y-73050200D02*
X411924000Y-71437500D01*
X411924000Y-71437500D02*
X410654000Y-70167500D01*
%TO.N,P57*%
X410654000Y-72707500D02*
X410654000Y-73802600D01*
X410654000Y-73802600D02*
X412832700Y-75981300D01*
X412832700Y-75981300D02*
X417136400Y-75981300D01*
X417136400Y-75981300D02*
X424043100Y-82888000D01*
X424043100Y-82888000D02*
X429727900Y-82888000D01*
X429727900Y-82888000D02*
X429859700Y-83019800D01*
X429859700Y-83019800D02*
X430751000Y-83019800D01*
X430751000Y-83019800D02*
X430882800Y-82888000D01*
X430882800Y-82888000D02*
X431030900Y-82888000D01*
X431030900Y-82888000D02*
X432582600Y-84439700D01*
X432582600Y-84439700D02*
X435133100Y-84439700D01*
X435133100Y-84439700D02*
X437241500Y-86548100D01*
X437241500Y-86548100D02*
X437712700Y-86548100D01*
X437712700Y-86548100D02*
X438061700Y-86199100D01*
X438061700Y-86199100D02*
X438483400Y-86199100D01*
X438483400Y-86199100D02*
X438829400Y-86545100D01*
X438829400Y-86545100D02*
X439306700Y-86545100D01*
X439306700Y-86545100D02*
X439594400Y-86257400D01*
X439594400Y-86257400D02*
X442870600Y-86257400D01*
X442870600Y-86257400D02*
X443529000Y-86915800D01*
X443529000Y-86915800D02*
X445320200Y-86915800D01*
X445320200Y-86915800D02*
X446391400Y-87987000D01*
X446391400Y-87987000D02*
X446391400Y-88546700D01*
X442331500Y-89545100D02*
X445393000Y-89545100D01*
X445393000Y-89545100D02*
X446391400Y-88546700D01*
X446391400Y-88546700D02*
X448658900Y-90814200D01*
X448658900Y-90814200D02*
X450743900Y-90814200D01*
X450743900Y-90814200D02*
X454500300Y-94570600D01*
X454500300Y-94570600D02*
X461750700Y-94570600D01*
X461750700Y-94570600D02*
X463450400Y-92870900D01*
X463450400Y-92870900D02*
X470500800Y-92870900D01*
X470500800Y-92870900D02*
X474757900Y-97128000D01*
X474757900Y-97128000D02*
X476043200Y-97128000D01*
%TO.N,P58*%
X406664100Y-97582300D02*
X412970200Y-91276200D01*
X412970200Y-91276200D02*
X417141600Y-91276200D01*
X417141600Y-91276200D02*
X419135600Y-89282200D01*
X419135600Y-89282200D02*
X426526100Y-89282200D01*
X426526100Y-89282200D02*
X427639900Y-90396000D01*
X427639900Y-90396000D02*
X427652900Y-90396000D01*
X427652900Y-90396000D02*
X429193600Y-91936700D01*
X429193600Y-91936700D02*
X429853700Y-91936700D01*
X429853700Y-91936700D02*
X430601300Y-92684300D01*
X430601300Y-92684300D02*
X432033300Y-92684300D01*
X432033300Y-92684300D02*
X433942300Y-94593300D01*
X433942300Y-94593300D02*
X440502500Y-94593300D01*
X440502500Y-94593300D02*
X440920800Y-94175000D01*
X440920800Y-94175000D02*
X446490300Y-94175000D01*
X446490300Y-94175000D02*
X447133900Y-94818600D01*
X447133900Y-94818600D02*
X449079400Y-96764100D01*
X449079400Y-96764100D02*
X455880300Y-96764100D01*
X455880300Y-96764100D02*
X456238400Y-97122200D01*
X456238400Y-97122200D02*
X457461500Y-97122200D01*
X457461500Y-97122200D02*
X457819600Y-96764100D01*
X457819600Y-96764100D02*
X465674500Y-96764100D01*
X465674500Y-96764100D02*
X466032800Y-96405800D01*
%TO.N,P59*%
X410325900Y-61313300D02*
X409937900Y-61313300D01*
X409937900Y-61313300D02*
X406527600Y-57903000D01*
X406527600Y-57903000D02*
X405240800Y-57903000D01*
X405240800Y-57903000D02*
X405058400Y-58085400D01*
X405058400Y-58085400D02*
X402047600Y-58085400D01*
X402047600Y-58085400D02*
X400993800Y-59139200D01*
X400993800Y-59139200D02*
X400993800Y-73575900D01*
X400993800Y-73575900D02*
X403322900Y-75905000D01*
X403322900Y-75905000D02*
X403322900Y-81391800D01*
X403322900Y-81391800D02*
X406579800Y-81391800D01*
X406579800Y-81391800D02*
X408527800Y-83339800D01*
X408527800Y-83339800D02*
X409969800Y-83339800D01*
X409969800Y-83339800D02*
X415282900Y-88652900D01*
X415282900Y-88652900D02*
X416240700Y-88652900D01*
X416240700Y-88652900D02*
X416812300Y-88081300D01*
X416812300Y-88081300D02*
X427023800Y-88081300D01*
X427023800Y-88081300D02*
X428137600Y-89195100D01*
X428137600Y-89195100D02*
X428150600Y-89195100D01*
X428150600Y-89195100D02*
X429691300Y-90735800D01*
X429691300Y-90735800D02*
X430351400Y-90735800D01*
X430351400Y-90735800D02*
X431099000Y-91483400D01*
X431099000Y-91483400D02*
X432531000Y-91483400D01*
X432531000Y-91483400D02*
X434440000Y-93392400D01*
X434440000Y-93392400D02*
X437312200Y-93392400D01*
X437312200Y-93392400D02*
X438290100Y-92414500D01*
X438290100Y-92414500D02*
X440267200Y-92414500D01*
X440267200Y-92414500D02*
X441877800Y-90803900D01*
X441877800Y-90803900D02*
X443130200Y-90803900D01*
X443130200Y-90803900D02*
X443999700Y-91673400D01*
X443999700Y-91673400D02*
X450470700Y-91673400D01*
X450470700Y-91673400D02*
X454198700Y-95401400D01*
X454198700Y-95401400D02*
X456605000Y-95401400D01*
X456605000Y-95401400D02*
X456849900Y-95646300D01*
X403322900Y-81391800D02*
X403045000Y-81669700D01*
X403045000Y-81669700D02*
X403045000Y-93432500D01*
X403045000Y-93432500D02*
X398499200Y-97978300D01*
X398499200Y-97978300D02*
X398499200Y-100270300D01*
X398499200Y-100270300D02*
X394875000Y-103894500D01*
X394875000Y-103894500D02*
X394875000Y-104059200D01*
%TO.N,P60*%
X407997200Y-87763200D02*
X413827000Y-87763200D01*
X413827000Y-87763200D02*
X415117000Y-89053200D01*
X415117000Y-89053200D02*
X417932400Y-89053200D01*
X417932400Y-89053200D02*
X418504000Y-88481600D01*
X418504000Y-88481600D02*
X426857900Y-88481600D01*
X426857900Y-88481600D02*
X427971700Y-89595400D01*
X427971700Y-89595400D02*
X427984700Y-89595400D01*
X427984700Y-89595400D02*
X429525400Y-91136100D01*
X429525400Y-91136100D02*
X430185500Y-91136100D01*
X430185500Y-91136100D02*
X430933100Y-91883700D01*
X430933100Y-91883700D02*
X432365100Y-91883700D01*
X432365100Y-91883700D02*
X434274100Y-93792700D01*
X434274100Y-93792700D02*
X437478100Y-93792700D01*
X437478100Y-93792700D02*
X438456000Y-92814800D01*
X438456000Y-92814800D02*
X448975300Y-92814800D01*
X448975300Y-92814800D02*
X449152700Y-92992200D01*
X407997200Y-87763200D02*
X407997200Y-87109200D01*
X407997200Y-87109200D02*
X407904000Y-87016000D01*
X400428400Y-104504700D02*
X401520600Y-103412500D01*
X401520600Y-103412500D02*
X401520600Y-100249100D01*
X401520600Y-100249100D02*
X407327600Y-94442100D01*
X407327600Y-94442100D02*
X407327600Y-88432800D01*
X407327600Y-88432800D02*
X407997200Y-87763200D01*
X449152700Y-92992200D02*
X452524300Y-96363800D01*
X452524300Y-96363800D02*
X456046200Y-96363800D01*
X456046200Y-96363800D02*
X456404300Y-96721900D01*
X456404300Y-96721900D02*
X457295600Y-96721900D01*
X457295600Y-96721900D02*
X457931800Y-96085700D01*
X457931800Y-96085700D02*
X458707400Y-96085700D01*
%TO.N,P61*%
X415734000Y-72707500D02*
X416938500Y-73912000D01*
X416938500Y-73912000D02*
X421656600Y-73912000D01*
X421656600Y-73912000D02*
X427662700Y-79918100D01*
X427662700Y-79918100D02*
X430702500Y-79918100D01*
X430702500Y-79918100D02*
X431203000Y-79417600D01*
X415734000Y-72707500D02*
X414572000Y-71545500D01*
X414572000Y-71545500D02*
X414572000Y-69313100D01*
X414572000Y-69313100D02*
X414771600Y-69113500D01*
X431203000Y-79417600D02*
X431203000Y-78928000D01*
X431203000Y-78928000D02*
X432765300Y-77365700D01*
X432765300Y-77365700D02*
X432765300Y-76848000D01*
X432765300Y-76848000D02*
X434329400Y-75283900D01*
X434329400Y-75283900D02*
X434430300Y-75283900D01*
X434430300Y-75283900D02*
X435500700Y-74213500D01*
X435500700Y-74213500D02*
X435500700Y-73787000D01*
X402195900Y-100947800D02*
X402195900Y-100140100D01*
X402195900Y-100140100D02*
X408287600Y-94048400D01*
X408287600Y-94048400D02*
X408287600Y-88568500D01*
X431203000Y-79417600D02*
X431598600Y-79813200D01*
X431598600Y-79813200D02*
X434414700Y-79813200D01*
X434414700Y-79813200D02*
X435532700Y-80931200D01*
X435532700Y-80931200D02*
X436092200Y-80931200D01*
X436092200Y-80931200D02*
X436692300Y-80331100D01*
X436692300Y-80331100D02*
X437163100Y-80331100D01*
X436626000Y-73787000D02*
X435500700Y-73787000D01*
%TO.N,P62*%
X418274000Y-70167500D02*
X418080600Y-70167500D01*
X418080600Y-70167500D02*
X415902500Y-67989400D01*
X415902500Y-67989400D02*
X407701500Y-67989400D01*
X407701500Y-67989400D02*
X406573600Y-69117300D01*
X406573600Y-69117300D02*
X406573600Y-71259700D01*
X406573600Y-71259700D02*
X406973900Y-71660000D01*
X406973900Y-71660000D02*
X406973900Y-73165200D01*
X406973900Y-73165200D02*
X407691600Y-73882900D01*
X407691600Y-73882900D02*
X409511700Y-73882900D01*
X409511700Y-73882900D02*
X413075000Y-77446200D01*
X413075000Y-77446200D02*
X417468900Y-77446200D01*
X417468900Y-77446200D02*
X423911500Y-83888800D01*
X423911500Y-83888800D02*
X428773600Y-83888800D01*
X428773600Y-83888800D02*
X431183500Y-86298700D01*
X431183500Y-86298700D02*
X432118100Y-86298700D01*
X432118100Y-86298700D02*
X433943100Y-88123700D01*
X433943100Y-88123700D02*
X434546100Y-88123700D01*
X434546100Y-88123700D02*
X434851900Y-87817900D01*
X434851900Y-87817900D02*
X435381800Y-87817900D01*
X435381800Y-87817900D02*
X438091300Y-90527400D01*
X438091300Y-90527400D02*
X438492300Y-90527400D01*
X438492300Y-90527400D02*
X440647100Y-88372600D01*
X440647100Y-88372600D02*
X445610400Y-88372600D01*
X445610400Y-88372600D02*
X445716100Y-88266900D01*
X469640300Y-102089200D02*
X469292200Y-102089200D01*
X469292200Y-102089200D02*
X467927800Y-103453600D01*
X467927800Y-103453600D02*
X467927800Y-104348700D01*
X467927800Y-104348700D02*
X472129100Y-108550000D01*
X472129100Y-108550000D02*
X498696900Y-108550000D01*
X498696900Y-108550000D02*
X507430900Y-117284000D01*
X507430900Y-117284000D02*
X509588000Y-117284000D01*
%TO.N,P63*%
X466715000Y-106939600D02*
X469126000Y-109350600D01*
X469126000Y-109350600D02*
X498425500Y-109350600D01*
X498425500Y-109350600D02*
X508462700Y-119387800D01*
X508462700Y-119387800D02*
X508462700Y-119824000D01*
X454868100Y-99060200D02*
X444352400Y-99060200D01*
X444352400Y-99060200D02*
X443082500Y-97790300D01*
X443082500Y-97790300D02*
X440540900Y-97790300D01*
X440540900Y-97790300D02*
X439587500Y-98743700D01*
X439587500Y-98743700D02*
X435082200Y-98743700D01*
X435082200Y-98743700D02*
X434710500Y-98372000D01*
X434710500Y-98372000D02*
X429870400Y-98372000D01*
X429870400Y-98372000D02*
X425920400Y-94422000D01*
X425920400Y-94422000D02*
X419439500Y-94422000D01*
X509588000Y-119824000D02*
X508462700Y-119824000D01*
%TD*%
M02*
