%TF.GenerationSoftware,KiCad,Pcbnew,(5.1.9)-1*%
%TF.CreationDate,2021-03-27T14:28:13-04:00*%
%TF.ProjectId,DS2_Addon,4453325f-4164-4646-9f6e-2e6b69636164,rev?*%
%TF.SameCoordinates,Original*%
%TF.FileFunction,Legend,Top*%
%TF.FilePolarity,Positive*%
%FSLAX46Y46*%
G04 Gerber Fmt 4.6, Leading zero omitted, Abs format (unit mm)*
G04 Created by KiCad (PCBNEW (5.1.9)-1) date 2021-03-27 14:28:13*
%MOMM*%
%LPD*%
G01*
G04 APERTURE LIST*
%ADD10C,0.150000*%
%ADD11C,0.120000*%
G04 APERTURE END LIST*
D10*
X117455333Y-83961666D02*
X117860095Y-83961666D01*
X117374380Y-84204523D02*
X117657714Y-83354523D01*
X117941047Y-84204523D01*
X118102952Y-83354523D02*
X118386285Y-84204523D01*
X118669619Y-83354523D01*
X118952952Y-84204523D02*
X118952952Y-83354523D01*
X119155333Y-83354523D01*
X119276761Y-83395000D01*
X119357714Y-83475952D01*
X119398190Y-83556904D01*
X119438666Y-83718809D01*
X119438666Y-83840238D01*
X119398190Y-84002142D01*
X119357714Y-84083095D01*
X119276761Y-84164047D01*
X119155333Y-84204523D01*
X118952952Y-84204523D01*
X119802952Y-84204523D02*
X119802952Y-83354523D01*
X120005333Y-83354523D01*
X120126761Y-83395000D01*
X120207714Y-83475952D01*
X120248190Y-83556904D01*
X120288666Y-83718809D01*
X120288666Y-83840238D01*
X120248190Y-84002142D01*
X120207714Y-84083095D01*
X120126761Y-84164047D01*
X120005333Y-84204523D01*
X119802952Y-84204523D01*
X117374380Y-81675666D02*
X117779142Y-81675666D01*
X117293428Y-81918523D02*
X117576761Y-81068523D01*
X117860095Y-81918523D01*
X118588666Y-81109000D02*
X118507714Y-81068523D01*
X118386285Y-81068523D01*
X118264857Y-81109000D01*
X118183904Y-81189952D01*
X118143428Y-81270904D01*
X118102952Y-81432809D01*
X118102952Y-81554238D01*
X118143428Y-81716142D01*
X118183904Y-81797095D01*
X118264857Y-81878047D01*
X118386285Y-81918523D01*
X118467238Y-81918523D01*
X118588666Y-81878047D01*
X118629142Y-81837571D01*
X118629142Y-81554238D01*
X118467238Y-81554238D01*
X118993428Y-81918523D02*
X118993428Y-81068523D01*
X119479142Y-81918523D01*
X119479142Y-81068523D01*
X119883904Y-81918523D02*
X119883904Y-81068523D01*
X120086285Y-81068523D01*
X120207714Y-81109000D01*
X120288666Y-81189952D01*
X120329142Y-81270904D01*
X120369619Y-81432809D01*
X120369619Y-81554238D01*
X120329142Y-81716142D01*
X120288666Y-81797095D01*
X120207714Y-81878047D01*
X120086285Y-81918523D01*
X119883904Y-81918523D01*
X117776714Y-79033666D02*
X118252904Y-79033666D01*
X117681476Y-79319380D02*
X118014809Y-78319380D01*
X118348142Y-79319380D01*
X118871952Y-78319380D02*
X118967190Y-78319380D01*
X119062428Y-78367000D01*
X119110047Y-78414619D01*
X119157666Y-78509857D01*
X119205285Y-78700333D01*
X119205285Y-78938428D01*
X119157666Y-79128904D01*
X119110047Y-79224142D01*
X119062428Y-79271761D01*
X118967190Y-79319380D01*
X118871952Y-79319380D01*
X118776714Y-79271761D01*
X118729095Y-79224142D01*
X118681476Y-79128904D01*
X118633857Y-78938428D01*
X118633857Y-78700333D01*
X118681476Y-78509857D01*
X118729095Y-78414619D01*
X118776714Y-78367000D01*
X118871952Y-78319380D01*
X117776714Y-76366666D02*
X118252904Y-76366666D01*
X117681476Y-76652380D02*
X118014809Y-75652380D01*
X118348142Y-76652380D01*
X119205285Y-76652380D02*
X118633857Y-76652380D01*
X118919571Y-76652380D02*
X118919571Y-75652380D01*
X118824333Y-75795238D01*
X118729095Y-75890476D01*
X118633857Y-75938095D01*
X141144761Y-72842380D02*
X140811428Y-72366190D01*
X140573333Y-72842380D02*
X140573333Y-71842380D01*
X140954285Y-71842380D01*
X141049523Y-71890000D01*
X141097142Y-71937619D01*
X141144761Y-72032857D01*
X141144761Y-72175714D01*
X141097142Y-72270952D01*
X141049523Y-72318571D01*
X140954285Y-72366190D01*
X140573333Y-72366190D01*
X141573333Y-72318571D02*
X141906666Y-72318571D01*
X142049523Y-72842380D02*
X141573333Y-72842380D01*
X141573333Y-71842380D01*
X142049523Y-71842380D01*
X142811428Y-72318571D02*
X142478095Y-72318571D01*
X142478095Y-72842380D02*
X142478095Y-71842380D01*
X142954285Y-71842380D01*
X143335238Y-72842380D02*
X143335238Y-71842380D01*
X143906666Y-72842380D01*
X143906666Y-71842380D01*
X131135571Y-72969380D02*
X130802238Y-72493190D01*
X130564142Y-72969380D02*
X130564142Y-71969380D01*
X130945095Y-71969380D01*
X131040333Y-72017000D01*
X131087952Y-72064619D01*
X131135571Y-72159857D01*
X131135571Y-72302714D01*
X131087952Y-72397952D01*
X131040333Y-72445571D01*
X130945095Y-72493190D01*
X130564142Y-72493190D01*
X131564142Y-72445571D02*
X131897476Y-72445571D01*
X132040333Y-72969380D02*
X131564142Y-72969380D01*
X131564142Y-71969380D01*
X132040333Y-71969380D01*
X132802238Y-72445571D02*
X132468904Y-72445571D01*
X132468904Y-72969380D02*
X132468904Y-71969380D01*
X132945095Y-71969380D01*
X133326047Y-72969380D02*
X133326047Y-71969380D01*
X133706999Y-71969380D01*
X133802238Y-72017000D01*
X133849857Y-72064619D01*
X133897476Y-72159857D01*
X133897476Y-72302714D01*
X133849857Y-72397952D01*
X133802238Y-72445571D01*
X133706999Y-72493190D01*
X133326047Y-72493190D01*
X153971714Y-81446666D02*
X154447904Y-81446666D01*
X153876476Y-81732380D02*
X154209809Y-80732380D01*
X154543142Y-81732380D01*
X154781238Y-80732380D02*
X155400285Y-80732380D01*
X155066952Y-81113333D01*
X155209809Y-81113333D01*
X155305047Y-81160952D01*
X155352666Y-81208571D01*
X155400285Y-81303809D01*
X155400285Y-81541904D01*
X155352666Y-81637142D01*
X155305047Y-81684761D01*
X155209809Y-81732380D01*
X154924095Y-81732380D01*
X154828857Y-81684761D01*
X154781238Y-81637142D01*
X153971714Y-78779666D02*
X154447904Y-78779666D01*
X153876476Y-79065380D02*
X154209809Y-78065380D01*
X154543142Y-79065380D01*
X154828857Y-78160619D02*
X154876476Y-78113000D01*
X154971714Y-78065380D01*
X155209809Y-78065380D01*
X155305047Y-78113000D01*
X155352666Y-78160619D01*
X155400285Y-78255857D01*
X155400285Y-78351095D01*
X155352666Y-78493952D01*
X154781238Y-79065380D01*
X155400285Y-79065380D01*
X146820000Y-91265190D02*
X146772380Y-91360428D01*
X146772380Y-91503285D01*
X146820000Y-91646142D01*
X146915238Y-91741380D01*
X147010476Y-91789000D01*
X147200952Y-91836619D01*
X147343809Y-91836619D01*
X147534285Y-91789000D01*
X147629523Y-91741380D01*
X147724761Y-91646142D01*
X147772380Y-91503285D01*
X147772380Y-91408047D01*
X147724761Y-91265190D01*
X147677142Y-91217571D01*
X147343809Y-91217571D01*
X147343809Y-91408047D01*
X147772380Y-90789000D02*
X146772380Y-90789000D01*
X146772380Y-90408047D01*
X146820000Y-90312809D01*
X146867619Y-90265190D01*
X146962857Y-90217571D01*
X147105714Y-90217571D01*
X147200952Y-90265190D01*
X147248571Y-90312809D01*
X147296190Y-90408047D01*
X147296190Y-90789000D01*
X147772380Y-89789000D02*
X146772380Y-89789000D01*
X146772380Y-89122333D02*
X146772380Y-88931857D01*
X146820000Y-88836619D01*
X146915238Y-88741380D01*
X147105714Y-88693761D01*
X147439047Y-88693761D01*
X147629523Y-88741380D01*
X147724761Y-88836619D01*
X147772380Y-88931857D01*
X147772380Y-89122333D01*
X147724761Y-89217571D01*
X147629523Y-89312809D01*
X147439047Y-89360428D01*
X147105714Y-89360428D01*
X146915238Y-89312809D01*
X146820000Y-89217571D01*
X146772380Y-89122333D01*
X146772380Y-88074714D02*
X146772380Y-87979476D01*
X146820000Y-87884238D01*
X146867619Y-87836619D01*
X146962857Y-87789000D01*
X147153333Y-87741380D01*
X147391428Y-87741380D01*
X147581904Y-87789000D01*
X147677142Y-87836619D01*
X147724761Y-87884238D01*
X147772380Y-87979476D01*
X147772380Y-88074714D01*
X147724761Y-88169952D01*
X147677142Y-88217571D01*
X147581904Y-88265190D01*
X147391428Y-88312809D01*
X147153333Y-88312809D01*
X146962857Y-88265190D01*
X146867619Y-88217571D01*
X146820000Y-88169952D01*
X146772380Y-88074714D01*
X144407000Y-91265190D02*
X144359380Y-91360428D01*
X144359380Y-91503285D01*
X144407000Y-91646142D01*
X144502238Y-91741380D01*
X144597476Y-91789000D01*
X144787952Y-91836619D01*
X144930809Y-91836619D01*
X145121285Y-91789000D01*
X145216523Y-91741380D01*
X145311761Y-91646142D01*
X145359380Y-91503285D01*
X145359380Y-91408047D01*
X145311761Y-91265190D01*
X145264142Y-91217571D01*
X144930809Y-91217571D01*
X144930809Y-91408047D01*
X145359380Y-90789000D02*
X144359380Y-90789000D01*
X144359380Y-90408047D01*
X144407000Y-90312809D01*
X144454619Y-90265190D01*
X144549857Y-90217571D01*
X144692714Y-90217571D01*
X144787952Y-90265190D01*
X144835571Y-90312809D01*
X144883190Y-90408047D01*
X144883190Y-90789000D01*
X145359380Y-89789000D02*
X144359380Y-89789000D01*
X144359380Y-89122333D02*
X144359380Y-88931857D01*
X144407000Y-88836619D01*
X144502238Y-88741380D01*
X144692714Y-88693761D01*
X145026047Y-88693761D01*
X145216523Y-88741380D01*
X145311761Y-88836619D01*
X145359380Y-88931857D01*
X145359380Y-89122333D01*
X145311761Y-89217571D01*
X145216523Y-89312809D01*
X145026047Y-89360428D01*
X144692714Y-89360428D01*
X144502238Y-89312809D01*
X144407000Y-89217571D01*
X144359380Y-89122333D01*
X145359380Y-87741380D02*
X145359380Y-88312809D01*
X145359380Y-88027095D02*
X144359380Y-88027095D01*
X144502238Y-88122333D01*
X144597476Y-88217571D01*
X144645095Y-88312809D01*
X141740000Y-91058904D02*
X141692380Y-91154142D01*
X141692380Y-91297000D01*
X141740000Y-91439857D01*
X141835238Y-91535095D01*
X141930476Y-91582714D01*
X142120952Y-91630333D01*
X142263809Y-91630333D01*
X142454285Y-91582714D01*
X142549523Y-91535095D01*
X142644761Y-91439857D01*
X142692380Y-91297000D01*
X142692380Y-91201761D01*
X142644761Y-91058904D01*
X142597142Y-91011285D01*
X142263809Y-91011285D01*
X142263809Y-91201761D01*
X142692380Y-90582714D02*
X141692380Y-90582714D01*
X142692380Y-90011285D01*
X141692380Y-90011285D01*
X142692380Y-89535095D02*
X141692380Y-89535095D01*
X141692380Y-89297000D01*
X141740000Y-89154142D01*
X141835238Y-89058904D01*
X141930476Y-89011285D01*
X142120952Y-88963666D01*
X142263809Y-88963666D01*
X142454285Y-89011285D01*
X142549523Y-89058904D01*
X142644761Y-89154142D01*
X142692380Y-89297000D01*
X142692380Y-89535095D01*
X132675523Y-92273380D02*
X132675523Y-91273380D01*
X132913619Y-91273380D01*
X133056476Y-91321000D01*
X133151714Y-91416238D01*
X133199333Y-91511476D01*
X133246952Y-91701952D01*
X133246952Y-91844809D01*
X133199333Y-92035285D01*
X133151714Y-92130523D01*
X133056476Y-92225761D01*
X132913619Y-92273380D01*
X132675523Y-92273380D01*
X133532666Y-91273380D02*
X133866000Y-92273380D01*
X134199333Y-91273380D01*
X134532666Y-92273380D02*
X134532666Y-91273380D01*
X134770761Y-91273380D01*
X134913619Y-91321000D01*
X135008857Y-91416238D01*
X135056476Y-91511476D01*
X135104095Y-91701952D01*
X135104095Y-91844809D01*
X135056476Y-92035285D01*
X135008857Y-92130523D01*
X134913619Y-92225761D01*
X134770761Y-92273380D01*
X134532666Y-92273380D01*
X135532666Y-92273380D02*
X135532666Y-91273380D01*
X135770761Y-91273380D01*
X135913619Y-91321000D01*
X136008857Y-91416238D01*
X136056476Y-91511476D01*
X136104095Y-91701952D01*
X136104095Y-91844809D01*
X136056476Y-92035285D01*
X136008857Y-92130523D01*
X135913619Y-92225761D01*
X135770761Y-92273380D01*
X135532666Y-92273380D01*
X129921095Y-91321000D02*
X129825857Y-91273380D01*
X129683000Y-91273380D01*
X129540142Y-91321000D01*
X129444904Y-91416238D01*
X129397285Y-91511476D01*
X129349666Y-91701952D01*
X129349666Y-91844809D01*
X129397285Y-92035285D01*
X129444904Y-92130523D01*
X129540142Y-92225761D01*
X129683000Y-92273380D01*
X129778238Y-92273380D01*
X129921095Y-92225761D01*
X129968714Y-92178142D01*
X129968714Y-91844809D01*
X129778238Y-91844809D01*
X130397285Y-92273380D02*
X130397285Y-91273380D01*
X130968714Y-92273380D01*
X130968714Y-91273380D01*
X131444904Y-92273380D02*
X131444904Y-91273380D01*
X131683000Y-91273380D01*
X131825857Y-91321000D01*
X131921095Y-91416238D01*
X131968714Y-91511476D01*
X132016333Y-91701952D01*
X132016333Y-91844809D01*
X131968714Y-92035285D01*
X131921095Y-92130523D01*
X131825857Y-92225761D01*
X131683000Y-92273380D01*
X131444904Y-92273380D01*
X127722333Y-92273380D02*
X127389000Y-91797190D01*
X127150904Y-92273380D02*
X127150904Y-91273380D01*
X127531857Y-91273380D01*
X127627095Y-91321000D01*
X127674714Y-91368619D01*
X127722333Y-91463857D01*
X127722333Y-91606714D01*
X127674714Y-91701952D01*
X127627095Y-91749571D01*
X127531857Y-91797190D01*
X127150904Y-91797190D01*
X128055666Y-91273380D02*
X128722333Y-92273380D01*
X128722333Y-91273380D02*
X128055666Y-92273380D01*
X124841095Y-91273380D02*
X125412523Y-91273380D01*
X125126809Y-92273380D02*
X125126809Y-91273380D01*
X125650619Y-91273380D02*
X126317285Y-92273380D01*
X126317285Y-91273380D02*
X125650619Y-92273380D01*
X121380428Y-90906000D02*
X122380428Y-90906000D01*
X122189952Y-92273380D02*
X121856619Y-91797190D01*
X121618523Y-92273380D02*
X121618523Y-91273380D01*
X121999476Y-91273380D01*
X122094714Y-91321000D01*
X122142333Y-91368619D01*
X122189952Y-91463857D01*
X122189952Y-91606714D01*
X122142333Y-91701952D01*
X122094714Y-91749571D01*
X121999476Y-91797190D01*
X121618523Y-91797190D01*
X122380428Y-90906000D02*
X123380428Y-90906000D01*
X122618523Y-92273380D02*
X122618523Y-91273380D01*
X122856619Y-91273380D01*
X122999476Y-91321000D01*
X123094714Y-91416238D01*
X123142333Y-91511476D01*
X123189952Y-91701952D01*
X123189952Y-91844809D01*
X123142333Y-92035285D01*
X123094714Y-92130523D01*
X122999476Y-92225761D01*
X122856619Y-92273380D01*
X122618523Y-92273380D01*
X123380428Y-90906000D02*
X124237571Y-90906000D01*
X123809000Y-91797190D02*
X123809000Y-92273380D01*
X123475666Y-91273380D02*
X123809000Y-91797190D01*
X124142333Y-91273380D01*
D11*
%TO.C,C1*%
X139165000Y-77433752D02*
X139165000Y-76911248D01*
X137695000Y-77433752D02*
X137695000Y-76911248D01*
%TO.C,C2*%
X137101252Y-81380000D02*
X136578748Y-81380000D01*
X137101252Y-79910000D02*
X136578748Y-79910000D01*
%TO.C,C3*%
X135990000Y-76911248D02*
X135990000Y-77433752D01*
X134520000Y-76911248D02*
X134520000Y-77433752D01*
%TO.C,C4*%
X121978748Y-84555000D02*
X122501252Y-84555000D01*
X121978748Y-83085000D02*
X122501252Y-83085000D01*
%TO.C,C5*%
X133296252Y-88800000D02*
X132773748Y-88800000D01*
X133296252Y-90270000D02*
X132773748Y-90270000D01*
%TO.C,C6*%
X136578748Y-88800000D02*
X137101252Y-88800000D01*
X136578748Y-90270000D02*
X137101252Y-90270000D01*
%TO.C,C7*%
X127058748Y-83485000D02*
X127581252Y-83485000D01*
X127058748Y-84955000D02*
X127581252Y-84955000D01*
%TO.C,C8*%
X130075000Y-83761252D02*
X130075000Y-83238748D01*
X131545000Y-83761252D02*
X131545000Y-83238748D01*
%TO.C,C9*%
X127581252Y-81180000D02*
X127058748Y-81180000D01*
X127581252Y-82650000D02*
X127058748Y-82650000D01*
%TO.C,C10*%
X146631252Y-81180000D02*
X146108748Y-81180000D01*
X146631252Y-82650000D02*
X146108748Y-82650000D01*
%TO.C,C11*%
X142140000Y-83238748D02*
X142140000Y-83761252D01*
X143610000Y-83238748D02*
X143610000Y-83761252D01*
%TO.C,C12*%
X146108748Y-83485000D02*
X146631252Y-83485000D01*
X146108748Y-84955000D02*
X146631252Y-84955000D01*
%TO.C,J1*%
X121860000Y-92650000D02*
X121860000Y-95310000D01*
X132080000Y-92650000D02*
X121860000Y-92650000D01*
X132080000Y-95310000D02*
X121860000Y-95310000D01*
X132080000Y-92650000D02*
X132080000Y-95310000D01*
X133350000Y-92650000D02*
X134680000Y-92650000D01*
X134680000Y-92650000D02*
X134680000Y-93980000D01*
%TO.C,JP1*%
X123590000Y-77875000D02*
X123590000Y-79875000D01*
X120790000Y-77875000D02*
X123590000Y-77875000D01*
X120790000Y-79875000D02*
X120790000Y-77875000D01*
X123590000Y-79875000D02*
X120790000Y-79875000D01*
%TO.C,JP2*%
X123590000Y-74660000D02*
X120790000Y-74660000D01*
X120790000Y-74660000D02*
X120790000Y-72660000D01*
X120790000Y-72660000D02*
X123590000Y-72660000D01*
X123590000Y-72660000D02*
X123590000Y-74660000D01*
%TO.C,JP3*%
X150612500Y-75200000D02*
X153412500Y-75200000D01*
X153412500Y-75200000D02*
X153412500Y-77200000D01*
X153412500Y-77200000D02*
X150612500Y-77200000D01*
X150612500Y-77200000D02*
X150612500Y-75200000D01*
%TO.C,JP4*%
X150612500Y-82280000D02*
X150612500Y-80280000D01*
X153412500Y-82280000D02*
X150612500Y-82280000D01*
X153412500Y-80280000D02*
X153412500Y-82280000D01*
X150612500Y-80280000D02*
X153412500Y-80280000D01*
%TO.C,R1*%
X142340000Y-77419564D02*
X142340000Y-76965436D01*
X140870000Y-77419564D02*
X140870000Y-76965436D01*
%TO.C,R2*%
X132815000Y-76965436D02*
X132815000Y-77419564D01*
X131345000Y-76965436D02*
X131345000Y-77419564D01*
%TO.C,R3*%
X128170000Y-89062064D02*
X128170000Y-88607936D01*
X129640000Y-89062064D02*
X129640000Y-88607936D01*
%TO.C,R4*%
X127100000Y-89062064D02*
X127100000Y-88607936D01*
X125630000Y-89062064D02*
X125630000Y-88607936D01*
%TO.C,R5*%
X124560000Y-88607936D02*
X124560000Y-89062064D01*
X123090000Y-88607936D02*
X123090000Y-89062064D01*
%TO.C,R6*%
X122447064Y-80747500D02*
X121992936Y-80747500D01*
X122447064Y-82217500D02*
X121992936Y-82217500D01*
%TO.C,R7*%
X121992936Y-75532500D02*
X122447064Y-75532500D01*
X121992936Y-77002500D02*
X122447064Y-77002500D01*
%TO.C,R8*%
X151815436Y-78005000D02*
X152269564Y-78005000D01*
X151815436Y-79475000D02*
X152269564Y-79475000D01*
%TO.C,R9*%
X152269564Y-83085000D02*
X151815436Y-83085000D01*
X152269564Y-84555000D02*
X151815436Y-84555000D01*
%TO.C,U1*%
X136842500Y-82355000D02*
X134642500Y-82355000D01*
X136842500Y-82355000D02*
X139042500Y-82355000D01*
X136842500Y-87825000D02*
X134642500Y-87825000D01*
X136842500Y-87825000D02*
X140442500Y-87825000D01*
%TO.C,J3*%
X140910000Y-92650000D02*
X140910000Y-95310000D01*
X146050000Y-92650000D02*
X140910000Y-92650000D01*
X146050000Y-95310000D02*
X140910000Y-95310000D01*
X146050000Y-92650000D02*
X146050000Y-95310000D01*
X147320000Y-92650000D02*
X148650000Y-92650000D01*
X148650000Y-92650000D02*
X148650000Y-93980000D01*
%TO.C,J2*%
X116900000Y-74870000D02*
X114240000Y-74870000D01*
X116900000Y-82550000D02*
X116900000Y-74870000D01*
X114240000Y-82550000D02*
X114240000Y-74870000D01*
X116900000Y-82550000D02*
X114240000Y-82550000D01*
X116900000Y-83820000D02*
X116900000Y-85150000D01*
X116900000Y-85150000D02*
X115570000Y-85150000D01*
%TO.C,J5*%
X156150000Y-82610000D02*
X158810000Y-82610000D01*
X156150000Y-80010000D02*
X156150000Y-82610000D01*
X158810000Y-80010000D02*
X158810000Y-82610000D01*
X156150000Y-80010000D02*
X158810000Y-80010000D01*
X156150000Y-78740000D02*
X156150000Y-77410000D01*
X156150000Y-77410000D02*
X157480000Y-77410000D01*
%TO.C,J4*%
X134560000Y-71060000D02*
X134560000Y-73720000D01*
X137160000Y-71060000D02*
X134560000Y-71060000D01*
X137160000Y-73720000D02*
X134560000Y-73720000D01*
X137160000Y-71060000D02*
X137160000Y-73720000D01*
X138430000Y-71060000D02*
X139760000Y-71060000D01*
X139760000Y-71060000D02*
X139760000Y-72390000D01*
%TO.C,C2*%
D10*
X136673333Y-82682142D02*
X136625714Y-82729761D01*
X136482857Y-82777380D01*
X136387619Y-82777380D01*
X136244761Y-82729761D01*
X136149523Y-82634523D01*
X136101904Y-82539285D01*
X136054285Y-82348809D01*
X136054285Y-82205952D01*
X136101904Y-82015476D01*
X136149523Y-81920238D01*
X136244761Y-81825000D01*
X136387619Y-81777380D01*
X136482857Y-81777380D01*
X136625714Y-81825000D01*
X136673333Y-81872619D01*
X137054285Y-81872619D02*
X137101904Y-81825000D01*
X137197142Y-81777380D01*
X137435238Y-81777380D01*
X137530476Y-81825000D01*
X137578095Y-81872619D01*
X137625714Y-81967857D01*
X137625714Y-82063095D01*
X137578095Y-82205952D01*
X137006666Y-82777380D01*
X137625714Y-82777380D01*
%TO.C,C7*%
X127153333Y-82897142D02*
X127105714Y-82944761D01*
X126962857Y-82992380D01*
X126867619Y-82992380D01*
X126724761Y-82944761D01*
X126629523Y-82849523D01*
X126581904Y-82754285D01*
X126534285Y-82563809D01*
X126534285Y-82420952D01*
X126581904Y-82230476D01*
X126629523Y-82135238D01*
X126724761Y-82040000D01*
X126867619Y-81992380D01*
X126962857Y-81992380D01*
X127105714Y-82040000D01*
X127153333Y-82087619D01*
X127486666Y-81992380D02*
X128153333Y-81992380D01*
X127724761Y-82992380D01*
%TO.C,C9*%
X127153333Y-83952142D02*
X127105714Y-83999761D01*
X126962857Y-84047380D01*
X126867619Y-84047380D01*
X126724761Y-83999761D01*
X126629523Y-83904523D01*
X126581904Y-83809285D01*
X126534285Y-83618809D01*
X126534285Y-83475952D01*
X126581904Y-83285476D01*
X126629523Y-83190238D01*
X126724761Y-83095000D01*
X126867619Y-83047380D01*
X126962857Y-83047380D01*
X127105714Y-83095000D01*
X127153333Y-83142619D01*
X127629523Y-84047380D02*
X127820000Y-84047380D01*
X127915238Y-83999761D01*
X127962857Y-83952142D01*
X128058095Y-83809285D01*
X128105714Y-83618809D01*
X128105714Y-83237857D01*
X128058095Y-83142619D01*
X128010476Y-83095000D01*
X127915238Y-83047380D01*
X127724761Y-83047380D01*
X127629523Y-83095000D01*
X127581904Y-83142619D01*
X127534285Y-83237857D01*
X127534285Y-83475952D01*
X127581904Y-83571190D01*
X127629523Y-83618809D01*
X127724761Y-83666428D01*
X127915238Y-83666428D01*
X128010476Y-83618809D01*
X128058095Y-83571190D01*
X128105714Y-83475952D01*
%TO.C,J2*%
X115236666Y-85602380D02*
X115236666Y-86316666D01*
X115189047Y-86459523D01*
X115093809Y-86554761D01*
X114950952Y-86602380D01*
X114855714Y-86602380D01*
X115665238Y-85697619D02*
X115712857Y-85650000D01*
X115808095Y-85602380D01*
X116046190Y-85602380D01*
X116141428Y-85650000D01*
X116189047Y-85697619D01*
X116236666Y-85792857D01*
X116236666Y-85888095D01*
X116189047Y-86030952D01*
X115617619Y-86602380D01*
X116236666Y-86602380D01*
%TD*%
M02*
