M48
; DRILL file {KiCad (5.1.9)-1} date 03/27/21 14:28:05
; FORMAT={-:-/ absolute / metric / decimal}
; #@! TF.CreationDate,2021-03-27T14:28:05-04:00
; #@! TF.GenerationSoftware,Kicad,Pcbnew,(5.1.9)-1
; #@! TF.FileFunction,Plated,1,2,PTH
FMAT,2
METRIC
T1C0.400
T2C1.000
T3C3.200
%
G90
G05
T1
X124.46Y-84.328
X125.222Y-83.566
X125.73Y-80.645
X130.937Y-89.662
X135.382Y-74.93
X138.176Y-84.074
X138.176Y-86.36
X138.43Y-74.93
X138.938Y-89.662
X141.732Y-86.614
X148.59Y-82.042
X148.59Y-84.328
T2
X115.57Y-76.2
X115.57Y-78.74
X115.57Y-81.28
X115.57Y-83.82
X123.19Y-93.98
X125.73Y-93.98
X128.27Y-93.98
X130.81Y-93.98
X133.35Y-93.98
X135.89Y-72.39
X138.43Y-72.39
X142.24Y-93.98
X144.78Y-93.98
X147.32Y-93.98
X157.48Y-78.74
X157.48Y-81.28
T3
X116.713Y-91.44
X156.313Y-91.44
T0
M30
