M48
; DRILL file {KiCad (5.1.9)-1} date 02/11/21 18:18:58
; FORMAT={-:-/ absolute / metric / decimal}
; #@! TF.CreationDate,2021-02-11T18:18:58-05:00
; #@! TF.GenerationSoftware,Kicad,Pcbnew,(5.1.9)-1
; #@! TF.FileFunction,Plated,1,2,PTH
FMAT,2
METRIC
T1C0.400
T2C1.000
T3C1.300
T4C1.520
T5C3.220
%
G90
G05
T1
X22.86Y-80.645
X22.86Y-104.14
X24.13Y-81.915
X24.13Y-100.965
X25.4Y-84.455
X25.4Y-97.79
X26.67Y-86.995
X26.67Y-94.615
X34.925Y-69.215
X36.195Y-72.39
X40.64Y-90.424
X43.688Y-94.488
X53.139Y-86.934
X53.34Y-137.16
X54.091Y-100.849
X54.091Y-113.295
X54.091Y-123.455
X55.454Y-93.422
X56.388Y-124.714
X56.642Y-101.6
X56.642Y-113.792
X59.69Y-134.62
X65.43Y-124.409
X68.321Y-90.683
X71.374Y-88.392
X71.476Y-124.714
X76.454Y-58.166
X78.74Y-134.62
X78.892Y-124.155
X80.209Y-56.536
X82.042Y-84.836
X82.55Y-87.63
X82.55Y-97.79
X83.312Y-97.028
X83.566Y-124.409
X83.61Y-65.034
X83.82Y-87.884
X84.836Y-114.3
X85.09Y-88.392
X86.106Y-79.756
X88.11Y-125.657
X92.659Y-88.341
X94.07Y-115.748
X95.25Y-76.2
X95.504Y-113.284
X97.536Y-109.728
X99.771Y-97.841
X101.498Y-91.288
X107.188Y-118.872
X107.696Y-114.808
X109.779Y-99.517
X111.049Y-95.25
X117.348Y-119.38
X118.364Y-114.3
X125.73Y-134.62
X127.0Y-121.412
X127.864Y-118.618
X129.642Y-118.618
X130.556Y-121.412
X130.81Y-134.874
X134.112Y-99.568
X134.455Y-84.455
X136.144Y-129.54
X138.176Y-124.968
X138.43Y-133.35
X138.43Y-136.525
X140.462Y-131.928
X140.716Y-103.632
X142.697Y-105.423
X143.916Y-135.28
X144.737Y-128.525
X144.78Y-104.648
X145.288Y-88.392
X145.288Y-94.119
X145.409Y-95.409
X146.05Y-124.46
X148.336Y-65.024
X149.352Y-74.168
X149.352Y-118.872
X149.841Y-91.406
X150.368Y-116.332
X151.765Y-134.62
X152.4Y-137.795
X152.776Y-116.708
X154.432Y-114.808
X154.838Y-134.518
X154.94Y-97.79
X155.448Y-112.776
X156.21Y-115.57
X159.664Y-126.644
X159.766Y-124.358
X160.325Y-129.489
X162.001Y-127.356
X162.204Y-129.425
X163.576Y-109.728
X163.83Y-128.676
X164.121Y-131.775
X164.135Y-125.691
X164.236Y-123.698
X165.811Y-130.404
X165.964Y-109.626
X166.945Y-120.793
X167.64Y-100.33
X167.64Y-110.744
X168.046Y-109.626
X170.399Y-67.645
X170.815Y-137.16
X171.196Y-113.792
X171.45Y-115.57
X172.085Y-135.89
X172.085Y-141.534
X172.085Y-142.984
X172.212Y-111.252
X173.228Y-108.712
X173.482Y-70.104
X173.731Y-113.787
X173.736Y-117.348
X175.768Y-113.284
X179.705Y-140.335
X180.594Y-73.66
X181.61Y-146.05
X189.23Y-100.33
T2
X36.83Y-50.8
X36.83Y-54.61
X36.83Y-60.96
X39.37Y-50.8
X39.37Y-54.61
X39.37Y-60.96
X41.91Y-50.8
X41.91Y-54.61
X41.91Y-60.96
X46.99Y-50.8
X46.99Y-54.61
X46.99Y-60.96
X49.53Y-50.8
X49.53Y-54.61
X49.53Y-60.96
X52.07Y-50.8
X52.07Y-54.61
X52.07Y-60.96
X57.15Y-50.8
X57.15Y-54.61
X57.15Y-60.96
X59.69Y-50.8
X59.69Y-54.61
X59.69Y-60.96
X62.23Y-50.8
X62.23Y-54.61
X62.23Y-60.96
X67.31Y-50.8
X67.31Y-54.61
X67.31Y-60.96
X69.85Y-50.8
X69.85Y-54.61
X69.85Y-60.96
X72.39Y-50.8
X72.39Y-54.61
X72.39Y-60.96
X168.275Y-149.86
X168.275Y-153.67
X168.275Y-157.48
X168.275Y-161.29
X170.815Y-149.86
X170.815Y-153.67
X170.815Y-157.48
X170.815Y-161.29
X178.537Y-81.915
X178.537Y-84.455
X178.537Y-92.71
X178.537Y-95.25
X178.537Y-103.505
X178.537Y-106.045
X178.537Y-114.3
X178.537Y-116.84
X181.077Y-81.915
X181.077Y-84.455
X181.077Y-92.71
X181.077Y-95.25
X181.077Y-103.505
X181.077Y-106.045
X181.077Y-114.3
X181.077Y-116.84
X183.617Y-81.915
X183.617Y-84.455
X183.617Y-92.71
X183.617Y-95.25
X183.617Y-103.505
X183.617Y-106.045
X183.617Y-114.3
X183.617Y-116.84
X186.157Y-81.915
X186.157Y-84.455
X186.157Y-92.71
X186.157Y-95.25
X186.157Y-103.505
X186.157Y-106.045
X186.157Y-114.3
X186.157Y-116.84
X188.697Y-81.915
X188.697Y-84.455
X188.697Y-92.71
X188.697Y-95.25
X188.697Y-103.505
X188.697Y-106.045
X188.697Y-114.3
X188.697Y-116.84
T3
X37.465Y-44.45
X38.1Y-91.425
X38.1Y-94.925
X38.1Y-98.425
X38.1Y-104.125
X38.1Y-107.625
X38.1Y-111.125
X38.1Y-116.825
X38.1Y-120.325
X38.1Y-123.825
X38.1Y-129.85
X38.1Y-133.35
X38.1Y-136.85
X38.1Y-146.685
X38.1Y-150.185
X38.1Y-153.685
X38.1Y-157.185
X40.965Y-44.45
X47.3Y-44.45
X50.8Y-44.45
X57.46Y-44.45
X60.579Y-154.94
X60.96Y-44.45
X64.079Y-154.94
X67.579Y-154.94
X67.62Y-44.45
X71.079Y-154.94
X71.12Y-44.45
X74.579Y-154.94
X78.079Y-154.94
X78.994Y-44.45
X82.494Y-44.45
X85.994Y-44.45
X91.694Y-44.45
X93.752Y-154.94
X95.194Y-44.45
X97.252Y-154.94
X98.694Y-44.45
X100.752Y-154.94
X104.252Y-154.94
X104.394Y-44.45
X107.752Y-154.94
X107.894Y-44.45
X111.252Y-154.94
X111.394Y-44.45
X114.752Y-154.94
X117.094Y-44.45
X118.252Y-154.94
X120.594Y-44.45
X121.752Y-154.94
X124.094Y-44.45
X129.794Y-44.45
X130.47Y-154.94
X133.294Y-44.45
X133.97Y-154.94
X136.794Y-44.45
X137.47Y-154.94
X140.97Y-154.94
X142.494Y-44.45
X144.47Y-154.94
X145.994Y-44.45
X147.97Y-154.94
X149.494Y-44.45
X151.47Y-154.94
X154.97Y-154.94
X155.25Y-44.45
X158.47Y-154.94
X158.75Y-44.45
X161.97Y-154.94
X162.25Y-44.45
X168.26Y-44.704
X171.76Y-44.704
X175.26Y-44.704
T4
X48.26Y-155.575
X53.34Y-155.575
X178.816Y-71.12
X178.816Y-76.2
X178.816Y-124.968
X178.816Y-130.048
T5
X24.13Y-29.845
X24.13Y-91.145
X24.13Y-169.345
X80.0Y-105.0
X85.0Y-155.0
X150.0Y-85.0
X185.0Y-30.48
X185.0Y-40.0
X185.0Y-165.0
T0
M30
