M48
; DRILL file {KiCad (5.1.9)-1} date 03/27/21 15:00:25
; FORMAT={-:-/ absolute / metric / decimal}
; #@! TF.CreationDate,2021-03-27T15:00:25-04:00
; #@! TF.GenerationSoftware,Kicad,Pcbnew,(5.1.9)-1
; #@! TF.FileFunction,Plated,1,2,PTH
FMAT,2
METRIC
T1C0.400
T2C1.000
T3C1.100
T4C1.200
T5C1.300
T6C1.500
T7C1.520
T8C2.000
T9C3.200
%
G90
G05
T1
X90.678Y-41.656
X92.71Y-69.85
X95.758Y-73.152
X96.012Y-86.106
X97.282Y-86.36
X104.648Y-73.152
X104.648Y-86.36
X106.172Y-86.36
X109.22Y-69.85
X113.284Y-86.36
X113.538Y-73.152
X115.062Y-86.36
X128.016Y-82.804
X132.08Y-42.926
X143.256Y-40.386
T2
X95.25Y-60.96
X95.25Y-63.5
X95.25Y-66.04
X99.06Y-60.96
X99.06Y-63.5
X99.06Y-66.04
X102.87Y-60.96
X102.87Y-63.5
X102.87Y-66.04
X106.68Y-60.96
X106.68Y-63.5
X106.68Y-66.04
X110.49Y-60.96
X110.49Y-63.5
X110.49Y-66.04
X114.3Y-60.96
X114.3Y-63.5
X114.3Y-66.04
X137.16Y-55.88
X137.16Y-63.5
X144.78Y-55.88
X144.78Y-63.5
X149.86Y-55.88
X149.86Y-63.5
X154.94Y-55.88
X154.94Y-63.5
T3
X80.01Y-59.69
X80.01Y-62.23
X80.01Y-67.31
X80.01Y-69.85
T4
X79.05Y-25.4
X80.01Y-44.76
X80.01Y-48.26
X81.48Y-162.56
X81.48Y-166.06
X82.55Y-25.4
X89.166Y-25.4
X92.666Y-25.4
X99.281Y-25.4
X102.781Y-25.4
X109.397Y-25.4
X112.897Y-25.4
X123.323Y-25.4
X126.823Y-25.4
X133.439Y-25.4
X136.939Y-25.4
X143.554Y-25.4
X147.054Y-25.4
X153.67Y-25.4
X157.17Y-25.4
T5
X81.88Y-151.21
X81.88Y-156.21
X107.95Y-104.14
X107.95Y-111.76
X107.95Y-121.92
X107.95Y-129.54
X107.95Y-137.16
X139.82Y-88.9
X139.82Y-109.2
X139.82Y-114.24
X144.78Y-129.305
X144.78Y-136.925
X144.78Y-147.085
X144.78Y-154.705
X144.78Y-162.325
X147.32Y-88.9
X147.32Y-109.2
X147.32Y-114.24
T6
X104.14Y-163.83
X104.38Y-151.13
X105.41Y-43.18
X119.14Y-163.83
X119.38Y-151.13
X120.41Y-43.18
T7
X81.28Y-101.6
X81.28Y-106.68
X81.28Y-111.76
X81.28Y-124.46
X81.28Y-129.54
X81.28Y-134.62
T8
X125.73Y-143.51
T9
X69.85Y-17.78
X69.85Y-177.8
X165.1Y-17.78
X165.1Y-177.8
T0
M30
