%TF.GenerationSoftware,KiCad,Pcbnew,(5.1.9)-1*%
%TF.CreationDate,2021-03-27T15:00:31-04:00*%
%TF.ProjectId,Power,506f7765-722e-46b6-9963-61645f706362,rev?*%
%TF.SameCoordinates,Original*%
%TF.FileFunction,Paste,Top*%
%TF.FilePolarity,Positive*%
%FSLAX46Y46*%
G04 Gerber Fmt 4.6, Leading zero omitted, Abs format (unit mm)*
G04 Created by KiCad (PCBNEW (5.1.9)-1) date 2021-03-27 15:00:31*
%MOMM*%
%LPD*%
G01*
G04 APERTURE LIST*
%ADD10R,2.500000X1.800000*%
%ADD11R,1.800000X2.500000*%
%ADD12R,3.800000X2.000000*%
%ADD13R,1.500000X2.000000*%
%ADD14R,0.950000X0.900000*%
%ADD15R,0.900000X0.950000*%
G04 APERTURE END LIST*
%TO.C,C1*%
G36*
G01*
X95080000Y-85340000D02*
X95080000Y-84840000D01*
G75*
G02*
X95305000Y-84615000I225000J0D01*
G01*
X95755000Y-84615000D01*
G75*
G02*
X95980000Y-84840000I0J-225000D01*
G01*
X95980000Y-85340000D01*
G75*
G02*
X95755000Y-85565000I-225000J0D01*
G01*
X95305000Y-85565000D01*
G75*
G02*
X95080000Y-85340000I0J225000D01*
G01*
G37*
G36*
G01*
X93530000Y-85340000D02*
X93530000Y-84840000D01*
G75*
G02*
X93755000Y-84615000I225000J0D01*
G01*
X94205000Y-84615000D01*
G75*
G02*
X94430000Y-84840000I0J-225000D01*
G01*
X94430000Y-85340000D01*
G75*
G02*
X94205000Y-85565000I-225000J0D01*
G01*
X93755000Y-85565000D01*
G75*
G02*
X93530000Y-85340000I0J225000D01*
G01*
G37*
%TD*%
%TO.C,C2*%
G36*
G01*
X103970000Y-85340000D02*
X103970000Y-84840000D01*
G75*
G02*
X104195000Y-84615000I225000J0D01*
G01*
X104645000Y-84615000D01*
G75*
G02*
X104870000Y-84840000I0J-225000D01*
G01*
X104870000Y-85340000D01*
G75*
G02*
X104645000Y-85565000I-225000J0D01*
G01*
X104195000Y-85565000D01*
G75*
G02*
X103970000Y-85340000I0J225000D01*
G01*
G37*
G36*
G01*
X102420000Y-85340000D02*
X102420000Y-84840000D01*
G75*
G02*
X102645000Y-84615000I225000J0D01*
G01*
X103095000Y-84615000D01*
G75*
G02*
X103320000Y-84840000I0J-225000D01*
G01*
X103320000Y-85340000D01*
G75*
G02*
X103095000Y-85565000I-225000J0D01*
G01*
X102645000Y-85565000D01*
G75*
G02*
X102420000Y-85340000I0J225000D01*
G01*
G37*
%TD*%
%TO.C,C3*%
G36*
G01*
X111030000Y-85340000D02*
X111030000Y-84840000D01*
G75*
G02*
X111255000Y-84615000I225000J0D01*
G01*
X111705000Y-84615000D01*
G75*
G02*
X111930000Y-84840000I0J-225000D01*
G01*
X111930000Y-85340000D01*
G75*
G02*
X111705000Y-85565000I-225000J0D01*
G01*
X111255000Y-85565000D01*
G75*
G02*
X111030000Y-85340000I0J225000D01*
G01*
G37*
G36*
G01*
X112580000Y-85340000D02*
X112580000Y-84840000D01*
G75*
G02*
X112805000Y-84615000I225000J0D01*
G01*
X113255000Y-84615000D01*
G75*
G02*
X113480000Y-84840000I0J-225000D01*
G01*
X113480000Y-85340000D01*
G75*
G02*
X113255000Y-85565000I-225000J0D01*
G01*
X112805000Y-85565000D01*
G75*
G02*
X112580000Y-85340000I0J225000D01*
G01*
G37*
%TD*%
%TO.C,D1*%
G36*
G01*
X90426250Y-36785000D02*
X89913750Y-36785000D01*
G75*
G02*
X89695000Y-36566250I0J218750D01*
G01*
X89695000Y-36128750D01*
G75*
G02*
X89913750Y-35910000I218750J0D01*
G01*
X90426250Y-35910000D01*
G75*
G02*
X90645000Y-36128750I0J-218750D01*
G01*
X90645000Y-36566250D01*
G75*
G02*
X90426250Y-36785000I-218750J0D01*
G01*
G37*
G36*
G01*
X90426250Y-35210000D02*
X89913750Y-35210000D01*
G75*
G02*
X89695000Y-34991250I0J218750D01*
G01*
X89695000Y-34553750D01*
G75*
G02*
X89913750Y-34335000I218750J0D01*
G01*
X90426250Y-34335000D01*
G75*
G02*
X90645000Y-34553750I0J-218750D01*
G01*
X90645000Y-34991250D01*
G75*
G02*
X90426250Y-35210000I-218750J0D01*
G01*
G37*
%TD*%
%TO.C,D2*%
G36*
G01*
X143766250Y-34727500D02*
X143253750Y-34727500D01*
G75*
G02*
X143035000Y-34508750I0J218750D01*
G01*
X143035000Y-34071250D01*
G75*
G02*
X143253750Y-33852500I218750J0D01*
G01*
X143766250Y-33852500D01*
G75*
G02*
X143985000Y-34071250I0J-218750D01*
G01*
X143985000Y-34508750D01*
G75*
G02*
X143766250Y-34727500I-218750J0D01*
G01*
G37*
G36*
G01*
X143766250Y-36302500D02*
X143253750Y-36302500D01*
G75*
G02*
X143035000Y-36083750I0J218750D01*
G01*
X143035000Y-35646250D01*
G75*
G02*
X143253750Y-35427500I218750J0D01*
G01*
X143766250Y-35427500D01*
G75*
G02*
X143985000Y-35646250I0J-218750D01*
G01*
X143985000Y-36083750D01*
G75*
G02*
X143766250Y-36302500I-218750J0D01*
G01*
G37*
%TD*%
D10*
%TO.C,D3*%
X139700000Y-71120000D03*
X143700000Y-71120000D03*
%TD*%
D11*
%TO.C,D4*%
X132842000Y-56642000D03*
X132842000Y-52642000D03*
%TD*%
D10*
%TO.C,D5*%
X138176000Y-83566000D03*
X142176000Y-83566000D03*
%TD*%
D11*
%TO.C,D6*%
X137160000Y-50990000D03*
X137160000Y-46990000D03*
%TD*%
%TO.C,D7*%
G36*
G01*
X130553750Y-47822500D02*
X131066250Y-47822500D01*
G75*
G02*
X131285000Y-48041250I0J-218750D01*
G01*
X131285000Y-48478750D01*
G75*
G02*
X131066250Y-48697500I-218750J0D01*
G01*
X130553750Y-48697500D01*
G75*
G02*
X130335000Y-48478750I0J218750D01*
G01*
X130335000Y-48041250D01*
G75*
G02*
X130553750Y-47822500I218750J0D01*
G01*
G37*
G36*
G01*
X130553750Y-46247500D02*
X131066250Y-46247500D01*
G75*
G02*
X131285000Y-46466250I0J-218750D01*
G01*
X131285000Y-46903750D01*
G75*
G02*
X131066250Y-47122500I-218750J0D01*
G01*
X130553750Y-47122500D01*
G75*
G02*
X130335000Y-46903750I0J218750D01*
G01*
X130335000Y-46466250D01*
G75*
G02*
X130553750Y-46247500I218750J0D01*
G01*
G37*
%TD*%
%TO.C,D8*%
G36*
G01*
X135362500Y-82293750D02*
X135362500Y-82806250D01*
G75*
G02*
X135143750Y-83025000I-218750J0D01*
G01*
X134706250Y-83025000D01*
G75*
G02*
X134487500Y-82806250I0J218750D01*
G01*
X134487500Y-82293750D01*
G75*
G02*
X134706250Y-82075000I218750J0D01*
G01*
X135143750Y-82075000D01*
G75*
G02*
X135362500Y-82293750I0J-218750D01*
G01*
G37*
G36*
G01*
X133787500Y-82293750D02*
X133787500Y-82806250D01*
G75*
G02*
X133568750Y-83025000I-218750J0D01*
G01*
X133131250Y-83025000D01*
G75*
G02*
X132912500Y-82806250I0J218750D01*
G01*
X132912500Y-82293750D01*
G75*
G02*
X133131250Y-82075000I218750J0D01*
G01*
X133568750Y-82075000D01*
G75*
G02*
X133787500Y-82293750I0J-218750D01*
G01*
G37*
%TD*%
%TO.C,R1*%
G36*
G01*
X89895000Y-40240000D02*
X90445000Y-40240000D01*
G75*
G02*
X90645000Y-40440000I0J-200000D01*
G01*
X90645000Y-40840000D01*
G75*
G02*
X90445000Y-41040000I-200000J0D01*
G01*
X89895000Y-41040000D01*
G75*
G02*
X89695000Y-40840000I0J200000D01*
G01*
X89695000Y-40440000D01*
G75*
G02*
X89895000Y-40240000I200000J0D01*
G01*
G37*
G36*
G01*
X89895000Y-38590000D02*
X90445000Y-38590000D01*
G75*
G02*
X90645000Y-38790000I0J-200000D01*
G01*
X90645000Y-39190000D01*
G75*
G02*
X90445000Y-39390000I-200000J0D01*
G01*
X89895000Y-39390000D01*
G75*
G02*
X89695000Y-39190000I0J200000D01*
G01*
X89695000Y-38790000D01*
G75*
G02*
X89895000Y-38590000I200000J0D01*
G01*
G37*
%TD*%
%TO.C,R2*%
G36*
G01*
X143235000Y-37320000D02*
X143785000Y-37320000D01*
G75*
G02*
X143985000Y-37520000I0J-200000D01*
G01*
X143985000Y-37920000D01*
G75*
G02*
X143785000Y-38120000I-200000J0D01*
G01*
X143235000Y-38120000D01*
G75*
G02*
X143035000Y-37920000I0J200000D01*
G01*
X143035000Y-37520000D01*
G75*
G02*
X143235000Y-37320000I200000J0D01*
G01*
G37*
G36*
G01*
X143235000Y-38970000D02*
X143785000Y-38970000D01*
G75*
G02*
X143985000Y-39170000I0J-200000D01*
G01*
X143985000Y-39570000D01*
G75*
G02*
X143785000Y-39770000I-200000J0D01*
G01*
X143235000Y-39770000D01*
G75*
G02*
X143035000Y-39570000I0J200000D01*
G01*
X143035000Y-39170000D01*
G75*
G02*
X143235000Y-38970000I200000J0D01*
G01*
G37*
%TD*%
%TO.C,R3*%
G36*
G01*
X131085000Y-43580000D02*
X130535000Y-43580000D01*
G75*
G02*
X130335000Y-43380000I0J200000D01*
G01*
X130335000Y-42980000D01*
G75*
G02*
X130535000Y-42780000I200000J0D01*
G01*
X131085000Y-42780000D01*
G75*
G02*
X131285000Y-42980000I0J-200000D01*
G01*
X131285000Y-43380000D01*
G75*
G02*
X131085000Y-43580000I-200000J0D01*
G01*
G37*
G36*
G01*
X131085000Y-45230000D02*
X130535000Y-45230000D01*
G75*
G02*
X130335000Y-45030000I0J200000D01*
G01*
X130335000Y-44630000D01*
G75*
G02*
X130535000Y-44430000I200000J0D01*
G01*
X131085000Y-44430000D01*
G75*
G02*
X131285000Y-44630000I0J-200000D01*
G01*
X131285000Y-45030000D01*
G75*
G02*
X131085000Y-45230000I-200000J0D01*
G01*
G37*
%TD*%
%TO.C,R4*%
G36*
G01*
X131210000Y-82275000D02*
X131210000Y-82825000D01*
G75*
G02*
X131010000Y-83025000I-200000J0D01*
G01*
X130610000Y-83025000D01*
G75*
G02*
X130410000Y-82825000I0J200000D01*
G01*
X130410000Y-82275000D01*
G75*
G02*
X130610000Y-82075000I200000J0D01*
G01*
X131010000Y-82075000D01*
G75*
G02*
X131210000Y-82275000I0J-200000D01*
G01*
G37*
G36*
G01*
X129560000Y-82275000D02*
X129560000Y-82825000D01*
G75*
G02*
X129360000Y-83025000I-200000J0D01*
G01*
X128960000Y-83025000D01*
G75*
G02*
X128760000Y-82825000I0J200000D01*
G01*
X128760000Y-82275000D01*
G75*
G02*
X128960000Y-82075000I200000J0D01*
G01*
X129360000Y-82075000D01*
G75*
G02*
X129560000Y-82275000I0J-200000D01*
G01*
G37*
%TD*%
%TO.C,U2*%
G36*
G01*
X96075000Y-49380000D02*
X96075000Y-49680000D01*
G75*
G02*
X95925000Y-49830000I-150000J0D01*
G01*
X94575000Y-49830000D01*
G75*
G02*
X94425000Y-49680000I0J150000D01*
G01*
X94425000Y-49380000D01*
G75*
G02*
X94575000Y-49230000I150000J0D01*
G01*
X95925000Y-49230000D01*
G75*
G02*
X96075000Y-49380000I0J-150000D01*
G01*
G37*
G36*
G01*
X96075000Y-48110000D02*
X96075000Y-48410000D01*
G75*
G02*
X95925000Y-48560000I-150000J0D01*
G01*
X94575000Y-48560000D01*
G75*
G02*
X94425000Y-48410000I0J150000D01*
G01*
X94425000Y-48110000D01*
G75*
G02*
X94575000Y-47960000I150000J0D01*
G01*
X95925000Y-47960000D01*
G75*
G02*
X96075000Y-48110000I0J-150000D01*
G01*
G37*
G36*
G01*
X96075000Y-46840000D02*
X96075000Y-47140000D01*
G75*
G02*
X95925000Y-47290000I-150000J0D01*
G01*
X94575000Y-47290000D01*
G75*
G02*
X94425000Y-47140000I0J150000D01*
G01*
X94425000Y-46840000D01*
G75*
G02*
X94575000Y-46690000I150000J0D01*
G01*
X95925000Y-46690000D01*
G75*
G02*
X96075000Y-46840000I0J-150000D01*
G01*
G37*
G36*
G01*
X96075000Y-45570000D02*
X96075000Y-45870000D01*
G75*
G02*
X95925000Y-46020000I-150000J0D01*
G01*
X94575000Y-46020000D01*
G75*
G02*
X94425000Y-45870000I0J150000D01*
G01*
X94425000Y-45570000D01*
G75*
G02*
X94575000Y-45420000I150000J0D01*
G01*
X95925000Y-45420000D01*
G75*
G02*
X96075000Y-45570000I0J-150000D01*
G01*
G37*
G36*
G01*
X90825000Y-45570000D02*
X90825000Y-45870000D01*
G75*
G02*
X90675000Y-46020000I-150000J0D01*
G01*
X89325000Y-46020000D01*
G75*
G02*
X89175000Y-45870000I0J150000D01*
G01*
X89175000Y-45570000D01*
G75*
G02*
X89325000Y-45420000I150000J0D01*
G01*
X90675000Y-45420000D01*
G75*
G02*
X90825000Y-45570000I0J-150000D01*
G01*
G37*
G36*
G01*
X90825000Y-46840000D02*
X90825000Y-47140000D01*
G75*
G02*
X90675000Y-47290000I-150000J0D01*
G01*
X89325000Y-47290000D01*
G75*
G02*
X89175000Y-47140000I0J150000D01*
G01*
X89175000Y-46840000D01*
G75*
G02*
X89325000Y-46690000I150000J0D01*
G01*
X90675000Y-46690000D01*
G75*
G02*
X90825000Y-46840000I0J-150000D01*
G01*
G37*
G36*
G01*
X90825000Y-48110000D02*
X90825000Y-48410000D01*
G75*
G02*
X90675000Y-48560000I-150000J0D01*
G01*
X89325000Y-48560000D01*
G75*
G02*
X89175000Y-48410000I0J150000D01*
G01*
X89175000Y-48110000D01*
G75*
G02*
X89325000Y-47960000I150000J0D01*
G01*
X90675000Y-47960000D01*
G75*
G02*
X90825000Y-48110000I0J-150000D01*
G01*
G37*
G36*
G01*
X90825000Y-49380000D02*
X90825000Y-49680000D01*
G75*
G02*
X90675000Y-49830000I-150000J0D01*
G01*
X89325000Y-49830000D01*
G75*
G02*
X89175000Y-49680000I0J150000D01*
G01*
X89175000Y-49380000D01*
G75*
G02*
X89325000Y-49230000I150000J0D01*
G01*
X90675000Y-49230000D01*
G75*
G02*
X90825000Y-49380000I0J-150000D01*
G01*
G37*
%TD*%
D12*
%TO.C,U3*%
X96520000Y-74930000D03*
D13*
X96520000Y-81230000D03*
X98820000Y-81230000D03*
X94220000Y-81230000D03*
%TD*%
D12*
%TO.C,U4*%
X105410000Y-74930000D03*
D13*
X105410000Y-81230000D03*
X107710000Y-81230000D03*
X103110000Y-81230000D03*
%TD*%
%TO.C,U5*%
X112000000Y-81280000D03*
X116600000Y-81280000D03*
X114300000Y-81280000D03*
D12*
X114300000Y-74980000D03*
%TD*%
D14*
%TO.C,Z1*%
X132842000Y-63602000D03*
X132842000Y-60452000D03*
%TD*%
D15*
%TO.C,Z2*%
X146050000Y-83566000D03*
X149200000Y-83566000D03*
%TD*%
%TO.C,C4*%
G36*
G01*
X99735000Y-84615000D02*
X99735000Y-85565000D01*
G75*
G02*
X99485000Y-85815000I-250000J0D01*
G01*
X98985000Y-85815000D01*
G75*
G02*
X98735000Y-85565000I0J250000D01*
G01*
X98735000Y-84615000D01*
G75*
G02*
X98985000Y-84365000I250000J0D01*
G01*
X99485000Y-84365000D01*
G75*
G02*
X99735000Y-84615000I0J-250000D01*
G01*
G37*
G36*
G01*
X97835000Y-84615000D02*
X97835000Y-85565000D01*
G75*
G02*
X97585000Y-85815000I-250000J0D01*
G01*
X97085000Y-85815000D01*
G75*
G02*
X96835000Y-85565000I0J250000D01*
G01*
X96835000Y-84615000D01*
G75*
G02*
X97085000Y-84365000I250000J0D01*
G01*
X97585000Y-84365000D01*
G75*
G02*
X97835000Y-84615000I0J-250000D01*
G01*
G37*
%TD*%
%TO.C,C5*%
G36*
G01*
X106725000Y-84615000D02*
X106725000Y-85565000D01*
G75*
G02*
X106475000Y-85815000I-250000J0D01*
G01*
X105975000Y-85815000D01*
G75*
G02*
X105725000Y-85565000I0J250000D01*
G01*
X105725000Y-84615000D01*
G75*
G02*
X105975000Y-84365000I250000J0D01*
G01*
X106475000Y-84365000D01*
G75*
G02*
X106725000Y-84615000I0J-250000D01*
G01*
G37*
G36*
G01*
X108625000Y-84615000D02*
X108625000Y-85565000D01*
G75*
G02*
X108375000Y-85815000I-250000J0D01*
G01*
X107875000Y-85815000D01*
G75*
G02*
X107625000Y-85565000I0J250000D01*
G01*
X107625000Y-84615000D01*
G75*
G02*
X107875000Y-84365000I250000J0D01*
G01*
X108375000Y-84365000D01*
G75*
G02*
X108625000Y-84615000I0J-250000D01*
G01*
G37*
%TD*%
%TO.C,C6*%
G36*
G01*
X117795000Y-84615000D02*
X117795000Y-85565000D01*
G75*
G02*
X117545000Y-85815000I-250000J0D01*
G01*
X117045000Y-85815000D01*
G75*
G02*
X116795000Y-85565000I0J250000D01*
G01*
X116795000Y-84615000D01*
G75*
G02*
X117045000Y-84365000I250000J0D01*
G01*
X117545000Y-84365000D01*
G75*
G02*
X117795000Y-84615000I0J-250000D01*
G01*
G37*
G36*
G01*
X115895000Y-84615000D02*
X115895000Y-85565000D01*
G75*
G02*
X115645000Y-85815000I-250000J0D01*
G01*
X115145000Y-85815000D01*
G75*
G02*
X114895000Y-85565000I0J250000D01*
G01*
X114895000Y-84615000D01*
G75*
G02*
X115145000Y-84365000I250000J0D01*
G01*
X115645000Y-84365000D01*
G75*
G02*
X115895000Y-84615000I0J-250000D01*
G01*
G37*
%TD*%
M02*
