%TF.GenerationSoftware,KiCad,Pcbnew,(5.1.9)-1*%
%TF.CreationDate,2021-03-27T15:00:32-04:00*%
%TF.ProjectId,Power,506f7765-722e-46b6-9963-61645f706362,rev?*%
%TF.SameCoordinates,Original*%
%TF.FileFunction,Soldermask,Top*%
%TF.FilePolarity,Negative*%
%FSLAX46Y46*%
G04 Gerber Fmt 4.6, Leading zero omitted, Abs format (unit mm)*
G04 Created by KiCad (PCBNEW (5.1.9)-1) date 2021-03-27 15:00:32*
%MOMM*%
%LPD*%
G01*
G04 APERTURE LIST*
%ADD10C,6.400000*%
%ADD11C,3.200000*%
%ADD12R,2.500000X1.800000*%
%ADD13R,1.800000X2.500000*%
%ADD14C,2.500000*%
%ADD15C,3.000000*%
%ADD16R,3.000000X3.000000*%
%ADD17R,2.500000X2.500000*%
%ADD18R,2.300000X2.300000*%
%ADD19C,2.300000*%
%ADD20C,1.100000*%
%ADD21C,2.200000*%
%ADD22R,2.200000X2.200000*%
%ADD23R,1.700000X1.700000*%
%ADD24O,1.700000X1.700000*%
%ADD25R,2.000000X3.000000*%
%ADD26O,2.000000X3.000000*%
%ADD27O,3.000000X2.000000*%
%ADD28R,3.800000X2.000000*%
%ADD29R,1.500000X2.000000*%
%ADD30R,2.000000X2.000000*%
%ADD31C,2.000000*%
%ADD32R,0.950000X0.900000*%
%ADD33R,0.900000X0.950000*%
G04 APERTURE END LIST*
D10*
%TO.C,H4*%
X165100000Y-177800000D03*
%TD*%
D11*
%TO.C,REF\u002A\u002A*%
X154940000Y-175260000D03*
%TD*%
%TO.C,REF\u002A\u002A*%
X84940000Y-175260000D03*
%TD*%
%TO.C,REF\u002A\u002A*%
X84940000Y-90260000D03*
%TD*%
%TO.C,REF\u002A\u002A*%
X154940000Y-90260000D03*
%TD*%
%TO.C,C1*%
G36*
G01*
X95080000Y-85340000D02*
X95080000Y-84840000D01*
G75*
G02*
X95305000Y-84615000I225000J0D01*
G01*
X95755000Y-84615000D01*
G75*
G02*
X95980000Y-84840000I0J-225000D01*
G01*
X95980000Y-85340000D01*
G75*
G02*
X95755000Y-85565000I-225000J0D01*
G01*
X95305000Y-85565000D01*
G75*
G02*
X95080000Y-85340000I0J225000D01*
G01*
G37*
G36*
G01*
X93530000Y-85340000D02*
X93530000Y-84840000D01*
G75*
G02*
X93755000Y-84615000I225000J0D01*
G01*
X94205000Y-84615000D01*
G75*
G02*
X94430000Y-84840000I0J-225000D01*
G01*
X94430000Y-85340000D01*
G75*
G02*
X94205000Y-85565000I-225000J0D01*
G01*
X93755000Y-85565000D01*
G75*
G02*
X93530000Y-85340000I0J225000D01*
G01*
G37*
%TD*%
%TO.C,C2*%
G36*
G01*
X103970000Y-85340000D02*
X103970000Y-84840000D01*
G75*
G02*
X104195000Y-84615000I225000J0D01*
G01*
X104645000Y-84615000D01*
G75*
G02*
X104870000Y-84840000I0J-225000D01*
G01*
X104870000Y-85340000D01*
G75*
G02*
X104645000Y-85565000I-225000J0D01*
G01*
X104195000Y-85565000D01*
G75*
G02*
X103970000Y-85340000I0J225000D01*
G01*
G37*
G36*
G01*
X102420000Y-85340000D02*
X102420000Y-84840000D01*
G75*
G02*
X102645000Y-84615000I225000J0D01*
G01*
X103095000Y-84615000D01*
G75*
G02*
X103320000Y-84840000I0J-225000D01*
G01*
X103320000Y-85340000D01*
G75*
G02*
X103095000Y-85565000I-225000J0D01*
G01*
X102645000Y-85565000D01*
G75*
G02*
X102420000Y-85340000I0J225000D01*
G01*
G37*
%TD*%
%TO.C,C3*%
G36*
G01*
X111030000Y-85340000D02*
X111030000Y-84840000D01*
G75*
G02*
X111255000Y-84615000I225000J0D01*
G01*
X111705000Y-84615000D01*
G75*
G02*
X111930000Y-84840000I0J-225000D01*
G01*
X111930000Y-85340000D01*
G75*
G02*
X111705000Y-85565000I-225000J0D01*
G01*
X111255000Y-85565000D01*
G75*
G02*
X111030000Y-85340000I0J225000D01*
G01*
G37*
G36*
G01*
X112580000Y-85340000D02*
X112580000Y-84840000D01*
G75*
G02*
X112805000Y-84615000I225000J0D01*
G01*
X113255000Y-84615000D01*
G75*
G02*
X113480000Y-84840000I0J-225000D01*
G01*
X113480000Y-85340000D01*
G75*
G02*
X113255000Y-85565000I-225000J0D01*
G01*
X112805000Y-85565000D01*
G75*
G02*
X112580000Y-85340000I0J225000D01*
G01*
G37*
%TD*%
%TO.C,D1*%
G36*
G01*
X90426250Y-36785000D02*
X89913750Y-36785000D01*
G75*
G02*
X89695000Y-36566250I0J218750D01*
G01*
X89695000Y-36128750D01*
G75*
G02*
X89913750Y-35910000I218750J0D01*
G01*
X90426250Y-35910000D01*
G75*
G02*
X90645000Y-36128750I0J-218750D01*
G01*
X90645000Y-36566250D01*
G75*
G02*
X90426250Y-36785000I-218750J0D01*
G01*
G37*
G36*
G01*
X90426250Y-35210000D02*
X89913750Y-35210000D01*
G75*
G02*
X89695000Y-34991250I0J218750D01*
G01*
X89695000Y-34553750D01*
G75*
G02*
X89913750Y-34335000I218750J0D01*
G01*
X90426250Y-34335000D01*
G75*
G02*
X90645000Y-34553750I0J-218750D01*
G01*
X90645000Y-34991250D01*
G75*
G02*
X90426250Y-35210000I-218750J0D01*
G01*
G37*
%TD*%
%TO.C,D2*%
G36*
G01*
X143766250Y-34727500D02*
X143253750Y-34727500D01*
G75*
G02*
X143035000Y-34508750I0J218750D01*
G01*
X143035000Y-34071250D01*
G75*
G02*
X143253750Y-33852500I218750J0D01*
G01*
X143766250Y-33852500D01*
G75*
G02*
X143985000Y-34071250I0J-218750D01*
G01*
X143985000Y-34508750D01*
G75*
G02*
X143766250Y-34727500I-218750J0D01*
G01*
G37*
G36*
G01*
X143766250Y-36302500D02*
X143253750Y-36302500D01*
G75*
G02*
X143035000Y-36083750I0J218750D01*
G01*
X143035000Y-35646250D01*
G75*
G02*
X143253750Y-35427500I218750J0D01*
G01*
X143766250Y-35427500D01*
G75*
G02*
X143985000Y-35646250I0J-218750D01*
G01*
X143985000Y-36083750D01*
G75*
G02*
X143766250Y-36302500I-218750J0D01*
G01*
G37*
%TD*%
D12*
%TO.C,D3*%
X139700000Y-71120000D03*
X143700000Y-71120000D03*
%TD*%
D13*
%TO.C,D4*%
X132842000Y-56642000D03*
X132842000Y-52642000D03*
%TD*%
D12*
%TO.C,D5*%
X138176000Y-83566000D03*
X142176000Y-83566000D03*
%TD*%
D13*
%TO.C,D6*%
X137160000Y-50990000D03*
X137160000Y-46990000D03*
%TD*%
%TO.C,D7*%
G36*
G01*
X130553750Y-47822500D02*
X131066250Y-47822500D01*
G75*
G02*
X131285000Y-48041250I0J-218750D01*
G01*
X131285000Y-48478750D01*
G75*
G02*
X131066250Y-48697500I-218750J0D01*
G01*
X130553750Y-48697500D01*
G75*
G02*
X130335000Y-48478750I0J218750D01*
G01*
X130335000Y-48041250D01*
G75*
G02*
X130553750Y-47822500I218750J0D01*
G01*
G37*
G36*
G01*
X130553750Y-46247500D02*
X131066250Y-46247500D01*
G75*
G02*
X131285000Y-46466250I0J-218750D01*
G01*
X131285000Y-46903750D01*
G75*
G02*
X131066250Y-47122500I-218750J0D01*
G01*
X130553750Y-47122500D01*
G75*
G02*
X130335000Y-46903750I0J218750D01*
G01*
X130335000Y-46466250D01*
G75*
G02*
X130553750Y-46247500I218750J0D01*
G01*
G37*
%TD*%
%TO.C,D8*%
G36*
G01*
X135362500Y-82293750D02*
X135362500Y-82806250D01*
G75*
G02*
X135143750Y-83025000I-218750J0D01*
G01*
X134706250Y-83025000D01*
G75*
G02*
X134487500Y-82806250I0J218750D01*
G01*
X134487500Y-82293750D01*
G75*
G02*
X134706250Y-82075000I218750J0D01*
G01*
X135143750Y-82075000D01*
G75*
G02*
X135362500Y-82293750I0J-218750D01*
G01*
G37*
G36*
G01*
X133787500Y-82293750D02*
X133787500Y-82806250D01*
G75*
G02*
X133568750Y-83025000I-218750J0D01*
G01*
X133131250Y-83025000D01*
G75*
G02*
X132912500Y-82806250I0J218750D01*
G01*
X132912500Y-82293750D01*
G75*
G02*
X133131250Y-82075000I218750J0D01*
G01*
X133568750Y-82075000D01*
G75*
G02*
X133787500Y-82293750I0J-218750D01*
G01*
G37*
%TD*%
D14*
%TO.C,FL1*%
X107950000Y-104140000D03*
X107950000Y-111760000D03*
X107950000Y-121920000D03*
X107950000Y-129540000D03*
G36*
G01*
X109200000Y-136535000D02*
X109200000Y-137785000D01*
G75*
G02*
X108575000Y-138410000I-625000J0D01*
G01*
X107325000Y-138410000D01*
G75*
G02*
X106700000Y-137785000I0J625000D01*
G01*
X106700000Y-136535000D01*
G75*
G02*
X107325000Y-135910000I625000J0D01*
G01*
X108575000Y-135910000D01*
G75*
G02*
X109200000Y-136535000I0J-625000D01*
G01*
G37*
%TD*%
%TO.C,FL2*%
G36*
G01*
X146030000Y-161700000D02*
X146030000Y-162950000D01*
G75*
G02*
X145405000Y-163575000I-625000J0D01*
G01*
X144155000Y-163575000D01*
G75*
G02*
X143530000Y-162950000I0J625000D01*
G01*
X143530000Y-161700000D01*
G75*
G02*
X144155000Y-161075000I625000J0D01*
G01*
X145405000Y-161075000D01*
G75*
G02*
X146030000Y-161700000I0J-625000D01*
G01*
G37*
X144780000Y-154705000D03*
X144780000Y-147085000D03*
X144780000Y-136925000D03*
X144780000Y-129305000D03*
%TD*%
D15*
%TO.C,J1*%
X81280000Y-111760000D03*
X81280000Y-106680000D03*
D16*
X81280000Y-101600000D03*
%TD*%
%TO.C,J2*%
X81280000Y-124460000D03*
D15*
X81280000Y-129540000D03*
X81280000Y-134620000D03*
%TD*%
D17*
%TO.C,J3*%
X81880000Y-156210000D03*
D14*
X81880000Y-151210000D03*
%TD*%
D18*
%TO.C,J4*%
X81480000Y-162560000D03*
D19*
X81480000Y-166060000D03*
%TD*%
%TO.C,J5*%
X79050000Y-25400000D03*
D18*
X82550000Y-25400000D03*
%TD*%
D19*
%TO.C,J6*%
X80010000Y-44760000D03*
D18*
X80010000Y-48260000D03*
%TD*%
D20*
%TO.C,J7*%
X77470000Y-62230000D03*
D21*
X80010000Y-62230000D03*
D20*
X77470000Y-59690000D03*
D22*
X80010000Y-59690000D03*
%TD*%
%TO.C,J8*%
X80010000Y-67310000D03*
D20*
X77470000Y-67310000D03*
D21*
X80010000Y-69850000D03*
D20*
X77470000Y-69850000D03*
%TD*%
D18*
%TO.C,J9*%
X92665714Y-25400000D03*
D19*
X89165714Y-25400000D03*
%TD*%
D18*
%TO.C,J10*%
X102781428Y-25400000D03*
D19*
X99281428Y-25400000D03*
%TD*%
%TO.C,J11*%
X109397142Y-25400000D03*
D18*
X112897142Y-25400000D03*
%TD*%
D19*
%TO.C,J12*%
X123322856Y-25400000D03*
D18*
X126822856Y-25400000D03*
%TD*%
%TO.C,J13*%
X136938570Y-25400000D03*
D19*
X133438570Y-25400000D03*
%TD*%
%TO.C,J14*%
X143554284Y-25400000D03*
D18*
X147054284Y-25400000D03*
%TD*%
%TO.C,J15*%
X157170000Y-25400000D03*
D19*
X153670000Y-25400000D03*
%TD*%
D23*
%TO.C,JP1*%
X95250000Y-66040000D03*
D24*
X95250000Y-63500000D03*
X95250000Y-60960000D03*
%TD*%
%TO.C,JP2*%
X99060000Y-60960000D03*
X99060000Y-63500000D03*
D23*
X99060000Y-66040000D03*
%TD*%
%TO.C,JP3*%
X102870000Y-66040000D03*
D24*
X102870000Y-63500000D03*
X102870000Y-60960000D03*
%TD*%
%TO.C,JP4*%
X106680000Y-60960000D03*
X106680000Y-63500000D03*
D23*
X106680000Y-66040000D03*
%TD*%
D24*
%TO.C,JP5*%
X110490000Y-60960000D03*
X110490000Y-63500000D03*
D23*
X110490000Y-66040000D03*
%TD*%
%TO.C,JP6*%
X114300000Y-66040000D03*
D24*
X114300000Y-63500000D03*
X114300000Y-60960000D03*
%TD*%
D25*
%TO.C,K1*%
X139820000Y-88900000D03*
D26*
X147320000Y-88900000D03*
D27*
X139820000Y-109200000D03*
X147320000Y-114240000D03*
X147320000Y-109200000D03*
X139820000Y-114240000D03*
%TD*%
%TO.C,R1*%
G36*
G01*
X89895000Y-40240000D02*
X90445000Y-40240000D01*
G75*
G02*
X90645000Y-40440000I0J-200000D01*
G01*
X90645000Y-40840000D01*
G75*
G02*
X90445000Y-41040000I-200000J0D01*
G01*
X89895000Y-41040000D01*
G75*
G02*
X89695000Y-40840000I0J200000D01*
G01*
X89695000Y-40440000D01*
G75*
G02*
X89895000Y-40240000I200000J0D01*
G01*
G37*
G36*
G01*
X89895000Y-38590000D02*
X90445000Y-38590000D01*
G75*
G02*
X90645000Y-38790000I0J-200000D01*
G01*
X90645000Y-39190000D01*
G75*
G02*
X90445000Y-39390000I-200000J0D01*
G01*
X89895000Y-39390000D01*
G75*
G02*
X89695000Y-39190000I0J200000D01*
G01*
X89695000Y-38790000D01*
G75*
G02*
X89895000Y-38590000I200000J0D01*
G01*
G37*
%TD*%
%TO.C,R2*%
G36*
G01*
X143235000Y-37320000D02*
X143785000Y-37320000D01*
G75*
G02*
X143985000Y-37520000I0J-200000D01*
G01*
X143985000Y-37920000D01*
G75*
G02*
X143785000Y-38120000I-200000J0D01*
G01*
X143235000Y-38120000D01*
G75*
G02*
X143035000Y-37920000I0J200000D01*
G01*
X143035000Y-37520000D01*
G75*
G02*
X143235000Y-37320000I200000J0D01*
G01*
G37*
G36*
G01*
X143235000Y-38970000D02*
X143785000Y-38970000D01*
G75*
G02*
X143985000Y-39170000I0J-200000D01*
G01*
X143985000Y-39570000D01*
G75*
G02*
X143785000Y-39770000I-200000J0D01*
G01*
X143235000Y-39770000D01*
G75*
G02*
X143035000Y-39570000I0J200000D01*
G01*
X143035000Y-39170000D01*
G75*
G02*
X143235000Y-38970000I200000J0D01*
G01*
G37*
%TD*%
%TO.C,R3*%
G36*
G01*
X131085000Y-43580000D02*
X130535000Y-43580000D01*
G75*
G02*
X130335000Y-43380000I0J200000D01*
G01*
X130335000Y-42980000D01*
G75*
G02*
X130535000Y-42780000I200000J0D01*
G01*
X131085000Y-42780000D01*
G75*
G02*
X131285000Y-42980000I0J-200000D01*
G01*
X131285000Y-43380000D01*
G75*
G02*
X131085000Y-43580000I-200000J0D01*
G01*
G37*
G36*
G01*
X131085000Y-45230000D02*
X130535000Y-45230000D01*
G75*
G02*
X130335000Y-45030000I0J200000D01*
G01*
X130335000Y-44630000D01*
G75*
G02*
X130535000Y-44430000I200000J0D01*
G01*
X131085000Y-44430000D01*
G75*
G02*
X131285000Y-44630000I0J-200000D01*
G01*
X131285000Y-45030000D01*
G75*
G02*
X131085000Y-45230000I-200000J0D01*
G01*
G37*
%TD*%
%TO.C,R4*%
G36*
G01*
X131210000Y-82275000D02*
X131210000Y-82825000D01*
G75*
G02*
X131010000Y-83025000I-200000J0D01*
G01*
X130610000Y-83025000D01*
G75*
G02*
X130410000Y-82825000I0J200000D01*
G01*
X130410000Y-82275000D01*
G75*
G02*
X130610000Y-82075000I200000J0D01*
G01*
X131010000Y-82075000D01*
G75*
G02*
X131210000Y-82275000I0J-200000D01*
G01*
G37*
G36*
G01*
X129560000Y-82275000D02*
X129560000Y-82825000D01*
G75*
G02*
X129360000Y-83025000I-200000J0D01*
G01*
X128960000Y-83025000D01*
G75*
G02*
X128760000Y-82825000I0J200000D01*
G01*
X128760000Y-82275000D01*
G75*
G02*
X128960000Y-82075000I200000J0D01*
G01*
X129360000Y-82075000D01*
G75*
G02*
X129560000Y-82275000I0J-200000D01*
G01*
G37*
%TD*%
%TO.C,U2*%
G36*
G01*
X96075000Y-49380000D02*
X96075000Y-49680000D01*
G75*
G02*
X95925000Y-49830000I-150000J0D01*
G01*
X94575000Y-49830000D01*
G75*
G02*
X94425000Y-49680000I0J150000D01*
G01*
X94425000Y-49380000D01*
G75*
G02*
X94575000Y-49230000I150000J0D01*
G01*
X95925000Y-49230000D01*
G75*
G02*
X96075000Y-49380000I0J-150000D01*
G01*
G37*
G36*
G01*
X96075000Y-48110000D02*
X96075000Y-48410000D01*
G75*
G02*
X95925000Y-48560000I-150000J0D01*
G01*
X94575000Y-48560000D01*
G75*
G02*
X94425000Y-48410000I0J150000D01*
G01*
X94425000Y-48110000D01*
G75*
G02*
X94575000Y-47960000I150000J0D01*
G01*
X95925000Y-47960000D01*
G75*
G02*
X96075000Y-48110000I0J-150000D01*
G01*
G37*
G36*
G01*
X96075000Y-46840000D02*
X96075000Y-47140000D01*
G75*
G02*
X95925000Y-47290000I-150000J0D01*
G01*
X94575000Y-47290000D01*
G75*
G02*
X94425000Y-47140000I0J150000D01*
G01*
X94425000Y-46840000D01*
G75*
G02*
X94575000Y-46690000I150000J0D01*
G01*
X95925000Y-46690000D01*
G75*
G02*
X96075000Y-46840000I0J-150000D01*
G01*
G37*
G36*
G01*
X96075000Y-45570000D02*
X96075000Y-45870000D01*
G75*
G02*
X95925000Y-46020000I-150000J0D01*
G01*
X94575000Y-46020000D01*
G75*
G02*
X94425000Y-45870000I0J150000D01*
G01*
X94425000Y-45570000D01*
G75*
G02*
X94575000Y-45420000I150000J0D01*
G01*
X95925000Y-45420000D01*
G75*
G02*
X96075000Y-45570000I0J-150000D01*
G01*
G37*
G36*
G01*
X90825000Y-45570000D02*
X90825000Y-45870000D01*
G75*
G02*
X90675000Y-46020000I-150000J0D01*
G01*
X89325000Y-46020000D01*
G75*
G02*
X89175000Y-45870000I0J150000D01*
G01*
X89175000Y-45570000D01*
G75*
G02*
X89325000Y-45420000I150000J0D01*
G01*
X90675000Y-45420000D01*
G75*
G02*
X90825000Y-45570000I0J-150000D01*
G01*
G37*
G36*
G01*
X90825000Y-46840000D02*
X90825000Y-47140000D01*
G75*
G02*
X90675000Y-47290000I-150000J0D01*
G01*
X89325000Y-47290000D01*
G75*
G02*
X89175000Y-47140000I0J150000D01*
G01*
X89175000Y-46840000D01*
G75*
G02*
X89325000Y-46690000I150000J0D01*
G01*
X90675000Y-46690000D01*
G75*
G02*
X90825000Y-46840000I0J-150000D01*
G01*
G37*
G36*
G01*
X90825000Y-48110000D02*
X90825000Y-48410000D01*
G75*
G02*
X90675000Y-48560000I-150000J0D01*
G01*
X89325000Y-48560000D01*
G75*
G02*
X89175000Y-48410000I0J150000D01*
G01*
X89175000Y-48110000D01*
G75*
G02*
X89325000Y-47960000I150000J0D01*
G01*
X90675000Y-47960000D01*
G75*
G02*
X90825000Y-48110000I0J-150000D01*
G01*
G37*
G36*
G01*
X90825000Y-49380000D02*
X90825000Y-49680000D01*
G75*
G02*
X90675000Y-49830000I-150000J0D01*
G01*
X89325000Y-49830000D01*
G75*
G02*
X89175000Y-49680000I0J150000D01*
G01*
X89175000Y-49380000D01*
G75*
G02*
X89325000Y-49230000I150000J0D01*
G01*
X90675000Y-49230000D01*
G75*
G02*
X90825000Y-49380000I0J-150000D01*
G01*
G37*
%TD*%
D28*
%TO.C,U3*%
X96520000Y-74930000D03*
D29*
X96520000Y-81230000D03*
X98820000Y-81230000D03*
X94220000Y-81230000D03*
%TD*%
D28*
%TO.C,U4*%
X105410000Y-74930000D03*
D29*
X105410000Y-81230000D03*
X107710000Y-81230000D03*
X103110000Y-81230000D03*
%TD*%
%TO.C,U5*%
X112000000Y-81280000D03*
X116600000Y-81280000D03*
X114300000Y-81280000D03*
D28*
X114300000Y-74980000D03*
%TD*%
D30*
%TO.C,RLY1*%
X137160000Y-63500000D03*
D31*
X137160000Y-55880000D03*
X144780000Y-63500000D03*
X149860000Y-63500000D03*
X154940000Y-63500000D03*
X144780000Y-55880000D03*
X149860000Y-55880000D03*
X154940000Y-55880000D03*
%TD*%
D32*
%TO.C,Z1*%
X132842000Y-63602000D03*
X132842000Y-60452000D03*
%TD*%
D33*
%TO.C,Z2*%
X146050000Y-83566000D03*
X149200000Y-83566000D03*
%TD*%
D14*
%TO.C,F1*%
X105410000Y-43180000D03*
X120410000Y-43180000D03*
%TD*%
%TO.C,F2*%
X104380000Y-151130000D03*
X119380000Y-151130000D03*
%TD*%
%TO.C,F3*%
X119140000Y-163830000D03*
X104140000Y-163830000D03*
%TD*%
D10*
%TO.C,H1*%
X69850000Y-17780000D03*
%TD*%
%TO.C,H2*%
X165100000Y-17780000D03*
%TD*%
%TO.C,H3*%
X69850000Y-177800000D03*
%TD*%
%TO.C,C4*%
G36*
G01*
X99735000Y-84615000D02*
X99735000Y-85565000D01*
G75*
G02*
X99485000Y-85815000I-250000J0D01*
G01*
X98985000Y-85815000D01*
G75*
G02*
X98735000Y-85565000I0J250000D01*
G01*
X98735000Y-84615000D01*
G75*
G02*
X98985000Y-84365000I250000J0D01*
G01*
X99485000Y-84365000D01*
G75*
G02*
X99735000Y-84615000I0J-250000D01*
G01*
G37*
G36*
G01*
X97835000Y-84615000D02*
X97835000Y-85565000D01*
G75*
G02*
X97585000Y-85815000I-250000J0D01*
G01*
X97085000Y-85815000D01*
G75*
G02*
X96835000Y-85565000I0J250000D01*
G01*
X96835000Y-84615000D01*
G75*
G02*
X97085000Y-84365000I250000J0D01*
G01*
X97585000Y-84365000D01*
G75*
G02*
X97835000Y-84615000I0J-250000D01*
G01*
G37*
%TD*%
%TO.C,C5*%
G36*
G01*
X106725000Y-84615000D02*
X106725000Y-85565000D01*
G75*
G02*
X106475000Y-85815000I-250000J0D01*
G01*
X105975000Y-85815000D01*
G75*
G02*
X105725000Y-85565000I0J250000D01*
G01*
X105725000Y-84615000D01*
G75*
G02*
X105975000Y-84365000I250000J0D01*
G01*
X106475000Y-84365000D01*
G75*
G02*
X106725000Y-84615000I0J-250000D01*
G01*
G37*
G36*
G01*
X108625000Y-84615000D02*
X108625000Y-85565000D01*
G75*
G02*
X108375000Y-85815000I-250000J0D01*
G01*
X107875000Y-85815000D01*
G75*
G02*
X107625000Y-85565000I0J250000D01*
G01*
X107625000Y-84615000D01*
G75*
G02*
X107875000Y-84365000I250000J0D01*
G01*
X108375000Y-84365000D01*
G75*
G02*
X108625000Y-84615000I0J-250000D01*
G01*
G37*
%TD*%
%TO.C,C6*%
G36*
G01*
X117795000Y-84615000D02*
X117795000Y-85565000D01*
G75*
G02*
X117545000Y-85815000I-250000J0D01*
G01*
X117045000Y-85815000D01*
G75*
G02*
X116795000Y-85565000I0J250000D01*
G01*
X116795000Y-84615000D01*
G75*
G02*
X117045000Y-84365000I250000J0D01*
G01*
X117545000Y-84365000D01*
G75*
G02*
X117795000Y-84615000I0J-250000D01*
G01*
G37*
G36*
G01*
X115895000Y-84615000D02*
X115895000Y-85565000D01*
G75*
G02*
X115645000Y-85815000I-250000J0D01*
G01*
X115145000Y-85815000D01*
G75*
G02*
X114895000Y-85565000I0J250000D01*
G01*
X114895000Y-84615000D01*
G75*
G02*
X115145000Y-84365000I250000J0D01*
G01*
X115645000Y-84365000D01*
G75*
G02*
X115895000Y-84615000I0J-250000D01*
G01*
G37*
%TD*%
M02*
