%TF.GenerationSoftware,KiCad,Pcbnew,(5.1.9)-1*%
%TF.CreationDate,2021-02-11T17:43:00-05:00*%
%TF.ProjectId,SD_Card,53445f43-6172-4642-9e6b-696361645f70,rev?*%
%TF.SameCoordinates,Original*%
%TF.FileFunction,Copper,L1,Top*%
%TF.FilePolarity,Positive*%
%FSLAX46Y46*%
G04 Gerber Fmt 4.6, Leading zero omitted, Abs format (unit mm)*
G04 Created by KiCad (PCBNEW (5.1.9)-1) date 2021-02-11 17:43:00*
%MOMM*%
%LPD*%
G01*
G04 APERTURE LIST*
%TA.AperFunction,ComponentPad*%
%ADD10C,5.080000*%
%TD*%
%TA.AperFunction,SMDPad,CuDef*%
%ADD11R,1.600000X0.800000*%
%TD*%
%TA.AperFunction,SMDPad,CuDef*%
%ADD12R,3.000000X2.100000*%
%TD*%
%TA.AperFunction,SMDPad,CuDef*%
%ADD13R,1.524000X1.000000*%
%TD*%
%TA.AperFunction,SMDPad,CuDef*%
%ADD14R,1.524000X1.300000*%
%TD*%
%TA.AperFunction,ComponentPad*%
%ADD15C,2.000000*%
%TD*%
%TA.AperFunction,ComponentPad*%
%ADD16R,1.700000X1.700000*%
%TD*%
%TA.AperFunction,ComponentPad*%
%ADD17O,1.700000X1.700000*%
%TD*%
%TA.AperFunction,Conductor*%
%ADD18C,0.500000*%
%TD*%
G04 APERTURE END LIST*
D10*
%TO.P,REF\u002A\u002A,1*%
%TO.N,N/C*%
X125000000Y-135000000D03*
%TD*%
%TO.P,REF\u002A\u002A,1*%
%TO.N,N/C*%
X170000000Y-135000000D03*
%TD*%
%TO.P,REF\u002A\u002A,1*%
%TO.N,N/C*%
X170000000Y-95000000D03*
%TD*%
%TO.P,REF\u002A\u002A,1*%
%TO.N,N/C*%
X125500000Y-95000000D03*
%TD*%
D11*
%TO.P,J2,8*%
%TO.N,/DAT1*%
X167619000Y-107686000D03*
%TO.P,J2,7*%
%TO.N,/DAT0*%
X167619000Y-108936000D03*
%TO.P,J2,6*%
%TO.N,/VSS*%
X167619000Y-110186000D03*
%TO.P,J2,5*%
%TO.N,/CLK*%
X167619000Y-111436000D03*
%TO.P,J2,4*%
%TO.N,/VDD*%
X167619000Y-112686000D03*
%TO.P,J2,3*%
%TO.N,/CMD*%
X167619000Y-113936000D03*
%TO.P,J2,2*%
%TO.N,/DAT3CD*%
X167619000Y-115186000D03*
%TO.P,J2,1*%
%TO.N,/DAT2*%
X167619000Y-116436000D03*
D12*
%TO.P,J2,9*%
%TO.N,/SHIELD*%
X170519000Y-105136000D03*
X170519000Y-118986000D03*
%TD*%
D13*
%TO.P,J1,1*%
%TO.N,/DAT3CD*%
X142875000Y-120475000D03*
%TO.P,J1,2*%
%TO.N,/CMD*%
X142875000Y-117975000D03*
%TO.P,J1,9*%
%TO.N,/DAT2*%
X142875000Y-122975000D03*
%TO.P,J1,10*%
%TO.N,Net-(J1-Pad10)*%
X142875000Y-116325000D03*
%TO.P,J1,3*%
%TO.N,/VSS*%
X142875000Y-114675000D03*
%TO.P,J1,4*%
%TO.N,/VDD*%
X142875000Y-112975000D03*
%TO.P,J1,5*%
%TO.N,/CLK*%
X142875000Y-110475000D03*
%TO.P,J1,6*%
%TO.N,/VSS*%
X142875000Y-107975000D03*
%TO.P,J1,7*%
%TO.N,/DAT0*%
X142875000Y-105550000D03*
%TO.P,J1,11*%
%TO.N,Net-(J1-Pad11)*%
X142875000Y-100500000D03*
%TO.P,J1,8*%
%TO.N,/DAT1*%
X142875000Y-103850000D03*
D14*
%TO.P,J1,12*%
%TO.N,/SHIELD*%
X121875000Y-128000000D03*
D15*
%TO.P,J1,13*%
X118575000Y-125700000D03*
X118575000Y-101500000D03*
D14*
%TO.P,J1,12*%
X120675000Y-100000000D03*
%TD*%
D16*
%TO.P,J3,1*%
%TO.N,/DAT2*%
X154940000Y-123190000D03*
D17*
%TO.P,J3,2*%
%TO.N,/DAT3CD*%
X154940000Y-120650000D03*
%TO.P,J3,3*%
%TO.N,/CMD*%
X154940000Y-118110000D03*
%TO.P,J3,4*%
%TO.N,/VDD*%
X154940000Y-115570000D03*
%TO.P,J3,5*%
%TO.N,/CLK*%
X154940000Y-113030000D03*
%TO.P,J3,6*%
%TO.N,/VSS*%
X154940000Y-110490000D03*
%TO.P,J3,7*%
%TO.N,/DAT0*%
X154940000Y-107950000D03*
%TO.P,J3,8*%
%TO.N,/DAT1*%
X154940000Y-105410000D03*
%TO.P,J3,9*%
%TO.N,/SHIELD*%
X154940000Y-102870000D03*
%TD*%
D18*
%TO.N,/DAT3CD*%
X154765000Y-120475000D02*
X154940000Y-120650000D01*
X142875000Y-120475000D02*
X154765000Y-120475000D01*
X160404000Y-115186000D02*
X167619000Y-115186000D01*
X154940000Y-120650000D02*
X160404000Y-115186000D01*
%TO.N,/CMD*%
X154805000Y-117975000D02*
X154940000Y-118110000D01*
X142875000Y-117975000D02*
X154805000Y-117975000D01*
X159114000Y-113936000D02*
X167619000Y-113936000D01*
X154940000Y-118110000D02*
X159114000Y-113936000D01*
%TO.N,/DAT2*%
X154725000Y-122975000D02*
X154940000Y-123190000D01*
X142875000Y-122975000D02*
X154725000Y-122975000D01*
X160865000Y-123190000D02*
X167619000Y-116436000D01*
X154940000Y-123190000D02*
X160865000Y-123190000D01*
%TO.N,/VSS*%
X152425000Y-107975000D02*
X154940000Y-110490000D01*
X142875000Y-107975000D02*
X152425000Y-107975000D01*
X141662999Y-109187001D02*
X142875000Y-107975000D01*
X141662999Y-113724999D02*
X141662999Y-109187001D01*
X142613000Y-114675000D02*
X141662999Y-113724999D01*
X142875000Y-114675000D02*
X142613000Y-114675000D01*
X167315000Y-110490000D02*
X167619000Y-110186000D01*
X154940000Y-110490000D02*
X167315000Y-110490000D01*
%TO.N,/VDD*%
X152345000Y-112975000D02*
X154940000Y-115570000D01*
X142875000Y-112975000D02*
X152345000Y-112975000D01*
X157824000Y-112686000D02*
X167619000Y-112686000D01*
X154940000Y-115570000D02*
X157824000Y-112686000D01*
%TO.N,/CLK*%
X152385000Y-110475000D02*
X154940000Y-113030000D01*
X142875000Y-110475000D02*
X152385000Y-110475000D01*
X156534000Y-111436000D02*
X167619000Y-111436000D01*
X154940000Y-113030000D02*
X156534000Y-111436000D01*
%TO.N,/DAT0*%
X152540000Y-105550000D02*
X154940000Y-107950000D01*
X142875000Y-105550000D02*
X152540000Y-105550000D01*
X155926000Y-108936000D02*
X167619000Y-108936000D01*
X154940000Y-107950000D02*
X155926000Y-108936000D01*
%TO.N,/DAT1*%
X153380000Y-103850000D02*
X154940000Y-105410000D01*
X142875000Y-103850000D02*
X153380000Y-103850000D01*
X165343000Y-105410000D02*
X167619000Y-107686000D01*
X154940000Y-105410000D02*
X165343000Y-105410000D01*
%TO.N,/SHIELD*%
X170519000Y-105136000D02*
X170519000Y-118986000D01*
X163792962Y-102870000D02*
X154940000Y-102870000D01*
X166058962Y-105136000D02*
X163792962Y-102870000D01*
X170519000Y-105136000D02*
X166058962Y-105136000D01*
X120075000Y-100000000D02*
X118575000Y-101500000D01*
X120675000Y-100000000D02*
X120075000Y-100000000D01*
X118575000Y-101500000D02*
X118575000Y-125700000D01*
X119575000Y-125700000D02*
X121875000Y-128000000D01*
X118575000Y-125700000D02*
X119575000Y-125700000D01*
X120675000Y-100000000D02*
X120675000Y-100675000D01*
X120675000Y-100675000D02*
X125000000Y-105000000D01*
X125000000Y-105000000D02*
X139100000Y-105000000D01*
X141230000Y-102870000D02*
X154940000Y-102870000D01*
X139100000Y-105000000D02*
X141230000Y-102870000D01*
%TD*%
M02*
