<?xml version="1.0" encoding="UTF-8" standalone="no"?>
<!-- Created with Inkscape (http://www.inkscape.org/) -->

<svg
   width="25"
   height="25"
   viewBox="0 0 6.6145832 6.6145833"
   version="1.1"
   id="svg371"
   xml:space="preserve"
   inkscape:version="1.2 (dc2aedaf03, 2022-05-15)"
   sodipodi:docname="add.svg"
   inkscape:export-filename="add.jpg"
   inkscape:export-xdpi="96"
   inkscape:export-ydpi="96"
   xmlns:inkscape="http://www.inkscape.org/namespaces/inkscape"
   xmlns:sodipodi="http://sodipodi.sourceforge.net/DTD/sodipodi-0.dtd"
   xmlns="http://www.w3.org/2000/svg"
   xmlns:svg="http://www.w3.org/2000/svg"><sodipodi:namedview
     id="namedview373"
     pagecolor="#ffffff"
     bordercolor="#000000"
     borderopacity="0.25"
     inkscape:showpageshadow="2"
     inkscape:pageopacity="0.0"
     inkscape:pagecheckerboard="0"
     inkscape:deskcolor="#d1d1d1"
     inkscape:document-units="mm"
     showgrid="false"
     shape-rendering="crispEdges"
     inkscape:zoom="23.632548"
     inkscape:cx="6.5164367"
     inkscape:cy="11.721123"
     inkscape:window-width="1920"
     inkscape:window-height="1009"
     inkscape:window-x="1912"
     inkscape:window-y="-8"
     inkscape:window-maximized="1"
     inkscape:current-layer="layer1" /><defs
     id="defs368" /><g
     inkscape:label="Layer 1"
     inkscape:groupmode="layer"
     id="layer1"><path
       style="fill:#000000;stroke-width:0.0129329"
       d="M 3.0055801,6.6059041 C 2.192525,6.5220801 1.4863992,6.179598 0.92322259,5.5959281 0.44432789,5.0996077 0.13747264,4.4770217 0.03640639,3.7966484 -0.09475284,2.9136871 0.13081903,2.0338437 0.675233,1.3049001 0.79373959,1.146226 1.1464989,0.7935176 1.305196,0.67502836 2.0334182,0.13131043 2.915218,-0.09469723 3.7973053,0.03629429 4.7523861,0.17812554 5.5970675,0.73174017 6.1167281,1.556473 c 0.2388658,0.3790946 0.4075695,0.8449145 0.4731002,1.3063124 0.033007,0.2324086 0.033007,0.659901 0,0.8923096 C 6.5093813,4.321524 6.2911864,4.8479122 5.9443593,5.3122659 5.8243145,5.4729894 5.4723707,5.8244913 5.3102684,5.9455605 4.8572425,6.2839116 4.3452509,6.4992869 3.7973053,6.5820067 3.5993242,6.6118944 3.1849883,6.6244011 3.0055801,6.6059041 Z M 3.5654804,5.7782098 C 4.1178087,5.718054 4.6198338,5.4860987 5.0224735,5.1050218 5.7981783,4.370859 6.012179,3.2017042 5.5471883,2.2383374 4.9480568,0.99705857 3.4716164,0.47670812 2.2378957,1.0720243 0.77285192,1.7789627 0.36690193,3.6600234 1.4104799,4.9060448 1.9352562,5.5326227 2.7590785,5.8660372 3.5654804,5.7782098 Z M 2.8956419,4.343502 V 3.7227649 H 2.2748148 1.6539878 V 3.3089402 2.8951155 h 0.620827 0.6208271 V 2.2743784 1.6536413 h 0.4138845 0.4138848 v 0.6207371 0.6207371 h 0.620827 0.620827 V 3.3089402 3.7227649 H 4.3442382 3.7234112 V 4.343502 4.9642391 H 3.3095264 2.8956419 Z"
       id="path387" /></g></svg>
