<?xml version="1.0" encoding="UTF-8" standalone="no"?>
<svg
   xmlns:dc="http://purl.org/dc/elements/1.1/"
   xmlns:cc="http://creativecommons.org/ns#"
   xmlns:rdf="http://www.w3.org/1999/02/22-rdf-syntax-ns#"
   xmlns:svg="http://www.w3.org/2000/svg"
   xmlns="http://www.w3.org/2000/svg"
   xmlns:sodipodi="http://sodipodi.sourceforge.net/DTD/sodipodi-0.dtd"
   xmlns:inkscape="http://www.inkscape.org/namespaces/inkscape"
   width="200"
   height="200"
   viewBox="0 0 52.916665 52.916668"
   version="1.1"
   id="svg2643"
   inkscape:version="1.0.2-2 (e86c870879, 2021-01-15)"
   sodipodi:docname="automatic.svg"
   shape-rendering="crispEdges"
   inkscape:export-filename="C:\Users\riley\Documents\Propeller\MaD_Firmware\Images\automatic.png"
   inkscape:export-xdpi="96"
   inkscape:export-ydpi="96">
  <defs
     id="defs2637" />
  <sodipodi:namedview
     id="base"
     pagecolor="#ffffff"
     bordercolor="#666666"
     borderopacity="1.0"
     inkscape:pageopacity="0.0"
     inkscape:pageshadow="2"
     inkscape:zoom="2.8"
     inkscape:cx="99.149316"
     inkscape:cy="111.24389"
     inkscape:document-units="mm"
     inkscape:current-layer="layer1"
     inkscape:document-rotation="0"
     showgrid="false"
     inkscape:window-width="1920"
     inkscape:window-height="1017"
     inkscape:window-x="-8"
     inkscape:window-y="-8"
     inkscape:window-maximized="1"
     units="px" />
  <metadata
     id="metadata2640">
    <rdf:RDF>
      <cc:Work
         rdf:about="">
        <dc:format>image/svg+xml</dc:format>
        <dc:type
           rdf:resource="http://purl.org/dc/dcmitype/StillImage" />
        <dc:title></dc:title>
      </cc:Work>
    </rdf:RDF>
  </metadata>
  <g
     inkscape:label="Layer 1"
     inkscape:groupmode="layer"
     id="layer1">
    <rect
       style="fill:#ff0000;fill-opacity:1;stroke:none;stroke-width:0.0738544;stroke-linejoin:round;stroke-miterlimit:4;stroke-dasharray:0.0738544, 0.0738544;stroke-dashoffset:0;stroke-opacity:1"
       id="rect3224"
       width="52.916668"
       height="52.916668"
       x="0"
       y="0" />
    <rect
       style="fill:#ffffff;fill-opacity:1;stroke:none;stroke-width:0.079375;stroke-linejoin:round;stroke-miterlimit:4;stroke-dasharray:0.079375, 0.07937500000000000;stroke-dashoffset:0;stroke-opacity:1"
       id="rect3226"
       width="45.687428"
       height="45.603935"
       x="3.6226177"
       y="3.6546061" />
    <path
       style="fill:#000000;stroke-width:0.0912915;stroke-miterlimit:4;stroke-dasharray:none"
       d="m 3.6346772,38.547668 c 0.00743,-6.615445 0.04138,-10.40414 0.088745,-9.909007 0.1656662,1.731782 0.6286131,3.890056 0.890477,4.151436 0.2240173,0.223608 0.4283252,0.21283 1.2328415,-0.06489 1.3505598,-0.466393 2.900043,-0.339305 4.0961883,0.335956 1.508698,0.851687 2.513785,2.584777 2.513785,4.334544 0,1.434765 -0.469211,2.47823 -1.616006,3.593817 -1.06781,1.03874 -1.0689652,1.106638 -0.03524,2.069041 2.624307,2.443206 5.781459,4.249843 9.215792,5.273589 1.233457,0.367679 1.364919,0.279941 1.614944,-1.077833 0.315975,-1.715892 1.803242,-3.269874 3.581545,-3.742228 0.269556,-0.07167 0.83723,-0.130658 1.261497,-0.131244 1.368352,-0.0019 2.528363,0.483651 3.519724,1.473199 0.834838,0.833306 1.181043,1.617449 1.461322,3.309774 0.01887,0.113679 0.441171,0.382016 0.601254,0.382016 0.326339,0 2.740468,-0.824599 3.774288,-1.289192 2.296247,-1.031906 4.630334,-2.608581 6.447109,-4.354997 0.839854,-0.807333 0.831427,-0.913018 -0.147058,-1.844364 -1.160908,-1.104963 -1.66103,-2.216289 -1.65886,-3.686154 0.002,-1.371766 0.475554,-2.498649 1.463896,-3.483702 0.732915,-0.730486 1.430317,-1.113423 2.433464,-1.336195 0.84484,-0.18762 1.822433,-0.134579 2.570992,0.139467 0.832061,0.304604 1.124676,0.320789 1.351098,0.0749 0.292223,-0.317563 0.744683,-2.376337 0.916711,-4.171222 0.04165,-0.434552 0.07775,3.805967 0.08468,9.953543 l 0.01218,10.710619 H 26.466345 3.6226179 Z M 24.740587,39.543891 C 23.87742,39.4248 22.472163,39.056993 21.665654,38.739084 19.910829,38.04734 18.483767,37.103875 17.097128,35.718688 c -2.62387,-2.621081 -3.9705,-6.092955 -3.812312,-9.828879 0.0844,-1.994574 0.479461,-3.503378 1.402334,-5.3565 1.935838,-3.887122 5.573671,-6.482773 9.994529,-7.131195 1.212466,-0.177836 3.088102,-0.136472 4.273671,0.09426 4.613199,0.897772 8.488863,4.250546 9.987685,8.640195 0.513016,1.502493 0.673099,2.499249 0.679485,4.230821 0.0088,2.354397 -0.338317,3.903784 -1.326507,5.92313 -0.637109,1.301928 -1.41981,2.385425 -2.507441,3.471063 -1.876184,1.87275 -4.06089,3.051528 -6.689841,3.609566 -1.026994,0.217991 -3.359891,0.310463 -4.358144,0.172744 z m -2.646672,-4.654478 c 0.368087,-0.210991 2.777389,-1.599777 5.353998,-3.086181 2.576613,-1.48641 5.487851,-3.162398 6.469417,-3.724431 0.981564,-0.562027 1.875014,-1.103846 1.985437,-1.20404 0.111841,-0.101468 0.200778,-0.286753 0.200778,-0.418304 0,-0.131726 -0.08878,-0.316464 -0.200778,-0.417745 -0.110419,-0.09986 -3.112005,-1.856633 -6.670185,-3.903909 -3.558183,-2.047274 -6.769737,-3.896456 -7.136797,-4.109291 -0.742083,-0.430275 -0.988139,-0.471335 -1.251138,-0.208823 -0.175959,0.175645 -0.178465,0.2969 -0.178465,8.639768 0,8.342849 0.0026,8.464119 0.178465,8.639761 0.261489,0.261005 0.502837,0.221044 1.249268,-0.206805 z M 3.6346772,14.365245 3.6226179,3.6546063 H 26.466345 49.310074 l -0.01217,10.7106387 c -0.007,5.890842 -0.04376,10.389971 -0.08237,9.998071 -0.182949,-1.856246 -0.625189,-3.896358 -0.912292,-4.208537 -0.235624,-0.256224 -0.392013,-0.25198 -1.217284,0.03298 -0.959632,0.331388 -1.899498,0.37646 -2.849478,0.136675 -0.954231,-0.240864 -1.609448,-0.617326 -2.339832,-1.344405 -0.941021,-0.936748 -1.417609,-2.091018 -1.419604,-3.4382 -0.0022,-1.47335 0.500565,-2.588676 1.659615,-3.681771 C 43.152511,10.902035 43.15108,10.878527 42.010567,9.7858378 39.563203,7.4411212 36.364764,5.6102226 32.924781,4.5848349 32.411971,4.4319753 32.024552,4.3637564 31.877916,4.4004921 c -0.266889,0.066849 -0.503734,0.4603033 -0.503734,0.8367756 0,0.808586 -0.629029,2.0724353 -1.432973,2.8791159 -0.949207,0.9524537 -2.084616,1.4147036 -3.474863,1.4147036 -1.390243,0 -2.525653,-0.4622499 -3.47486,-1.4147036 -0.833884,-0.8367209 -1.27606,-1.7515883 -1.478629,-3.0592813 -0.0598,-0.3861767 -0.342354,-0.6899381 -0.641719,-0.6899381 -0.435677,0 -2.960335,0.9146891 -4.258388,1.5428233 -2.257287,1.0923148 -4.08413,2.3367525 -5.692626,3.8777949 -1.134522,1.0869436 -1.1344857,1.0860736 -0.08806,2.1269376 0.870911,0.86628 1.271376,1.522348 1.487261,2.436544 0.641253,2.715447 -1.013649,5.36793 -3.7500131,6.010554 C 7.7365671,20.557374 6.7308438,20.493095 5.8467478,20.187796 5.0215001,19.902807 4.8657554,19.898591 4.6269484,20.154813 4.3378855,20.4649 3.8954481,22.482553 3.7236195,24.274281 3.6760041,24.770803 3.6421517,20.999401 3.634684,14.365275 Z"
       id="path3220" />
    <rect
       style="fill:none;fill-opacity:1;stroke:#000000;stroke-width:3.69493;stroke-linejoin:round;stroke-opacity:1"
       id="rect3222"
       width="49.221737"
       height="49.221733"
       x="1.8474654"
       y="1.8474654"
       ry="4.6508727" />
  </g>
</svg>
