<?xml version="1.0" encoding="UTF-8" standalone="no"?>
<svg
   xmlns:dc="http://purl.org/dc/elements/1.1/"
   xmlns:cc="http://creativecommons.org/ns#"
   xmlns:rdf="http://www.w3.org/1999/02/22-rdf-syntax-ns#"
   xmlns:svg="http://www.w3.org/2000/svg"
   xmlns="http://www.w3.org/2000/svg"
   xmlns:sodipodi="http://sodipodi.sourceforge.net/DTD/sodipodi-0.dtd"
   xmlns:inkscape="http://www.inkscape.org/namespaces/inkscape"
   width="200"
   height="200"
   viewBox="0 0 52.916665 52.916668"
   version="1.1"
   id="svg2643"
   inkscape:version="1.0.2-2 (e86c870879, 2021-01-15)"
   sodipodi:docname="calib.svg"
   shape-rendering="crispEdges"
   inkscape:export-filename="C:\Users\riley\Documents\Propeller\MaD_Firmware\Images\automatic.png"
   inkscape:export-xdpi="96"
   inkscape:export-ydpi="96">
  <defs
     id="defs2637" />
  <sodipodi:namedview
     id="base"
     pagecolor="#ffffff"
     bordercolor="#666666"
     borderopacity="1.0"
     inkscape:pageopacity="0.0"
     inkscape:pageshadow="2"
     inkscape:zoom="1.4"
     inkscape:cx="-160.83585"
     inkscape:cy="-26.317492"
     inkscape:document-units="mm"
     inkscape:current-layer="layer1"
     inkscape:document-rotation="0"
     showgrid="false"
     inkscape:window-width="1920"
     inkscape:window-height="1017"
     inkscape:window-x="1912"
     inkscape:window-y="-8"
     inkscape:window-maximized="1"
     units="px" />
  <metadata
     id="metadata2640">
    <rdf:RDF>
      <cc:Work
         rdf:about="">
        <dc:format>image/svg+xml</dc:format>
        <dc:type
           rdf:resource="http://purl.org/dc/dcmitype/StillImage" />
        <dc:title></dc:title>
      </cc:Work>
    </rdf:RDF>
  </metadata>
  <g
     inkscape:label="Layer 1"
     inkscape:groupmode="layer"
     id="layer1">
    <rect
       style="fill:#ff0000;fill-opacity:1;stroke:none;stroke-width:0.0738544;stroke-linejoin:round;stroke-miterlimit:4;stroke-dasharray:0.0738544, 0.0738544;stroke-dashoffset:0;stroke-opacity:1"
       id="rect3224"
       width="52.916668"
       height="52.916668"
       x="0"
       y="0" />
    <rect
       style="fill:#00000a;fill-opacity:1;stroke:none;stroke-width:0.079375;stroke-linejoin:round;stroke-miterlimit:4;stroke-dasharray:0.079375, 0.07937500000000000;stroke-dashoffset:0;stroke-opacity:1"
       id="rect3226"
       width="45.687428"
       height="45.603935"
       x="3.6226177"
       y="3.6546061" />
    <rect
       style="fill:none;fill-opacity:1;stroke:#000000;stroke-width:3.69493;stroke-linejoin:round;stroke-opacity:1"
       id="rect3222"
       width="49.221737"
       height="49.221733"
       x="1.8474654"
       y="1.8474654"
       ry="4.6508727" />
    <path
       id="path865"
       style="fill:#ffffff;fill-opacity:1;stroke-width:0.145114"
       d="m 26.928011,4.5357157 c -0.233695,0 -0.599464,0.1549231 -0.826467,0.3500289 l -0.406996,0.349746 -0.0445,2.9802074 -0.04479,2.979923 -0.680785,0.09239 c -3.245843,0.440552 -6.335839,1.94722 -8.806562,4.294162 -2.360427,2.242178 -4.149733,5.753866 -4.538188,8.906609 l -0.107135,0.870679 -3.0071325,0.07256 c -2.8669181,0.06918 -3.0220967,0.08773 -3.3299575,0.395945 -0.4343805,0.434892 -0.4343805,1.240144 0,1.675038 0.3078608,0.308219 0.4629188,0.326767 3.3302436,0.395943 l 3.0076964,0.07256 0.110535,1.003322 c 0.230275,2.08534 1.543793,5.245254 2.920121,7.024957 1.494614,1.932652 4.030045,3.957941 6.112612,4.882833 1.166541,0.518075 3.038276,1.052443 4.112205,1.173943 l 0.87663,0.0992 0.04449,2.945629 c 0.0433,2.871405 0.05301,2.954935 0.388859,3.312096 0.189496,0.201519 0.48335,0.388688 0.653009,0.416068 0.169659,0.02737 0.495231,-0.01063 0.723299,-0.08446 0.705114,-0.228267 0.818813,-0.761878 0.818813,-3.844367 v -2.743265 l 0.884851,-0.100045 c 2.142383,-0.242382 5.036181,-1.427799 6.966287,-2.853516 1.793317,-1.324674 3.731048,-3.579313 4.664596,-5.427859 0.596589,-1.181324 1.228616,-3.125136 1.417973,-4.360484 0.09727,-0.634556 0.199744,-1.235445 0.22759,-1.335212 0.03833,-0.13736 0.753409,-0.181391 2.945628,-0.181391 1.592225,0 3.000657,-0.04055 3.129855,-0.09013 0.371039,-0.142382 0.690349,-0.890086 0.584988,-1.369791 -0.05109,-0.232639 -0.260086,-0.554483 -0.464248,-0.715079 -0.343571,-0.270249 -0.58509,-0.291927 -3.244075,-0.291927 -3.229073,0 -2.927774,0.118777 -3.111433,-1.227227 -0.147364,-1.080025 -0.749161,-3.044115 -1.264071,-4.125244 -2.270169,-4.766556 -6.796069,-8.036113 -12.185546,-8.802593 l -0.535955,-0.07596 -0.0445,-2.9827578 -0.0445,-2.9827569 -0.407282,-0.3497459 C 27.527194,4.6906388 27.161707,4.5357157 26.928013,4.5357157 Z m 1.306019,10.2996393 0.616731,0.09098 c 0.868055,0.128169 2.580847,0.708441 3.578799,1.212206 3.140129,1.585134 5.687832,5.077893 6.236751,8.550345 l 0.117622,0.743138 h -0.98575 c -0.542056,0 -1.013655,-0.04899 -1.048103,-0.108834 -0.03446,-0.05986 -0.105219,-0.402691 -0.1573,-0.761845 -0.131268,-0.905213 -0.927612,-2.676863 -1.631391,-3.629533 -1.399375,-1.894264 -3.53068,-3.327794 -5.747845,-3.865623 l -0.979514,-0.23751 v -0.996803 z m -2.690831,0.0034 c 0.04327,0 0.07879,0.448502 0.07879,0.996803 v 0.997087 l -0.870396,0.171188 c -1.420861,0.279537 -3.354833,1.341668 -4.605079,2.529279 -1.576125,1.497164 -2.508357,3.203232 -3.005431,5.499849 -0.08397,0.387978 -0.114064,0.399062 -1.077863,0.399062 h -0.991136 l 0.117339,-0.74314 c 0.428137,-2.708383 2.056864,-5.48651 4.270071,-7.283154 1.167022,-0.947368 3.486867,-2.058965 4.886519,-2.341368 0.61518,-0.124122 1.15391,-0.225606 1.197184,-0.225606 z m 1.384812,7.255663 c 0.16688,0 0.463624,0.160361 0.659528,0.356264 0.330897,0.330896 0.356264,0.459687 0.356264,1.813915 v 1.457652 h 1.507534 c 1.762527,0 2.16848,0.190204 2.16848,1.015793 0,0.825588 -0.405953,1.015791 -2.16848,1.015791 h -1.507534 v 1.563937 c 0,1.180643 -0.05536,1.643003 -0.225891,1.886472 -0.167545,0.239209 -0.371586,0.322537 -0.789901,0.322537 -0.867622,0 -1.015793,-0.32224 -1.015793,-2.209009 V 27.75386 H 24.4044 c -1.779193,0 -2.175298,-0.189149 -2.151474,-1.027129 0.02362,-0.830919 0.395077,-1.004455 2.151474,-1.004455 h 1.507818 v -1.45765 c 0,-1.35423 0.02508,-1.483021 0.35598,-1.813916 0.195903,-0.195903 0.49293,-0.356265 0.659813,-0.356266 z m 9.917584,5.792342 0.954572,0.04251 0.954574,0.04223 -0.0445,0.43534 c -0.151289,1.481225 -1.084842,3.802013 -2.079483,5.170226 -1.571535,2.161775 -3.620918,3.66386 -6.074917,4.45203 -0.518781,0.16662 -1.253417,0.346209 -1.632524,0.399345 l -0.689288,0.09665 v -1.003037 -1.003321 l 0.906957,-0.18366 c 1.948529,-0.394541 4.498726,-2.014981 5.654883,-3.593254 0.772277,-1.054241 1.372429,-2.324163 1.730303,-3.661275 z M 16.12019,27.89895 h 0.898171 l 0.237227,0.979515 c 0.382863,1.582238 1.386135,3.45019 2.441133,4.544425 0.505249,0.524039 1.243369,1.173621 1.640178,1.443764 0.974666,0.663544 2.753086,1.424271 3.595804,1.538144 l 0.689288,0.09325 v 0.997087 c 0,0.995081 -9.05e-4,0.997165 -0.399061,0.980364 -1.28557,-0.05423 -3.932455,-1.104284 -5.187798,-2.057944 -1.857005,-1.410728 -3.283045,-3.227262 -4.129778,-5.261206 -0.452765,-1.087588 -0.916737,-3.02371 -0.761844,-3.178604 0.04328,-0.04328 0.482671,-0.07879 0.97668,-0.07879 z" />
  </g>
</svg>
