<?xml version="1.0" encoding="UTF-8" standalone="no"?>
<svg
   xmlns:dc="http://purl.org/dc/elements/1.1/"
   xmlns:cc="http://creativecommons.org/ns#"
   xmlns:rdf="http://www.w3.org/1999/02/22-rdf-syntax-ns#"
   xmlns:svg="http://www.w3.org/2000/svg"
   xmlns="http://www.w3.org/2000/svg"
   xmlns:sodipodi="http://sodipodi.sourceforge.net/DTD/sodipodi-0.dtd"
   xmlns:inkscape="http://www.inkscape.org/namespaces/inkscape"
   width="25"
   height="25"
   viewBox="0 0 6.6145833 6.6145833"
   version="1.1"
   id="svg8"
   inkscape:version="1.0.2-2 (e86c870879, 2021-01-15)"
   sodipodi:docname="check.svg"
   inkscape:export-filename="C:\Users\riley\Documents\Tensile-Testing-Machine\Firmware\MaD_Firmware\Images\png\check.png"
   inkscape:export-xdpi="96.387939"
   inkscape:export-ydpi="96.387939">
  <defs
     id="defs2" />
  <sodipodi:namedview
     id="base"
     pagecolor="#ffffff"
     bordercolor="#666666"
     borderopacity="1.0"
     inkscape:pageopacity="0.0"
     inkscape:pageshadow="2"
     inkscape:zoom="16"
     inkscape:cx="15.225301"
     inkscape:cy="15.497108"
     inkscape:document-units="mm"
     inkscape:current-layer="layer1"
     inkscape:document-rotation="0"
     showgrid="false"
     units="px"
     inkscape:window-width="1920"
     inkscape:window-height="1017"
     inkscape:window-x="1912"
     inkscape:window-y="-8"
     inkscape:window-maximized="1" />
  <metadata
     id="metadata5">
    <rdf:RDF>
      <cc:Work
         rdf:about="">
        <dc:format>image/svg+xml</dc:format>
        <dc:type
           rdf:resource="http://purl.org/dc/dcmitype/StillImage" />
        <dc:title></dc:title>
      </cc:Work>
    </rdf:RDF>
  </metadata>
  <g
     inkscape:label="Layer 1"
     inkscape:groupmode="layer"
     id="layer1">
    <rect
       style="fill:#ff0000;fill-opacity:1;stroke-width:0.295416;stroke-linejoin:round;stroke-dasharray:0.295416, 1.18167"
       id="rect1988"
       width="6.6145835"
       height="6.6145835"
       x="0"
       y="0" />
    <path
       style="fill:#00ff00;stroke-width:0.0164133"
       d="M 2.5020623,6.4733967 C 2.31215,6.4338395 2.3093282,6.4313488 1.1835944,5.309538 0.47067658,4.5991047 0.10969408,4.2280135 0.08800508,4.1832688 0.04645928,4.0975589 0.04600418,3.9604117 0.08697378,3.8724944 0.13329158,3.7731005 0.70177158,3.2178242 0.78434068,3.1913246 0.87405438,3.1625322 1.0256932,3.1790138 1.0930948,3.2248833 1.122822,3.2451139 1.442584,3.5554866 1.8036771,3.9146008 L 2.46021,4.5675353 3.2562558,3.3916118 c 2.142917,-3.16552717 2.065081,-3.05304787 2.145178,-3.09998747 0.08763,-0.051356 0.206305,-0.066615 0.293718,-0.037767 0.06969,0.023 0.640933,0.4020159 0.724569,0.4807473 0.07595,0.071499 0.109348,0.1696101 0.09849,0.28935247 -0.0075,0.082772 -0.0223,0.1179734 -0.09825,0.2337846 C 5.9270128,2.0094192 3.0416786,6.2406396 2.9722314,6.3136948 2.8366355,6.4563351 2.6783202,6.5101099 2.5020623,6.4733967 Z"
       id="path2595" />
  </g>
</svg>
