<?xml version="1.0" encoding="UTF-8" standalone="no"?>
<svg
   width="200"
   height="200"
   viewBox="0 0 52.916665 52.916668"
   version="1.1"
   id="svg2643"
   inkscape:version="1.2 (dc2aedaf03, 2022-05-15)"
   sodipodi:docname="files.svg"
   shape-rendering="crispEdges"
   inkscape:export-filename="..\jpg\files.jpg"
   inkscape:export-xdpi="96"
   inkscape:export-ydpi="96"
   xmlns:inkscape="http://www.inkscape.org/namespaces/inkscape"
   xmlns:sodipodi="http://sodipodi.sourceforge.net/DTD/sodipodi-0.dtd"
   xmlns="http://www.w3.org/2000/svg"
   xmlns:svg="http://www.w3.org/2000/svg"
   xmlns:rdf="http://www.w3.org/1999/02/22-rdf-syntax-ns#"
   xmlns:cc="http://creativecommons.org/ns#"
   xmlns:dc="http://purl.org/dc/elements/1.1/">
  <defs
     id="defs2637" />
  <sodipodi:namedview
     id="base"
     pagecolor="#ffffff"
     bordercolor="#666666"
     borderopacity="1.0"
     inkscape:pageopacity="0.0"
     inkscape:pageshadow="2"
     inkscape:zoom="2.8"
     inkscape:cx="21.785714"
     inkscape:cy="89.642857"
     inkscape:document-units="mm"
     inkscape:current-layer="layer1"
     inkscape:document-rotation="0"
     showgrid="false"
     inkscape:window-width="1920"
     inkscape:window-height="1009"
     inkscape:window-x="1912"
     inkscape:window-y="-8"
     inkscape:window-maximized="1"
     units="px"
     inkscape:showpageshadow="2"
     inkscape:pagecheckerboard="0"
     inkscape:deskcolor="#d1d1d1" />
  <metadata
     id="metadata2640">
    <rdf:RDF>
      <cc:Work
         rdf:about="">
        <dc:format>image/svg+xml</dc:format>
        <dc:type
           rdf:resource="http://purl.org/dc/dcmitype/StillImage" />
        <dc:title />
      </cc:Work>
    </rdf:RDF>
  </metadata>
  <g
     inkscape:label="Layer 1"
     inkscape:groupmode="layer"
     id="layer1">
    <rect
       style="fill:#ff0000;fill-opacity:1;stroke:none;stroke-width:0.0738544;stroke-linejoin:round;stroke-miterlimit:4;stroke-dasharray:0.0738544, 0.0738544;stroke-dashoffset:0;stroke-opacity:1"
       id="rect3224"
       width="52.916668"
       height="52.916668"
       x="0"
       y="0" />
    <rect
       style="fill:#00000a;fill-opacity:1;stroke:none;stroke-width:0.079375;stroke-linejoin:round;stroke-miterlimit:4;stroke-dasharray:0.079375, 0.07937500000000000;stroke-dashoffset:0;stroke-opacity:1"
       id="rect3226"
       width="45.687428"
       height="45.603935"
       x="3.6226177"
       y="3.6546061" />
    <rect
       style="fill:none;fill-opacity:1;stroke:#000000;stroke-width:3.69493;stroke-linejoin:round;stroke-opacity:1"
       id="rect3222"
       width="49.221737"
       height="49.221733"
       x="1.8474654"
       y="1.8474654"
       ry="4.6508727" />
    <path
       id="path918"
       style="fill:#ffffff;fill-opacity:1;stroke-width:0.10465"
       d="M 34.246483,8.262827 25.745261,8.295119 C 18.041863,8.324347 17.2278,8.343389 17.072755,8.4984923 16.93617,8.6351254 16.890377,8.9756529 16.845058,10.186391 l -0.05683,1.516615 -5.453071,0.04476 c -5.8470957,0.04794 -5.8213745,0.04549 -6.0552158,0.588863 -0.088777,0.206279 -0.1321903,3.718572 -0.1622895,13.153472 -0.04298,13.469152 0.00655,16.964047 0.244046,17.289009 0.1276302,0.174593 0.4952861,0.191616 5.2995713,0.245478 8.036059,0.0901 18.015485,0.09201 25.481797,0.0051 7.731857,-0.08999 7.209047,-0.02329 7.520122,-0.959841 0.321219,-0.967095 4.098812,-15.832359 4.96191,-19.52571 0.409576,-1.75265 0.50448,-2.590281 0.30782,-2.717031 -0.07932,-0.05112 -1.297872,-0.116337 -2.708038,-0.14512 l -2.563938,-0.05232 -0.05253,-1.90742 c -0.06874,-2.505176 0.04825,-2.37011 -2.095668,-2.419023 l -1.566897,-0.03577 V 14.76934 c 0,-0.695456 -0.221999,-0.971758 -3.181826,-3.962618 z m -6.042139,1.7103821 c 2.454302,0.00173 4.433469,0.02146 4.499568,0.064174 0.100683,0.06508 0.156665,0.684603 0.215022,2.3808 0.08045,2.338449 0.137316,2.638752 0.536333,2.839874 0.08757,0.04415 1.195265,0.10393 2.461539,0.132856 l 2.302312,0.05274 0.0282,2.119174 0.02842,2.119173 h -9.84267 c -8.670575,0 -9.849885,-0.01892 -9.903173,-0.157792 -0.0943,-0.245716 0.0041,-9.337248 0.102,-9.435312 0.07182,-0.07188 5.481955,-0.1185899 9.572461,-0.1156823 z m 6.556399,1.5376689 h 2.09e-4 c 0.128416,0.01584 0.441029,0.277418 1.089839,0.900159 0.583021,0.559599 1.059994,1.058754 1.059994,1.109254 h 2.1e-4 c 0,0.0505 -0.51802,0.09198 -1.151157,0.09198 h -1.151156 l 0.0016,-0.968018 c 8.31e-4,-0.53241 0.04194,-1.031566 0.09116,-1.109255 0.0084,-0.01317 0.02024,-0.02138 0.03619,-0.02392 0.0069,-0.0011 0.01464,-0.0012 0.0231,-2.08e-4 z m -14.384546,0.215229 v 0.944307 0.944103 l 4.42128,-0.02739 4.421692,-0.02718 v -0.889533 -0.88953 L 24.797477,11.75349 Z M 6.9807198,13.61227 h 4.9202152 4.920207 l -0.02779,3.008704 -0.0278,3.008703 -2.720912,0.05355 c -1.496503,0.02953 -2.797254,0.09114 -2.890769,0.136944 -0.391673,0.191866 -0.774407,1.509176 -3.0160597,10.379209 -0.5236614,2.072084 -0.9951049,3.861605 -1.0475286,3.976722 -0.058136,0.127669 -0.09809,-3.841826 -0.1024003,-10.177267 z m 13.3954772,1.674408 v 0.871952 c 0,0.479651 0.01958,0.891712 0.04353,0.915692 0.02397,0.02398 2.425713,0.04553 5.337179,0.04763 l 5.293644,0.0037 v -0.919576 -0.919372 h -5.33718 z m 19.56945,1.883711 h 0.94533 0.945126 l -0.02943,1.229644 -0.02963,1.229644 -0.841903,0.03005 c -0.463123,0.01653 -0.875187,-0.0032 -0.915693,-0.04374 -0.0405,-0.0405 -0.07379,-0.607369 -0.07379,-1.259691 z m -27.79331,4.290673 H 26.02283 c 7.628811,9.2e-5 15.464859,0.03137 17.41328,0.06949 l 3.542585,0.06929 -0.06826,0.427596 c -0.0607,0.380452 -4.390157,17.842555 -4.666147,18.820136 l -0.110784,0.392439 H 24.65481 c -16.596837,0 -17.4762141,-0.0093 -17.4259505,-0.183139 0.029108,-0.100727 0.9800795,-3.879921 2.1132434,-8.398206 1.1331651,-4.518289 2.2291781,-8.886141 2.4353741,-9.706341 z" />
  </g>
</svg>
