<?xml version="1.0" encoding="UTF-8" standalone="no"?>
<!-- Created with Inkscape (http://www.inkscape.org/) -->

<svg
   width="100"
   height="100"
   viewBox="0 0 26.458333 26.458333"
   version="1.1"
   id="svg412"
   xml:space="preserve"
   inkscape:version="1.2 (dc2aedaf03, 2022-05-15)"
   sodipodi:docname="file.svg"
   inkscape:export-filename="..\jpg\file.jpg"
   inkscape:export-xdpi="96"
   inkscape:export-ydpi="96"
   xmlns:inkscape="http://www.inkscape.org/namespaces/inkscape"
   xmlns:sodipodi="http://sodipodi.sourceforge.net/DTD/sodipodi-0.dtd"
   xmlns="http://www.w3.org/2000/svg"
   xmlns:svg="http://www.w3.org/2000/svg"><sodipodi:namedview
     id="namedview414"
     pagecolor="#ffffff"
     bordercolor="#000000"
     borderopacity="0.25"
     inkscape:showpageshadow="2"
     inkscape:pageopacity="0.0"
     inkscape:pagecheckerboard="0"
     inkscape:deskcolor="#d1d1d1"
     inkscape:document-units="mm"
     showgrid="false"
     shape-rendering="crispEdges"
     inkscape:zoom="5.9081369"
     inkscape:cx="48.407815"
     inkscape:cy="57.547752"
     inkscape:window-width="1920"
     inkscape:window-height="1009"
     inkscape:window-x="1912"
     inkscape:window-y="-8"
     inkscape:window-maximized="1"
     inkscape:current-layer="layer1" /><defs
     id="defs409" /><g
     inkscape:label="Layer 1"
     inkscape:groupmode="layer"
     id="layer1"><path
       style="fill:#000000;stroke-width:0.118657"
       d="M 3.416355,26.112742 C 2.6909688,25.696677 2.1171691,25.068643 1.8120273,24.35677 1.5959012,23.852569 1.5864592,23.385352 1.5875702,13.250107 L 1.5887702,2.6697875 1.8658411,2.0765014 C 2.2703045,1.210433 2.6912768,0.7713132 3.5086666,0.3628572 L 4.2348048,0 l 7.0707892,0.0088 7.070789,0.0088 3.174068,3.6699833 3.174068,3.6699838 -0.0026,8.2759269 c -0.0025,7.790131 -0.0155,8.304253 -0.221739,8.758323 -0.309522,0.681471 -0.903697,1.318312 -1.605634,1.720925 l -0.602537,0.345591 H 13.155439 4.0188696 L 3.41635,26.112742 Z m 18.994316,-0.621324 c 0.483738,-0.268891 1.204054,-1.033728 1.357488,-1.44139 0.08384,-0.222742 0.125722,-2.917714 0.125722,-8.088747 V 8.2065665 L 21.77865,8.1672942 C 19.68998,8.1285129 19.657117,8.1238448 19.161395,7.7955238 18.611566,7.4313681 17.995522,6.6360598 17.734978,5.9540296 17.620307,5.6538564 17.551583,4.7848754 17.514898,3.17123 L 17.461558,0.824899 10.790778,0.857414 4.1199982,0.889929 3.6254872,1.2172495 C 3.3535062,1.3972758 2.9836827,1.7671251 2.8036574,2.0391368 L 2.4763387,2.5337037 2.4412288,12.865595 c -0.01931,5.682541 -0.0034,10.554242 0.03541,10.826004 0.04942,0.346324 0.2143831,0.657557 0.5515158,1.040562 0.5599888,0.636183 0.8158038,0.794814 1.4653482,0.908661 0.261044,0.04575 4.319105,0.07538 9.0179132,0.06583 7.733877,-0.01571 8.577012,-0.03611 8.899256,-0.215231 z M 6.5699945,18.688513 v -0.415301 h 6.5854495 6.58545 v 0.415301 0.4153 h -6.58545 -6.5854495 z m 0,-3.381731 V 14.95081 h 6.5854495 6.58545 v 0.355972 0.355971 h -6.58545 -6.5854495 z m 0,-3.322402 v -0.355972 h 6.5854495 6.58545 v 0.355972 0.355971 h -6.58545 -6.5854495 z m 0,-3.2630742 V 8.3060054 h 3.4869065 3.486907 l 0.05234,0.356647 c 0.02879,0.196156 0.02595,0.3830413 -0.0063,0.4153005 -0.03226,0.032258 -1.624924,0.058653 -3.539253,0.058653 H 6.5699965 Z m -0.02252,-3.3224022 -0.04848,-0.4153003 h 3.5224095 3.522409 l 0.05234,0.356647 c 0.02879,0.1961558 0.02595,0.383041 -0.0063,0.4153003 -0.03226,0.032259 -1.619076,0.058653 -3.526266,0.058653 H 6.5959574 Z M 22.943749,6.6151402 C 21.280175,4.6081164 18.380707,1.3052295 18.282397,1.3052295 c -0.206888,0 0.03522,3.7833867 0.28505,4.4544833 0.21034,0.5650143 0.898931,1.3718368 1.292104,1.5139613 0.09789,0.035389 0.970191,0.068554 1.938442,0.073706 l 1.760456,0.00937 z"
       id="path496" /></g></svg>
