<?xml version="1.0" encoding="UTF-8" standalone="no"?>
<!-- Created with Inkscape (http://www.inkscape.org/) -->

<svg
   width="100"
   height="100"
   viewBox="0 0 26.458333 26.458333"
   version="1.1"
   id="svg515"
   xml:space="preserve"
   inkscape:version="1.2 (dc2aedaf03, 2022-05-15)"
   sodipodi:docname="folder.svg"
   xmlns:inkscape="http://www.inkscape.org/namespaces/inkscape"
   xmlns:sodipodi="http://sodipodi.sourceforge.net/DTD/sodipodi-0.dtd"
   xmlns="http://www.w3.org/2000/svg"
   xmlns:svg="http://www.w3.org/2000/svg"><sodipodi:namedview
     id="namedview517"
     pagecolor="#ffffff"
     bordercolor="#000000"
     borderopacity="0.25"
     inkscape:showpageshadow="2"
     inkscape:pageopacity="0.0"
     inkscape:pagecheckerboard="0"
     inkscape:deskcolor="#d1d1d1"
     inkscape:document-units="mm"
     showgrid="false"
     shape-rendering="crispEdges"
     inkscape:zoom="5.9081369"
     inkscape:cx="66.433802"
     inkscape:cy="53.3163"
     inkscape:window-width="1920"
     inkscape:window-height="1009"
     inkscape:window-x="1912"
     inkscape:window-y="-8"
     inkscape:window-maximized="1"
     inkscape:current-layer="layer1" /><defs
     id="defs512" /><g
     inkscape:label="Layer 1"
     inkscape:groupmode="layer"
     id="layer1"><path
       id="path601"
       style="fill:#000000;stroke-width:0.0587962"
       d="M 0.74228693,23.719471 C 0.44305896,23.612811 0.13087099,23.304446 0.05854699,23.044104 0.022017,22.912619 5.3699995e-4,20.19315 3.2699997e-4,15.675373 3.7999996e-5,9.3642339 0.010727,8.4893649 0.09043699,8.2985889 0.21225998,8.0070259 0.33761897,7.8759049 0.61736094,7.7474469 0.84321392,7.6437349 1.3436419,7.6394489 13.229165,7.6394489 c 11.885523,0 12.385952,0.0043 12.611803,0.107998 0.279742,0.128458 0.405102,0.259579 0.526925,0.551142 0.0797,0.190757 0.09044,1.065459 0.09044,7.3699611 0,5.289238 -0.01791,7.213314 -0.06875,7.382972 -0.08429,0.281317 -0.43032,0.606535 -0.73554,0.691289 -0.155183,0.04309 -4.006393,0.06168 -12.454277,0.06013 -10.2504141,-0.0018 -12.26650309,-0.0154 -12.45747707,-0.08347 z M 26.164345,6.6119819 C 25.899781,6.4903479 25.898847,6.4903379 13.331786,6.4751059 0.87988391,6.4600159 0.76056992,6.4609659 0.41315596,6.5779999 0.22029698,6.6429699 0.048439,6.6961259 0.03125,6.6961259 0.01406,6.6961259 0,5.9824589 0,5.1101989 0,3.6113199 0.0069,3.5101069 0.12537899,3.2662049 0.28363597,2.9404639 0.61839194,2.7169189 1.0207319,2.6683009 c 0.166202,-0.02008 1.705233,-0.02824 3.4200689,-0.01812 l 3.1178836,0.0184 0.282602,0.146991 c 0.220675,0.11478 0.400685,0.300139 0.8214679,0.845877 0.296376,0.384387 0.644699,0.773806 0.7740499,0.865375 0.507198,0.359049 0.199876,0.346618 8.5695558,0.346618 7.481477,0 7.638033,0.0023 7.860793,0.115952 0.445653,0.227356 0.607671,0.595262 0.578937,1.314629 l -0.01715,0.429603 z" /></g></svg>
