<?xml version="1.0" encoding="UTF-8" standalone="no"?>
<!-- Created with Inkscape (http://www.inkscape.org/) -->

<svg
   width="25"
   height="25"
   viewBox="0 0 6.6145832 6.6145833"
   version="1.1"
   id="svg5"
   xml:space="preserve"
   inkscape:version="1.2 (dc2aedaf03, 2022-05-15)"
   sodipodi:docname="garbage.svg"
   inkscape:export-filename="..\jpg\garbage.jpg"
   inkscape:export-xdpi="96"
   inkscape:export-ydpi="96"
   xmlns:inkscape="http://www.inkscape.org/namespaces/inkscape"
   xmlns:sodipodi="http://sodipodi.sourceforge.net/DTD/sodipodi-0.dtd"
   xmlns="http://www.w3.org/2000/svg"
   xmlns:svg="http://www.w3.org/2000/svg"><sodipodi:namedview
     id="namedview7"
     pagecolor="#ffffff"
     bordercolor="#000000"
     borderopacity="0.25"
     inkscape:showpageshadow="2"
     inkscape:pageopacity="0.0"
     inkscape:pagecheckerboard="0"
     inkscape:deskcolor="#d1d1d1"
     inkscape:document-units="mm"
     showgrid="false"
     shape-rendering="crispEdges"
     inkscape:zoom="23.632548"
     inkscape:cx="11.044091"
     inkscape:cy="12.694357"
     inkscape:window-width="1920"
     inkscape:window-height="1009"
     inkscape:window-x="1912"
     inkscape:window-y="-8"
     inkscape:window-maximized="1"
     inkscape:current-layer="layer1" /><defs
     id="defs2"><clipPath
       clipPathUnits="userSpaceOnUse"
       id="clipPath291"><rect
         style="fill:#000000;stroke-width:0.264583"
         id="rect293"
         width="47.201145"
         height="46.484619"
         x="-19.256636"
         y="-20.689688" /></clipPath></defs><g
     inkscape:label="Layer 1"
     inkscape:groupmode="layer"
     id="layer1"><path
       id="path341"
       style="fill:#000000;stroke-width:0.0487249"
       d="M 1.0335505,6.5266616 C 0.80222876,6.397733 0.67034188,6.2213517 0.60864436,5.9584062 0.57438999,5.8124194 0.55389931,4.9684063 0.55389931,3.7034695 V 1.6818488 l -0.2675686,-0.01408 -0.2675687,-0.01408 -0.01567965,-0.2517961 c -0.0105798,-0.1698984 0.00599558,-0.2643614 0.05096575,-0.2904286 0.03665512,-0.021248 0.3991942,-0.0391 0.80564371,-0.039672 L 1.5986901,1.0707521 1.7713615,0.67720537 C 2.0581535,0.02355761 2.112047,0 3.3206279,0 4.4976295,0 4.5065602,0.003854 4.8088626,0.64225847 l 0.203211,0.42914633 h 0.7461499 c 0.8564999,0 0.8751711,0.00784 0.8507745,0.3573968 L 6.5933023,1.6536886 6.300251,1.6676596 6.0071999,1.6816306 V 3.835531 c 0,2.1411474 -6.947e-4,2.1551299 -0.1146724,2.3613723 C 5.8294585,6.3110113 5.699927,6.4517075 5.6046814,6.5095605 5.431848,6.61454 5.4273287,6.6147469 3.3112367,6.6145733 1.3245808,6.6143797 1.1810466,6.6088689 1.0335502,6.5266618 Z M 5.3459113,5.8896825 c 0.029556,-0.071056 0.049704,-0.949055 0.049704,-2.1660957 V 1.67698 H 3.3060328 1.2164499 v 2.075993 c 0,1.3419523 0.018654,2.1078522 0.052759,2.1660957 0.050777,0.086717 0.1274322,0.090103 2.0398786,0.090103 H 5.2962071 Z M 1.8624125,5.2056203 C 1.7832972,5.1526903 1.7766134,5.0265744 1.7889648,3.8197848 l 0.013587,-1.3276074 0.2460456,-0.014346 c 0.1376809,-0.00803 0.2779711,0.00987 0.318534,0.040641 0.059437,0.045085 0.072489,0.2840294 0.072489,1.32698 0,1.0942471 -0.011194,1.2822221 -0.080088,1.3451945 -0.095951,0.087699 -0.375814,0.096128 -0.4971199,0.014973 z m 1.2007376,0.019378 C 3.0130311,5.195922 3.0016656,4.887035 3.0121849,3.8398772 l 0.013538,-1.3476993 h 0.28031 0.2803094 l 0.013588,1.3276074 c 0.012349,1.2067897 0.00566,1.3329057 -0.073448,1.3858356 -0.097612,0.065304 -0.3649048,0.076483 -0.4633322,0.019377 z m 1.1984846,-0.011464 c -0.081505,-0.043389 -0.08919,-0.1573334 -0.08919,-1.3223805 0,-0.701195 0.013921,-1.3080579 0.030936,-1.3485841 0.044087,-0.105008 0.5565929,-0.105008 0.6006795,0 0.017013,0.040526 0.030936,0.6476931 0.030936,1.3492593 0,1.2134495 -0.0048,1.2779245 -0.09858,1.3237977 -0.1244293,0.060866 -0.3584554,0.059835 -0.474781,-0.00212 z M 4.2060875,0.82684507 4.0888211,0.58228577 H 3.3060328 2.5232442 L 2.4059778,0.82684507 2.288711,1.0714043 h 1.0173218 1.0173214 z" /></g></svg>
