<?xml version="1.0" encoding="UTF-8" standalone="no"?>
<svg
   xmlns:dc="http://purl.org/dc/elements/1.1/"
   xmlns:cc="http://creativecommons.org/ns#"
   xmlns:rdf="http://www.w3.org/1999/02/22-rdf-syntax-ns#"
   xmlns:svg="http://www.w3.org/2000/svg"
   xmlns="http://www.w3.org/2000/svg"
   xmlns:sodipodi="http://sodipodi.sourceforge.net/DTD/sodipodi-0.dtd"
   xmlns:inkscape="http://www.inkscape.org/namespaces/inkscape"
   width="200"
   height="200"
   viewBox="0 0 52.916665 52.916668"
   version="1.1"
   id="svg2052"
   shape-rendering="crispEdges"
   inkscape:version="1.0.2-2 (e86c870879, 2021-01-15)"
   sodipodi:docname="manual.svg"
   inkscape:export-filename="C:\Users\riley\Documents\Propeller\MaD_Firmware\Images\manual.png"
   inkscape:export-xdpi="96"
   inkscape:export-ydpi="96">
  <defs
     id="defs2046" />
  <sodipodi:namedview
     id="base"
     pagecolor="#ffffff"
     bordercolor="#666666"
     borderopacity="1.0"
     inkscape:pageopacity="0.0"
     inkscape:pageshadow="2"
     inkscape:zoom="2.8"
     inkscape:cx="95.705267"
     inkscape:cy="91.620052"
     inkscape:document-units="mm"
     inkscape:current-layer="layer1"
     inkscape:document-rotation="0"
     showgrid="false"
     units="px"
     inkscape:window-width="1920"
     inkscape:window-height="1017"
     inkscape:window-x="-8"
     inkscape:window-y="-8"
     inkscape:window-maximized="1" />
  <metadata
     id="metadata2049">
    <rdf:RDF>
      <cc:Work
         rdf:about="">
        <dc:format>image/svg+xml</dc:format>
        <dc:type
           rdf:resource="http://purl.org/dc/dcmitype/StillImage" />
        <dc:title></dc:title>
      </cc:Work>
    </rdf:RDF>
  </metadata>
  <g
     inkscape:label="Layer 1"
     inkscape:groupmode="layer"
     id="layer1">
    <rect
       style="fill:#ff0000;fill-opacity:1;stroke:none;stroke-width:3.40932;stroke-linejoin:round;stroke-miterlimit:4;stroke-dasharray:none;stroke-opacity:1"
       id="rect2633"
       width="52.916668"
       height="52.916668"
       x="0"
       y="0" />
    <rect
       style="fill:#ffffff;fill-opacity:1;stroke:none;stroke-width:3.96875;stroke-linejoin:round;stroke-miterlimit:4;stroke-dasharray:none;stroke-opacity:1"
       id="rect2635"
       width="41.388393"
       height="44.506695"
       x="5.0081844"
       y="3.96875" />
    <path
       style="fill:#000000;stroke-width:1.32292;stroke-miterlimit:4;stroke-dasharray:none"
       d="M 4.7392943,52.153072 C 2.7406353,51.228935 1.4827993,49.919506 0.63037246,47.875615 0.08309786,46.563399 -0.00732594,43.476807 4.4065801e-4,26.372974 0.00883066,7.8418234 0.06444566,6.2832374 0.77170136,4.7479974 1.6941413,2.7456694 3.0011693,1.4855234 5.0413153,0.63153037 6.3511273,0.08325137 9.4320623,-0.00733863 26.504543,4.4137433e-4 45.001725,0.00884137 46.557455,0.06456137 48.089881,0.77311937 c 1.998661,0.92413403 3.256496,2.23356203 4.108922,4.27745503 0.957152,2.294992 0.957152,40.5300486 0,42.8250406 -0.852426,2.043891 -2.110261,3.35332 -4.108922,4.277457 -1.533682,0.709136 -3.079415,0.763594 -21.675294,0.763594 -18.5958777,0 -20.1416127,-0.05446 -21.6752927,-0.763594 z M 32.486685,44.039617 c 2.448897,-0.728581 4.749135,-3.001463 5.514415,-5.448836 0.308736,-0.987341 0.567726,-5.812078 0.6902,-12.857719 0.172757,-9.938422 0.116217,-11.399402 -0.476212,-12.305222 -0.720786,-1.102079 -2.217716,-1.36313 -3.047811,-0.531511 -0.329685,0.33029 -0.495435,2.138838 -0.495435,5.405839 0,4.854743 -0.01036,4.90802 -0.928941,4.777322 -0.914083,-0.13006 -0.93263,-0.251263 -1.159584,-7.57735 -0.126854,-4.094846 -0.266195,-7.4851576 -0.309647,-7.5340276 -0.04345,-0.04886 -0.463039,-0.294759 -0.932416,-0.546423 -0.663855,-0.355937 -1.076518,-0.311116 -1.857882,0.201793 -0.998763,0.655617 -1.004471,0.699264 -1.004471,7.6813826 v 7.02202 h -1.032156 -1.032158 v -7.265557 c 0,-4.217347 -0.179307,-7.6012126 -0.427388,-8.0656076 -0.51713,-0.968041 -2.155581,-1.048596 -3.052454,-0.150074 -0.542946,0.543943 -0.648785,1.895631 -0.648785,8.2857466 0,7.540575 -0.01159,7.640073 -0.928941,7.98088 l -0.928941,0.345109 -0.206432,-6.208473 c -0.168931,-5.080649 -0.326073,-6.283896 -0.865039,-6.62366 -0.993572,-0.6263446 -2.715291,-0.02626 -3.002185,1.046374 -0.137571,0.514344 -0.252665,4.627941 -0.255766,9.141326 l -0.0056,8.206154 -1.634909,-2.072114 c -1.832151,-2.322101 -2.711565,-2.763064 -4.302143,-2.157216 -1.4643637,0.557772 -2.1990027,2.206924 -1.6418497,3.685702 0.457036,1.213051 7.4255037,11.083327 9.1909917,13.018305 1.204936,1.320609 2.947347,2.333115 4.787282,2.781869 2.215377,0.540322 7.830555,0.407711 9.994294,-0.236032 z"
       id="path2629" />
    <rect
       style="fill:none;stroke:#000000;stroke-width:3.45359;stroke-linejoin:round;stroke-miterlimit:4;stroke-dasharray:none;stroke-opacity:1;fill-opacity:1"
       id="rect2631"
       x="1.7267969"
       y="1.7267952"
       ry="5"
       height="49.463081"
       width="49.463074" />
  </g>
</svg>
