<?xml version="1.0" encoding="UTF-8" standalone="no"?>
<svg
   xmlns:dc="http://purl.org/dc/elements/1.1/"
   xmlns:cc="http://creativecommons.org/ns#"
   xmlns:rdf="http://www.w3.org/1999/02/22-rdf-syntax-ns#"
   xmlns:svg="http://www.w3.org/2000/svg"
   xmlns="http://www.w3.org/2000/svg"
   xmlns:sodipodi="http://sodipodi.sourceforge.net/DTD/sodipodi-0.dtd"
   xmlns:inkscape="http://www.inkscape.org/namespaces/inkscape"
   width="200"
   height="200"
   viewBox="0 0 52.916665 52.916668"
   version="1.1"
   id="svg2603"
   inkscape:version="1.0.2-2 (e86c870879, 2021-01-15)"
   sodipodi:docname="status.svg"
   inkscape:export-filename="C:\Users\riley\Documents\Tensile-Testing-Machine\Firmware\MaD_Firmware\Images\png\status.png"
   inkscape:export-xdpi="96"
   inkscape:export-ydpi="96">
  <defs
     id="defs2597" />
  <sodipodi:namedview
     id="base"
     pagecolor="#ffffff"
     bordercolor="#666666"
     borderopacity="1.0"
     inkscape:pageopacity="0.0"
     inkscape:pageshadow="2"
     inkscape:zoom="1.979899"
     inkscape:cx="99.286462"
     inkscape:cy="119.67035"
     inkscape:document-units="mm"
     inkscape:current-layer="layer1"
     inkscape:document-rotation="0"
     showgrid="false"
     units="px"
     inkscape:window-width="1267"
     inkscape:window-height="1040"
     inkscape:window-x="1946"
     inkscape:window-y="0"
     inkscape:window-maximized="0" />
  <metadata
     id="metadata2600">
    <rdf:RDF>
      <cc:Work
         rdf:about="">
        <dc:format>image/svg+xml</dc:format>
        <dc:type
           rdf:resource="http://purl.org/dc/dcmitype/StillImage" />
        <dc:title></dc:title>
      </cc:Work>
    </rdf:RDF>
  </metadata>
  <g
     inkscape:label="Layer 1"
     inkscape:groupmode="layer"
     id="layer1">
    <rect
       style="fill:#ff0000;fill-opacity:1;stroke:none;stroke-width:3.40932;stroke-linejoin:round;stroke-miterlimit:4;stroke-dasharray:none;stroke-opacity:1"
       id="rect2633"
       width="52.916668"
       height="52.916668"
       x="-1.110223e-16"
       y="0" />
    <rect
       style="fill:#000000;fill-opacity:1;stroke:#000000;stroke-width:3.45359;stroke-linejoin:round;stroke-miterlimit:4;stroke-dasharray:none;stroke-opacity:1"
       id="rect2631"
       x="1.726795"
       y="1.726795"
       ry="5"
       height="49.463081"
       width="49.463074" />
    <path
       style="fill:#ffffff;stroke-width:0.25247"
       d="M 22.875438,51.434467 C 19.10898,50.835564 15.229685,49.293639 12.032985,47.124865 9.9722027,45.72674 7.1700411,42.925756 5.7713295,40.865842 4.1807264,38.523323 2.5628261,34.949232 1.9226658,32.363784 1.1746586,29.342774 1.1173707,23.988898 1.8012871,21.020208 4.0080905,11.441092 11.445349,4.0069605 21.028498,1.8010853 c 2.96994,-0.6836277 8.326069,-0.6263646 11.34835,0.1213282 4.330293,1.0712856 8.734465,3.5586098 11.895158,6.7179706 3.158734,3.1574049 5.64547,7.5553899 6.723005,11.8901499 0.798319,3.211533 0.798319,8.621719 0,11.83325 -1.077535,4.334762 -3.564271,8.732745 -6.723005,11.890155 -3.133572,3.13225 -7.579083,5.655156 -11.764728,6.676689 -2.441606,0.595892 -7.41637,0.856119 -9.63184,0.503839 z M 30.53333,48.259718 C 39.529577,46.554887 46.573923,39.513506 48.279471,30.521042 49.635891,23.369343 47.333375,15.962167 42.140258,10.771234 32.238137,0.8732791 15.81019,2.4840392 8.0258419,14.116152 2.1119941,22.953186 3.2560249,34.607065 10.77521,42.123087 c 5.192536,5.190352 12.604212,7.492325 19.75812,6.136631 z m -5.294801,-8.11897 c -0.284673,-0.24295 -1.961994,-3.735762 -3.727381,-7.761804 -1.765389,-4.02604 -3.292091,-7.413671 -3.392673,-7.528067 -0.100582,-0.114395 -0.709418,0.583705 -1.352966,1.551335 -0.64355,0.967628 -1.348972,1.827939 -1.567606,1.911802 -0.218634,0.08385 -2.041096,0.152477 -4.049918,0.152477 -3.5411615,0 -3.6712792,-0.01888 -4.2722302,-0.619567 -0.8200276,-0.819682 -0.8200276,-1.979843 0,-2.799527 0.5853093,-0.585064 0.7795215,-0.619568 3.4872952,-0.619568 h 2.867467 l 1.851091,-2.713475 c 1.0181,-1.492413 2.027328,-2.85546 2.242728,-3.028997 0.559761,-0.450969 1.667578,-0.389442 2.272453,0.126209 0.284986,0.242949 1.793265,3.338206 3.351728,6.878346 1.558463,3.540138 2.900849,6.516613 2.983077,6.614384 0.08223,0.09777 1.399012,-4.330976 2.92618,-9.841661 2.950646,-10.647199 3.162328,-11.160456 4.602926,-11.160456 1.373191,0 1.661667,0.485278 4.118121,6.927568 l 2.363338,6.198082 h 2.738863 c 2.57123,0 2.776799,0.03792 3.35869,0.619568 0.820029,0.819684 0.820029,1.979845 0,2.799527 -0.602337,0.602082 -0.725467,0.619567 -4.362958,0.619567 -2.857631,0 -3.866544,-0.0864 -4.264821,-0.365253 -0.327253,-0.229121 -1.076232,-1.825133 -2.009539,-4.282156 -0.818314,-2.154297 -1.556887,-3.835727 -1.641273,-3.736513 -0.08438,0.09922 -1.324506,4.383124 -2.755826,9.519796 -1.431321,5.136673 -2.711686,9.582451 -2.845258,9.879508 -0.47194,1.04956 -2.047404,1.404868 -2.921508,0.658875 z"
       id="path3180" />
  </g>
</svg>
